<?xml version="1.0" encoding="UTF-8"?>
<!DOCTYPE svg PUBLIC "-//W3C//DTD SVG 1.1//EN" "http://www.w3.org/Graphics/SVG/1.1/DTD/svg11.dtd">
<!-- Creator: CorelDRAW 2021 (64-Bit) -->
<svg xmlns="http://www.w3.org/2000/svg" xml:space="preserve" width="84.6721mm" height="84.6667mm" version="1.1" style="shape-rendering:geometricPrecision; text-rendering:geometricPrecision; image-rendering:optimizeQuality; fill-rule:evenodd; clip-rule:evenodd"
viewBox="0 0 4969.62 4969.3"
 xmlns:xlink="http://www.w3.org/1999/xlink"
 xmlns:xodm="http://www.corel.com/coreldraw/odm/2003">
 <defs>
  <style type="text/css">
   <![CDATA[
    .fil0 {fill:#A6FCEE}
   ]]>
  </style>
 </defs>
 <g id="Capa_x0020_1">
  <metadata id="CorelCorpID_0Corel-Layer"/>
  <path class="fil0" d="M1353.06 4969.3l19.26 0c3.68,-87.76 117.38,-92.32 132.04,0l17.55 0c-2.99,-80.19 -87.96,-113.62 -145.15,-59.34 -21.36,20.27 -18.73,25.2 -23.71,59.34zm624.72 -706.85l-31.99 -22.14 111.5 -150.5c11.22,4.64 22.33,13.32 33.81,20.23l-113.32 152.41zm73.18 -217.26c2.64,27.37 -42.89,77.35 -69.09,113.53l-59.4 80.14c-12.68,9.33 -27.46,4.31 -32.03,-7.21 -7.18,-18.11 87.58,-134.82 109.27,-165.13 18.02,-25.18 22.51,-39.59 51.25,-21.34zm-538.99 -131.43c64.81,-19.61 47.31,-7.92 104.16,31.06l289.28 215.93 -22.06 31.89 -371.38 -278.88zm49.74 -76.42c60.49,-11.17 47.27,-10.32 112.91,39.14l282.87 213.25c-8.65,12.78 -29.82,44.38 -39.35,53.62l-285.87 -210.39c-68.19,-50.69 -64.72,-38.81 -70.57,-95.62zm220.44 95c-31.22,-22.72 -64.24,-46.77 -94.55,-69.69 -74.28,-56.19 -63.7,-38.77 -66.55,-95.99 17.65,5.11 330.64,241.99 373.64,274.29l-26.22 32.59 -186.33 -141.2zm-286.4 -32.16c-8.86,-10.16 -40.77,-69.03 -34.31,-83.7 8.94,-20.3 43.8,-49.87 52.78,-76.13l89.67 12.71c-0.02,64.5 16.16,64.73 -59.97,66.81 0.08,30.82 3.56,38.57 7.1,66.34 -22.16,4.7 -34.45,12.39 -55.26,13.97zm-49.42 -99.83c-7.17,-22.58 -24.97,-55.09 -33.84,-75.4l82.13 12.53c-7.04,13.33 -38.54,55.93 -48.29,62.87zm-58.3 -91.65l92.93 206.52c14.91,20.54 381.11,284.93 385.44,290.45 10,12.75 -1.51,33.21 17,48.37 23.42,19.18 36.99,0.57 52.28,4.01 11.05,2.49 20.18,20.5 47.07,27.33 18.99,-15.35 116.18,-150.07 130.06,-175.76 -10.49,-17.27 -34.88,-25.6 -40.72,-38.18 -9.32,-20.08 8.69,-30.59 -20.95,-49.88 -28.46,-6.86 -35,6.74 -52.71,-2.26l-248.21 -184.42c-30.6,-22.57 -112.65,-94.37 -148.18,-100.83 -31.64,-5.76 -192.37,-30.77 -214.01,-25.35zm1177.43 -344.48c-8.42,-59.12 81.57,-68.78 88.09,-14.64 5.53,45.87 -50.61,72.98 -80.3,31.07 -3.2,-4.53 -6.98,-10.79 -7.79,-16.42zm29.75 -65.91c-91.82,31.38 -40.31,140.96 35.06,118.07 74.17,-22.53 43.26,-144.84 -35.06,-118.07zm116.06 -175.63c-15.7,-13.99 -17.97,-6.01 -33.48,7.3 -103.9,89.1 -234.07,190.92 -330.42,275.85l-89.64 74.29c-13.97,11.3 -30.07,18.16 -24.22,31.22 6.33,14.15 22.14,-3.23 30.48,-9.92 54.81,-44.05 439.9,-360.01 447.28,-378.73zm155.82 162.03l-480.76 403.24c-55.14,41.82 -86.09,-27.04 -157.43,-112.73l-135.52 -162.33c-49.35,-59.49 -23.54,-68.48 85.14,-155.88l217 -180.52c35.86,-30.77 72.52,-58.21 108.88,-89.97 42.41,-37.05 79.54,-80.17 116.79,-41.91l225.54 271.02c11.53,13.57 38.95,41.01 20.35,69.08zm21.56 -9.94c8.73,-34.06 -11.01,-53.36 -25.51,-70.11l-139.94 -168.43c-115.35,-138.52 -110.5,-164.86 -229.89,-66.19l-336.24 280.28c-155.1,125.43 -143.73,97.74 61.88,344.65 122.19,146.54 109.7,163.91 232.26,64.15l336.85 -279.78c43.7,-36.13 90.28,-64.37 100.59,-104.57zm931.37 -281.89c18.01,-9.38 23.4,-6.54 17.72,-20.89 -0.91,-0.59 -1.26,-15.68 -16.66,-1.32 -8.17,7.62 -3.3,14.14 -1.06,22.22zm-47.37 22.53c18.28,2 7.96,3.25 22.2,-5.69 -0.54,-14.85 2.62,-1.92 -4.7,-16.77 -24.28,10.37 -19.63,0.04 -17.5,22.47zm600.86 -102.79c-6.85,-18.59 -15.83,-43.3 -22.67,-60.23l411.59 -162.85c6.13,20.11 18.58,43.88 21.77,65.15l-410.7 157.93zm-30.36 -82.05c-11.52,-20.48 -19.74,-39.12 -24.46,-63.24l412.13 -157.13c7.06,18.57 14.75,44.87 23.52,62.61 -57.96,16.32 -381.07,155.69 -411.19,157.76zm-29.82 -77.5l-26.66 -63.18 309.7 -120.57c34.36,-14.3 69.48,-29.96 103.28,-39.64 7.34,22.22 17.03,39.51 22.67,63.53 -106.69,32.85 -297.83,123.17 -408.99,159.86zm-33.88 -80.79c-8.33,-21.22 -16.24,-40.76 -24.11,-62.14 100.47,-35.46 208.74,-85.84 305.68,-120.53 33.2,-11.88 70.39,-30.74 105.12,-40.69l23.93 60.54 -410.63 162.83zm-50.6 -251.03c12.44,14.09 81.27,125.07 88.74,144.44l-39.05 13.08c-30.53,-41.58 -64.87,-87.42 -92.9,-129.78l43.21 -27.74zm-141.42 -156.43c41.81,47.02 66.01,24.46 104.13,53.62 13.53,10.35 26.71,26.64 31.71,47.69 8.54,35.91 -2.92,38.53 -25.5,52.23 -17.34,10.53 -30.45,26.22 -56.65,14.88 -63.09,-27.33 -74.19,-108.75 -53.69,-168.42zm213.86 24.47c85.59,-16.66 47.37,-15.27 90.28,-32.95 26.24,81.63 66.25,162.41 94.47,243.22 -26.6,12.1 -59.01,22.37 -88.23,33.61 -13.16,-20.02 -94.99,-235.5 -96.51,-243.87zm-6.53 -66.8c17.26,-6.02 37.12,-15.49 53.35,-18.87 15.5,11.52 19.24,20.31 29.43,32.57 -17.84,20.37 -43.66,33.16 -83,33.6l0.23 -47.31zm-0.08 -72.82c14.79,9.38 27.22,24.59 37.45,36.83 -9.47,5.33 -22.94,12.17 -37.44,15.01l-0.01 -51.84zm295.69 -11.74c7.2,50.96 48.59,274.29 46.19,302.01 -29.52,13.35 -59.94,26.93 -89.68,35.98 -9.89,-22 -51.74,-286.23 -53.09,-321.83l96.58 -16.16zm-40.05 -64.84l6.67 51.88 -38.75 5.97 -7.53 -52.62 39.61 -5.24zm-58.05 -5.85l8.12 64.59c-12.26,6.48 -14.36,3.24 -26.63,11.37l53.22 340.1 -22.51 8.13 -84.57 -212.26c-29.9,-73.36 -38.06,-68.72 -94.14,-129.86 -28.35,-30.91 -25.27,-32.19 -48.15,-33.31 -3.02,121.18 -9.78,141.24 26.28,233.09 24.83,63.25 46.8,125.57 73.2,190.25l-39.22 18.02 -83.3 -132.94c-26.43,-44.5 10.22,-105.19 -87.23,-137.15 -97.78,-32.06 -50.46,-51.07 -87.57,-61.34 -26.61,39.66 -37.39,167.68 34.53,214.71 53.94,35.27 22.92,-22.74 83.61,59.89 13.8,18.79 54.08,69.96 59.63,88.71 -16.93,6.74 -12.34,1.43 -23.49,14.7 40.93,111.34 88.21,220.01 127.51,329.42 28.52,-1.4 388.34,-145.49 445.15,-167.44 -3.41,-46.7 -119.75,-293.94 -124.62,-336.95l-27.76 -2.78 -45.68 -290.98 38.78 -6.29c8.47,35.9 22.85,168.88 33.61,186.31 22.12,-3.36 16.93,17.91 0.59,-93.67 -5.04,-36.89 -12.48,-78.11 -18.93,-113.65 -26.95,3.63 -67.11,16.99 -87.03,9.03 -4.01,-15.84 -1.93,-54.75 -15.69,-62.63 -9.36,-5.37 -58.21,6.55 -67.71,12.94zm-944.44 -636.07c4.97,-12.08 14.07,-28.33 20.71,-38.59l425.39 246.88c-3.94,13.73 -15.06,32.16 -23.49,40.22l-422.61 -248.5zm75.9 -227.28c13.36,4.07 500.39,291.27 507.54,298.55l-86.3 144.77 -505.51 -296.58 84.26 -146.73zm375.71 196.23l-218.85 -127.96c23.47,-21.26 52.27,-15.73 84.56,-65.86 19.43,-30.18 35.81,-64.24 55.59,-91.64 14.88,4.13 133.43,75.94 146.1,85.87 -5.19,5.62 -39.76,67.61 -47.53,81.2 -21.19,37.06 -24.01,64.04 -19.89,118.4zm-148.91 -351.58c4.43,-12.44 27.6,-53.33 33.82,-61.65 20.1,-26.85 194.37,-47.49 296.46,124.5 36.8,62.01 0.96,69.4 -21.02,119.57 -62.63,-42.92 -262.36,-148.02 -309.26,-182.42zm-23.89 4.97c15.13,16.14 59.78,41.26 77.84,48.82 -28.58,51.63 -60.42,116.63 -114.55,142.82 -64.39,31.15 -104.75,-52.76 -175.43,-63.85 -21.68,44.91 -92.74,147.41 -97.03,175.33 12.23,11.76 21.95,13.07 34.51,24.84 -8.37,22.07 -26.16,35.27 -27.39,57.24 20.47,19.33 447.67,266.16 453.33,264.74 8.36,-2.08 27.73,-44.1 32.18,-52.43 14.26,4.68 22.75,12.5 39.86,20 26.65,-22.61 103.02,-168.54 104.14,-175.26 -22.64,-22.32 -80.66,-49.51 -113.77,-70.37 -18.52,-11.67 -21.69,-11.82 -23.9,-39.11 -6.7,-82.7 29.96,-101.76 66.9,-177.3 27,13.84 49.37,33.52 80.93,44.15 14.84,-13.75 55.94,-75.65 53.14,-98.08 -6.18,-49.58 -61.72,-124.85 -112.54,-156.93 -52.63,-33.21 -135.7,-59.2 -209.58,-40.64 -22.9,5.75 -20.03,6.62 -30.87,25.19 -10.99,18.83 -33.85,50.21 -37.76,70.82zm954.92 -1053.49l-50.76 0c15.74,11.99 71.19,24.68 104.64,59.26 22.64,23.42 44.68,68.01 36.74,117.81 -14.95,93.63 -131.75,107.74 -153.78,168.86 -21.87,60.68 29.6,86.03 35.27,122.02 23.95,152.11 -166.72,188.32 -295.14,176 -47.12,-4.52 -91.09,-13.97 -130.87,-32.45 -270.74,-125.75 -174.44,-503.49 128.54,-591.9 18.93,-5.52 46.26,-10.24 61.99,-19.58l-63.85 0c-54.86,30.73 -122.01,40.03 -200.74,119.17 -92.44,92.92 -128.77,227.05 -81.87,360.37 40.09,113.96 166.35,179.34 295.45,182.72 133.57,3.5 310.31,-20.54 306.18,-175.39 -1.88,-70.51 -46.03,-68.62 -41.01,-118.3 6.02,-59.53 120.22,-76.79 152.21,-165.94 16.39,-45.67 3.54,-98.35 -16.36,-130.93 -26.31,-43.08 -64.05,-54.72 -86.64,-71.69zm-75.57 89.54c56.95,-25.29 83.58,62.23 31.5,80.75 -52.88,18.8 -87.13,-56.05 -31.5,-80.75zm-8.63 -18.39c-70.32,23.05 -38.72,149.4 50.93,115.86 65.24,-24.4 38.29,-145.12 -50.93,-115.86zm-3488.51 782.8c14.16,-9.68 30.8,-32.57 43.39,-39.53l296.9 274.64c-10.45,20.07 -27.77,28.92 -38.85,47.78l-301.43 -282.89zm93.08 -97.52c16.92,4.54 40.78,33.7 55.56,47.48l246.37 229.72c-12.91,15.4 -28.11,25.63 -37.93,43.51l-302.48 -277.7c9.61,-12.44 23.68,-29.53 38.49,-43zm53.52 -60.3c20.12,6.84 276.48,252.96 303.01,277.87 -13.12,15.92 -23.99,25.34 -36.81,43.49 -23.99,-12.23 -271.26,-256.41 -303.69,-276.51l37.49 -44.84zm537.83 -43.41c12.96,18.05 42.97,53.89 48.83,72.81 -39.22,29.41 -80.47,53.34 -117.06,80.77 -21.91,16.42 -94.6,71.35 -115.62,76.79 -19.67,-20.86 -42.07,-35.74 -62.35,-58.17l246.22 -172.2zm-520.54 30.14c11.32,-18.25 26.05,-26.35 37.73,-46.67l302.78 278.17c-7.57,9.17 -27.36,34.35 -38.63,42.55 -17.63,-8.35 -269.69,-244.51 -301.89,-274.06zm551.57 -23.07c15.64,-7.03 22.83,-15.79 38.54,-22.7 8.61,9.7 14.88,15.82 18.79,29.46 -14.16,7.34 -23.41,16.7 -40.18,22.9 -4.49,-9.46 -12.37,-20.54 -17.16,-29.65zm-223.3 -115.13c22.95,32.5 26.72,41.61 63.69,57.32l-164.61 177.66c-19.31,-16.13 -48.39,-40.42 -63.31,-59.07l164.23 -175.91zm-180.43 -30.93c18.66,5.97 25.81,13.79 39.71,22.97 -21.25,39.04 -65.96,95.33 -78.22,130.62 -15.82,-7.94 -20.74,-16.02 -31.96,-26.26l70.47 -127.33zm233.56 -0.64c14.4,11.72 21.75,20.93 39.19,32.35l-15.14 39.96c-25.36,-4.33 -50.83,-31.55 -60.79,-54.78l36.74 -17.53zm62.51 -28.65c-4.09,15.13 -8.5,30.56 -17.8,41.97l-23.49 -23.15 41.29 -18.82zm-179.91 -130.39c-19.25,53.56 8.82,95.47 -11.47,128.59 -37.81,61.74 -65.92,28.23 -84.11,18.25 -65.74,-36.1 3.74,-137.49 95.57,-146.84zm-199.13 272.35c-16.16,-7.28 -8,-6.59 -24.39,-13.19 -22.27,13.63 -84.85,88.57 -113.71,120.02 -24.52,25.35 -105.52,104.17 -112.91,126.48 8.44,15.88 218.98,208.4 238.48,225.04 33.34,26.28 48.94,55.55 85.56,74.4 35.04,-20.38 181.29,-203.03 224.55,-233.91 0.5,-16.42 -1.85,-17.75 -7.32,-29.42 57.73,-29.77 201.17,-145.53 229.94,-154.29l19.33 27.74 -114.66 79.02c-23.34,15.58 -39.49,16.73 -23.8,31.29 10.64,9.87 127.44,-85.26 160.18,-102.58 -6.36,-30.6 -29.3,-44.1 -41.71,-71.35 18.22,-14.93 30.67,-19.31 47.14,-34.79 -1.33,-21.89 -21.43,-48.39 -37.08,-56.86 -19.73,3.42 -36.32,19.67 -54.06,30.84 -16.18,-15.39 0.52,-7.71 -19.88,-15.36 -55.53,26.98 -237.43,170.82 -267.03,179.4l-10.64 -13.41c51.2,-63.38 114.37,-122.41 168.8,-183.7 13.92,-15.68 58.97,-139.32 60.44,-155.86 -24.11,1.31 -140.61,58.11 -150.26,65.83l-172.16 185.28c-20.37,-11.26 -14.66,-13.62 -28.55,-26.24l75.44 -120.51c25.5,-44.18 89.12,-30.78 81.51,-122.84 -1.8,-21.81 -9.29,-37.74 -2.3,-61.48 5.5,-18.66 42.43,-54.4 -3.75,-45.08 -53.91,10.89 -124.97,39.92 -141.9,99.19 -17.41,60.98 21.85,32.76 -17.81,106.13 -9.31,17.23 -42.68,72.77 -47.46,90.19zm-624.7 765.03c22.76,-36.72 39.93,-1.17 56.78,19.66 33.58,41.5 158.67,163.53 162.74,209.11 6.39,71.57 -71.15,126.1 -128.01,83.92 -21.21,-15.74 -222.17,-256.87 -256.49,-294.41 -9.58,-10.48 -21.93,-21.71 -30.08,-34.64 -45.72,-72.55 -2.68,-204.88 123.01,-209.69 76.97,-2.95 119.54,59.88 150.09,95.36 76.95,89.38 151.76,173.75 228.07,263.56 35.13,41.35 79.96,77.89 90.98,152.49 19,128.65 -102.57,258.68 -247.38,221.88 -67.4,-17.13 -102.65,-68.66 -137.8,-109.56l-170.53 -197.48c-40.54,-47.88 -52.6,-46.19 -23.21,-68.37 33.5,5.59 241.54,292.53 306.43,327.26 103.6,55.45 243.46,-20.3 236.28,-151.05 -4.05,-73.72 -37.56,-104.13 -72.61,-142.15 -39.99,-43.39 -271.4,-321.53 -298.25,-338.2 -79.43,-49.33 -187.24,11.85 -162.71,112.34 6.87,28.15 26.16,47.56 43.09,67.16 28.36,32.85 228.89,272.05 248.65,279.17 33.77,12.16 62.26,-8.81 64.23,-43.02 3.16,-54.63 -170.84,-198.49 -183.27,-243.36zm-95.22 -239.74c-51.81,9.31 -81.02,25.19 -108.65,63.73 -56.9,79.37 -17.57,158.78 26.58,211.37 72.97,86.95 144.15,164.93 216.33,250.83 41.83,49.78 94.85,82.96 158.33,38.73 51.6,-35.96 55.5,-106.2 7.56,-164.74l-162.77 -185.9c-32.67,-23.85 -68.87,2.33 -58.32,37.62 17.26,57.73 248.77,236.23 159.4,257.96 -22.97,5.59 -39.59,-21.85 -60.43,-47.14l-163.2 -189.64c-39.53,-46.7 -98.64,-90.18 -71.12,-152.51 24.03,-54.44 101.6,-68.56 146.5,-22.64 70.95,72.57 168.82,200.8 243.2,278.58 47.55,49.72 109.98,116.69 105.92,181.4 -6.29,99.99 -106.87,171.44 -201.59,127.75 -71.76,-33.1 -270.55,-319.99 -311.52,-330.64 -20.35,-5.29 -34.75,3.66 -41.78,16.03 -19.61,34.5 46.43,95.18 83.72,136.98 52.07,58.36 166.35,207.62 225,237.97 189.6,98.12 397.5,-101.76 287.84,-302.97 -26.62,-48.85 -173.28,-204.44 -212.85,-254.32l-108.43 -125.57c-39.77,-43.27 -81.25,-76.99 -159.71,-62.89zm1618.42 771.45c6.78,-15.84 15.94,-24.09 22.23,-38.44 29.99,9.51 144.46,100.52 179.7,117.47 -4.42,16.22 -14.16,24.56 -23.61,39.91 -12.1,-3.94 -170.47,-110.47 -178.33,-118.93zm261.67 44.03c-10.35,63.72 -49.99,16.39 -122.9,-29.73 -18.31,-11.59 -118.01,-75.03 -121.39,-91.11 -3.05,-14.43 5.16,-24.32 17.78,-26.71 20.25,-3.82 70.31,37.75 103.6,59.11 28.79,18.48 101.77,66.46 122.91,88.44zm-8.8 -36.03c-16.18,-5.54 -23.04,-14.84 -38.51,-22.57 8.8,-28.84 190.62,-279.64 223.17,-332.54 53.02,-86.17 45.22,-75.36 107.42,-79.05l-292.08 434.15zm29.11 -307.44c26.58,-39.97 52.02,-73.26 77.25,-110.98 44.21,-66.11 27.43,-69.11 101.93,-80.33 7.35,28.58 16.15,49.69 0.22,73.17l-263.17 387.71c-13.72,-4.96 -58.55,-34.49 -68.41,-44.67l152.17 -224.9zm86.4 -244.47c33.24,60.82 8.77,68.82 -7.84,95.25l-94.3 139.51c-50.17,74.79 -101.19,151.95 -152.5,223.06 -16.16,-6.74 -22.66,-15.54 -38.75,-22.14l293.39 -435.67zm15.83 -17.63c16.63,-12.1 31.1,-17.29 49.34,-27.54 17.2,-9.66 32.51,-22.31 46.36,-15.25 7.46,3.8 83.09,56.73 87.64,62.63l-9.94 97.16 -69.83 1.41c-0.94,-23.84 -4.42,-51.02 -18.49,-66.4l-63.65 10.82 -21.42 -62.82zm108.39 -59.44c29.77,-9.17 59.1,-35.56 88.2,-43.79l-9.45 97.64c-16.51,-8.08 -68.78,-42.75 -78.75,-53.85zm-434.8 500.49c-33.7,-7.67 -66.02,9.22 -57.21,48.89 11.51,51.87 0.94,16.15 -25.38,75.95 13.93,16.21 182.33,130.94 207.6,139.23 14.13,-14.4 20.27,-30.54 31.53,-43.41 16.4,-18.75 21.77,4.25 48.47,-15.3 20.55,-15.04 16.73,-28.71 9.93,-54.35 -5.2,-19.6 7.3,-27.41 20.1,-45.54l271.29 -399.64c22.23,-31.58 24.38,-155.99 29.15,-199.89 11.11,-102.27 37.38,-99.91 -137.18,-7.56 -26.52,14.03 -79.34,34.69 -95.57,54.26l-302.74 447.36zm-2231.17 2822.27c67.98,-15.63 34.96,-28.89 123.63,18.47 98.86,52.81 281.25,131.25 367.97,181.81l-31.66 73.03 -428.56 -208.48c-21.23,-10.76 -27.14,-39.83 -31.38,-64.83zm53 -90.84l469.41 231.49 -19.84 43.05c-41.34,-24.35 -183.12,-87.43 -240.6,-119.9l-184.68 -89.36c-15.57,-7.4 -14.05,-5.46 -17.87,-25.16 -2.48,-12.79 -5.11,-28.62 -6.42,-40.13zm-114.33 176.8c-7.12,-14.19 4.67,-6.24 -11.97,-14.34 -9.82,-11.46 -38.94,-50.87 -45.4,-65.14l40.19 -79.43c15.09,-31.24 21.36,-11.47 19.85,-41.79l-104.09 3.91 0 19.06 71.8 -6.59c-7.59,31.46 -28.92,62.84 -41.98,86.01 -10.98,-12.44 -17.79,-25.04 -29.82,-35.16l0 28.87c13.79,21.04 68.67,87.02 71.96,109.6l7.55 6c42.23,11.82 65.13,-9.43 79.41,-15.84 21.99,-9.87 38.23,4.77 66.54,18.62l385.84 189.66 -18.85 43.42 -331.62 -160.67c-38.61,-18.92 -76.3,-49.23 -114.1,-51.56 0.08,1.41 0.11,2.68 0.11,3.84 -7.67,-16.86 -21.67,-29.79 -41.38,-19.84 -13.47,6.8 1.36,-5.35 -7.31,11.21l36.03 19.86c16.12,-6.42 4.4,3.35 12.61,-8.98 -0.32,9.33 -1.65,10.34 17.2,20.06l401.85 197.65 41.7 0 87.24 -174.85c14.89,-27.06 7.62,-42.16 45.35,-42.45 25.07,30.83 16.2,23.27 -29.65,118.65 -13.18,27.43 -41.33,73.83 -47.84,98.64l19.42 0c18.5,-32.99 67.41,-145.77 83.21,-164.25l42.09 18.65c-18.92,50.36 -59.97,100.93 -68.78,145.6l19.07 0c10.12,-18.37 68.48,-134.46 72.05,-153.88 -10.79,-6.62 -26.96,-13.97 -40.58,-20.08 -27.92,-12.51 -13.49,-8.19 -20.05,-38.6 -21.52,-32.02 -47.96,-28.41 -76.85,-6.93l-404.66 -202.51c-40.73,-19.44 -84.49,-53.05 -133.18,-38.96 -2.33,0.67 -11.29,2.2 -7.8,11.85 3.65,10.08 6.99,7.05 27.33,6.23 25.09,-1.01 26.51,11.02 33.37,66.26 -18.19,7.17 -43.63,15.08 -62.13,20.16 -2.11,17.47 8.72,49.58 16.4,67.54 -17.03,21.35 -11.25,-1.41 -13.06,24.21 -4.57,-10 -2.68,-4.66 -9.37,-11.11 -18.58,19.67 -19.73,9.85 -37.72,17.38zm3792.55 -399.48c70.65,-20.6 103.67,93.02 29.13,113.08 -68.42,18.41 -106.23,-90.6 -29.13,-113.08zm16.86 132.47c36.51,0.02 49.78,-18.17 64.6,-34.8l316.85 147.79c-12.78,22.34 -7,15.72 -38.49,4.75 -53.03,-18.47 -122.53,-25.15 -179.15,-28.25 -92.77,-5.09 -163.15,17.36 -238.34,36.03 -17.25,-24.26 -25.92,-44.36 -43.78,-67.8 -52.92,-69.4 -108.36,-120.75 -193.57,-159.62 4.89,-25.65 71.16,-148.69 84.18,-191.41 22.17,5.95 44.04,16.04 70.13,22.77 115.81,29.91 148.93,20.18 262.21,7.12 43.14,87.7 55.55,125.14 121,200.81 57.5,66.49 92.83,85.86 156.03,127.75 14.56,9.65 33.35,40.04 -24.01,13.11l-286.92 -130.36c17.14,-94.4 -76.51,-120.92 -120.49,-83.58 -54.1,45.93 -27.97,135.65 49.78,135.7zm-297.07 -367.97c15.89,6.58 59.67,26.02 67.63,33.72l-118.41 256.73c-19.23,-10.17 -44.46,-17.95 -65.88,-33.11l116.66 -257.34zm79.68 57.95c6.24,-19.45 9.37,-14.07 9.87,-40.33 -35.13,-4.93 -66.25,-35.36 -100.7,-38.7 -28.38,70.15 -115.18,242.08 -129.63,288.91 14.23,10.62 79.65,40.86 102.91,45.67l13.04 -30.24c40.09,10.18 113.59,71.89 139.35,97.05 38.88,37.96 69.01,84.65 96.92,136.59 34.21,-6.19 71.26,-22.54 110.33,-30.17 195.53,-38.18 322.82,28.24 357.95,28.9 11.79,-13.01 32.56,-60.94 35.4,-79.4 -46,-43.46 -129.01,-56.39 -249.48,-242.75 -22.9,-35.42 -36.2,-74.63 -53.57,-110.77 -132.77,26.96 -209.23,22.87 -332.38,-24.76zm-3339.35 -3717.6l-30.09 -1.8c-6.24,-14 -5.61,-7.38 -0.49,-35.06l32.96 4.74 -2.38 32.13zm72.89 -27.74l-49.04 -3.64 3.35 -66.86c16.6,-6.19 28.64,0.83 50.77,1.27l-5.08 69.24zm-67.91 -25.63l-34.92 -1.52 3.66 -33.22 32.95 1.68 -1.68 33.06zm-26.57 -88.38l34.02 3.69 -1.2 30.47c-47.66,13.45 -32.66,-15.48 -32.82,-34.15zm579.51 294.82c-19.86,-0.12 -152.12,-30.88 -164.53,-38.38l29.96 -286.23 166.29 -5.95 -31.72 330.56zm-388.35 -90.32c-21.41,3.1 -65.01,-11.56 -74.26,-23.75 -15.62,-20.59 -3.56,-66.52 -1.44,-92.7 8.22,-101.35 -4.62,-112.57 98.27,-112.9l-22.57 229.35zm203.72 49.28l-184.59 -42.46 22.02 -233.63c36.91,-11.57 148.9,-6.13 194.23,-7.95 -0.65,33.88 -22.76,262.04 -31.65,284.04zm244.58 55.29l-41.61 -8.21 33.31 -335.81 43.83 -0.08 -35.53 344.1zm-535.89 -281.71l-52.32 -5.68 2.53 -28.17c-24.99,-13.72 -38.43,-11.23 -69.79,-11.15l-8.41 172.94 61.01 6.34c2.57,-16.27 1.82,-22.23 8.57,-32.53l48.22 3.8c-10.61,79.65 29.3,76.63 90.5,90.93 60.55,14.14 459.63,108.99 466.48,103.3 13.98,-11.59 42.18,-373.03 42.29,-380.6 -46.36,-5.04 -423.13,9.17 -488.43,10.79 -63.58,1.31 -99.89,-0.32 -100.64,70.03zm936.08 2684.69c14.67,-13.82 105.87,-65.88 129.98,-77.98 36.79,82.57 49.29,86.88 22.34,191.01 -58.73,-19.43 -121.07,-40.33 -152.32,-113.03zm-241.21 -414.77c44.27,-17.33 85.38,-51.42 131.25,-71l170.54 289.85c17.97,31.73 41.12,67.59 57.2,101.51l-128.35 74.86 -230.64 -395.21zm-7.89 -13.83c-9.05,-9.02 -39.04,-57.94 -40.47,-70.33 -2.64,-22.82 66.95,-55.66 95.94,-71.95 37.03,-20.81 63.53,40.8 72.55,68.55l-128.01 73.72zm-19.87 -251.06c12.44,12.4 47.98,75.41 58.35,97.62 -15.56,8.44 -47.01,28.89 -63.32,34.58 -20.03,-21.56 -38.58,-67.54 -58.6,-95.11l63.57 -37.09zm-85.81 33.65c11,30.52 44.61,77.18 61.45,109.33 -38.08,51.68 2.71,63.37 25.41,119.26 -34.15,24.63 -71.63,24.51 -37.67,80.94l105.02 183.12c46.47,78.99 -9.7,80.88 16.08,113.28 6.44,-3.06 5.56,3.59 12.78,-17.77 9.13,-26.96 11.98,-55.39 1.35,-79.84 -17.16,-39.48 -134.62,-218.03 -128.21,-233.34 5.74,-13.71 9.7,-19.59 44.79,-31.86 6.62,25.68 159.81,285.23 185.49,326.08 55.58,88.39 75.45,164.94 185.16,198.67 47.66,14.66 31.81,2.55 52.78,40.1 8.93,15.98 4.57,12.3 18.55,19.72 8.89,-12.13 8.24,-13.92 0.94,-27.37 -26.99,-49.74 -20.31,-3.69 -8.39,-83.26 17.32,-115.55 -65.1,-204.16 -128.19,-317.3l-164.52 -283.09c-18.95,-32.19 -32.8,-78.91 -82.16,-63.26 -73.01,-127.42 -54.19,-121.08 -109.94,-89.11 -16.33,9.37 -39.28,17.75 -50.73,35.69zm1310.43 -1157.18c-10.59,14.12 -42.7,32.03 -49.21,40.27 -28,-21.02 -14.14,-37.05 -47.11,-35.7 0.85,22.75 16.17,28.8 28.44,49.42 -14.23,13.36 -33.19,27.55 -48.59,39.07 -14.74,-12.63 -23.67,-35.93 -40.99,-37.23 -4.87,24.6 1.73,23.81 24.87,52.51 -19.52,11.9 -33.72,29.58 -55.06,38.73l-54.36 -65.21c-33.28,-2.23 33.01,67.64 39.92,76.48l-48.57 41.87c-14.34,-12.81 -17.36,-35.05 -46.14,-38.33 2.44,28.81 6.64,17.41 29.12,51.12 -14.6,12.24 -36.85,33.43 -52.54,39.35l-26.92 -32.94c-9.03,-7.8 -25.04,-3.13 -6.92,21.44 8.4,11.39 13.22,13.36 18.07,26.82 -15.08,14.55 -34.26,26.88 -48.83,38.6 -14.59,-15.77 -21.01,-36.14 -44.62,-38.5 -0.58,22.26 14.16,38 27.26,49.59l-50.86 43.93c-12.35,-22.07 -43.2,-66.79 -67.42,-70.25 2.2,34.99 36.2,53.67 51.26,80.99l-48.61 40.49c-7.11,-6.91 -49.06,-64.91 -43.28,-23.49 1.98,14.22 15.87,15.11 25.94,39.54 -15.16,6.7 -30.55,22.33 -43.46,30.96l-103.87 -132.21 635.58 -505.67c21.83,19.09 87.05,113.51 106.3,130.9 -10.15,10.62 -29.73,24.77 -41.7,34.94 -24.68,-19.29 -16.57,-35.37 -46.03,-39.14 1.65,33.32 15.68,29.6 28.33,51.67zm-708.22 321.93c4.95,17.16 108.6,145.34 124.63,160.31 22.35,-4.85 64.77,-43.84 84.95,-59.99l582.19 -461.41c-5.12,-24.39 -112.18,-153.46 -125.49,-162.55 -30.83,9.46 -449.51,352.89 -500.04,391.38 -53.8,40.97 -115.94,88.63 -166.25,132.26zm-1346.27 1355.87l-44.35 -33.08c17.69,-22 89.67,-114.27 97.68,-134.87 22.76,8.09 514.28,377.77 573.59,421.99 26.18,19.52 57.57,46.42 83,60.33 -5.39,15.88 -89.42,130.27 -105.45,137.75 -13.81,-16.02 -24.49,-18.18 -37.62,-33.55 11.89,-16 24.65,-26.24 25.87,-51.07 -30.58,5.76 -24.39,24.72 -46.1,39.6 -14.97,-12.64 -34.04,-25.4 -48.79,-38.21 9.31,-14.99 25.55,-28.06 26.41,-47.19 -24.21,-6.55 -34.29,22.28 -42.6,36.02 -17.97,-11.6 -32.16,-25.09 -51.85,-38.52 40.81,-61.53 28.27,-46.03 20.82,-50.79 -13.87,-3.36 -28.61,26.29 -38.16,36.92 -17.27,-8.94 -37.11,-25.09 -53.4,-36.83 12.07,-22.22 47.69,-55.6 49.72,-76.45 -3.85,-3.24 -2.99,-14.98 -20.18,3.35 -8.92,9.51 -24.59,40.72 -45.7,58.43l-50.71 -38.99c14.55,-18.41 25.44,-25.82 27.15,-50.98 -32.34,4.01 -17.97,14.03 -46.01,39.79 -14.61,-11.63 -35.66,-23.76 -49.16,-38.51 8.21,-23 23.97,-20.35 25.67,-51.05 -31.87,5.14 -22.44,21.02 -46.57,39.85 -15.21,-12.94 -29.78,-25.38 -47.32,-38.49 6.33,-14.68 6.86,-12.11 14.98,-23.3 21.1,-29.02 8.41,-24.35 7.01,-25.71 -1.37,-1.34 1.37,-16.79 -19.8,7.52 -5.36,6.16 -14.05,19.08 -18.99,27.22 -17.36,-7.84 -45.32,-28.42 -53.33,-42.19 15.92,-14.66 48.41,-53.69 49.69,-79.06 -23.74,5.86 -51.77,52.84 -65.94,70.06 -11.12,-4.78 -45.56,-29.88 -52,-38.91 11.34,-12.75 26.54,-28.72 28.39,-50.93 -32.18,2.65 -15.75,8.47 -45.96,39.84zm611.22 475.6c25.43,-12.64 117.44,-146.07 122.05,-161.38 -31.68,-34.68 -447.51,-338.13 -505.91,-381.63 -31.6,-23.54 -148.49,-115.93 -172.7,-124.99 -22.65,13.63 -60.25,74.92 -78.81,100.23 -57.89,78.92 -56.3,56.28 2.53,100.4 110.1,82.56 259.15,187.83 365.01,271.06 37.32,29.34 248.65,188.85 267.83,196.31zm2537.53 -2452.77c-4.72,-90.77 -6.63,-95.29 15.14,-175.57 10.18,-37.52 28.46,-133.68 46.27,-160.68l60.24 14.5c-6.24,50.55 -32.97,126.64 -44.87,174.62 -11.63,46.89 -40.11,117.23 -76.78,147.12zm55.02 -819.39c18.67,-7.54 303.77,75.71 311.38,79.5 -40.78,87.52 -103.33,60.31 -117.67,80.47 -10.21,17.25 -54.63,188.53 -55.49,214.15 71,14.61 128.58,103.72 118.11,153.98 -9.05,0.23 -416.81,-107.24 -431.95,-115.65 11.7,-22.43 37.93,-47.61 64.8,-61.69 40.7,-21.33 68.32,-14.96 117.2,-16.11 15.79,-26.4 49.33,-176.56 58.97,-215.39 -25.58,-22.12 -76.11,-55.43 -65.36,-119.26zm46.31 124.32c-7.67,57.99 -40.03,131.22 -51.02,192.51 -86.56,-7.64 -178.6,30.62 -193.39,105.56 20.4,15.14 153.16,45.42 183.35,53.3 -17.72,58.18 -33.4,124.72 -47.92,181.65 -19.84,77.8 -17.16,56.08 -11,152.79 1.35,13.75 3.07,40.43 10.49,50.86 16.76,-6.81 20.23,-17.47 29.23,-31.89 38.32,-60.29 52.37,-67.18 66.64,-127.73 15.51,-65.83 35.84,-133.83 52.84,-198.19l164.4 44.68c37.77,6.22 28.75,-36.36 20.28,-65.55 -25.76,-88.7 -78.02,-99.71 -112.3,-124.52l49.6 -187.12c76.73,-4.78 162.58,-90.86 106.79,-111.63l-149.81 -38.89c-53.72,-13.53 -119.61,-37.57 -173,-45.79 -23.29,34.12 -14.06,110.69 54.83,149.96zm-2450.65 3826.28l-105.64 252.28c-46.07,115.08 -47.74,88.91 -221.96,15.99 -170.05,-71.18 -149,-48.47 -93.23,-188.56l70.5 -168.08c49.64,-119.77 35.9,-96.2 308.2,17.28 26.95,11.23 62.48,28.69 42.13,71.09zm-188.21 -189.92c37.52,16.69 88.26,37.58 128.01,52.02 -2.4,13.43 -8.32,23.81 -13.72,32.39 -42.82,-16.01 -84.73,-36.14 -128.07,-52.45 2.82,-16.05 5.28,-18.44 13.77,-31.96zm135.06 -10.06c-11.3,-3.28 -19.79,27.04 -21.98,34.78 -10.87,-2.8 -24.67,-9.17 -32.36,-13.69 23.51,-52.12 12.85,-37.53 6.87,-41.32 -16.56,5.89 -14.81,5.78 -24.51,35.07l-32.03 -11.76c2.54,-8.63 6.69,-17.19 8.48,-23.42 6.91,-24.01 -3.73,-53.42 -25.55,14.02 -12.7,-4.28 -23.42,-8.28 -32.55,-11.5 5.65,-19.26 14.46,-43.79 25.28,-57.73 29.41,16.95 150.21,57.81 176.54,76.76 -5.05,18.76 -13.65,34.92 -21.25,55.26l-31.85 -15.51c26.91,-51.63 10.86,-39.24 4.91,-40.97zm-81.65 -78.3c12.01,-18.39 70.33,-99.97 89.98,-98.47 45.01,3.44 13.02,105.78 9.4,141.98 -20.45,-7.65 -86.54,-33.48 -99.38,-43.51zm117.69 49.69c2.15,-32.85 7.86,-67.21 12.57,-100.16 10.51,-73.62 -48.6,-87.21 -78.45,-47.61 -22.49,29.84 -51.47,60.14 -71.08,91.8 -16.42,-5.41 -20.31,-9.83 -38.33,-12.82 -13.73,21.43 -27.39,55.75 -36.86,83.7l20.37 15.35 -10.35 30.24c-33.72,-7.78 -49.21,-28.53 -87.54,-15.89 -34.33,11.32 -34.53,32.82 -50.44,65.3 -24.72,50.49 -45.01,106.09 -68.06,160.32 -82.32,193.66 -84.31,172.54 104.8,250.28 230.49,94.75 164.06,115.57 323.43,-250.51 39.38,-87.22 22.73,-109.5 -57.47,-137.29l11.59 -32.27 29.91 5.18c5.42,-33.17 29.25,-55.68 28.91,-89.91l-33 -15.71zm1829.93 -3062.78c-80.56,-34.3 -156.02,36.28 -209.76,-25.48 -32.47,-37.31 -29.08,-61.05 -0.77,-100.73 24.07,-33.73 109.17,-38.06 156.23,24.29 17.21,22.8 47.25,68.79 54.29,101.92zm-347.17 -205.29c22.47,12.59 104.91,54.54 123.89,59.16 -4.55,15.55 -20.5,40.66 -29.7,62.45 -39.37,-16.69 -83.38,-52.93 -121.78,-67.17l27.59 -54.44zm-345.85 -170.85c61.2,33.36 298.11,143.34 326.24,163.88l-24.2 47.54c-20.31,-3.28 -318.86,-178.74 -371.98,-207.72 -69.52,-37.93 -56.27,-72.49 69.94,-3.69zm-102.67 -60.86c-31.25,9.28 -32.75,31.31 -22.25,49.85 8.39,14.81 502.71,292.11 535.96,310.05 34.72,17.77 25.35,3.59 42.43,41.17 40.67,89.51 135.95,41.39 191.19,43.86 35.22,1.58 50.13,18.38 63.55,20.42 36.5,5.56 -54.36,-229.31 -190.49,-194.15 -39.65,10.25 -19.17,16.19 -54.74,-3.49 -67.67,-37.45 -153.79,-71.68 -228.16,-110.38 -50.82,-26.44 -314.34,-164.2 -337.5,-157.33zm735.12 0.42c9.73,-28.38 22.19,-55.53 33.16,-83.34 15.31,-38.78 178.36,-170.13 179.38,-170.45 -43.64,102.65 -17.61,84.81 -86.07,145.29 -21.27,18.79 -110.93,101.36 -126.47,108.51zm356.71 -287.24l-27.39 0 -126.75 111.46c11.24,-37.3 30.26,-75.93 43.91,-111.46l-30.8 0c-11.74,14.55 -164.12,150.85 -178.35,158.2l-106.11 -117.35c-9.16,-7.78 -16.21,-3.99 -20.91,-1.67 0.58,14.06 12.99,19.88 24.44,33.25 19.65,22.95 76.56,92.64 91.84,101.63 -16.43,34.33 -45.15,118.56 -59.88,132.49l-65.61 -71.24c-80.02,-89.32 -73.2,-50.72 -31.28,-159.77 31.85,-82.86 21.69,-44.2 39.67,-75.54l-26.61 0c-86.72,201.62 -88.95,148.31 42.45,290.87 14.33,15.54 19.96,32.66 47.65,33.26 30.63,0.66 108.97,-78.73 133.51,-100.65 32.93,-29.42 240.62,-206.88 250.24,-223.48zm-741.37 3830.49l-8.13 -14.47 365.51 -321.69 29.25 33.59c-21.88,23.88 -367.76,294.87 -386.63,302.57zm520.2 -450.55c-7.77,17.97 -18.51,19.46 -25.27,47.97 -7.65,32.3 -8.29,70.94 -58,89.92 -42.12,16.09 -73.65,-44.01 -68.73,-68.16 3.62,-17.81 20.71,-34.7 30.67,-43.81 34.71,-31.72 66.02,-24.41 121.34,-25.92zm-536.73 462.54c41.67,9.68 59.36,-18.01 87.06,-39.21l331.58 -259.61c29.22,-13.77 89.93,1.45 107.12,-92.98 13.21,-72.6 40.54,-47.36 47.71,-81.49 -15.85,-10.87 -164.54,-25.37 -200.35,59.46 -7.8,18.48 -6.9,41 -15.91,52.95l-285 251.42c-15.71,11.93 -18.01,18.01 -33.92,30.73 -23.98,19.17 -59.45,36.45 -38.29,78.74zm2545.49 293.31l0 -17.55c-77,11.44 -115.8,34.08 -213.53,24.85 -430.43,-40.64 -413.34,-451.47 -133.73,-673.88 73.67,-58.59 224.76,-132.29 347.25,-138.5l0 -17.43c-119.01,-0.36 -273.58,74.9 -364.02,143.71 -197.14,149.99 -313.85,501.39 -46.53,646.22 100.69,54.55 281.22,85.73 410.55,32.58zm-2036.43 664.55c54.17,-49.53 113.34,-98.73 166.12,-146.12 24.53,-22.02 31.76,-14.57 48.98,4.75l106.74 121.49 -188.66 167.9c-17.96,-13.02 -111.91,-123.01 -133.19,-148.02zm-219.75 168.96l28.58 0c3.3,-5.79 164.5,-147.83 175.27,-154.24l101.76 112.1c13.96,14.96 28.61,22.09 29.33,42.14l25.78 0 174.78 -155.01c-31.48,94.08 -33.44,101.42 -89.21,155.01l27.95 0c42.73,-36.67 39.76,-49.4 62.16,-105.54 20.84,-52.24 45.39,-74.13 2.52,-119.89 -112.81,-120.41 -108.31,-153.09 -182.55,-89.56l-356.39 314.99zm-803.55 -2444.9l252.08 -154.45 171.96 278.68 -255.25 154.55c-38.51,-77.77 -121.74,-193.71 -168.79,-278.78zm-22.64 -11.35c2.86,26.68 179.48,305.52 190.24,313.1 30.36,-8.12 225.67,-140.53 279.64,-166.23 -3.21,-24.23 -169.13,-293.65 -190.19,-313.19 -60.45,27.5 -212.13,132.57 -279.69,166.32zm-1828.84 -1539.08c48.66,-41.06 368.76,-195 455.98,-170.89 4.1,59.54 -251.37,186.36 -295.75,209.77 -66.47,35.05 -67.96,28.07 -118.93,49.28l-41.3 -88.16zm-58.08 13.75l0 23.49 39.75 -26.11c4.66,6.17 36.5,66.96 40.09,84.07 -20.96,5.92 -56.03,16.34 -79.84,19.58l0 20.48 163.41 -50.51c60.88,-22.13 227.17,-114.1 277.63,-150.48 45.56,-32.85 100,-64.88 92.01,-116.76 -80.4,-39.93 -400.37,105.19 -477.16,158.87 -13.06,9.13 -44.64,33.31 -55.89,37.37zm0 2342.97c70.73,-2.97 107.57,-7.55 174.7,13.42 175.83,54.91 142.04,177.57 76.31,210.69 -41.76,21.05 -111.58,22.03 -117.95,77.75 -16.28,142.42 216.1,33.05 180.09,204.6 -10.7,50.98 -38.36,95.59 -66.97,126.14 -92.86,99.16 -105.28,64.44 -85.12,94.58 108.77,-37.53 279.28,-309.18 89.22,-348.65 -45.15,-9.37 -133.39,-28.22 -93.4,-88.84 20.47,-31.04 101.91,-36.12 133.73,-69.9 36.33,-38.58 41.93,-96.43 11.81,-145.72 -48.54,-79.45 -203.62,-106.3 -302.43,-92.97l0 18.91zm671.34 863.4c6.98,-37.42 87.96,-198.34 102,-254.13l230.32 95.11 -104.21 251.9 -228.1 -92.89zm-22.42 13.35c46.96,13.99 228.53,103.04 260.46,100.95l117.39 -278.28c-15.68,-17.42 -237.64,-109.73 -264.69,-111.16 -20.42,68.45 -110.72,246.54 -113.16,288.5zm3944.8 -2977.1c23.82,-63.39 57.23,-124.36 103.43,-155.79 68.01,-46.27 181.04,-28.61 200.23,0.68 44.85,68.44 -74.76,192.19 -188.24,162.91 -62.41,-16.11 -53.28,-8.99 -115.42,-7.8zm375.57 -120.85l0 -17.5 -40.57 4.47 -17.75 -30.89c10.51,-18.22 40.88,-37.93 58.32,-50.57l0 -22.47c-81.27,41.07 -36,63.39 -108.7,44.55 -103.02,-26.71 -184.91,3.81 -239.31,91.13 -16.32,26.19 -50.01,87.06 -51.06,125.58 51.5,-2.79 58.39,-19.69 117.48,-2.68 134.35,38.66 193.38,-41.7 245.56,-134.25l36.02 -7.37zm-172.69 2529.16c14.68,63.92 58,52.24 87.08,89.46 9.64,12.35 23.95,46.73 10.09,67.48 -2.76,4.14 -48.03,36.15 -53.67,39.76 -67.38,-25.43 -74.63,-107.45 -56.06,-169.84l12.57 -26.87zm172.69 397.36l0 -29.15 -122.57 -150.68c11.54,-10.17 44.28,-34.85 57.97,-39.49 14.29,22.27 46.52,78.45 64.6,92.11l0 -32.48c-76.18,-78.38 -39.73,-114.56 -67.71,-155.68 -18.89,-27.77 -34.94,-26.5 -62.26,-47.88 -34.18,-26.75 -19.26,-37.99 -27.28,-76.38 -58.84,13.41 -63.49,142.58 -42.26,195.18 19.86,49.19 32.07,30.57 58.21,71.29l141.3 173.17zm-1504.61 653.88c83.21,-11.17 54.82,-9.58 88.39,-66.75 14.44,14.9 19.5,41.14 30.85,51.88 14.14,13.39 34.42,8.94 62.37,15.69 -48.57,63.69 -36.45,4.19 -34.79,106.08 -22.74,-7.98 -33.62,-24.18 -57.95,-23.09 -15.52,0.7 -38.22,16.4 -57.17,21.29l5.49 -62.73c-14.6,-15.15 -28.95,-24.33 -37.2,-42.39zm-32.14 -10.03c14.03,30.05 19.08,29.83 51.39,60.94l-6.94 80.94c30.16,-3.36 58.92,-30.3 79.81,-28.48 20.93,1.83 40.45,26.35 78.12,28.22l-11.03 -80.68c15.47,-9.24 43.8,-37.79 49.89,-59.71 -52.28,-33.83 -54.34,22.09 -95.31,-54.67 -8.99,-16.84 -6.87,-20.16 -20.47,-30.71 -20.22,4.38 -18.11,8.49 -27.21,28.52 -31.71,69.81 -42.4,30.94 -98.26,55.63zm-294.13 -3507.1c17.38,-9.43 45.89,-4.47 59.88,-16.66 11.56,-10.06 19.39,-40.7 31.75,-51.56 27.46,53.03 22.16,61.53 88.95,64.51 -26.04,58.38 -44.38,-8.43 -29.72,108.22 -23.96,-3.96 -41.06,-23.82 -59.26,-24.45 -12.94,-0.44 -44.03,18.8 -58.53,23.27 0.71,-24.89 10.61,-45.91 1.23,-65.38 -7.49,-15.55 -21.03,-20.25 -34.29,-37.95zm-29.65 -9.94c6.71,22.61 35.19,43.66 50.35,57.85l-9.35 79.7c33.6,4.16 52.65,-24.65 75.97,-26.72 18.02,-1.6 50.43,23.91 79.42,28.88l-5.89 -80.04c15.96,-15.96 43.7,-36.07 49.97,-59.67 -24.43,-17.4 -60.15,-8.66 -76.82,-22.2 -17.27,-14.03 -16.46,-50.44 -42.38,-63.55 -12.83,4.21 -7.98,1.75 -15.66,10.96 -28.39,34.04 -4.43,52.48 -61.41,61.47 -16.22,2.56 -31.09,3.99 -44.21,13.32zm1379.74 407.48c62.7,-29.19 48.61,21.68 86.16,-68.41 31.05,21.15 9.17,53.19 55.36,60.87 6.97,1.16 29.8,2.63 33.99,4.83 14.28,7.5 -19.97,26.46 -27.65,37.79 -14.4,21.23 -0.39,39.12 -0.68,68.59 -14.24,-4.1 -46.07,-22.43 -58.32,-21.83 -11.77,0.57 -34.11,16.23 -57.98,20.75 13.28,-80.12 5.08,-56.42 -30.88,-102.59zm44.91 -28.4l-77.33 14.44c5.45,26.73 22.76,34.58 50.72,63.65l-6.46 71.6c11.73,10.47 -12.2,9.92 18.05,5.43 8.69,-1.29 44.74,-25.1 58.66,-25.87 23.42,-1.29 45.43,28.4 79.2,28.37 3.99,-75.34 -36.89,-48.93 20.34,-108.91l19.69 -30.26c-39.6,-28.66 -55.62,17.72 -93.59,-55.36 -16.36,-31.49 -11.76,-25.16 -25.98,-30.48 -14.97,7.72 -3.91,-1.09 -13.78,12.97l-29.52 54.41zm-506.1 2259.62c86.37,-32.69 20.26,26.92 94.28,-69.98 17.53,60.86 32.94,58.93 86.24,65.93 -6.57,17.25 -25.54,32.69 -39.88,42.53l8.09 64.73c-11.6,-4.43 -46.19,-22.93 -57.42,-23.2 -18.81,-0.46 -36.66,16.91 -58.75,23.21 9.9,-95.97 3.76,-56.73 -32.56,-103.21zm-31.04 -8.97c10.33,23.08 44.78,46.61 48.49,53.32 8.21,14.83 -9.9,60.18 -1.66,82.4 22.74,1.37 56.06,-27.7 76.11,-26.76 26.08,1.23 46.95,28.56 76.75,28.5l-7.8 -78.79c10.83,-13.53 43.47,-43.18 50.89,-59.63 -24.92,-21.39 -60.4,-4.93 -79.75,-24.96 -21.28,-22.04 -33.74,-105.41 -66.68,-31.38 -32.71,73.5 -62.31,22.98 -96.35,57.3zm-2580.05 -1696.55c50.83,42.91 -19.39,48.7 93.75,66.84 -12.27,14.23 -27.57,33.57 -40.28,42.33l8.57 64.89c-64.29,-28.03 -46.19,-33.11 -115.71,-1.43 0.39,-72.98 23.27,-48.67 -34.56,-100.5 7.34,-6.14 -4.54,-1.07 12.75,-6.92 45.26,-15.3 39.59,15.25 75.49,-65.21zm-117.4 53.4c3.09,24.22 31.65,49.98 51.44,64.78 -4.47,29.46 -14.7,61.46 -3.76,79.05 23.29,1.51 47.8,-27.28 70.67,-28.55 19.64,-1.09 50.72,28.8 76.78,30.37 9,-32.76 -13.1,-68.44 -0.55,-86.12 9.99,-14.06 43.8,-30.97 46.02,-56.16 -22.57,-11.82 -61.97,-5.59 -77.36,-22.36 -14.37,-15.65 -22.12,-57.1 -41.85,-59.09 -24.68,-2.49 -20.55,33.3 -41.74,57.69 -13.95,16.05 -57.11,16.46 -79.66,20.38zm-1136.08 1016.83c-18.42,-6.63 -45.18,-23.18 -58.48,-23.37 -20.04,-0.28 -35.31,16.85 -58.34,23.24 5.62,-88.37 13.77,-47.61 -31.28,-105l55.86 -11.09 33.85 -56.31c39.98,70.36 19.56,53.69 89.09,65.26 -9.87,27.95 -23.85,18.69 -34.62,41.67 -7.54,16.08 0.93,44.68 3.92,65.6zm-162.75 -121.3l0 33.75c53.2,31.18 23.62,50.5 25.9,110.57 31.85,4.72 56.24,-26.36 78.89,-26.27 23.37,0.1 52.17,37.15 76.86,22.2 -0.86,-59.03 -25.72,-54.91 22.26,-103.83 15.68,-15.99 16.77,-10.18 21.02,-34.12 -77.03,-19.22 -60.26,13.95 -95.7,-50.36 -6.91,-12.54 -9.6,-22.63 -24.87,-31.36 -22.3,9.98 -18.2,25.31 -36.49,54.65 -15.42,24.75 -24.65,12.16 -67.87,24.77zm1867.1 485.18l6.14 66.44c-17.92,-6.34 -40.72,-23.03 -59.13,-23.17 -23.25,-0.18 -38.45,20.13 -56.85,20.85 12.39,-79.22 8.43,-56.29 -32.23,-100.8 24.8,-16.17 41.34,-2.55 59.78,-19.19 6.66,-6 23.65,-41.55 28.98,-49.94 44.01,45.47 1.05,49.74 64.4,59.88l29.52 10.2c-29.33,14.34 -11.64,25.37 -40.62,35.71zm-173.38 -52.4c14.81,48.59 18.32,17.23 43.65,57.32 16.04,25.38 -5.5,50.26 2.83,86.67 24.91,-1.3 64.89,-31.44 77.81,-30.68 9.85,0.58 57.55,34.24 71.39,28.03 14.43,-12.55 -14.73,-62.49 0.62,-83.95 15.48,-21.64 41.49,-26.35 44.54,-58.08 -24.08,-3.63 -64.16,-3.74 -78.55,-20.51 -21.56,-25.11 -31.18,-101.53 -65.47,-30.42 -27.81,57.68 -28.38,35.93 -96.83,51.61zm-1539.69 308.89c-7.23,16 -3.26,5.49 -7.56,20.51 38.11,-3.06 96.59,-14.52 83.78,41.13 -13.45,58.39 -135.45,129.21 -148.23,45.22 -4.74,-31.14 43.84,-71.97 62.84,-77.03 5.38,-30.12 0.75,-23.17 -5.71,-28.37 -29.19,11.14 -76.29,63.91 -79.09,103.9 -2.49,35.64 18.2,46.62 36.31,58.65l21.16 0c-5.41,-3.8 5.97,-3.16 -16.84,-8.7 35.6,-5.58 17.27,6.95 40.94,6.31 84.52,-2.29 190.93,-182.07 12.4,-161.61zm-154.03 254.61l139.14 170.66c41.07,10.44 55.85,15.48 55.9,-41.78 -22.78,-17.78 -74.12,-117.5 -105.09,-154.99 -38.66,-59.66 -83.25,-124.05 -89.95,-130.31l0 32.05c10.21,13.59 40.03,57.16 70.32,100.37 12.82,30.58 61.45,95.73 73.76,122.25 7.98,17.19 26.96,24.28 34.31,50.5l-14.4 12.51c-13.72,-6.86 -10.84,-5.38 -20.38,-18.31 -20.56,-14.74 -4.05,-16.92 -18.91,-28.99 -44.64,-38.15 -40.17,-54.4 -65.06,-75.29 -19.12,-18.59 -36.04,-52.25 -59.63,-66.09l0 27.42zm4969.29 -2041.98l0 -32.49 -93.19 -142.99c6.5,-5.45 75.21,-39.94 93.19,-45.1l0 -20.74c-37.69,13.16 -81.08,40.18 -105.97,47.26l-22.09 -41.91 128.06 -57.55 0 -22.44 -135.54 63.82c-16.12,9.7 -7.1,0.7 -16.82,13.75l152.36 238.4zm-3579.31 2546.28c81.51,-27.89 125.9,94.18 44.36,123.66 -86.86,31.41 -120.16,-97.73 -44.36,-123.66zm-7.29 -14.78c-12.82,4.7 -17.51,4.13 -28.36,13.87 -62.08,55.73 -5.52,177.67 87.36,142.7 97.93,-36.88 53.99,-197.96 -59,-156.57zm1764.35 -2572.81c-7.25,-87.13 133.09,-95.18 132.15,-5.13 -0.91,87.05 -125.47,85.44 -132.15,5.13zm53.23 -86.84c-119.41,25.5 -75.91,186.3 32.38,164.74 104.44,-20.8 74.35,-187.53 -32.38,-164.74zm276.62 244.26c81.66,-28.42 122.95,102.61 37.69,126.65 -81.34,22.93 -118.98,-98.36 -37.69,-126.65zm-7.61 -14.62c-16.89,5.97 -29.77,5.95 -46.17,35.99 -36.08,66.13 25.85,148.48 101.45,121.39 102.69,-36.79 54.31,-196.16 -55.28,-157.38zm-3469.3 -1649.98l0 37.11c13.38,-13.49 21.79,-33.16 28.22,-50.71 22.75,14.8 19.4,39.24 34.44,51.96 11.13,9.41 45.31,11.2 59.58,17.78 -30.07,42.33 -48.53,11.13 -31.7,103.15 -57.13,-16.37 -23.38,-33.92 -90.54,-13.15l0 20.66c28.71,-10.07 25.08,-18.68 56.4,-2.59 14.2,7.3 33.21,20.29 50.78,18.99 6.15,-21.23 -2.89,-57.5 -6.61,-79.33 20.67,-18.8 42.18,-33.36 52.78,-57.61 -36.53,-30.65 -63.46,11.33 -95.05,-52.78 -32.14,-65.24 -31.58,-25.73 -58.31,6.52zm4630.22 80.98c-31.95,65.66 -171.57,56.16 -131.48,-13.89 34.95,-61.06 164.24,-53.44 131.48,13.89zm-69.71 -72.81c-125.67,25.95 -104.4,157.66 7.75,134.88 125.07,-25.4 102.67,-157.68 -7.75,-134.88zm-2979.06 -458.9l-17.43 0c-7.92,114.57 -134.51,164.59 -212.45,89.59 -27.81,-26.76 -35.57,-39.82 -40.25,-89.59l-19.08 0c5.95,48.75 15.32,75.03 41.95,101.94 80.46,81.32 246.05,39.44 247.26,-101.94zm3024.15 3876.06c-19.49,71.39 -130.46,35.77 -103.96,-35.72 22.12,-59.67 123.65,-36.47 103.96,35.72zm-68.12 -86.39c-25.04,6.46 -31.42,8.96 -45.13,26.92 -32.62,42.74 -1.93,136.61 82.98,113.87 87.71,-23.48 56.11,-165.03 -37.84,-140.79zm153.31 -147.17c-25.1,74.45 -127.05,36.8 -105.78,-32.38 6.93,-22.56 38.67,-42.78 69.38,-34.65 25.16,6.65 46.23,37.87 36.4,67.03zm-125.27 -14.91c-0.47,99.99 141.5,96.58 146.32,4.65 5.14,-98.01 -145.82,-106.53 -146.32,-4.65zm-4514.58 -163.99c-13.21,-81.6 96.71,-89.16 107.62,-24.47 13.32,78.99 -97.48,87.06 -107.62,24.47zm-19.8 -9.94c3.16,94.98 149.47,92.71 147.39,-4.7 -2.08,-97.18 -150.74,-96 -147.39,4.7zm4808.95 -13.63c67.52,0 71.98,115.33 -4.61,111.71 -68.77,-3.25 -70.12,-111.71 4.61,-111.71zm-23.34 -12.48c-15.61,4.95 -12.48,-0.77 -26.71,10.87 -56.8,46.48 -14.65,152.86 71.96,127.35 83.31,-24.55 55.42,-170.16 -45.25,-138.22zm-105.83 537.53c55.63,-17.36 86.57,52.27 59.79,85.26 -4.35,5.36 -21.21,19.47 -32.02,21.94 -67.11,15.34 -100.71,-84.46 -27.77,-107.2zm-7.83 -15.82c-18.69,6.31 -27.36,4.33 -41.82,32.08 -32.52,62.39 21.42,125.64 86.21,105.65 88.51,-27.31 51.15,-169.94 -44.4,-137.73zm-2174.91 -475.72c-15.33,52.58 -104.3,27.59 -82.91,-29.65 19.76,-52.88 99.27,-26.48 82.91,29.65zm-104.48 -14.91c0.21,84.29 119.89,85.54 125.78,4.11 6.02,-83.39 -125.98,-88.95 -125.78,-4.11zm1866.13 -3210.17c-8.46,-60.45 77.44,-68.67 86.57,-18.85 11.73,64.02 -79.48,69.54 -86.57,18.85zm22.27 -66.08c-17.23,6.14 -24.77,6.57 -34.4,25.64 -21.9,43.37 10.57,110.21 76.18,91.65 72.89,-20.62 46.4,-148.72 -41.78,-117.3zm-2061.28 3206.68c-20.18,61.93 -101.78,24.86 -84.58,-25.17 19.49,-56.71 101.1,-25.48 84.58,25.17zm-57.5 -70.83c-11.33,2.96 -21.59,-2.51 -38.34,25.06 -30.51,50.22 13.24,111.9 74.03,93.79 69.74,-20.77 49,-140.98 -35.69,-118.85zm343.58 -237.26c-15.61,-62.65 75.09,-74.81 85.2,-23.68 11.86,59.9 -72.51,74.6 -85.2,23.68zm24.47 -73.17c-75.74,24.31 -46.21,144.08 35.27,121.49 79.84,-22.14 44.96,-147.24 -35.27,-121.49zm1703.55 -2555.59c-11.36,-64.76 78.31,-73.8 86.86,-19.17 9.57,61.14 -78.38,67.48 -86.86,19.17zm33.03 -72.57c-81.84,14.37 -64.02,138.29 24.8,122.58 73.7,-13.04 59.13,-137.32 -24.8,-122.58zm-1886.38 2800.71c-9.37,-58.64 77.73,-73.01 87.12,-19.38 11.46,65.41 -79.04,69.83 -87.12,19.38zm22 -66.59c-77.54,28.26 -35.17,144.76 45.5,116.38 70.3,-24.74 40.12,-147.58 -45.5,-116.38zm-146.41 165.97c-5.63,-57.47 83.67,-68.38 88.56,-9.77 5.25,62.92 -83.59,60.48 -88.56,9.77zm38.8 -67.12c-86.4,10.59 -70.49,136.35 19.16,122.64 75.13,-11.49 60.84,-132.44 -19.16,-122.64zm79.51 360.31c-17.34,59.04 -101.69,32.55 -85.69,-21.02 17.16,-57.44 101.26,-31.99 85.69,21.02zm-67.95 -66.01c-80.22,34.42 -20.65,149.54 53.82,112.21 65.73,-32.95 28.54,-147.54 -53.82,-112.21zm2126.07 -3362.81c-17.06,-57.67 69.28,-81.36 85.52,-27.32 11.47,38.16 -30.29,76.06 -65.76,50.75 -3.07,-2.19 -18.81,-20.23 -19.76,-23.42zm25.54 -70.11c-21.46,7.94 -55.26,18.56 -40.36,78.16 7.74,30.96 44.6,49.42 78.55,37.98 73.9,-24.89 42.74,-146.07 -38.2,-116.14zm-3446.87 4532.54c0.11,49.1 -81.98,51.03 -81.59,0.32 0.4,-52.37 81.48,-53.9 81.59,-0.32zm-98.37 14.91c17.01,70.22 136.77,49.4 113.56,-32.72 -20,-70.78 -132.51,-45.46 -113.56,32.72zm1370.51 -3149.2c44.84,-21.36 77.63,46.57 29.21,71.45 -29.89,15.36 -68.86,-15.09 -52.76,-52.98 8.05,-18.95 12.4,-13.16 23.55,-18.47zm-9.51 -17.5c-4.53,1.82 -19.86,2.07 -30.43,25.11 -5.63,12.29 -7.48,34.62 -0.79,52.1 25.31,66.13 137.58,28.95 108.06,-46.65 -13.92,-35.65 -47.98,-42.14 -76.85,-30.56zm861.42 2087.88c47.75,-13.73 69.54,65.45 16.8,77.46 -45.96,10.47 -76.58,-60.27 -16.8,-77.46zm-49.88 50.18c15.67,71.52 128.99,60.04 114.61,-24.43 -12.65,-74.33 -131.18,-51.24 -114.61,24.43zm791.87 -1624.42c42.2,-16.8 74.86,54.43 23.45,74.85 -44.4,17.64 -87.25,-49.45 -23.45,-74.85zm-48.4 34.24c0,40.77 17.34,61.01 60.87,60.86 53.68,-0.17 72.37,-66.06 38.94,-99.77 -34.02,-34.29 -99.81,-14.44 -99.81,38.9zm194.84 745.4c-29.35,44.12 -93.43,6.29 -70.04,-40.66 21.62,-43.41 101.27,-6.29 70.04,40.66zm-47.9 -75.87c-20.41,4.97 -24.56,3.42 -36.3,21.66 -26.15,40.64 4.29,107.36 68.39,89.22 63.9,-18.08 48.29,-130.48 -32.09,-110.89zm-2342 26.18c-31.37,45.7 -93.3,3.74 -70.1,-40.25 25.23,-47.83 99.05,-1.93 70.1,40.25zm-47.69 -75.77c-82.37,19.89 -47.58,132.77 31.46,110.78 62.19,-17.3 50.19,-130.5 -31.46,-110.78zm2414.18 2272.21c-17.26,-57.56 67.05,-73.39 77.08,-23.85 11.52,56.88 -64.8,64.83 -77.08,23.85zm95.01 0c17.19,-82.48 -98.74,-98.3 -113.68,-26.32 -16.5,79.53 98.66,98.39 113.68,26.32zm-124.05 -4253.72c-5.19,-50.65 78.91,-62.43 81.1,-4.54 1.79,47.44 -75.65,57.77 -81.1,4.54zm20.17 -55.8c-79.65,34.65 -24.43,130.86 43.26,107 64.84,-22.85 36.54,-141.72 -43.26,-107zm-852.13 160.15c-29.81,44.98 -98.05,7.11 -69.86,-40.22 26.85,-45.08 98.07,-2.33 69.86,40.22zm-44.24 -76.95c-78.08,12.13 -59.91,126.39 16.99,115.01 76.06,-11.25 61.28,-127.18 -16.99,-115.01zm1634.48 2392.65c-30.77,45.6 -96.26,7.27 -70.24,-40.63 23.96,-44.11 99.71,-3.04 70.24,40.63zm-44.49 -77.05c-77.6,12.09 -59.33,126.31 17.24,115 76.68,-11.34 60.64,-127.12 -17.24,-115zm-4543.32 -1683.23c49.25,-21.07 78.87,55.94 26.66,76.24 -41.68,16.21 -81.05,-52.98 -26.66,-76.24zm-7.2 -15.15c-75.48,31.24 -27.68,133.45 44.17,107.45 66,-23.89 33.72,-139.69 -44.17,-107.45zm1343.78 453.59c0,48.17 -83.11,50.43 -80.86,-4.32 2.04,-49.57 80.86,-56.18 80.86,4.32zm-61.8 -55.92c-20.72,9.13 -21.71,5.18 -31.39,26.86 -21.45,48.02 19.29,100.52 75.85,80.55 62.29,-22 33.07,-141.53 -44.46,-107.41zm-241.81 1664.2c49.99,-19.79 78.58,56.48 26.85,76.54 -43.87,17 -80.36,-55.36 -26.85,-76.54zm-43.77 51.47c13.02,68.45 128.13,58.34 116.02,-24.73 -9.83,-67.46 -131.73,-57.85 -116.02,24.73zm-500.72 -1202.57c-1.21,-16.73 20.81,-40.21 39.45,-41.15 23.7,-1.19 44.48,17.72 43.84,40.9 -1.44,52.66 -79.69,49.71 -83.29,0.25zm30.78 -55.21c-26.65,8.9 -54.51,23.3 -44.48,67.71 6.81,30.16 33.23,51.33 72.23,42.91 74.15,-15.99 44,-134.58 -27.76,-110.62zm3780.91 2828.08l296.23 0c-46.56,-39.71 -260.23,-27.8 -296.23,0zm-3716.42 -4969.3l-22.33 0 -23.65 48.58 -42.24 -18.85 13.39 -29.73 -21.98 0c-14.15,40.78 -23.44,52.12 -58.02,28.62l4.68 -28.62 -30.36 0c8.52,12.27 7.38,70.14 59.04,59.44 22.77,-4.72 17.21,-18.06 39.79,-8.55 19.77,8.33 23.79,15.27 48.4,20.07l33.26 -70.95zm4212.75 619.93l0 -19.93 -26.38 10.08 8.44 -64.69c-12.31,-7.75 -34.67,-29.01 -40.6,-42.33l58.54 -9.8 0 -33.15c-48.91,44.07 -56.64,8.02 -89.1,36.81 9.83,27.81 31.55,29.96 46.09,53.04 12.1,19.2 -5.65,57.69 -0.66,85.05 17.47,0.52 26.09,-7.41 43.67,-15.09zm-3447.41 -619.93l-17.43 0c-8.62,37.57 -23.61,61.5 -63.49,64.06 -39.42,2.53 -67.97,-25.69 -68.21,-64.06l-19.52 0c5.8,28.22 5.63,42.01 23.47,59.44 36.98,36.15 134.5,39.38 145.18,-59.44zm516.14 2633.11c9.77,7.74 -1.04,16.97 42.92,-10.25l107.92 -65.9c20.58,-13.53 9.14,0.38 17.01,-17.16 -12.02,-9.36 -3.83,-9.89 -20.85,-3.36l-130.67 79.2c-21.85,14.21 -11.13,-0.63 -16.33,17.47zm42.87 62.81c10.84,23.58 -11.94,24.41 84.93,-32.63l65.09 -39.45c18.7,-11.66 18.59,-3.79 12.16,-19.91 -13.01,-14.53 -162.17,91.98 -162.18,92zm-79.39 -126.79c13.71,7.19 55.49,-25.01 82.97,-42.09 95.21,-57.02 83.1,-39.12 74.58,-59.37 -16.03,-3.76 -25.15,7.42 -41.2,17.34 -15.82,9.78 -116.5,66.21 -117.98,78.35 -0.11,0.95 0.95,4.27 1.63,5.78zm1118.89 1838.64c9.03,35.63 74.84,25.5 60.34,-24.32 -8.7,-29.93 -73.67,-28.27 -60.34,24.32zm-1258.17 -1341.71c0.04,14.6 8.96,24.2 23.81,28.01 18.36,4.71 28.78,-5.34 38.31,-11.87l0.69 -37.21c-11.09,-7.2 -18.88,-18.37 -39.52,-13.01 -17.26,4.47 -23.36,15.02 -23.3,34.08zm-1386.02 -1339.83c-43.55,9.67 -30.06,72.98 14.16,62.61 38.27,-8.97 27.81,-71.94 -14.16,-62.61zm2996.97 -52.81c-11.22,5.72 -10.15,-3.49 -15.37,16.73 -16.4,63.43 88.63,48.84 58.1,-7.48 -6.03,-11.11 -18.66,-15.55 -31.41,-13.59 -16.57,2.55 -6.29,1.78 -11.32,4.34zm-3375.17 951.76c30.47,13.93 34.06,10.72 56.84,-10.53 0.63,-20.49 -1.24,-53.29 -38.95,-45.12 -28.42,6.15 -26.99,32.13 -17.88,55.65zm1217.74 1588.8c1.4,38.85 69,38.41 65.64,-4.4 -3.3,-41.97 -67.23,-39.68 -65.64,4.4zm2678.16 -4112.07c-39.65,15.38 -17.68,72.24 22.71,59.72 36.99,-11.48 22.94,-77.43 -22.71,-59.72zm-3648.17 4170.56c-47.63,-3.37 -58.65,13.43 -43.9,54.1 15.51,7.24 38.14,14.58 51.49,-3.01 17.71,-23.34 -4.24,-45.11 -7.59,-51.1zm1696.64 -2464.95c-48.45,0.12 -43.12,60.67 -4.88,62.61 47,2.39 46.36,-62.71 4.88,-62.61zm188.79 -1091.98c-1.16,18.79 -4.34,36.77 16.59,44.26 24.9,8.92 30.04,-3.49 44.18,-13.31l0.15 -32.1c-20.41,-17.34 -13.35,-15.07 -47.16,-14.91l-13.76 16.06zm1991.52 1057.29c-4.8,67.02 47.2,55.98 58.71,33.28 13.63,-26.89 -8.42,-69.96 -58.71,-33.28zm-652.66 843.19c20.65,-52.6 -25.62,-70.54 -47.72,-47.83 -25.9,26.61 -3.68,70.57 47.72,47.83zm-2296.56 -1297.82c11.91,-26.05 11.96,-26.31 0,-52.36 -28.2,-7.03 -56.76,-6.63 -56.64,26.14 0.11,32.71 27.88,32.91 56.64,26.22zm1094.92 2812.58c39.05,-82.18 -96.46,-71.74 -43.46,4.39 20.41,2.34 29.02,1.41 43.46,-4.39zm-1161.75 -3759.41c-41.06,22.71 -10.75,71.71 25.95,57.2 41.19,-16.28 11.53,-77.94 -25.95,-57.2zm1567.35 1774.26c-11.11,-7.57 -20.25,-19.76 -38.34,-16.63 -17.05,2.93 -29.99,17.64 -23.62,42.08 6.04,23.15 62.35,45.74 61.96,-25.45zm1678.75 2172.46c5.31,5.01 9.83,9.5 15.25,15.17l29.02 -0.22c32.09,-32.63 25.56,-59.5 -30.95,-58.88l-15.3 11.48 1.98 32.46zm-2604.35 -4165.93c-44.55,16.29 -17.72,71.65 17.68,60.39 39.72,-12.62 19.87,-74.13 -17.68,-60.39zm-961.31 4051.87c-10.81,-17.76 -52.94,-29.12 -74.76,-37.58 -32.42,-12.58 -75.77,-41.14 -75.73,-17.28 0.02,12.58 -3.42,4.57 34.22,20.23l98.15 41.73c15.26,4.38 8.11,7.28 18.11,-7.1zm-95.85 -187.58c-3.96,25.42 7.09,18.12 64.29,43.13l70.65 28.21c6.33,0.04 13.41,-2.1 11.16,-8.61 -2,-5.79 11.56,-1.91 -26.38,-16.64 -27.82,-10.81 -93.86,-47.28 -119.72,-46.09zm-27.57 68.32c5.32,19.22 32.84,21.39 68.92,37.66 20.87,9.4 52.02,24.11 73.88,29.86l6.1 -12.86 -125.82 -57.48c-34.78,-12.92 -17.78,-0.99 -23.08,2.82zm4205.64 516.02c0,-39.85 5.24,-23.65 -26.38,-67.47l26.38 -0.1 0 -18.11 -52.86 3.96c-1.84,16.46 37.72,69.97 52.86,81.72zm-3303.56 148.87c-10.7,19.23 -8.49,21.65 -4.56,39.15 33.65,7.68 47,-2.24 35.13,-35.86l-30.57 -3.29zm1542.8 -2465.43c24.34,-30.18 -4.38,-50.46 -25.8,-36 -14.26,9.64 -13.25,46.43 25.8,36zm-2428.43 344.54c1.29,9.34 -8.34,21.23 45.04,15.21 19.04,-2.15 9.37,-1.38 15.92,-5.27 -2.22,-13.12 10.64,-19.24 -46.15,-13.92l-14.81 3.99zm-292.86 977.54c-53.18,-7.94 -44.89,7.88 -46.37,11.35 8.12,6.66 1.19,5.01 16.03,7.45 53.98,8.9 45.67,-11.29 46.11,-12.43 -6.66,-4.65 4.1,-3.42 -15.76,-6.38zm4332.58 -1226.01c1.87,4.48 -2.7,18.62 45.37,11.49 21.07,-3.13 8.84,-1.51 15.98,-6.51 -1.07,-2.82 9.56,-21.82 -46.34,-12.18 -23.35,4.03 -7.42,0.8 -15.01,7.21zm-4184.8 258.41c11.29,6.75 12.16,5.74 36.14,5.41 30.31,-0.41 22.7,4.82 25.28,-15.35 -12.06,-5.88 -6.9,-4.26 -35.84,-4.15 -29.43,0.11 -21.72,-5.65 -25.58,14.09zm4016.31 1957.21c-11.49,2.25 -5.32,1.56 -11.36,5.67 8.55,14.41 -11.28,14.36 31.19,14.14 35.57,-0.19 26.92,-4.52 29.82,-14.14 -11.08,-8.56 -37.93,-7.96 -49.65,-5.67zm-3852.46 -3681.55c1.13,2.8 -7.53,19.63 46.17,11.53 22.18,-3.35 8.35,-1.19 15.84,-6.57 -6.05,-14.81 6.65,-11.2 -25.74,-11.81 -39.74,-0.77 -31.4,3.33 -36.27,6.84zm-182.49 2691.95c-10.42,0.06 -20.78,0.22 -31.23,0.2 4.05,24.35 -6.65,18.62 31.01,18.57 37.45,-0.06 26.82,-0.99 31.2,-12.39 -6.02,-4.19 3.79,-6.59 -30.98,-6.38zm1666.99 -3566.55c7.21,14.11 -4.48,11.37 27.1,11.79 23.24,0.3 23.11,-0.82 32.59,-6.81 -1.61,-3.86 8.39,-20.87 -42.64,-12.57 -14.12,2.3 -10.3,2.53 -17.04,7.6zm1990.63 3188.7c-48.87,-7.34 -40.42,6.74 -42.58,11.53 4.79,3.15 -2.69,3.63 16.91,6.59 49.55,7.48 40.61,-6.97 42.62,-11.56 -3.8,-2.48 2.56,-3.63 -16.95,-6.56zm233.22 1367.48c-11.25,2.21 -5.32,1.53 -11.37,5.64 9.06,15.04 -16.6,13.4 25.86,14.17 30.33,0.55 28.53,-4.98 33.9,-9.2 -4.94,-8.67 2.75,-11.33 -28.47,-11.62 -1.55,-0.02 -18.83,0.8 -19.91,1.02zm-1971.97 -3607.04c3.32,5.73 -5.76,11.37 28.77,11.84 32.86,0.44 26.93,-3.83 31.27,-6.87 -2.35,-6.2 8.67,-20.38 -41.5,-12.15 -17.02,2.79 -13.05,3.82 -18.54,7.18zm2384.33 1357.5c17.57,-5.63 13.49,10.64 14.43,-25.52 0.93,-36.38 -5.27,-28.18 -14.43,-31.34 -4.77,7.01 -6.13,3.11 -6.7,26.04 -0.8,32.36 4.14,27.25 6.7,30.81zm-1485.81 1620.29c10,-14.69 10.79,-41.4 0,-57.21 -9.75,3.36 -15.31,-5.33 -14.19,31.38 1.11,38.25 -4.86,19.43 14.19,25.83zm-313.07 -1003.75c19.94,-3.68 13.64,6.77 14.55,-20.66 0.51,-15.35 0.58,-24.7 -4.61,-35.81l-9.93 -0.67c-9.2,16.31 -9.04,42.37 -0.01,57.14zm1204.63 356.46c4.26,15.3 -1.9,1.1 7.88,11.28 14.21,-6.67 11.23,2.27 11.7,-25.87 0.33,-20.03 -0.6,-22.48 -6.73,-31.29 -17.11,5.87 -13.86,-10.76 -14.33,25.88 -0.01,0.36 1.3,19.33 1.48,20zm-1681.68 -2364.39l5.62 -40.89c-2.29,-19.01 -1.54,-9.37 -5.62,-15.88 -20.16,3.45 -14.2,-4.79 -14.48,25.89 -0.26,28.69 -5.48,27.16 14.48,30.87zm775.95 2856.64c0.91,38.33 -5.11,19.41 14.17,25.91 4.64,-6.74 3.47,3.84 6.37,-15.91 1.98,-13.47 0.59,-30.97 -6.37,-41.09 -10.17,3.35 -15.08,-5.49 -14.17,31.09zm-2520.18 -2801.55c4.68,-1.94 18.92,6.09 11.56,-41.34 -3.35,-21.52 -1.39,-8.65 -6.59,-16.01 -4.62,1.92 -19,-6.19 -11.59,41.38 3.39,21.75 1.32,8.54 6.62,15.96zm3438.76 2191.43c10.15,-15.17 5.51,-32.26 6.27,-57.27 -22.51,2.18 -18.76,0.09 -19.63,20.99 -2,41.23 -0.93,31.48 13.36,36.27zm581.4 -727.08c15.87,-4.12 13.04,8.73 14.35,-24.33 1.45,-36.45 -5.07,-28.22 -14.35,-31.33 -12.15,17.59 -7.67,45.94 0,55.66zm-652.36 -1550.16c4.16,9.89 -5.59,11.7 31.24,11.57 35.66,-0.06 26.63,-2.38 30.02,-11.57 -5.82,-4.81 1.66,-3.39 -10.37,-6.21 -10.94,-2.56 -38.01,-4.41 -50.89,6.21zm-1838.58 -879.57c7.81,5.49 51.82,17.81 60.24,-4.97 -7.65,-6.91 -5.67,-7.1 -29.05,-7.57 -42.59,-0.86 -22.7,0.16 -31.2,12.54zm-1529.22 836.19c4.64,-1.93 18.95,6.14 11.57,-41.36 -3.35,-21.51 -1.4,-8.66 -6.6,-16.02 -14.34,6 -11.52,-6.39 -11.93,25.99 -0.43,33.87 3.86,27.02 6.96,31.38zm1480.85 -747.32l9.93 0.38c4.16,-31.2 9.17,-40.07 0.01,-55.49 -19.46,3.53 -13.52,-6.07 -14.48,20.48 -0.5,13.92 -0.6,24.57 4.54,34.63zm-2380.29 2257.88c28.92,0 40.97,4.33 55.98,-6.2 -6.94,-18.07 21.24,-11.85 -55.98,-11.85l0 18.05zm4407.85 836.79c-36.59,-0.37 -27.33,2.3 -31.29,11.73 5.46,3.85 -4.06,6.84 31.29,6.71 24.55,-0.08 21.95,-0.58 29.2,-6.71 -3.12,-8.46 4.47,-11.4 -29.19,-11.73zm-904.42 636.07c-36.63,-0.35 -27.29,2.18 -31.29,11.73 13.83,9.74 48.65,9.96 60.79,0 -6.47,-16.16 -4.01,-11.49 -29.5,-11.73zm-2968.77 -187.24c-1.1,36.47 4.35,28.23 11.97,31.4 10.42,-14.6 6.25,-32.96 6.33,-57.4 -23.12,2.77 -17.82,-7.62 -18.29,26zm4054.18 994.22c0.46,36.35 -4.03,19.74 12.74,25.88 5.22,-7.37 3.2,5.97 6.49,-15.85l-0.75 -29.87c-2.48,-11.83 -1.29,-4.65 -5.74,-10.35 -8.36,2.72 -13.19,-5.77 -12.74,30.19zm-2212.36 298l18.79 0c0,-65.96 6.66,-48.21 -14.97,-50.94 -6.63,13.43 -3.83,32.07 -3.83,50.94zm-1432.24 -4049.99c12.87,10.62 49.95,6.34 49.96,6.34 14.54,-4.56 5.42,2.11 10.91,-11.31 -6.24,-4.51 0.85,-3.47 -11.29,-5.93l-39.92 -0.33c-15.6,5.16 -2.48,-0.39 -9.67,11.22zm3644.63 3622.69c0.25,36.69 -1.86,21.19 12.71,27.35 7.67,-12.2 8.12,-26.23 5.52,-46.92 -2.35,-10.62 -1.48,-4.62 -5.52,-9.61 -6.42,2.09 -12.95,-4.69 -12.71,29.18zm-1906.74 -3553.12c3.52,8.25 -4.8,12.84 31.26,11.52 23.71,-0.86 23.47,2.76 27.36,-11.52 -9.04,-7.1 -11.67,-5.45 -27.34,-6.57 -24.95,-1.78 -21.36,-1.41 -31.28,6.57zm1690.87 -98.46c6.17,-8.38 7.21,-10.04 6.97,-30.94 -0.36,-32.48 2.42,-20.04 -11.94,-26.04 -6.21,8.84 -7.19,10.73 -6.9,31.45 0.44,32.06 -2.29,19.96 11.87,25.53zm38.43 33.86c4.51,10.72 -6.07,11.15 31.17,10.78 35.7,-0.38 26.25,-0.85 30.57,-10.78 -13.3,-10.08 -49.48,-9.49 -61.74,0zm-1024.09 2951.77c-7.96,-22.4 -50.92,-10.86 -59.2,-4.97 6.53,8.19 -5.72,12.48 31.22,11.74 21.08,-0.41 20.58,-0.09 27.98,-6.78zm980.69 -2858.41c14.42,-4.51 11.25,2.99 11.4,-23.5 0.19,-34.9 -3.62,-26.65 -6.44,-30.61 -4.14,1.55 -18.68,-6.99 -11.06,40.49 2.81,17.46 2.42,9.04 6.09,13.62zm-3821.39 2505.31c-7.81,2.79 -12.59,-5.35 -11.96,30.26 0.58,32.67 -2.65,20 11.96,25.95 9.78,-13.65 10.08,-43.49 0,-56.21zm188.83 -924.28c14.58,-5.76 10.99,1.41 11.96,-24.28 1.41,-37.23 -5.07,-29.45 -11.96,-32.58 -9.4,14.53 -10.23,44 0,56.86zm2432.42 402.78c15.69,10.16 45.33,8.76 58.88,0 -6.37,-13.62 5.37,-10.61 -26.31,-11.79 -36.9,-1.24 -26.24,4.3 -32.57,11.79zm-2432.42 -274.46c14.67,-7.81 2.76,8.95 9.85,-8.6l1.5 -35.87c-5.24,-17.48 1.9,-6.05 -11.35,-12.86 -9.64,16.73 -9.67,40.69 0,57.33zm1898.27 -1645.65l15.24 -37.95c-2.97,-25.79 0.49,-5.55 -5.29,-15.51 -18.93,3.33 -13.74,-6.33 -14.01,20.23 -0.11,10.71 0.82,25.91 4.07,33.23zm1087.09 1956.08c3.03,2.34 11.58,22.59 32.31,-7.47 -9.96,-7.27 -14.84,-18.78 -32.31,7.47zm-89.15 59.33c6.27,3.82 8.89,15.58 22.47,1.1 9.23,-9.85 3.05,-10.73 -2.57,-20.99 -15.46,7.56 -14.65,3.08 -19.9,19.89zm-84.87 59.51c0.22,0.09 1.25,10.33 15.04,-1.47 12.81,-10.96 -0.19,-28.23 -14.45,-14.83 -15.01,14.11 -0.73,16.05 -0.59,16.3zm44.48 -29.47c4.73,2.04 0.77,6.76 22.76,-3.19l-5.21 -19.18c-3.56,1.42 -16.73,2.77 -19.91,12.43 -6.17,18.75 -0.19,4.16 2.35,9.94zm85.24 -66.3c1.41,3.2 3.46,8.4 6.7,14.54 18.09,-5.38 9.83,-0.95 22.37,-12.44 -8.32,-14.3 -1,-6.2 -17.43,-12.85l-11.64 10.75zm-813.36 -554.01c5.62,-96.66 81.38,-121.96 174.1,-179.47 15.69,-9.73 58.97,-38.83 75.57,-45.3 6.86,18.34 19.42,33.98 28.3,53.85l-277.97 170.92zm174.22 136.62l29.4 -94.11c77.04,-227.26 28.38,-153.22 143.36,-231.97 -6.26,43.81 -45.63,142.09 -60.62,187.42 -23.73,71.79 -39.68,119.26 -112.14,138.66zm123.1 -318.45l-35.78 -53.46c45.49,-20.48 78.72,-48.17 136.82,-57.09 32.16,-4.94 59.42,-2.72 82.86,-17.16 45.51,-28.03 9.45,-62.33 76.09,-117.77 109.98,-91.5 287.35,65.29 158.36,192.44 -38.12,37.58 -98.3,42.45 -146.15,14.8 -28.78,-16.63 -34.51,-57.16 -144.54,-33.1 -30.65,6.71 -100.59,55.3 -127.66,71.34zm71.95 -124.79l-54.64 20.68c11.2,-39.64 13.89,-97.94 -5.02,-135.52 -11.69,-23.24 -22.09,-20.73 -39.7,-35.32 -88.65,-73.39 -37.73,-218.87 77,-222.82 82.93,-2.85 160.23,87.04 119.08,175.63 -26.93,57.98 -47.75,50.69 -78.84,74.74 -35.8,27.69 -21.21,72.57 -17.89,122.59zm-386.37 330.86c34.03,-2.29 101.07,-53.33 130.18,-70.83l125.75 -73.91c-10.44,41.82 -90.15,259.67 -87.05,270.8 2.16,3.45 -1.41,18.51 47.18,-1.47 42.96,-17.68 71.79,-47.39 86.97,-93.47 11.64,-35.33 74.95,-250.12 96.17,-265.74 32.19,-23.69 41.92,-25.05 89.15,-29.62 83.69,-8.09 67.23,65.6 178.85,55.19 142.08,-13.25 176.92,-209.32 47.19,-272.82 -71.78,-35.13 -145.84,-2.67 -176.91,37.57 -31.52,40.83 -20.31,58.92 -36.99,82.67 -18.39,26.2 -56.68,24.04 -95.68,27.29 -6.03,-92.46 -22.55,-82.01 44.61,-122.92 62.94,-38.34 85.8,-137.76 33.4,-209 -82.47,-112.12 -285.13,-43.77 -256.92,116.72 16.63,94.57 83.4,73.37 92.28,145.88 12.47,101.84 -5.77,101.94 -42.14,125.8l-190.65 116.66c-62.2,39.46 -83.64,66.22 -85.4,161.21zm-155.77 734.1c-14.41,-60.07 77.76,-75.27 86.76,-19.08 10.02,62.57 -75.4,66.43 -86.76,19.08zm34.31 -71.32c-89.05,17.38 -59.37,141.93 26.72,120.44 74.39,-18.56 51.16,-135.65 -26.72,-120.44zm-955.52 1569.15c30.19,5.53 296.54,82.05 311.85,92.04 -64.5,38.78 -76.27,40.7 -160,16.73l-170.64 -47.47c3.06,-17.63 10.92,-45.21 18.79,-61.3zm-21.06 -5.92l-16.44 59.37c-159.9,-24.43 -155.94,-149.62 -268.59,-93.65 -109.45,54.38 -219.8,-75.71 -161.29,-176.51 52.92,-91.17 198.33,-88.28 232.6,31.46 18.79,65.64 -23.4,53.09 66.04,128.52 23.38,19.71 111.12,39.33 147.68,50.81zm-36.78 -30.93c9.71,-11.2 142.75,-66.92 168.59,-77.98 51.39,-22 124.87,-64.57 185.01,-15.95l-253.88 115.59c-18.47,5.5 -79.3,-12.15 -99.72,-21.66zm-418.15 243.5l16.68 0c6.29,-37.65 8.98,-62.28 36.67,-89.65 83.1,-82.16 144.91,-2.02 199.15,-28.95 28.49,-14.14 39.32,-44.74 64.36,-62.71 30.77,18.81 39.92,16.97 45.99,31.03 -36.03,5.83 -50.48,31.68 -71.03,55.38 -33.92,39.12 -23.37,39.53 -20.87,94.91l17.53 0c-0.6,-44.9 -11.91,-46.53 15.44,-78.01 39.56,-45.52 60.07,-76.86 124.23,-57.54l244.36 69.08c48.39,10.05 131.96,-14.13 142.76,-57.77 -29.66,-23.67 -236.99,-67.26 -274.79,-84.48 15.38,-14.74 224.02,-98.63 248.29,-113.85 11.3,-7.08 3.46,0.99 11.59,-10.39 -5.05,-10.95 -3.45,-10.19 -17.19,-19.65 -84.6,-58.2 -171.86,0.01 -248.24,33.37 -133.58,58.33 -158.32,97.12 -245.7,14.17 -43.13,-40.95 -16.02,-31.11 -29.36,-89.27 -43.49,-189.51 -341.44,-118.76 -277.11,81.94 17.7,55.22 76.37,101.13 150.32,94.79 68.05,-5.83 76.78,-69.08 163.84,23.79 -7.79,13.74 -22.01,26.93 -31.2,38.55 -45.49,57.52 -77.43,-4.6 -150.8,12.63 -84.54,19.86 -106.9,73.28 -114.91,142.62zm1103.34 -352.24c6.12,-17.44 28.15,-75.18 39.21,-83.85 12.07,23.45 39.29,39.51 48.35,65.44l-87.56 18.41zm44.75 -104.94c12.89,-35.44 28.47,-72.61 44.8,-109.5 12.97,3.67 94.3,45.88 98.71,49.46 11.64,9.43 37.56,106.42 38.06,113.46l-112.96 26.01c-18.14,-15.66 -53.17,-60.49 -68.61,-79.43zm198.67 41.26c-7.57,-24.49 -26.76,-77.82 -29.84,-100.89 17.54,-21.33 359.08,-302.76 391.46,-332.32 12.34,8.56 51.65,59.47 63.6,73.92 -7.76,10.4 -387.65,336.38 -425.22,359.3zm-45.86 -117.47c-26.79,-15.66 -67.47,-36.89 -93.27,-47.25l426.22 -359.37 64.06 75.34 -397 331.28zm348.76 -420.73c19,-20.13 45.67,-46.53 75.5,-48.43 32.35,33.23 63.61,69.77 93.01,107.3 26.15,33.38 62.05,50.6 -31.96,108.81 -11.78,-24.18 -117.36,-135.63 -136.55,-167.67zm214.05 119.26c12.33,-46.06 -46.61,-88.14 -66.53,-113.82 -26.17,-33.75 -59.57,-93.15 -107.85,-64.66l-502.78 421.85 -107.15 246.82c-2.14,14.8 -4.68,4.82 2.16,11.76 3.82,3.87 252.6,-43.07 286.33,-72.13l301.98 -254.58c28.85,-23.92 187.15,-150.28 193.83,-175.26zm323.8 -1023.67l347.51 -215.18 315.04 508.17 -350.45 212.74c-92.4,-147.28 -231.72,-367.52 -312.11,-505.73zm-63.55 -6.18c52.71,24.03 18.15,-32.87 103.73,107.47l248.83 403.76c-45.72,-1.19 -47.41,-11.89 -64.97,-40.04l-287.58 -471.2zm4.07 -18.67c5.36,-8.09 50.24,-35.29 60.7,-37.74 0.86,37.1 0.26,21.45 -13.37,48.33l-47.33 -10.59zm320.41 -263.54c28.21,-17.55 68.37,-52.89 97.42,-12.16 31.03,43.51 -21.7,69.05 -48.29,85.4l-287.28 177.43c-17.27,-46.03 9.95,-40.9 -47.74,-73.05l285.9 -177.62zm104.73 64.77c7.02,-18.03 25.1,-29.53 19.6,-63.35 -3.69,-22.73 -18.48,-38.3 -35.27,-45.93 -42.08,-19.1 -85.14,18.6 -112.33,35.64l-297.39 184.41c-102.07,64.76 -77.57,130.16 -31.29,206.6l185.32 296.69c6.7,10.74 30.42,69.21 35.55,32.95 1.82,-12.87 -191.55,-320.91 -206.46,-343.7 -20.46,-31.28 -48.4,-68.88 -28.91,-119.37 12.65,-32.76 49.95,-70.54 92.39,-43.97 -5.14,13.36 -71.65,48.67 -84.55,56.15 6.69,30.54 54.85,96.91 74.16,127.93l147.82 239.97c26.51,36.72 49.61,80.29 74.2,119.5 27.35,43.62 19.53,47.3 45.56,55.04 73.75,21.92 74.77,15.86 143.97,-30.1 57.91,-38.46 273.55,-163.43 296.02,-186.7 -3.82,-23.98 -25.8,-50.19 -38.65,-70.7l-279.75 -451.08zm-725.52 203.76c18.3,-2.96 14,0.93 13.99,-24.66 -0.01,-30.97 6.17,-27.41 -13.99,-31.36 -7.66,13.23 -6.37,43.47 0,56.02zm-98.94 -94.44c0.76,2.41 -7.88,19.35 44.54,11.57 22.12,-3.29 8.45,-1.2 16.02,-6.6 -1.05,-2.51 7.14,-20.01 -46.39,-11.43 -22.67,3.63 -7.41,0.79 -14.17,6.46zm-421.55 -382.63c-14.87,-58.49 67.33,-69.32 77.2,-23.82 12.93,59.58 -66.59,65.57 -77.2,23.82zm16.43 -66.57c-71.94,28.01 -28.84,138.5 43.57,108.41 69.89,-29.05 33.17,-138.3 -43.57,-108.41zm-799.92 -62.63c-5.21,-41.87 46.07,-61.97 69.23,-76.61l184.95 -113.18c118.82,-74.53 102.21,-20.75 221.13,163.27 19.09,29.53 36.64,59.24 56.54,92.65 85.27,143.18 81.04,112.5 -109.22,230.13 -62.61,38.71 -155.32,116.88 -196.91,76.48 -13.67,-13.28 -223.44,-354.48 -225.71,-372.73zm57.18 -145.98c39.49,-14.94 104.87,-63.66 145.21,-86.3 6.13,13.64 13.86,26.45 22.02,39.89 -31.52,11.04 -114.87,74.76 -146.73,86.77 -7.52,-12.35 -15.76,-24.51 -20.5,-40.36zm124.22 -182.39c5.45,15.37 28.48,53.66 35.67,61.98 -10.46,9.67 -21.46,17.47 -36.15,22.57 -8.77,-8.49 -9.3,-13.46 -15.64,-23.52 -14.54,-23.1 -2.49,-17.72 -21.58,-13.53 -2.16,18.46 5.8,28.74 19.6,48.6l-37.05 21.95c-8.01,-11.52 -20.07,-39.91 -29.06,-39.31 -15.49,7.48 -1.91,-6.27 -8.08,8.05 -5.37,12.47 9.54,18.44 21.07,44.76 -13.68,5.43 -23.75,13.35 -37.3,20.45 -18.27,-21.51 -14.39,-37.69 -35.2,-41.41 -9.37,11.59 -9.34,5.04 17.7,53.29 -13.33,7.84 -23.88,15.32 -40.23,19.77 -6.37,-16.52 -26.15,-47.63 -36.45,-63.7l202.7 -119.94zm-168.59 77.65c-10.35,-19.24 -21.54,-70.38 -28.52,-93.63 -6.16,-20.49 -29.45,-69.77 15.32,-79.49 18.61,-4.04 114.12,91.95 125.41,105.58 -37.98,22.68 -76.07,44.66 -112.21,67.54zm-16.67 11.49c-19.26,10.15 -20.73,7.78 -38.83,25.55 3.53,22.44 40.78,78.03 55.17,93.9 16.75,-5.49 9.77,0.09 22.37,-13.11l25.01 38.47c-30.5,20.75 -62.23,30.35 -73.94,64.1 -15.66,45.18 11.95,70.55 29.49,100.83l160.03 262.42c18.59,29.94 30.9,64.16 70.65,70.29 45.18,6.97 71,-20.54 100.83,-37.88l176.54 -107.07c81.6,-52.29 109.04,-65.31 47.27,-165.91l-160.92 -261.47c-18.76,-30.38 -27.79,-63.13 -68.62,-70.98 -48.68,-9.36 -68.21,20.08 -100.65,34.22l-22.44 -36.46 23.36 -13.77c-5.02,-22 -42.97,-83.66 -56.81,-95.48 -17.19,4.63 -30,13.62 -43.4,22.27 -7.62,-12.23 -53.36,-52.17 -67.06,-65.87 -17.84,-17.85 -47.82,-59.53 -87.2,-43.26 -44.58,18.42 -36.44,45.34 -22.34,92.39 8.02,26.76 21.59,86.87 31.49,106.82zm-1548.37 90.43c9.86,-5.78 20.52,-12.4 33.65,-16.34l15.84 30.68c-7.69,5.24 -23.1,15.05 -34.51,18.95l-14.99 -33.29zm51.51 -24.43l35.7 -17.7c5.11,14.59 9.93,22.76 14.67,35.65l-33.28 14.17 -17.09 -32.13zm52.89 -25.3l33.64 -16.45 14.32 34.66 -33.33 15.47 -14.63 -33.68zm-102.3 -35.04c15.64,-12.16 51,-25.27 66.33,-32.97 4.99,7.66 22.15,40.03 24.23,51.74 -18.68,7.92 -47.09,25.35 -67.8,29.93 -6.54,-16.57 -14.07,-29.38 -22.77,-48.69zm100.11 -172.76c43.01,96.07 14.37,97.99 -79.63,140.91 -55.11,25.16 -110.18,72.9 -148.19,-36.41l227.82 -104.5zm-71.43 -219.29l63.37 201.96 -234.99 107.03c-12.99,-34.55 -90.96,-140.5 -107.75,-175.34l279.37 -133.65zm-295.29 -176.15l0 19.37c35.75,-8.17 162.87,-79.84 211.87,-96.6l13.9 41.65 -225.78 107.46 0 20.56c40.37,-11.24 178.37,-87.55 232.44,-106.7 12.44,45.58 50.48,128.85 55.04,173.62 -59.57,20.93 -253.23,123.53 -287.48,132.16l0 33.26c35.74,52.46 69.83,106.54 102.89,160.36 40.23,65.51 67.85,134.54 144.18,91.06l26.45 50.65 -31.29 13.3c4.94,25.19 16.85,50.76 31.09,67.16 34.71,-6.17 121.68,-58.22 165.41,-73.06 -1.71,-31.6 -16.08,-37.48 -24.67,-67.64l-40.13 10.28 -21.56 -51.88c76.98,-30.79 51.09,-76.87 29.1,-143.67l-132.12 -400.16c-5.97,-18.98 -14.5,-73.76 -32.65,-80.39 -11.61,-1.13 -188.11,85.97 -216.69,99.21z"/>
 </g>
</svg>
