<?xml version="1.0" encoding="UTF-8"?>
<!DOCTYPE svg PUBLIC "-//W3C//DTD SVG 1.1//EN" "http://www.w3.org/Graphics/SVG/1.1/DTD/svg11.dtd">
<!-- Creator: CorelDRAW 2021 (64-Bit) -->
<svg xmlns="http://www.w3.org/2000/svg" xml:space="preserve" width="46.9786mm" height="9.961mm" version="1.1" style="shape-rendering:geometricPrecision; text-rendering:geometricPrecision; image-rendering:optimizeQuality; fill-rule:evenodd; clip-rule:evenodd"
viewBox="0 0 28610.17 6066.29"
 xmlns:xlink="http://www.w3.org/1999/xlink"
 xmlns:xodm="http://www.corel.com/coreldraw/odm/2003">
 <defs>
  <style type="text/css">
   <![CDATA[
    .fil3 {fill:#373435;fill-rule:nonzero}
    .fil2 {fill:#FFF212;fill-rule:nonzero}
    .fil1 {fill:#EC268F;fill-rule:nonzero}
    .fil0 {fill:#00AFEF;fill-rule:nonzero}
   ]]>
  </style>
 </defs>
 <g id="Capa_x0020_1">
  <metadata id="CorelCorpID_0Corel-Layer"/>
  <path class="fil0" d="M-0 3037.35c0,-584.95 126.55,-1106.62 379.65,-1565.08 253.1,-458.4 606.08,-815.58 1058.88,-1071.48 452.79,-255.96 966,-383.92 1539.75,-383.92 703.1,0 1304.91,185.62 1805.52,556.87 500.6,371.25 835.31,877.45 1004.07,1518.67l-1586.21 0c-118.09,-247.5 -285.44,-435.93 -502,-565.28 -216.56,-129.35 -462.6,-194.09 -738.24,-194.09 -444.33,0 -804.31,154.69 -1079.95,464.06 -275.64,309.37 -413.39,722.77 -413.39,1240.24 0,517.47 137.76,930.92 413.39,1240.3 275.64,309.31 635.62,464 1079.95,464 275.64,0 521.67,-64.68 738.24,-194.03 216.56,-129.41 383.92,-317.84 502,-565.28l1586.21 0c-168.76,641.22 -503.46,1146.02 -1004.07,1514.41 -500.6,368.45 -1102.42,552.67 -1805.52,552.67 -573.74,0 -1086.95,-127.95 -1539.75,-383.92 -452.79,-255.9 -805.77,-611.68 -1058.88,-1067.28 -253.1,-455.6 -379.65,-975.87 -379.65,-1560.88zm7152.51 -2007.83l0 4005.48c-116.02,-134.96 -220.76,-281.91 -314.25,-440.98 -272.77,-464.06 -409.19,-985.73 -409.19,-1565.08 0,-579.35 136.42,-1099.68 409.19,-1560.88 93.48,-158.1 198.23,-304.26 314.25,-438.54z"/>
  <path class="fil1" d="M14305.09 84.41l0 5922.81 -999.8 0 0 -5922.81 999.8 0zm-7152.51 4950.66l0 -4005.67c222.35,-257.49 486.05,-471.25 790.97,-641.28 464,-258.77 974.47,-388.12 1531.28,-388.12 556.87,0 1067.34,129.35 1531.34,388.12 464.06,258.77 829.65,618.75 1096.82,1079.95 267.17,461.2 400.79,981.53 400.79,1560.88 0,579.35 -135.02,1101.02 -404.99,1565.08 -269.97,464 -635.62,825.38 -1096.82,1084.15 -461.26,258.77 -970.27,388.12 -1527.14,388.12 -556.81,0 -1067.28,-129.35 -1531.28,-388.12 -304.93,-170.03 -568.63,-384.4 -790.97,-643.11zm2322.26 -284.95c472.53,0 850.78,-157.49 1134.82,-472.47 284.04,-315.04 426.06,-731.23 426.06,-1248.7 0,-523.13 -142.02,-940.73 -426.06,-1252.9 -284.04,-312.18 -662.29,-468.26 -1134.82,-468.26 -478.07,0 -859.18,154.69 -1143.22,464 -284.04,309.37 -426.06,728.43 -426.06,1257.17 0,523.07 142.02,940.73 426.06,1252.9 284.04,312.18 665.15,468.26 1143.22,468.26z"/>
  <path class="fil2" d="M21457.66 283.86l0 1755.7c-54.44,-94.88 -118.45,-182.76 -191.96,-263.52 -284.04,-312.18 -662.29,-468.26 -1134.82,-468.26 -478.07,0 -859.18,154.69 -1143.22,464 -284.04,309.37 -426.06,728.43 -426.06,1257.17 0,523.07 142.02,940.73 426.06,1252.9 284.04,312.18 665.15,468.26 1143.22,468.26 472.53,0 850.78,-157.49 1134.82,-472.47 73.51,-81.55 137.51,-169.85 191.96,-264.92l0 1768.24c-407.12,190.19 -849.38,285.32 -1326.78,285.32 -556.81,0 -1067.28,-129.35 -1531.28,-388.12 -464.06,-258.77 -832.51,-620.15 -1105.28,-1084.15 -272.77,-464.06 -409.19,-985.73 -409.19,-1565.08 0,-579.35 136.42,-1099.68 409.19,-1560.88 272.77,-461.2 641.22,-821.18 1105.28,-1079.95 464,-258.77 974.47,-388.12 1531.28,-388.12 476.24,0 918.5,94.64 1326.78,283.86zm-7152.57 5723.36l0 -5922.81 442.99 0 0 4809.13 1889.86 0 0 1113.69 -2332.85 0z"/>
  <path class="fil3" d="M21457.66 5768.31l0 -1768.24c156.09,-272.29 234.1,-600.23 234.1,-983.79 0,-387.75 -78.01,-717.53 -234.1,-989.39l0 -1755.7c69.18,32.09 137.33,66.81 204.56,104.26 464.06,258.77 829.65,618.75 1096.82,1079.95 267.17,461.2 400.79,981.53 400.79,1560.88 0,579.35 -135.02,1101.02 -404.99,1565.08 -269.97,464 -635.62,825.38 -1096.82,1084.15 -65.83,36.91 -132.58,71.13 -200.36,102.8zm5524.16 226.25l-1231.77 -2235.84 -345.91 0 0 2235.84 -1442.79 0 0 -5922.81 2421.46 0c466.86,0 864.79,81.55 1193.83,244.64 329.05,163.15 575.14,386.72 738.3,670.76 163.09,284.04 244.64,600.42 244.64,949.19 0,393.72 -111.08,745.24 -333.25,1054.61 -222.16,309.37 -549.81,528.74 -982.93,658.09l1366.79 2345.52 -1628.36 0zm-1577.69 -3256.71l894.32 0c264.37,0 462.6,-64.68 594.81,-194.03 132.15,-129.41 198.23,-312.18 198.23,-548.41 0,-225.03 -66.08,-402.19 -198.23,-531.54 -132.21,-129.41 -330.45,-194.09 -594.81,-194.09l-894.32 0 0 1468.07z"/>
 </g>
</svg>
