<?xml version="1.0" encoding="UTF-8"?>
<!DOCTYPE svg PUBLIC "-//W3C//DTD SVG 1.1//EN" "http://www.w3.org/Graphics/SVG/1.1/DTD/svg11.dtd">
<!-- Creator: CorelDRAW 2021 (64-Bit) -->
<svg xmlns="http://www.w3.org/2000/svg" xml:space="preserve" width="21.7544mm" height="21.7544mm" version="1.1" style="shape-rendering:geometricPrecision; text-rendering:geometricPrecision; image-rendering:optimizeQuality; fill-rule:evenodd; clip-rule:evenodd"
viewBox="0 0 1036.79 1036.79"
 xmlns:xlink="http://www.w3.org/1999/xlink"
 xmlns:xodm="http://www.corel.com/coreldraw/odm/2003">
 <defs>
  <style type="text/css">
   <![CDATA[
    .fil18 {fill:#943337}
    .fil0 {fill:#99C95A}
    .fil14 {fill:#3B302B;fill-rule:nonzero}
    .fil8 {fill:#3C2F2B;fill-rule:nonzero}
    .fil9 {fill:#573F2D;fill-rule:nonzero}
    .fil13 {fill:#6C5142;fill-rule:nonzero}
    .fil11 {fill:#6D5241;fill-rule:nonzero}
    .fil10 {fill:#6E5340;fill-rule:nonzero}
    .fil17 {fill:#76604E;fill-rule:nonzero}
    .fil7 {fill:#81AA59;fill-rule:nonzero}
    .fil12 {fill:#836658;fill-rule:nonzero}
    .fil6 {fill:#A33744;fill-rule:nonzero}
    .fil16 {fill:#C7726D;fill-rule:nonzero}
    .fil4 {fill:#D9927F;fill-rule:nonzero}
    .fil5 {fill:#DEA18B;fill-rule:nonzero}
    .fil1 {fill:#E54242;fill-rule:nonzero}
    .fil15 {fill:#E5AA95;fill-rule:nonzero}
    .fil3 {fill:#F6C3AE;fill-rule:nonzero}
    .fil2 {fill:#FEFEFE;fill-rule:nonzero}
   ]]>
  </style>
 </defs>
 <g id="Capa_x0020_1">
  <metadata id="CorelCorpID_0Corel-Layer"/>
  <g id="_2885150858416">
   <path class="fil0" d="M518.41 12.65c279.32,0 505.74,226.43 505.74,505.75 0,279.32 -226.43,505.74 -505.74,505.74 -279.32,0 -505.74,-226.43 -505.74,-505.74 0,-279.32 226.43,-505.75 505.74,-505.75z"/>
   <path class="fil1" d="M426.48 679.76c0,0 19.51,-0.44 31.87,1.63 0,0 30.63,63.54 90.45,63.54 59.83,0 111.63,-59.81 111.63,-59.81 0,0 20.22,3.12 29.15,2.23 0,0 -19.34,94.21 5.65,194.21 9.83,39.29 20.34,72.66 29.49,98.69 -63,28.2 -132.82,43.89 -206.32,43.89 -57.94,0 -113.61,-9.75 -165.45,-27.71 17.24,-32.21 37.03,-76.64 44.06,-121.13 13.38,-84.82 29.47,-195.54 29.47,-195.54z"/>
   <path class="fil2" d="M528.57 802.82c0,5.35 -4.33,9.67 -9.67,9.67 -5.35,0 -9.67,-4.33 -9.67,-9.67 0,-5.33 4.33,-9.67 9.67,-9.67 5.35,0 9.67,4.34 9.67,9.67z"/>
   <path class="fil2" d="M573.99 829.98c0,5.34 -4.34,9.67 -9.67,9.67 -5.35,0 -9.67,-4.34 -9.67,-9.67 0,-5.35 4.33,-9.67 9.67,-9.67 5.33,0 9.67,4.33 9.67,9.67z"/>
   <path class="fil2" d="M601.08 785.2c0,5.35 -4.33,9.67 -9.67,9.67 -5.34,0 -9.67,-4.33 -9.67,-9.67 0,-5.35 4.33,-9.67 9.67,-9.67 5.35,0 9.67,4.33 9.67,9.67z"/>
   <path class="fil2" d="M618.65 857.94c0,5.35 -4.34,9.67 -9.67,9.67 -5.35,0 -9.67,-4.33 -9.67,-9.67 0,-5.35 4.33,-9.67 9.67,-9.67 5.34,0 9.67,4.33 9.67,9.67z"/>
   <path class="fil2" d="M645.95 813.2c0,5.35 -4.33,9.67 -9.67,9.67 -5.35,0 -9.67,-4.33 -9.67,-9.67 0,-5.35 4.33,-9.67 9.67,-9.67 5.35,0 9.67,4.33 9.67,9.67z"/>
   <path class="fil2" d="M546.43 875.79c0,5.35 -4.34,9.67 -9.67,9.67 -5.35,0 -9.67,-4.33 -9.67,-9.67 0,-5.35 4.32,-9.67 9.67,-9.67 5.33,0 9.67,4.33 9.67,9.67z"/>
   <path class="fil2" d="M518.9 921.19c0,5.35 -4.33,9.67 -9.67,9.67 -5.35,0 -9.67,-4.32 -9.67,-9.67 0,-5.34 4.33,-9.67 9.67,-9.67 5.35,0 9.67,4.33 9.67,9.67z"/>
   <path class="fil2" d="M564.32 948.53c0,5.34 -4.34,9.67 -9.67,9.67 -5.35,0 -9.67,-4.34 -9.67,-9.67 0,-5.35 4.33,-9.67 9.67,-9.67 5.34,0 9.67,4.32 9.67,9.67z"/>
   <path class="fil2" d="M672.92 766.86c0,5.35 -4.33,9.67 -9.67,9.67 -5.35,0 -9.67,-4.33 -9.67,-9.67 0,-5.35 4.33,-9.67 9.67,-9.67 5.35,0 9.67,4.33 9.67,9.67z"/>
   <path class="fil2" d="M591.55 903.13c0,5.35 -4.33,9.68 -9.67,9.68 -5.35,0 -9.67,-4.33 -9.67,-9.68 0,-5.33 4.33,-9.67 9.67,-9.67 5.35,0 9.67,4.34 9.67,9.67z"/>
   <path class="fil2" d="M500.9 848.27c0,5.35 -4.33,9.67 -9.67,9.67 -5.35,0 -9.67,-4.33 -9.67,-9.67 0,-5.35 4.33,-9.67 9.67,-9.67 5.35,0 9.67,4.32 9.67,9.67z"/>
   <path class="fil2" d="M446.86 938.85c0,5.34 -4.33,9.67 -9.67,9.67 -5.35,0 -9.67,-4.34 -9.67,-9.67 0,-5.35 4.33,-9.67 9.67,-9.67 5.35,0 9.67,4.33 9.67,9.67z"/>
   <path class="fil2" d="M419.91 982.46c0,5.33 -4.33,9.66 -9.67,9.66 -5.35,0 -9.66,-4.33 -9.66,-9.66 0,-5.35 4.32,-9.67 9.66,-9.67 5.35,0 9.67,4.33 9.67,9.67z"/>
   <path class="fil2" d="M466.2 1011.12c0,4.69 -3.33,8.6 -7.77,9.48 -2.03,-0.22 -4.05,-0.48 -6.08,-0.75 -3.26,-1.56 -5.51,-4.88 -5.51,-8.74 0,-5.34 4.33,-9.67 9.67,-9.67 5.35,0 9.67,4.33 9.67,9.67l0.01 0.01z"/>
   <path class="fil2" d="M582.3 1020.05l-0.01 0.08c-6.33,0.81 -12.7,1.47 -19.11,2.04 -0.16,-0.69 -0.22,-1.4 -0.22,-2.13 0,-5.33 4.32,-9.67 9.67,-9.67 5.34,0 9.67,4.34 9.67,9.67l-0 0z"/>
   <path class="fil2" d="M538.24 992.13c0,5.35 -4.32,9.67 -9.67,9.67 -5.35,0 -9.67,-4.32 -9.67,-9.67 0,-5.35 4.33,-9.66 9.67,-9.66 5.35,0 9.67,4.32 9.67,9.66z"/>
   <path class="fil2" d="M492.11 967.05c0,5.35 -4.33,9.67 -9.67,9.67 -5.35,0 -9.67,-4.33 -9.67,-9.67 0,-5.35 4.33,-9.67 9.67,-9.67 5.35,0 9.67,4.33 9.67,9.67z"/>
   <path class="fil2" d="M655.62 1001.45c0,1.46 -0.32,2.84 -0.9,4.08 -4.76,1.33 -9.57,2.59 -14.39,3.79 -2.45,-1.76 -4.05,-4.62 -4.05,-7.87 0,-5.35 4.33,-9.67 9.67,-9.67 5.35,0 9.67,4.33 9.67,9.67z"/>
   <path class="fil2" d="M682.59 958.2c0,5.33 -4.33,9.67 -9.67,9.67 -5.35,0 -9.67,-4.34 -9.67,-9.67 0,-5.35 4.33,-9.67 9.67,-9.67 5.35,0 9.67,4.32 9.67,9.67z"/>
   <path class="fil2" d="M483.35 776.54c0,5.35 -4.34,9.67 -9.67,9.67 -5.35,0 -9.67,-4.33 -9.67,-9.67 0,-5.34 4.33,-9.67 9.67,-9.67 5.34,0 9.67,4.34 9.67,9.67z"/>
   <path class="fil2" d="M465.35 703.1c0,5.35 -4.34,9.67 -9.67,9.67 -5.35,0 -9.67,-4.33 -9.67,-9.67 0,-5.35 4.33,-9.67 9.67,-9.67 5.33,0 9.67,4.33 9.67,9.67z"/>
   <path class="fil2" d="M556.1 757.93c0,5.35 -4.34,9.67 -9.67,9.67 -5.35,0 -9.67,-4.33 -9.67,-9.67 0,-5.35 4.33,-9.67 9.67,-9.67 5.33,0 9.67,4.34 9.67,9.67z"/>
   <path class="fil2" d="M627.22 740.38c0,5.35 -4.32,9.67 -9.67,9.67 -5.34,0 -9.67,-4.32 -9.67,-9.67 0,-5.34 4.33,-9.67 9.67,-9.67 5.35,0 9.67,4.34 9.67,9.67z"/>
   <path class="fil2" d="M493.07 724.08c0,0 -6.49,9.16 0.9,14.52 7.38,5.36 14.06,-4.28 14.06,-4.28 0,0 -12.95,-8.56 -14.96,-10.24l0 0z"/>
   <path class="fil2" d="M640.2 704.62c0,0 8.5,5.6 13.66,0 5.12,-5.53 -1.4,-11.2 -1.4,-11.2l-12.26 11.2 -0 0z"/>
   <path class="fil2" d="M700.09 900.28c0,0 -11.8,3.85 -9.12,13.97 2.68,10.12 14.89,6.83 14.89,6.83l-5.78 -20.8 0 0z"/>
   <path class="fil2" d="M717.74 975.4c-5.35,0 -9.67,4.33 -9.67,9.67 0,0.74 0.08,1.47 0.26,2.16 5.45,-2.21 10.87,-4.52 16.23,-6.92 -0.35,-1.04 -0.65,-2.04 -0.95,-2.95 -1.63,-1.23 -3.65,-1.98 -5.85,-1.98l-0.01 0z"/>
   <path class="fil2" d="M391.76 901.26c-1.48,5.4 -3.75,12.6 -5.39,17.71 1.54,1.04 3.39,1.63 5.39,1.63 5.33,0 9.67,-4.33 9.67,-9.67 0,-5.34 -4.34,-9.67 -9.67,-9.67l0 0.01z"/>
   <path class="fil3" d="M458.36 681.39c0,0 21.69,-6.11 33.9,-28.12 0,0 58.93,5.96 111.61,-19.34 0,0 3.91,53.57 56.57,51.2 0,0 -47.87,57.36 -108.93,59.78 -61.04,2.42 -93.14,-63.51 -93.14,-63.51l-0.01 0z"/>
   <path class="fil4" d="M495.56 655.2c0,0 37.92,4.01 107.31,-18.54 0,0 -1.77,31.81 37.34,51.29 0,0 -26.19,39.89 -148.21,-23.82 0,0 2.79,-4.14 3.57,-8.93l-0.01 0z"/>
   <path class="fil3" d="M689.59 687.35c0,0 39.88,-7.87 50.3,36.26 12.51,52.93 -20.54,124.67 -20.54,124.67 0,0 -22.62,42.22 -36.76,59.18 -14.13,16.96 -49.85,84.33 -49.85,84.33 0,0 -23,9.02 -31.11,14.87 0,0 -47.06,9.31 -66.88,-4.85 -23.44,-16.73 10.23,-44.41 10.23,-44.41 0,0 29.06,-22.72 60.97,-36.19 24.33,-10.27 52.68,-135.99 52.68,-135.99 0,0 22.17,-84.91 30.95,-97.86l0 -0.01z"/>
   <path class="fil3" d="M426.48 679.76c0,0 10.71,17.85 12.49,82.59 0,0 35.44,101.51 44.38,115.34 8.93,13.84 37.86,57.89 71.3,76.19l-21.48 40.87c0,0 -17.85,-19.59 -53.56,-26.87 0,0 -8.45,-1.93 -14.26,-16.23 -5.83,-14.29 -32.17,-31.04 -32.17,-31.04 0,0 -40.62,-40.83 -58.03,-78.33 -17.41,-37.5 -19.65,-47.08 -19.2,-74.66 0.44,-27.59 9.78,-53.81 9.78,-53.81 0,0 10.01,-38.95 60.76,-34.04l-0 -0.01z"/>
   <path class="fil5" d="M569.4 940.57c0,0 -19.44,20.95 -10.77,30.27 8.82,9.49 11.5,12.51 71.21,21.28 0,0 -20.14,8.19 -28.21,14.52 0,0 -53.26,11.07 -71.83,-9.53 0,0 -10.9,-11.09 6.96,-31.52 14.48,-16.57 32.64,-25.03 32.64,-25.03l-0.01 0z"/>
   <path class="fil6" d="M679.92 711.49c0,0 -39.38,58.7 -51.54,125.54 -12.15,66.85 -36.95,90.98 -36.95,90.98l18.29 -9.26 28.39 -21.57 22.34 -91.52 16.5 -65.44 2.98 -28.72 0 -0z"/>
   <path class="fil7" d="M867.06 169.73c-89.23,-89.23 -212.5,-144.42 -348.67,-144.42 -136.16,0 -259.44,55.19 -348.67,144.42 -89.23,89.23 -144.44,212.5 -144.44,348.67 0,136.16 55.2,259.43 144.44,348.67 89.23,89.23 212.5,144.42 348.67,144.42 136.16,0 259.44,-55.18 348.67,-144.42 89.24,-89.24 144.42,-212.5 144.42,-348.67 0,-136.16 -55.18,-259.44 -144.42,-348.67zm-348.66 -169.73l0 0c143.15,0 272.75,58.02 366.56,151.82 93.82,93.82 151.83,223.42 151.83,366.57 0,143.15 -58.02,272.75 -151.83,366.56 -93.82,93.81 -223.42,151.84 -366.56,151.84 -143.15,0 -272.75,-58.03 -366.56,-151.84 -93.82,-93.82 -151.84,-223.42 -151.84,-366.56 0,-143.15 58.02,-272.75 151.84,-366.57 93.81,-93.81 223.42,-151.82 366.56,-151.82z"/>
   <path class="fil8" d="M609.7 159.16l71.02 -58.62c32.4,-25.92 67.38,-43.68 107.72,-44.59 76.69,7.09 110.45,41.87 113.34,96.59 37.81,53.35 15.69,90.61 -14.43,125.74 13.16,23.08 29.11,29.92 46.72,27.23 -11.74,7.85 -33.11,3.95 -52.95,-6.83 -4.7,41.41 2.38,72.85 35.49,82.46 -93.65,-1.37 -51.23,-169.58 -143.01,-164.58 -11.04,6.38 -44.04,23.35 -36.34,37.42l-127.57 -94.82 -0 0z"/>
   <path class="fil9" d="M662.75 137.19c39.7,-87.52 95.67,-118.1 171.5,-78.72 -39.29,-11.18 -61.81,-7.49 -88.03,11.64 78.91,-28.44 144.56,-6.52 189.62,93.1 -31.33,-44.96 -69.09,-73.3 -125.95,-68.6 99.87,22.53 132.99,86.06 138.75,168.62 -9.96,-12 -21.76,-39.23 -29.91,-35.99 7.59,-30.68 -1.72,-54.01 -16.96,-74.71 -49.97,-53.76 -104.08,-63.58 -158.86,-34.32 130.51,-21.62 184.27,63.48 122.15,143.56 -5.16,9.71 -8.6,21.36 -9.41,35.79 -9.87,-35.03 9.52,-69.96 -10.07,-106.6 -21.47,-38.68 -49.31,-52.3 -113.04,-61.06 -8.31,6.17 -14.02,16.14 -18.89,27.43l-50.92 -20.15 0.01 0z"/>
   <path class="fil8" d="M319.66 215.68l-86.97 -30.37c-39.32,-13.06 -78.31,-17.61 -116.53,-4.5 -69.4,33.31 -89.04,77.65 -72.74,129.94 -16.96,63.17 16.71,90.45 57.14,112.93 -4.35,26.24 -16.96,38.17 -34.37,41.77 13.72,3.29 32.39,-7.81 47.33,-24.8 18.74,37.2 23,69.14 -4.71,89.63 87.38,-33.75 -10.78,-176.81 76.99,-203.89 12.56,2.13 49.41,6.58 47.08,22.42l86.76 -133.13 0.01 0z"/>
   <path class="fil9" d="M262.3 213.41c-67.63,-68.29 -130.7,-77.51 -188.21,-14.29 33,-24.14 55.43,-28.5 86.61,-19.64 -83.88,0.71 -137.84,44.05 -145.54,153.08 13.77,-52.99 39.39,-92.75 94.31,-107.97 -85.86,55.74 -94.87,126.8 -71.63,206.23 5.16,-14.68 6.77,-44.35 15.58,-44.09 -17.81,-26.17 -17.15,-51.28 -10.01,-75.98 28.19,-67.74 75.52,-95.72 137.03,-87.28 -129.89,25.01 -150.75,123.46 -64.69,177.03 8.2,7.29 15.45,17.01 21.27,30.27 -2.93,-36.3 -33.26,-62.32 -27.59,-103.52 6.73,-43.68 28.09,-66.12 84.85,-96.43 9.92,2.89 18.74,10.28 27.23,19.24l40.8 -36.65 0 0z"/>
   <path class="fil3" d="M504.8 170.98c141.28,0 249.75,85.79 254.68,218.07 6.3,169.42 -89.54,240.4 -213.05,261.95 -210.56,36.72 -293.62,-98.7 -314.43,-247.43 -20.75,-148.78 131.51,-232.6 272.8,-232.6l0 0.01z"/>
   <path class="fil8" d="M318.8 218.87c-136.12,159.91 -89.97,344.58 26.37,405.02 -11.39,-14.33 -14.98,-30.12 -15.64,-46.53 3.14,7.38 6.83,13.16 11.13,16.96 -19.94,-54.72 -27.18,-103.22 -15.59,-142.45 19.04,-43.49 28.96,-95.17 30.13,-151.77 37.97,151.91 180.16,105.64 270.76,158.04 -70.65,-51.13 -165.48,-31.68 -226.78,-126.54 103.78,58.11 234.38,49.66 311.38,174.34 3.65,-25.2 2.18,-52.49 -3.08,-81.3 5.92,41.81 45.36,98.82 17.81,125.49 66.01,-51.94 72.49,-247.24 -41.96,-359.88 -117.79,-86.51 -338.05,-81.49 -364.52,28.6l0 0.01z"/>
   <path class="fil9" d="M323.25 236.38c-105.39,-17.97 -115.83,219.14 -55.58,265.41 0.65,-38.27 2.79,-76.18 12.95,-112.08 7.29,25.32 4.76,54.42 12.51,75.94 29.26,-70.87 48.65,-140.52 45.15,-200.06 4.91,5.22 9.71,10.08 14.48,14.68 1.32,3.75 12.6,129.89 157.88,135.82 -81.96,-23.23 -121.79,-68.44 -146.2,-124.94 55.24,51.03 95.99,58.12 180.21,78.11 59.79,15.18 113.46,50.71 160.12,109.95 -20.96,-88.73 -103.27,-157.68 -212.31,-217.82 83.88,17.16 163.17,51.38 220.77,166.39 2.07,-23.99 -0.86,-45.91 -10.03,-69.96 12.05,18.88 32.61,17.66 36.14,56.7 32.7,-103.01 -44.34,-219.28 -153.34,-273.45 -158.39,-41.12 -270.32,14.77 -262.77,95.32l0 -0.01z"/>
   <path class="fil10" d="M261.84 295.86c-9.71,24.25 -13.62,47.59 -12.3,70.01 4.81,-13.57 10.63,-26.63 17.21,-37.41 -0.86,16.35 0.05,30.99 4,42.62 10.83,-25.36 21.82,-46.72 35.03,-64.29 -17.82,37.36 -31.49,78.06 -40.39,122.55 -4.05,-20.55 -6.49,-41.73 -5.78,-64.09 -5.26,11.74 -9.27,30.13 -12.76,51.39 -13.36,-44.55 -4.96,-85.81 14.98,-120.79l0 0z"/>
   <path class="fil10" d="M325.78 262.51c8.91,43.78 -38.37,102.81 -28.14,166.28 8.45,-56.04 49.2,-117.19 28.14,-166.28z"/>
   <path class="fil11" d="M360.52 292.07c13.61,66.97 55.33,112.12 137.99,121.39 -75.58,-17.26 -113.64,-64.84 -137.99,-121.39z"/>
   <path class="fil11" d="M416.65 292.73c49.5,24.55 99.46,45.92 151.36,54.93 -16.2,-26.68 -39.7,-49.26 -65.41,-70.52 47.83,26.02 101.35,59.78 131.66,98.86 -20.4,-16.8 -41.95,-31.93 -64.49,-45.76 23.69,23.74 49.2,46.38 75.88,68.3 -22.01,-11.14 -43.84,-21.12 -64.74,-26.32 -59.73,-21.46 -124.94,-48.9 -164.26,-79.48z"/>
   <path class="fil10" d="M463.44 240.83c102.86,17.32 177.42,53.31 220.76,126.56 -16.76,-61.96 -87.07,-131.51 -220.76,-126.56z"/>
   <path class="fil10" d="M678.37 304.47c-3.95,-7.23 -10.53,-14.98 -18.93,-23.14 2.16,-0.65 6.63,-0.15 10.01,1.27 -23.99,-24.66 -51.99,-45.66 -81.9,-65 -29.97,-19.29 105.6,48.49 109.9,51.69 4.35,3.23 4.25,-1.32 1.01,-7.7 -55.23,-77.35 -116.78,-109.34 -187.5,-110.5 52.8,13.42 100.17,35.74 138.2,73.7 -32.36,-12.51 -66.42,-20.66 -102.91,-23.03 28.05,13.11 51.38,30.08 69.85,50.93 -36.24,-20.4 -76.03,-27.08 -119.42,-20.1 64.85,11.44 126.4,32.45 181.68,71.88l0.02 0z"/>
   <path class="fil12" d="M361.14 494.83c7.69,-11.24 17.82,-17.37 29.76,-19.7 -9.82,-5.06 -30.77,1.22 -29.76,19.7z"/>
   <path class="fil12" d="M654.94 437.98c-11.49,-7.34 -23.19,-8.96 -35.08,-6.43 7.03,-8.5 28.74,-10.93 35.08,6.43z"/>
   <path class="fil11" d="M259.26 210.36c-35.54,-30.98 -85.8,-37.97 -150.5,-21.36 61.36,-4.25 109.9,5.01 136.18,37.72l14.32 -16.35 0 -0z"/>
   <path class="fil11" d="M242.56 223.88c-35.54,-31.03 -89.21,-31.38 -153.89,-14.84 61.35,-4.19 116.53,-0.6 142.75,32.05l11.14 -17.21 0 0z"/>
   <path class="fil11" d="M28.28 294.85c18.17,-37.92 43.68,-60.5 75.88,-68.7 -11.9,-1.86 -63.53,13.27 -75.88,68.7z"/>
   <path class="fil11" d="M147.24 242.01c-72.35,24.04 -81.81,70.87 -58.93,129.43 -4.91,-81.09 37.51,-106.81 58.93,-129.43z"/>
   <path class="fil1" d="M201.95 257.49c-42.36,8.11 -62.26,30.28 -74.21,57.41 15.89,28.19 46.72,39.28 94.16,32.35 11.24,-11.14 11.29,-36.81 2.28,-74.11 11.34,-6.13 18.28,-14.88 20.75,-26.32 25.92,-2.98 49.36,-9.16 68.14,-21.05 0.95,-44.39 -21.62,-70.26 -59.99,-83.63 -26.32,19.7 -31.94,50.27 -30.27,85.45 -9.98,4.66 -22.37,15.18 -20.87,29.9l0.01 0z"/>
   <path class="fil2" d="M225.5 253.35c5.21,0 9.47,-4 9.47,-8.86 0,-4.81 -4.26,-8.8 -9.47,-8.8 -5.21,0 -9.46,3.99 -9.46,8.8 0,4.86 4.25,8.86 9.46,8.86z"/>
   <path class="fil2" d="M170.02 327.76c5.78,0 10.38,4.66 10.38,10.38 0,4 -2.22,7.5 -5.56,9.21 -4.86,-0.91 -9.41,-2.17 -13.67,-3.8 -0.96,-1.57 -1.52,-3.39 -1.52,-5.41 0,-5.72 4.66,-10.38 10.38,-10.38l-0.01 0z"/>
   <path class="fil2" d="M197.71 300.88c5.62,0 10.18,-4.56 10.18,-10.18 0,-5.57 -4.57,-10.13 -10.18,-10.13 -5.58,0 -10.18,4.56 -10.18,10.13 0,5.62 4.6,10.18 10.18,10.18z"/>
   <path class="fil2" d="M254.2 208.74c5.53,0 9.98,-4.45 9.98,-9.92 0,-5.48 -4.46,-9.93 -9.98,-9.93 -5.47,0 -9.92,4.45 -9.92,9.93 0,5.47 4.45,9.92 9.92,9.92z"/>
   <path class="fil2" d="M285.69 159.69c-1.38,2.07 -3.75,3.45 -6.38,3.45 -4.26,0 -7.7,-3.45 -7.7,-7.7 0,-1.67 0.51,-3.2 1.36,-4.41 4.61,2.59 8.86,5.53 12.71,8.66l0.01 0z"/>
   <path class="fil13" d="M664.52 133.29c22.58,-41.45 67.27,-65.4 133.74,-72.28 -59.02,17.31 -101.4,42.81 -114.66,82.6l-19.08 -10.32z"/>
   <path class="fil13" d="M684.88 140.18c22.57,-41.46 72.74,-60.46 139.2,-67.33 -59.03,17.37 -109.54,39.84 -122.81,79.59l-16.39 -12.26 -0 0z"/>
   <path class="fil13" d="M910.49 132.37c-30.27,-29.26 -61.95,-41.55 -95.07,-38.11 10.53,-5.87 64.24,-9.62 95.07,38.11z"/>
   <path class="fil13" d="M780.53 124.08c76.19,-2.54 101.35,38.06 100.19,100.98 -23.54,-77.75 -72.24,-87.21 -100.19,-100.98z"/>
   <path class="fil1" d="M734.63 157.58c42.51,-7.13 68.84,6.78 89.49,28.05 -5.16,31.99 -30.22,53.1 -77.15,63.08 -14.38,-6.59 -23.28,-30.62 -27.79,-68.75 -12.81,-1.77 -22.33,-7.59 -28.6,-17.51 -25.36,6.17 -49.46,8.55 -71.23,3.89 -16.25,-41.3 -4.09,-73.35 27.24,-99.27 31.54,9.36 47.38,36.09 58.05,69.71 10.94,0.86 26.27,6.43 29.97,20.8l0 -0z"/>
   <path class="fil2" d="M704.97 145.28c-4.9,1.83 -7.54,6.99 -5.87,11.6 1.72,4.56 7.04,6.79 11.99,4.96 4.91,-1.82 7.5,-6.99 5.83,-11.54 -1.67,-4.61 -7.03,-6.83 -11.95,-5.01l0 0z"/>
   <path class="fil2" d="M788.9 212.41c-5.37,1.97 -8.11,7.95 -6.13,13.37 1.42,3.75 4.71,6.22 8.45,6.68 4.2,-2.53 8.04,-5.31 11.49,-8.3 0.36,-1.81 0.26,-3.75 -0.46,-5.62 -1.98,-5.37 -7.95,-8.11 -13.36,-6.13l0.01 0z"/>
   <path class="fil2" d="M746.59 177.73c-5.28,1.98 -7.95,7.81 -6.03,13.06 1.97,5.26 7.8,7.95 13.06,5.97 5.26,-1.92 7.95,-7.74 6.02,-13.01 -1.97,-5.26 -7.8,-7.95 -13.05,-6.02z"/>
   <path class="fil2" d="M661.79 111.37c-5.16,1.86 -7.8,7.59 -5.87,12.75 1.86,5.16 7.59,7.74 12.75,5.87 5.11,-1.93 7.75,-7.64 5.88,-12.76 -1.93,-5.16 -7.64,-7.8 -12.76,-5.87l-0.01 0z"/>
   <path class="fil2" d="M622.15 94.91c2.03,1.47 4.66,1.93 7.19,1.02 4,-1.52 6.03,-5.92 4.56,-9.93 -0.61,-1.52 -1.62,-2.78 -2.84,-3.65 -3.45,4.05 -6.38,8.25 -8.92,12.56l0.01 0z"/>
   <path class="fil14" d="M434.23 546.69c0,14.8 -11.99,26.79 -26.8,26.79 -14.8,0 -26.79,-11.99 -26.79,-26.79 0,-14.8 11.99,-26.8 26.79,-26.8 14.8,0 26.8,11.99 26.8,26.8z"/>
   <path class="fil14" d="M660.43 503.83c0,14.8 -11.99,26.79 -26.8,26.79 -14.8,0 -26.79,-11.99 -26.79,-26.79 0,-14.8 11.99,-26.79 26.79,-26.79 14.8,0 26.8,11.99 26.8,26.79z"/>
   <path class="fil15" d="M494.79 541.36c0,0 18.3,-37.06 56.25,-23.66 0,0 10.27,3.57 7.1,10.37 -2.93,6.3 -12.95,-0.35 -12.95,-0.35 0,0 -18.13,-12.94 -50.4,13.64z"/>
   <path class="fil16" d="M510.63 599.4c0,0 30.13,25.68 58.04,-8.48 0,0 0.04,-6.99 5.58,-2.24 4.8,4.13 -3.23,4.68 -3.23,4.68 0,0 -24.6,42.11 -62.32,9.07 0,0 -6.99,0.52 -3.64,-4.16 3.34,-4.68 5.58,1.11 5.58,1.11l-0 0.01z"/>
   <path class="fil17" d="M633.56 515.16c0,0 3.86,0.12 7.27,-2.93 1.72,-1.55 3.84,-3.43 6.63,-1.39 3.64,2.65 -1.56,8.11 -1.56,8.11 0,0 -4.02,4.68 -11.61,4.68 -7.59,0 -12.51,-3.67 -12.51,-3.67 0,0 -4.57,-2.9 -2.89,-6.14 1.67,-3.23 6.81,-0.22 6.81,-0.22 0,0 4.01,1.91 7.86,1.56z"/>
   <path class="fil17" d="M406.4 556.85c0,0 3.87,0.12 7.28,-2.93 1.73,-1.55 3.84,-3.43 6.63,-1.4 3.63,2.66 -1.56,8.13 -1.56,8.13 0,0 -4.01,4.68 -11.61,4.68 -7.59,0 -12.51,-3.68 -12.51,-3.68 0,0 -4.57,-2.91 -2.9,-6.14 1.68,-3.23 6.81,-0.22 6.81,-0.22 0,0 4.01,1.91 7.86,1.56z"/>
   <path class="fil18" d="M223.41 272.88c-0.64,26.34 -5.52,47.96 -15.8,63.55 -0.2,6.47 5.21,9.71 14.3,10.81 10.98,-9.23 11.73,-34.56 1.51,-74.36l-0.01 -0z"/>
   <path class="fil18" d="M244.94 246.81c25.82,-5.25 42.17,-24.9 55.72,-37.76 6.33,-1.33 9.87,7.76 12.56,16.52 -14.87,7.99 -29.49,16.77 -68.27,21.24l-0.01 0z"/>
   <path class="fil18" d="M720.38 181.42c9.74,23.78 21.8,41.51 36.88,51.53 2.43,5.83 -1.53,10.99 -9.71,15.71 -13.52,-3.94 -23,-26.74 -27.18,-67.25l0 0z"/>
   <path class="fil18" d="M690.28 160.18c-25.87,4.98 -48.07,-7.39 -65.51,-14.11 -6.36,1.18 -6.17,10.93 -5.31,20.05 16.35,1.68 35.62,6 71.12,-3.67 0,0 -1.31,-1.98 -0.31,-2.27l0.01 -0z"/>
  </g>
 </g>
</svg>
