<?xml version="1.0" encoding="UTF-8"?>
<!DOCTYPE svg PUBLIC "-//W3C//DTD SVG 1.1//EN" "http://www.w3.org/Graphics/SVG/1.1/DTD/svg11.dtd">
<!-- Creator: CorelDRAW 2021 (64-Bit) -->
<svg xmlns="http://www.w3.org/2000/svg" xml:space="preserve" width="183.445mm" height="146.996mm" version="1.1" style="shape-rendering:geometricPrecision; text-rendering:geometricPrecision; image-rendering:optimizeQuality; fill-rule:evenodd; clip-rule:evenodd"
viewBox="0 0 9172.24 7349.82"
 xmlns:xlink="http://www.w3.org/1999/xlink"
 xmlns:xodm="http://www.corel.com/coreldraw/odm/2003">
 <defs>
  <style type="text/css">
   <![CDATA[
    .fil14 {fill:#F48882;fill-rule:nonzero}
    .fil11 {fill:#F27463;fill-rule:nonzero}
    .fil13 {fill:#F1685C;fill-rule:nonzero}
    .fil4 {fill:#FACB7B;fill-rule:nonzero}
    .fil12 {fill:#F8B861;fill-rule:nonzero}
    .fil17 {fill:#EFE3D1;fill-rule:nonzero}
    .fil15 {fill:#F0DFBF;fill-rule:nonzero}
    .fil6 {fill:#EDEDEB;fill-rule:nonzero}
    .fil16 {fill:#EECEA0;fill-rule:nonzero}
    .fil1 {fill:#E0E1E0;fill-rule:nonzero}
    .fil9 {fill:#96CC74;fill-rule:nonzero}
    .fil10 {fill:#88C666;fill-rule:nonzero}
    .fil5 {fill:#68B6D1;fill-rule:nonzero}
    .fil7 {fill:#53A8B9;fill-rule:nonzero}
    .fil2 {fill:#0090C6;fill-rule:nonzero}
    .fil3 {fill:#007AA9;fill-rule:nonzero}
    .fil8 {fill:#232B35;fill-rule:nonzero}
    .fil0 {fill:#CCCCFF;fill-rule:nonzero}
   ]]>
  </style>
 </defs>
 <g id="Capa_x0020_1">
  <metadata id="CorelCorpID_0Corel-Layer"/>
  <polygon class="fil0" points="0.01,7349.82 9172.24,7349.82 9172.24,6350.49 0.01,6350.49 "/>
  <path class="fil1" d="M9172.23 335.46l-184.79 0 0 -332.82c0,-1.46 -2.4,-2.64 -5.37,-2.64 -2.97,0 -5.38,1.18 -5.38,2.64l0 332.82 -369.59 0 0 -332.82c0,-1.46 -2.36,-2.64 -5.39,-2.64 -2.95,0 -5.3,1.18 -5.3,2.64l0 332.82 -369.67 0 0 -332.82c0,-1.46 -2.35,-2.64 -5.3,-2.64 -3.04,0 -5.39,1.18 -5.39,2.64l0 332.82 -369.58 0 0 -332.82c0,-1.46 -2.45,-2.64 -5.38,-2.64 -2.95,0 -5.4,1.18 -5.4,2.64l0 332.82 -369.56 0 0 -332.82c0,-1.46 -2.45,-2.64 -5.39,-2.64 -2.95,0 -5.4,1.18 -5.4,2.64l0 332.82 -369.56 0 0 -332.82c0,-1.46 -2.36,-2.64 -5.39,-2.64 -2.95,0 -5.4,1.18 -5.4,2.64l0 332.82 -369.56 0 0 -332.82c0,-1.46 -2.37,-2.64 -5.39,-2.64 -2.95,0 -5.29,1.18 -5.29,2.64l0 332.82 -369.57 0 0 -332.82c0,-1.46 -2.46,-2.64 -5.38,-2.64 -3.06,0 -5.4,1.18 -5.4,2.64l0 332.82 -369.57 0 0 -332.82c0,-1.46 -2.45,-2.64 -5.39,-2.64 -2.95,0 -5.4,1.18 -5.4,2.64l0 332.82 -369.53 0 0 -332.82c0,-1.46 -2.44,-2.64 -5.39,-2.64 -2.95,0 -5.39,1.18 -5.39,2.64l0 332.82 -369.57 0 0 -332.82c0,-1.46 -2.44,-2.64 -5.39,-2.64 -2.95,0 -5.39,1.18 -5.39,2.64l0 332.82 -369.56 0 0 -332.82c0,-1.46 -2.44,-2.64 -5.39,-2.64 -2.96,0 -5.39,1.18 -5.39,2.64l0 332.82 -369.56 0 0 -332.83c0,-1.45 -2.44,-2.63 -5.39,-2.63 -2.95,0 -5.39,1.18 -5.39,2.63l0 332.83 -369.56 0 0 -332.83c0,-1.45 -2.44,-2.63 -5.39,-2.63 -2.96,0 -5.39,1.18 -5.39,2.63l0 332.83 -369.56 0 0 -332.82c0,-1.46 -2.31,-2.64 -5.39,-2.64 -2.95,0 -5.26,1.18 -5.26,2.64l0 332.82 -369.69 0 0 -332.82c0,-1.46 -2.32,-2.64 -5.26,-2.64 -3.08,0 -5.39,1.18 -5.39,2.64l0 332.82 -369.56 0 0 -332.82c0,-1.46 -2.57,-2.64 -5.39,-2.64 -2.95,0 -5.39,1.18 -5.39,2.64l0 332.82 -369.69 0 0 -332.82c0,-1.46 -2.44,-2.64 -5.39,-2.64 -2.82,0 -5.38,1.18 -5.38,2.64l0 332.82 -369.57 0 0 -332.83c0,-1.45 -2.31,-2.63 -5.39,-2.63 -2.95,0 -5.38,1.18 -5.38,2.63l0 332.83 -369.57 0 0 -332.82c0,-1.46 -2.31,-2.64 -5.26,-2.64 -3.08,0 -5.39,1.18 -5.39,2.64l0 332.82 -369.57 0 0 -332.82c0,-1.46 -2.44,-2.64 -5.39,-2.64 -3.08,0 -5.39,1.18 -5.39,2.64l0 332.82 -369.56 0 0 -332.82c0,-1.46 -2.44,-2.64 -5.39,-2.64 -2.95,0 -5.39,1.18 -5.39,2.64l0 332.82 -369.56 0 0 -332.82c0,-1.46 -2.44,-2.64 -5.39,-2.64 -2.95,0 -5.39,1.18 -5.39,2.64l0 332.82 -369.57 0 0 -332.82c0,-1.46 -2.44,-2.64 -5.39,-2.64 -2.95,0 -5.39,1.18 -5.39,2.64l0 332.82 -223.77 0c-2.95,0 -5.39,2.41 -5.39,5.37 0,2.96 2.44,5.37 5.39,5.37l223.77 0 0 369.58 -223.77 0c-2.95,0 -5.39,2.41 -5.39,5.38 0,2.97 2.44,5.38 5.39,5.38l223.77 0 0 369.58 -223.77 0c-2.95,0 -5.39,2.4 -5.39,5.36 0,2.98 2.44,5.39 5.39,5.39l223.77 0 0 369.58 -223.77 0c-2.95,0 -5.39,2.4 -5.39,5.36 0,2.98 2.44,5.38 5.39,5.38l223.77 0 0 369.59 -223.77 0c-2.95,0 -5.39,2.4 -5.39,5.37 0,2.97 2.44,5.36 5.39,5.36l223.77 0 0 135.42 0 0.14 0 58.35 0 0.07 0 132.76 -223.86 0c-2.97,0 -5.38,2.4 -5.38,5.36 0,2.98 2.41,5.38 5.38,5.38l223.86 0 0 369.59 -223.86 0c-2.97,0 -5.38,2.4 -5.38,5.37 0,2.97 2.41,5.36 5.38,5.36l223.86 0 0 369.58 -223.86 0c-2.97,0 -5.38,2.41 -5.38,5.39 0,2.96 2.41,5.36 5.38,5.36l223.86 0 0 369.58 -223.86 0c-2.97,0 -5.38,2.41 -5.38,5.39 0,2.97 2.41,5.38 5.38,5.38l223.86 0 0 369.58 -223.86 0c-2.97,0 -5.38,2.41 -5.38,5.38 0,2.96 2.41,5.37 5.38,5.37l223.86 0 0 369.58 -223.86 0c-2.97,0 -5.38,2.4 -5.38,5.38 0,2.98 2.41,5.37 5.38,5.37l223.86 0 0 369.59 -223.86 0c-2.97,0 -5.38,2.4 -5.38,5.37 0,2.97 2.41,5.37 5.38,5.37l223.86 0 0 369.58 -223.86 0c-2.97,0 -5.38,2.41 -5.38,5.37 0,2.98 2.41,5.38 5.38,5.38l223.86 0 0 369.59 -223.86 0c-2.97,0 -5.38,2.4 -5.38,5.37 0,2.96 2.41,5.38 5.38,5.38l223.86 0 0 369.58 -223.86 0c-2.97,0 -5.38,2.42 -5.38,5.38 0,2.97 2.41,5.37 5.38,5.37l223.86 0 0 369.58 -223.86 0c-2.97,0 -5.38,2.41 -5.38,5.38 0,2.97 2.41,5.37 5.38,5.37l223.86 0 0 191.16c0,2.97 2.41,5.38 5.37,5.38 2.97,0 5.38,-2.41 5.38,-5.38l0 -191.16 369.59 0 0 191.16c0,2.97 2.4,5.38 5.37,5.38 2.97,0 5.38,-2.41 5.38,-5.38l0 -191.16 369.58 0 0 191.16c0,2.97 2.4,5.38 5.37,5.38 2.97,0 5.37,-2.41 5.37,-5.38l0 -191.16 369.58 0 0 191.16c0,2.97 2.41,5.38 5.38,5.38 2.98,0 5.38,-2.41 5.38,-5.38l0 -191.16 369.58 0 0 191.16c0,2.97 2.41,5.38 5.39,5.38 2.95,0 5.36,-2.41 5.36,-5.38l0 -191.16 369.6 0 0 191.16c0,2.97 2.4,5.37 5.36,5.37 2.97,0 5.37,-2.41 5.37,-5.37l0 -191.16 369.59 0 0 191.16c0,2.97 2.4,5.37 5.38,5.37 2.96,0 5.36,-2.41 5.36,-5.37l0 -191.16 369.58 0 0 191.16c0,2.97 2.41,5.37 5.39,5.37 2.95,0 5.37,-2.41 5.37,-5.37l0 -191.16 369.58 0 0 191.16c0,2.97 2.4,5.37 5.37,5.37 2.97,0 5.36,-2.41 5.36,-5.37l0 -191.16 369.58 0 0 191.16c0,2.97 2.41,5.37 5.39,5.37 2.97,0 5.38,-2.41 5.38,-5.37l0 -191.16 369.58 0 0 191.16c0,2.97 2.41,5.37 5.38,5.37 2.97,0 5.38,-2.41 5.38,-5.37l0 -191.16 369.57 0 0 191.16c0,2.97 2.4,5.38 5.38,5.38 2.96,0 5.37,-2.41 5.37,-5.38l0 -191.16 369.59 0 0 191.16c0,2.97 2.4,5.38 5.36,5.38 2.98,0 5.38,-2.41 5.38,-5.38l0 -191.16 369.57 0 0 191.16c0,2.97 2.42,5.38 5.38,5.38 2.96,0 5.37,-2.41 5.37,-5.38l0 -191.16 369.59 0 0 191.16c0,2.97 2.4,5.38 5.36,5.38 2.97,0 5.37,-2.41 5.37,-5.38l0 -191.16 369.58 0 0 191.16c0,2.97 2.41,5.38 5.39,5.38 2.96,0 5.36,-2.41 5.36,-5.38l0 -191.16 369.59 0 0 191.16c0,2.97 2.4,5.38 5.37,5.38 2.97,0 5.38,-2.41 5.38,-5.38l0 -191.16 369.58 0 0 191.16c0,2.97 2.41,5.38 5.37,5.38 2.97,0 5.38,-2.41 5.38,-5.38l0 -191.16 369.58 0 0 191.16c0,2.97 2.4,5.38 5.38,5.38 2.98,0 5.38,-2.41 5.38,-5.38l0 -191.16 369.58 0 0 191.16c0,2.97 2.41,5.38 5.38,5.38 2.96,0 5.37,-2.41 5.37,-5.38l0 -191.16 369.58 0 0 191.16c0,2.97 2.41,5.38 5.38,5.38 2.98,0 5.39,-2.41 5.39,-5.38l0 -191.16 369.57 0 0 191.16c0,2.97 2.4,5.38 5.37,5.38 2.96,0 5.37,-2.41 5.37,-5.38l0 -191.16 369.58 0 0 191.16c0,2.97 2.41,5.38 5.39,5.38 2.96,0 5.36,-2.41 5.36,-5.38l0 -191.16 369.59 0 0 191.16c0,2.97 2.4,5.38 5.38,5.38 2.96,0 5.37,-2.41 5.37,-5.38l0 -191.16 184.79 0 0 -10.75 -184.79 0 0 -369.58 184.79 0 0 -10.75 -184.79 0 0 -369.58 184.79 0 0 -10.74 -184.79 0 0 -369.59 184.79 0 0 -10.75 -184.79 0 0 -369.58 184.79 0 0 -10.74 -184.79 0 0 -369.59 184.79 0 0 -10.75 -184.79 0 0 -369.58 184.79 0 0 -10.75 -184.79 0 0 -369.58 184.79 0 0 -10.76 -184.79 0 0 -369.58 184.79 0 0 -10.75 -184.79 0 0 -369.58 184.79 0 0 -10.73 -184.79 0 0 -369.59 184.79 0 0 -10.73 -184.79 0 0 -132.76 0 -0.07 0 -58.35 0 -0.14 0 -135.42 184.79 0 0 -10.73 -184.79 0 0 -369.59 184.79 0 0 -10.73 -184.79 0 0 -369.58 184.79 0 0 -10.75 -184.79 0 0 -369.58 184.79 0 0 -10.76 -184.79 0 0 -369.58 184.79 0 0 -10.74zm-8932.25 5661.99l0 -369.58 369.59 0 0 369.58 -369.59 0zm380.33 0l0 -369.58 369.58 0 0 369.58 -369.58 0zm380.32 0l0 -369.58 369.58 0 0 369.58 -369.58 0zm380.33 0l0 -369.58 369.58 0 0 369.58 -369.58 0zm380.32 0l0 -369.58 369.6 0 0 369.58 -369.6 0zm380.33 0l0 -369.58 369.59 0 0 369.58 -369.59 0zm380.33 0l0 -369.58 369.58 0 0 369.58 -369.58 0zm380.34 0l0 -369.58 369.58 0 0 369.58 -369.58 0zm380.31 0l0 -369.58 369.58 0 0 369.58 -369.58 0zm380.34 0l0 -369.58 369.58 0 0 369.58 -369.58 0zm380.33 0l0 -369.58 369.57 0 0 369.58 -369.57 0zm380.32 0l0 -369.58 369.59 0 0 369.58 -369.59 0zm380.33 0l0 -369.58 369.57 0 0 369.58 -369.57 0zm380.32 0l0 -369.58 369.59 0 0 369.58 -369.59 0zm380.32 0l0 -369.58 369.58 0 0 369.58 -369.58 0zm380.33 0l0 -369.58 369.59 0 0 369.58 -369.59 0zm380.34 0l0 -369.58 369.58 0 0 369.58 -369.58 0zm380.32 0l0 -369.58 369.58 0 0 369.58 -369.58 0zm380.33 0l0 -369.58 369.58 0 0 369.58 -369.58 0zm380.32 0l0 -369.58 369.58 0 0 369.58 -369.58 0zm380.34 0l0 -369.58 369.57 0 0 369.58 -369.57 0zm380.31 0l0 -369.58 369.58 0 0 369.58 -369.58 0zm380.33 0l0 -369.58 369.59 0 0 369.58 -369.59 0zm-8367.13 -380.33l0 -369.58 369.59 0 0 369.58 -369.59 0zm380.33 0l0 -369.58 369.58 0 0 369.58 -369.58 0zm380.32 0l0 -369.58 369.58 0 0 369.58 -369.58 0zm380.33 0l0 -369.58 369.58 0 0 369.58 -369.58 0zm380.32 0l0 -369.58 369.6 0 0 369.58 -369.6 0zm380.33 0l0 -369.58 369.59 0 0 369.58 -369.59 0zm380.33 0l0 -369.58 369.58 0 0 369.58 -369.58 0zm380.34 0l0 -369.58 369.58 0 0 369.58 -369.58 0zm380.31 0l0 -369.58 369.58 0 0 369.58 -369.58 0zm380.34 0l0 -369.58 369.58 0 0 369.58 -369.58 0zm380.33 0l0 -369.58 369.57 0 0 369.58 -369.57 0zm380.32 0l0 -369.58 369.59 0 0 369.58 -369.59 0zm380.33 0l0 -369.58 369.57 0 0 369.58 -369.57 0zm380.32 0l0 -369.58 369.59 0 0 369.58 -369.59 0zm380.32 0l0 -369.58 369.58 0 0 369.58 -369.58 0zm380.33 0l0 -369.58 369.59 0 0 369.58 -369.59 0zm380.34 0l0 -369.58 369.58 0 0 369.58 -369.58 0zm380.32 0l0 -369.58 369.58 0 0 369.58 -369.58 0zm380.33 0l0 -369.58 369.58 0 0 369.58 -369.58 0zm380.32 0l0 -369.58 369.58 0 0 369.58 -369.58 0zm380.34 0l0 -369.58 369.57 0 0 369.58 -369.57 0zm380.31 0l0 -369.58 369.58 0 0 369.58 -369.58 0zm380.33 0l0 -369.58 369.59 0 0 369.58 -369.59 0zm-8367.13 -380.32l0 -369.59 369.59 0 0 369.59 -369.59 0zm380.33 0l0 -369.59 369.58 0 0 369.59 -369.58 0zm380.32 0l0 -369.59 369.58 0 0 369.59 -369.58 0zm380.33 0l0 -369.59 369.58 0 0 369.59 -369.58 0zm380.32 0l0 -369.59 369.6 0 0 369.59 -369.6 0zm380.33 0l0 -369.59 369.59 0 0 369.59 -369.59 0zm380.33 0l0 -369.59 369.58 0 0 369.59 -369.58 0zm380.34 0l0 -369.59 369.58 0 0 369.59 -369.58 0zm380.31 0l0 -369.59 369.58 0 0 369.59 -369.58 0zm380.34 0l0 -369.59 369.58 0 0 369.59 -369.58 0zm380.33 0l0 -369.59 369.57 0 0 369.59 -369.57 0zm380.32 0l0 -369.59 369.59 0 0 369.59 -369.59 0zm380.33 0l0 -369.59 369.57 0 0 369.59 -369.57 0zm380.32 0l0 -369.59 369.59 0 0 369.59 -369.59 0zm380.32 0l0 -369.59 369.58 0 0 369.59 -369.58 0zm380.33 0l0 -369.59 369.59 0 0 369.59 -369.59 0zm380.34 0l0 -369.59 369.58 0 0 369.59 -369.58 0zm380.32 0l0 -369.59 369.58 0 0 369.59 -369.58 0zm380.33 0l0 -369.59 369.58 0 0 369.59 -369.58 0zm380.32 0l0 -369.59 369.58 0 0 369.59 -369.58 0zm380.34 0l0 -369.59 369.57 0 0 369.59 -369.57 0zm380.31 0l0 -369.59 369.58 0 0 369.59 -369.58 0zm380.33 0l0 -369.59 369.59 0 0 369.59 -369.59 0zm-8367.13 -380.33l0 -369.58 369.59 0 0 369.58 -369.59 0zm380.33 0l0 -369.58 369.58 0 0 369.58 -369.58 0zm380.32 0l0 -369.58 369.58 0 0 369.58 -369.58 0zm380.33 0l0 -369.58 369.58 0 0 369.58 -369.58 0zm380.32 0l0 -369.58 369.6 0 0 369.58 -369.6 0zm380.33 0l0 -369.58 369.59 0 0 369.58 -369.59 0zm380.33 0l0 -369.58 369.58 0 0 369.58 -369.58 0zm380.34 0l0 -369.58 369.58 0 0 369.58 -369.58 0zm380.31 0l0 -369.58 369.58 0 0 369.58 -369.58 0zm380.34 0l0 -369.58 369.58 0 0 369.58 -369.58 0zm380.33 0l0 -369.58 369.57 0 0 369.58 -369.57 0zm380.32 0l0 -369.58 369.59 0 0 369.58 -369.59 0zm380.33 0l0 -369.58 369.57 0 0 369.58 -369.57 0zm380.32 0l0 -369.58 369.59 0 0 369.58 -369.59 0zm380.32 0l0 -369.58 369.58 0 0 369.58 -369.58 0zm380.33 0l0 -369.58 369.59 0 0 369.58 -369.59 0zm380.34 0l0 -369.58 369.58 0 0 369.58 -369.58 0zm380.32 0l0 -369.58 369.58 0 0 369.58 -369.58 0zm380.33 0l0 -369.58 369.58 0 0 369.58 -369.58 0zm380.32 0l0 -369.58 369.58 0 0 369.58 -369.58 0zm380.34 0l0 -369.58 369.57 0 0 369.58 -369.57 0zm380.31 0l0 -369.58 369.58 0 0 369.58 -369.58 0zm380.33 0l0 -369.58 369.59 0 0 369.58 -369.59 0zm-8367.13 -380.32l0 -369.59 369.59 0 0 369.59 -369.59 0zm380.33 0l0 -369.59 369.58 0 0 369.59 -369.58 0zm380.32 0l0 -369.59 369.58 0 0 369.59 -369.58 0zm380.33 0l0 -369.59 369.58 0 0 369.59 -369.58 0zm380.32 0l0 -369.59 369.6 0 0 369.59 -369.6 0zm380.33 0l0 -369.59 369.59 0 0 369.59 -369.59 0zm380.33 0l0 -369.59 369.58 0 0 369.59 -369.58 0zm380.34 0l0 -369.59 369.58 0 0 369.59 -369.58 0zm380.31 0l0 -369.59 369.58 0 0 369.59 -369.58 0zm380.34 0l0 -369.59 369.58 0 0 369.59 -369.58 0zm380.33 0l0 -369.59 369.57 0 0 369.59 -369.57 0zm380.32 0l0 -369.59 369.59 0 0 369.59 -369.59 0zm380.33 0l0 -369.59 369.57 0 0 369.59 -369.57 0zm380.32 0l0 -369.59 369.59 0 0 369.59 -369.59 0zm380.32 0l0 -369.59 369.58 0 0 369.59 -369.58 0zm380.33 0l0 -369.59 369.59 0 0 369.59 -369.59 0zm380.34 0l0 -369.59 369.58 0 0 369.59 -369.58 0zm380.32 0l0 -369.59 369.58 0 0 369.59 -369.58 0zm380.33 0l0 -369.59 369.58 0 0 369.59 -369.58 0zm380.32 0l0 -369.59 369.58 0 0 369.59 -369.58 0zm380.34 0l0 -369.59 369.57 0 0 369.59 -369.57 0zm380.31 0l0 -369.59 369.58 0 0 369.59 -369.58 0zm380.33 0l0 -369.59 369.59 0 0 369.59 -369.59 0zm-8367.13 -380.34l0 -369.58 369.59 0 0 369.58 -369.59 0zm380.33 0l0 -369.58 369.58 0 0 369.58 -369.58 0zm380.32 0l0 -369.58 369.58 0 0 369.58 -369.58 0zm380.33 0l0 -369.58 369.58 0 0 369.58 -369.58 0zm380.32 0l0 -369.58 369.6 0 0 369.58 -369.6 0zm380.33 0l0 -369.58 369.59 0 0 369.58 -369.59 0zm380.33 0l0 -369.58 369.58 0 0 369.58 -369.58 0zm380.34 0l0 -369.58 369.58 0 0 369.58 -369.58 0zm380.31 0l0 -369.58 369.58 0 0 369.58 -369.58 0zm380.34 0l0 -369.58 369.58 0 0 369.58 -369.58 0zm380.33 0l0 -369.58 369.57 0 0 369.58 -369.57 0zm380.32 0l0 -369.58 369.59 0 0 369.58 -369.59 0zm380.33 0l0 -369.58 369.57 0 0 369.58 -369.57 0zm380.32 0l0 -369.58 369.59 0 0 369.58 -369.59 0zm380.32 0l0 -369.58 369.58 0 0 369.58 -369.58 0zm380.33 0l0 -369.58 369.59 0 0 369.58 -369.59 0zm380.34 0l0 -369.58 369.58 0 0 369.58 -369.58 0zm380.32 0l0 -369.58 369.58 0 0 369.58 -369.58 0zm380.33 0l0 -369.58 369.58 0 0 369.58 -369.58 0zm380.32 0l0 -369.58 369.58 0 0 369.58 -369.58 0zm380.34 0l0 -369.58 369.57 0 0 369.58 -369.57 0zm380.31 0l0 -369.58 369.58 0 0 369.58 -369.58 0zm380.33 0l0 -369.58 369.59 0 0 369.58 -369.59 0zm-8367.13 -380.32l0 -369.58 369.59 0 0 369.58 -369.59 0zm380.33 0l0 -369.58 369.58 0 0 369.58 -369.58 0zm380.32 0l0 -369.58 369.58 0 0 369.58 -369.58 0zm380.33 0l0 -369.58 369.58 0 0 369.58 -369.58 0zm380.32 0l0 -369.58 369.6 0 0 369.58 -369.6 0zm380.33 0l0 -369.58 369.59 0 0 369.58 -369.59 0zm380.33 0l0 -369.58 369.58 0 0 369.58 -369.58 0zm380.34 0l0 -369.58 369.58 0 0 369.58 -369.58 0zm380.31 0l0 -369.58 369.58 0 0 369.58 -369.58 0zm380.34 0l0 -369.58 369.58 0 0 369.58 -369.58 0zm380.33 0l0 -369.58 369.57 0 0 369.58 -369.57 0zm380.32 0l0 -369.58 369.59 0 0 369.58 -369.59 0zm380.33 0l0 -369.58 369.57 0 0 369.58 -369.57 0zm380.32 0l0 -369.58 369.59 0 0 369.58 -369.59 0zm380.32 0l0 -369.58 369.58 0 0 369.58 -369.58 0zm380.33 0l0 -369.58 369.59 0 0 369.58 -369.59 0zm380.34 0l0 -369.58 369.58 0 0 369.58 -369.58 0zm380.32 0l0 -369.58 369.58 0 0 369.58 -369.58 0zm380.33 0l0 -369.58 369.58 0 0 369.58 -369.58 0zm380.32 0l0 -369.58 369.58 0 0 369.58 -369.58 0zm380.34 0l0 -369.58 369.57 0 0 369.58 -369.57 0zm380.31 0l0 -369.58 369.58 0 0 369.58 -369.58 0zm380.33 0l0 -369.58 369.59 0 0 369.58 -369.59 0zm-8367.13 -380.34l0 -369.58 369.59 0 0 369.58 -369.59 0zm380.33 0l0 -369.58 369.58 0 0 369.58 -369.58 0zm380.32 0l0 -369.58 369.58 0 0 369.58 -369.58 0zm380.33 0l0 -369.58 369.58 0 0 369.58 -369.58 0zm380.32 0l0 -369.58 369.6 0 0 369.58 -369.6 0zm380.33 0l0 -369.58 369.59 0 0 369.58 -369.59 0zm380.33 0l0 -369.58 369.58 0 0 369.58 -369.58 0zm380.34 0l0 -369.58 369.58 0 0 369.58 -369.58 0zm380.31 0l0 -369.58 369.58 0 0 369.58 -369.58 0zm380.34 0l0 -369.58 369.58 0 0 369.58 -369.58 0zm380.33 0l0 -369.58 369.57 0 0 369.58 -369.57 0zm380.32 0l0 -369.58 369.59 0 0 369.58 -369.59 0zm380.33 0l0 -369.58 369.57 0 0 369.58 -369.57 0zm380.32 0l0 -369.58 369.59 0 0 369.58 -369.59 0zm380.32 0l0 -369.58 369.58 0 0 369.58 -369.58 0zm380.33 0l0 -369.58 369.59 0 0 369.58 -369.59 0zm380.34 0l0 -369.58 369.58 0 0 369.58 -369.58 0zm380.32 0l0 -369.58 369.58 0 0 369.58 -369.58 0zm380.33 0l0 -369.58 369.58 0 0 369.58 -369.58 0zm380.32 0l0 -369.58 369.58 0 0 369.58 -369.58 0zm380.34 0l0 -369.58 369.57 0 0 369.58 -369.57 0zm380.31 0l0 -369.58 369.58 0 0 369.58 -369.58 0zm380.33 0l0 -369.58 369.59 0 0 369.58 -369.59 0zm-8367.13 -380.33l0 -369.58 369.59 0 0 369.58 -369.59 0zm380.33 0l0 -369.58 369.58 0 0 369.58 -369.58 0zm380.32 0l0 -369.58 369.58 0 0 369.58 -369.58 0zm380.33 0l0 -369.58 369.58 0 0 369.58 -369.58 0zm380.32 0l0 -369.58 369.6 0 0 369.58 -369.6 0zm380.33 0l0 -369.58 369.59 0 0 369.58 -369.59 0zm380.33 0l0 -369.58 369.58 0 0 369.58 -369.58 0zm380.34 0l0 -369.58 369.58 0 0 369.58 -369.58 0zm380.31 0l0 -369.58 369.58 0 0 369.58 -369.58 0zm380.34 0l0 -369.58 369.58 0 0 369.58 -369.58 0zm380.33 0l0 -369.58 369.57 0 0 369.58 -369.57 0zm380.32 0l0 -369.58 369.59 0 0 369.58 -369.59 0zm380.33 0l0 -369.58 369.57 0 0 369.58 -369.57 0zm380.32 0l0 -369.58 369.59 0 0 369.58 -369.59 0zm380.32 0l0 -369.58 369.58 0 0 369.58 -369.58 0zm380.33 0l0 -369.58 369.59 0 0 369.58 -369.59 0zm380.34 0l0 -369.58 369.58 0 0 369.58 -369.58 0zm380.32 0l0 -369.58 369.58 0 0 369.58 -369.58 0zm380.33 0l0 -369.58 369.58 0 0 369.58 -369.58 0zm380.32 0l0 -369.58 369.58 0 0 369.58 -369.58 0zm380.34 0l0 -369.58 369.57 0 0 369.58 -369.57 0zm380.31 0l0 -369.58 369.58 0 0 369.58 -369.58 0zm380.33 0l0 -369.58 369.59 0 0 369.58 -369.59 0zm-8367.13 -380.31l0 -369.59 369.59 0 0 369.59 -369.59 0zm380.33 0l0 -369.59 369.58 0 0 369.59 -369.58 0zm380.32 0l0 -369.59 369.58 0 0 369.59 -369.58 0zm380.33 0l0 -369.59 369.58 0 0 369.59 -369.58 0zm380.32 0l0 -369.59 369.6 0 0 369.59 -369.6 0zm380.33 0l0 -369.59 369.59 0 0 369.59 -369.59 0zm380.33 0l0 -369.59 369.58 0 0 369.59 -369.58 0zm380.34 0l0 -369.59 369.58 0 0 369.59 -369.58 0zm380.31 0l0 -369.59 369.58 0 0 369.59 -369.58 0zm380.34 0l0 -369.59 369.58 0 0 369.59 -369.58 0zm380.33 0l0 -369.59 369.57 0 0 369.59 -369.57 0zm380.32 0l0 -369.59 369.59 0 0 369.59 -369.59 0zm380.33 0l0 -369.59 369.57 0 0 369.59 -369.57 0zm380.32 0l0 -369.59 369.59 0 0 369.59 -369.59 0zm380.32 0l0 -369.59 369.58 0 0 369.59 -369.58 0zm380.33 0l0 -369.59 369.59 0 0 369.59 -369.59 0zm380.34 0l0 -369.59 369.58 0 0 369.59 -369.58 0zm380.32 0l0 -369.59 369.58 0 0 369.59 -369.58 0zm380.33 0l0 -369.59 369.58 0 0 369.59 -369.58 0zm380.32 0l0 -369.59 369.58 0 0 369.59 -369.58 0zm380.34 0l0 -369.59 369.57 0 0 369.59 -369.57 0zm380.31 0l0 -369.59 369.58 0 0 369.59 -369.58 0zm380.33 0l0 -369.59 369.59 0 0 369.59 -369.59 0zm-8367.13 -380.32l0 -132.56 0.03 -0.27 0 -193.91 369.57 0 0 135.28 -0.01 0.28 0 191.18 -369.59 0zm380.33 0l0 -132.52 0.04 -0.31 0 -193.91 369.56 0 0 135.14 -0.02 0.42 0 191.18 -369.58 0zm380.32 0l0 -132.47c0.04,-0.12 0.05,-0.24 0.05,-0.36l0 -193.91 369.56 0 0 134.96 -0.03 0.6 0 191.18 -369.58 0zm380.33 0l0 -132.44c0.04,-0.13 0.06,-0.26 0.06,-0.39l0 -193.91 369.57 0 0 134.84c-0.03,0.24 -0.05,0.48 -0.05,0.72l0 191.18 -369.58 0zm380.32 0l0 -191.18c0,-0.27 -0.02,-0.53 -0.06,-0.79l0 -134.77 369.57 0 0 193.91c0,0.16 0.03,0.31 0.08,0.46l0 132.37 -369.6 0zm380.33 0l0 -191.18c0,-0.25 -0.02,-0.49 -0.05,-0.72l0 -134.84 369.57 0 0 193.91c0,0.14 0.02,0.27 0.07,0.41l0 132.42 -369.59 0zm380.33 0l0 -191.18 -0.03 -0.6 0 -134.96 369.69 0 0 134.6c-0.05,0.31 -0.08,0.64 -0.08,0.96l0 191.18 -369.58 0zm380.34 0l0 -132.34c0.06,-0.16 0.1,-0.32 0.1,-0.49l0 -193.91 369.56 0 0 134.6c-0.05,0.31 -0.08,0.64 -0.08,0.96l0 191.18 -369.58 0zm380.31 0l0 -191.18 -0.01 -0.28 0 -135.28 369.69 0 0 134.47c-0.07,0.36 -0.11,0.71 -0.11,1.09l0 191.18 -369.58 0zm380.34 0l0 -191.18 -0.01 -0.28 0 -135.28 369.56 0 0 193.91 0.02 0.24 0 132.59 -369.58 0zm380.33 0l0 -132.69 0.01 -0.14 0 -193.91 369.56 0 0 193.91 0.01 0.14 0 132.69 -369.57 0zm380.32 0l0 -132.59 0.02 -0.24 0 -193.91 369.56 0 0 193.91 0.01 0.18 0 132.65 -369.59 0zm380.33 0l0 -132.54 0.03 -0.29 0 -193.91 369.56 0 0 135.08 -0.02 0.48 0 191.18 -369.57 0zm380.32 0l0 -132.5 0.05 -0.33 0 -193.91 369.57 0 0 135.08 -0.02 0.48 0 191.18 -369.59 0zm380.32 0l0 -132.44c0.04,-0.13 0.06,-0.26 0.06,-0.39l0 -193.91 369.53 0 0 135.28 -0.01 0.28 0 191.18 -369.58 0zm380.33 0l0 -132.49c0.03,-0.12 0.05,-0.23 0.05,-0.34l0 -193.91 369.57 0 0 135.08 -0.02 0.48 0 191.18 -369.59 0zm380.34 0l0 -132.44c0.04,-0.13 0.06,-0.26 0.06,-0.39l0 -193.91 369.57 0 0 134.84c-0.03,0.24 -0.05,0.48 -0.05,0.72l0 191.18 -369.58 0zm380.32 0l0 -191.18 -0.02 -0.42 0 -135.14 369.56 0 0 193.91 0.03 0.27 0 132.56 -369.58 0zm380.33 0l0 -132.69 0.01 -0.14 0 -193.91 369.56 0 0 193.91 0.01 0.18 0 132.65 -369.58 0zm380.32 0l0 -132.54 0.04 -0.29 0 -193.91 369.56 0 0 135.08 -0.02 0.48 0 191.18 -369.58 0zm380.34 0l0 -132.56 0.03 -0.27 0 -193.91 369.58 0 0 134.92 -0.04 0.64 0 191.18 -369.57 0zm380.31 0l0 -191.18 -0.02 -0.48 0 -135.08 369.67 0 0 134.67c-0.05,0.29 -0.07,0.59 -0.07,0.89l0 191.18 -369.58 0zm380.33 0l0 -132.69 0.01 -0.14 0 -193.91 369.59 0 0 135.21 -0.01 0.35 0 191.18 -369.59 0zm369.6 -1848.02l0 369.58 -369.59 0 0 -369.58 369.59 0zm-380.27 0l0 369.58 -369.67 0 0 -369.58 369.67 0zm-380.35 0l0 369.58 -369.58 0 0 -369.58 369.58 0zm-380.35 0l0 369.58 -369.56 0 0 -369.58 369.56 0zm-380.35 0l0 369.58 -369.56 0 0 -369.58 369.56 0zm-380.35 0l0 369.58 -369.56 0 0 -369.58 369.56 0zm-380.24 0l0 369.58 -369.57 0 0 -369.58 369.57 0zm-380.35 0l0 369.58 -369.57 0 0 -369.58 369.57 0zm-380.35 0l0 369.58 -369.53 0 0 -369.58 369.53 0zm-380.3 0l0 369.58 -369.57 0 0 -369.58 369.57 0zm-380.34 0l0 369.58 -369.56 0 0 -369.58 369.56 0zm-380.34 0l0 369.58 -369.56 0 0 -369.58 369.56 0zm-380.34 0l0 369.58 -369.56 0 0 -369.58 369.56 0zm-380.34 0l0 369.58 -369.56 0 0 -369.58 369.56 0zm-380.21 0l0 369.58 -369.69 0 0 -369.58 369.69 0zm-380.34 0l0 369.58 -369.56 0 0 -369.58 369.56 0zm-380.34 0l0 369.58 -369.69 0 0 -369.58 369.69 0zm-380.46 0l0 369.58 -369.57 0 0 -369.58 369.57 0zm-380.34 0l0 369.58 -369.57 0 0 -369.58 369.57 0zm-380.21 0l0 369.58 -369.57 0 0 -369.58 369.57 0zm-380.34 0l0 369.58 -369.56 0 0 -369.58 369.56 0zm-380.34 0l0 369.58 -369.56 0 0 -369.58 369.56 0zm-380.33 0l0 369.58 -369.57 0 0 -369.58 369.57 0zm8367.13 380.34l0 369.58 -369.59 0 0 -369.58 369.59 0zm-380.27 0l0 369.58 -369.67 0 0 -369.58 369.67 0zm-380.35 0l0 369.58 -369.58 0 0 -369.58 369.58 0zm-380.35 0l0 369.58 -369.56 0 0 -369.58 369.56 0zm-380.35 0l0 369.58 -369.56 0 0 -369.58 369.56 0zm-380.35 0l0 369.58 -369.56 0 0 -369.58 369.56 0zm-380.24 0l0 369.58 -369.57 0 0 -369.58 369.57 0zm-380.35 0l0 369.58 -369.57 0 0 -369.58 369.57 0zm-380.35 0l0 369.58 -369.53 0 0 -369.58 369.53 0zm-380.3 0l0 369.58 -369.57 0 0 -369.58 369.57 0zm-380.34 0l0 369.58 -369.56 0 0 -369.58 369.56 0zm-380.34 0l0 369.58 -369.56 0 0 -369.58 369.56 0zm-380.34 0l0 369.58 -369.56 0 0 -369.58 369.56 0zm-380.34 0l0 369.58 -369.56 0 0 -369.58 369.56 0zm-380.21 0l0 369.58 -369.69 0 0 -369.58 369.69 0zm-380.34 0l0 369.58 -369.56 0 0 -369.58 369.56 0zm-380.34 0l0 369.58 -369.69 0 0 -369.58 369.69 0zm-380.46 0l0 369.58 -369.57 0 0 -369.58 369.57 0zm-380.34 0l0 369.58 -369.57 0 0 -369.58 369.57 0zm-380.21 0l0 369.58 -369.57 0 0 -369.58 369.57 0zm-380.34 0l0 369.58 -369.56 0 0 -369.58 369.56 0zm-380.34 0l0 369.58 -369.56 0 0 -369.58 369.56 0zm-380.33 0l0 369.58 -369.57 0 0 -369.58 369.57 0zm8367.13 380.33l0 369.58 -369.59 0 0 -369.58 369.59 0zm-380.27 0l0 369.58 -369.67 0 0 -369.58 369.67 0zm-380.35 0l0 369.58 -369.58 0 0 -369.58 369.58 0zm-380.35 0l0 369.58 -369.56 0 0 -369.58 369.56 0zm-380.35 0l0 369.58 -369.56 0 0 -369.58 369.56 0zm-380.35 0l0 369.58 -369.56 0 0 -369.58 369.56 0zm-380.24 0l0 369.58 -369.57 0 0 -369.58 369.57 0zm-380.35 0l0 369.58 -369.57 0 0 -369.58 369.57 0zm-380.35 0l0 369.58 -369.53 0 0 -369.58 369.53 0zm-380.3 0l0 369.58 -369.57 0 0 -369.58 369.57 0zm-380.34 0l0 369.58 -369.56 0 0 -369.58 369.56 0zm-380.34 0l0 369.58 -369.56 0 0 -369.58 369.56 0zm-380.34 0l0 369.58 -369.56 0 0 -369.58 369.56 0zm-380.34 0l0 369.58 -369.56 0 0 -369.58 369.56 0zm-380.21 0l0 369.58 -369.69 0 0 -369.58 369.69 0zm-380.34 0l0 369.58 -369.56 0 0 -369.58 369.56 0zm-380.34 0l0 369.58 -369.69 0 0 -369.58 369.69 0zm-380.46 0l0 369.58 -369.57 0 0 -369.58 369.57 0zm-380.34 0l0 369.58 -369.57 0 0 -369.58 369.57 0zm-380.21 0l0 369.58 -369.57 0 0 -369.58 369.57 0zm-380.34 0l0 369.58 -369.56 0 0 -369.58 369.56 0zm-380.34 0l0 369.58 -369.56 0 0 -369.58 369.56 0zm-380.33 0l0 369.58 -369.57 0 0 -369.58 369.57 0zm8367.13 380.31l0 369.59 -369.59 0 0 -369.59 369.59 0zm-380.27 0l0 369.59 -369.67 0 0 -369.59 369.67 0zm-380.35 0l0 369.59 -369.58 0 0 -369.59 369.58 0zm-380.35 0l0 369.59 -369.56 0 0 -369.59 369.56 0zm-380.35 0l0 369.59 -369.56 0 0 -369.59 369.56 0zm-380.35 0l0 369.59 -369.56 0 0 -369.59 369.56 0zm-380.24 0l0 369.59 -369.57 0 0 -369.59 369.57 0zm-380.35 0l0 369.59 -369.57 0 0 -369.59 369.57 0zm-380.35 0l0 369.59 -369.53 0 0 -369.59 369.53 0zm-380.3 0l0 369.59 -369.57 0 0 -369.59 369.57 0zm-380.34 0l0 369.59 -369.56 0 0 -369.59 369.56 0zm-380.34 0l0 369.59 -369.56 0 0 -369.59 369.56 0zm-380.34 0l0 369.59 -369.56 0 0 -369.59 369.56 0zm-380.34 0l0 369.59 -369.56 0 0 -369.59 369.56 0zm-380.21 0l0 369.59 -369.69 0 0 -369.59 369.69 0zm-380.34 0l0 369.59 -369.56 0 0 -369.59 369.56 0zm-380.34 0l0 369.59 -369.69 0 0 -369.59 369.69 0zm-380.46 0l0 369.59 -369.57 0 0 -369.59 369.57 0zm-380.34 0l0 369.59 -369.57 0 0 -369.59 369.57 0zm-380.21 0l0 369.59 -369.57 0 0 -369.59 369.57 0zm-380.34 0l0 369.59 -369.56 0 0 -369.59 369.56 0zm-380.34 0l0 369.59 -369.56 0 0 -369.59 369.56 0zm-380.33 0l0 369.59 -369.57 0 0 -369.59 369.57 0z"/>
  <g id="_2485211090800">
   <path class="fil2" d="M557.51 6887.71c-189.2,0 -316.68,-16.76 -324.02,-47.7 292,-10.4 504.31,-41.97 504.31,-79.29 0,-15.27 -35.53,-29.57 -97.5,-41.86 88.49,-12.91 187.02,-24.33 291.08,-33.26 143.48,-12.33 277.46,-18.23 389.7,-18.23 192.83,0 321.53,17.4 324.29,49.51 4.37,50.78 -308.22,119.1 -698.17,152.61 -143.49,12.33 -277.46,18.23 -389.69,18.23z"/>
   <g>
    <path class="fil2" d="M20.74 6843.63l0.38 0 0.38 0 0.38 0 0.38 0 0.38 0 0.38 0 0.38 0 0.38 0 0.38 0 3.41 0c71.63,-0.04 140.77,-1.31 205.93,-3.62 -0.14,-0.6 -0.24,-1.19 -0.29,-1.8 -3.2,-37.23 163.99,-83.9 407.1,-119.35 -123.88,-24.57 -353.44,-41.05 -616.16,-41.05l-0.38 0 -0.38 0 -0.38 0 -0.38 0 -0.38 0 -0.38 0 -0.38 0 -0.38 0 -0.38 0c-6.94,0.01 -13.85,0.02 -20.74,0.05l0 165.73c6.9,0.03 13.8,0.05 20.74,0.05z"/>
    <path class="fil3" d="M233.49 6840.01c-0.14,-0.6 -0.24,-1.19 -0.29,-1.8 -3.2,-37.23 163.99,-83.9 407.1,-119.35 61.97,12.29 97.5,26.59 97.5,41.86 0,37.33 -212.31,68.9 -504.31,79.29z"/>
    <path class="fil2" d="M46.65 6984.06c-15.69,0 -31.25,-0.05 -46.65,-0.13l0 -89.07c15.4,-0.08 30.96,-0.13 46.65,-0.13 339.16,0 614.11,20 614.11,44.67 0,24.66 -274.95,44.65 -614.11,44.65z"/>
    <path class="fil4" d="M642.3 6852.54l848.54 -113.93c16.27,-17.05 0,-28.7 0,-28.7l0 -0.09 -12.68 1.71 -797.05 107c-54.74,-90.8 -12.59,-163.61 -0.08,-181.86l797.13 -106.99 12.68 -1.71c16.18,-17.05 0,-27.76 0,-27.76l-848.54 113.84c-0.01,0.01 -85.57,104.34 0,238.48z"/>
    <path class="fil5" d="M449.98 6811.58c-3.77,-7.31 -6.98,-14.5 -9.68,-21.56 -37.83,-98.72 22.97,-170.4 22.97,-170.4l87.04 8.74c0,0 -1.25,1.47 -3.27,4.27 -1.01,1.4 -2.21,3.14 -3.56,5.19 -0.67,1.03 -1.38,2.13 -2.11,3.31 -2.19,3.56 -4.63,7.8 -7.1,12.68 -3.31,6.52 -6.68,14.17 -9.68,22.83 -1.5,4.33 -2.9,8.91 -4.14,13.73 -0.62,2.41 -1.21,4.88 -1.74,7.41 -1.62,7.57 -2.81,15.66 -3.39,24.21 -0.2,2.85 -0.32,5.75 -0.37,8.69 -0.31,17.7 2.1,37.13 8.79,57.89 5.57,17.31 14.12,35.51 26.56,54.4l91.99 9.59c-85.57,-134.14 0,-238.48 0,-238.48l848.54 -113.84 -1093.69 -71.1 -218.11 18.29 -179.05 36.6 0 301.63 294.1 30.67c-39.36,-60.13 -39.22,-113.56 -29.22,-151.96 1.26,-4.8 2.66,-9.37 4.16,-13.68 10.49,-30.2 25.67,-48.09 25.67,-48.09l34.81 3.53 52.22 5.3c0,0 -13.1,15.42 -23.37,41.82 -2.52,6.48 -4.85,13.65 -6.8,21.39 -1.63,6.51 -2.98,13.42 -3.9,20.73l-0.22 1.81c-3.76,32.7 1.12,72.84 26.91,117.02 2.17,3.72 4.48,7.45 6.95,11.22l81.72 8.48c-4.95,-7.54 -9.27,-14.97 -13.04,-22.28z"/>
    <path class="fil6" d="M681.11 6818.53l797.05 -107c-46.17,-107.75 0,-181.85 0,-181.85l-797.13 106.99c-12.51,18.25 -54.66,91.06 0.08,181.86z"/>
    <path class="fil4" d="M347.45 6697.14l0.22 -1.81c0.92,-7.31 2.27,-14.22 3.9,-20.73 1.95,-7.74 4.28,-14.91 6.8,-21.39 10.27,-26.4 23.37,-41.82 23.37,-41.82l-52.22 -5.3 -34.81 -3.53c0,0 -15.19,17.89 -25.67,48.09 -1.5,4.31 -2.9,8.88 -4.16,13.68 -9.99,38.4 -10.14,91.83 29.22,151.96l87.21 9.08c-2.47,-3.77 -4.78,-7.51 -6.95,-11.22 -25.79,-44.18 -30.66,-84.32 -26.91,-117.02z"/>
    <path class="fil4" d="M514.97 6730.67c0.05,-2.95 0.18,-5.84 0.37,-8.69 0.58,-8.55 1.78,-16.64 3.39,-24.21 0.54,-2.53 1.12,-5 1.74,-7.41 1.25,-4.82 2.64,-9.4 4.14,-13.73 3,-8.66 6.37,-16.31 9.68,-22.83 2.48,-4.88 4.91,-9.13 7.1,-12.68 0.73,-1.18 1.44,-2.28 2.11,-3.31 1.35,-2.05 2.55,-3.79 3.56,-5.19 2.03,-2.81 3.27,-4.27 3.27,-4.27l-87.04 -8.74c0,0 -60.8,71.68 -22.97,170.4 2.7,7.06 5.91,14.25 9.68,21.56 3.77,7.32 8.1,14.75 13.04,22.28l87.29 9.09c-12.44,-18.89 -20.99,-37.09 -26.56,-54.4 -6.69,-20.76 -9.09,-40.2 -8.79,-57.89z"/>
    <polygon class="fil7" points="-0,6484.01 179.05,6447.42 -0,6462.42 "/>
    <path class="fil8" d="M642.84 6617.91l848.53 -113.89c2.1,-0.29 3.58,-2.22 3.3,-4.32 -0.3,-2.1 -2.23,-3.58 -4.33,-3.29l-848.52 113.89c-2.11,0.28 -3.58,2.22 -3.3,4.32 0.28,2.1 2.22,3.58 4.32,3.3z"/>
    <path class="fil8" d="M1490.36 6706.05l-809.76 108.69c-2.11,0.29 -3.58,2.22 -3.3,4.32 0.28,2.1 2.22,3.57 4.32,3.29l809.76 -108.69c2.1,-0.29 3.58,-2.21 3.3,-4.32 -0.29,-2.11 -2.21,-3.58 -4.32,-3.3z"/>
    <path class="fil8" d="M1490.36 6524.2l-809.82 108.69c-2.1,0.28 -3.58,2.21 -3.3,4.32 0.29,2.1 2.22,3.58 4.32,3.3l809.82 -108.7c2.1,-0.28 3.58,-2.21 3.3,-4.32 -0.29,-2.1 -2.21,-3.58 -4.32,-3.29z"/>
    <path class="fil8" d="M1491.1 6496.39l-1093.74 -71.06 -0.57 0.01 -396.8 33.23 0 7.71 397.15 -33.26 1093.45 71.04c2.12,0.14 3.95,-1.47 4.09,-3.59 0.14,-2.12 -1.47,-3.95 -3.59,-4.08zm-1491.1 293.11l641.94 66.84 0.91 -0.01 848.53 -113.89c2.1,-0.29 3.58,-2.21 3.3,-4.32 -0.3,-2.1 -2.23,-3.57 -4.33,-3.29l-848.06 113.83 -642.28 -66.88 0 7.72z"/>
    <path class="fil8" d="M639.37 6611.66c-0.27,0.36 -38.89,47.35 -38.94,119.41 -0.01,36.01 9.74,78.21 38.67,123.51 1.14,1.79 3.52,2.31 5.31,1.17 1.79,-1.15 2.31,-3.52 1.17,-5.31 -28.17,-44.15 -37.45,-84.75 -37.46,-119.38 0,-34.62 9.34,-63.32 18.68,-83.35 4.67,-10.02 9.33,-17.86 12.81,-23.17 1.74,-2.67 3.19,-4.69 4.19,-6.04 0.5,-0.67 0.89,-1.18 1.15,-1.51l0.37 -0.47c1.35,-1.64 1.11,-4.06 -0.53,-5.4 -1.64,-1.36 -4.06,-1.11 -5.4,0.53z"/>
    <path class="fil8" d="M684.4 6816.57c-20.11,-33.38 -26.83,-64.04 -26.84,-90.38 -0.02,-44.14 19.05,-76.3 26.66,-87.33 1.21,-1.75 0.76,-4.14 -0.99,-5.34 -1.75,-1.2 -4.14,-0.76 -5.34,0.99 -8.11,11.79 -28,45.28 -28.02,91.68 -0.01,27.65 7.13,59.84 27.95,94.34 1.09,1.82 3.45,2.41 5.27,1.3 1.82,-1.09 2.4,-3.45 1.31,-5.27z"/>
    <path class="fil8" d="M1474.93 6527.69c-0.24,0.4 -21.11,33.98 -21.12,88.85 0,27.43 5.24,60.16 20.86,96.55 0.84,1.95 3.09,2.86 5.05,2.03 1.95,-0.84 2.84,-3.1 2.01,-5.05 -15.19,-35.43 -20.23,-67.07 -20.23,-93.52 0,-26.45 5.04,-47.73 10.07,-62.37 2.51,-7.32 5.02,-12.98 6.88,-16.77 0.94,-1.91 1.71,-3.34 2.24,-4.29l0.61 -1.06 0.19 -0.31c1.13,-1.8 0.57,-4.17 -1.23,-5.29 -1.8,-1.12 -4.16,-0.58 -5.29,1.23z"/>
    <path class="fil8" d="M1488.73 6503.42l0.04 -0.05 -0.04 0.05 0 0 0.04 -0.05 -0.04 0.05c0.18,0.12 1.69,1.22 3.02,2.98 1.35,1.76 2.49,4.05 2.49,6.84 -0.02,2.95 -1.23,6.92 -6.16,12.15 -1.46,1.54 -1.4,3.97 0.15,5.43 1.53,1.47 3.96,1.41 5.43,-0.14 5.88,-6.15 8.28,-12.15 8.26,-17.43 0,-5.29 -2.32,-9.38 -4.46,-12.02 -2.17,-2.67 -4.26,-4.06 -4.48,-4.2 -1.76,-1.17 -4.15,-0.69 -5.32,1.08 -1.17,1.78 -0.69,4.16 1.08,5.33z"/>
    <path class="fil8" d="M1488.61 6713l0 0c0.2,0.14 1.72,1.34 3.07,3.24 1.38,1.92 2.55,4.4 2.55,7.36 -0.03,3.13 -1.25,7.18 -6.16,12.4 -1.46,1.53 -1.4,3.96 0.15,5.42 1.53,1.46 3.96,1.41 5.43,-0.14 5.89,-6.18 8.28,-12.3 8.26,-17.68 0,-5.38 -2.27,-9.6 -4.39,-12.39 -2.15,-2.8 -4.23,-4.3 -4.42,-4.45 -1.72,-1.24 -4.13,-0.85 -5.36,0.87 -1.24,1.72 -0.85,4.13 0.87,5.37z"/>
    <path class="fil8" d="M-0 6543.12l590.82 61.52c0.71,0.08 1.33,-0.44 1.41,-1.15 0.07,-0.7 -0.44,-1.33 -1.15,-1.4l-591.09 -61.55 0 2.58z"/>
    <path class="fil8" d="M466.52 6832.05c-26.16,-39.67 -34.75,-76.1 -34.76,-107.17 -0.01,-31.07 8.65,-56.82 17.32,-74.81 4.33,-8.99 8.66,-16.03 11.89,-20.79 1.62,-2.39 2.96,-4.21 3.88,-5.42l1.06 -1.35 0.34 -0.41 -2.93 -2.49 -0.39 3.82 87.03 8.77 0.39 -3.82 -2.93 -2.49c-0.27,0.35 -36.26,42.71 -36.31,107.75 -0.02,32.5 9.09,70.58 36.03,111.4 1.17,1.77 3.55,2.27 5.32,1.09 1.77,-1.17 2.26,-3.55 1.1,-5.32 -26.16,-39.67 -34.75,-76.1 -34.76,-107.17 0,-31.07 8.66,-56.82 17.32,-74.81 4.33,-8.98 8.66,-16.03 11.89,-20.8 1.62,-2.39 2.96,-4.2 3.88,-5.41l1.06 -1.36 0.34 -0.42c0.92,-1.08 1.17,-2.6 0.64,-3.92 -0.53,-1.32 -1.77,-2.25 -3.18,-2.39l-87.03 -8.77c-1.25,-0.13 -2.5,0.38 -3.32,1.34 -0.27,0.35 -36.26,42.71 -36.3,107.75 -0.01,32.5 9.09,70.58 36.03,111.4 1.17,1.77 3.55,2.27 5.32,1.1 1.77,-1.17 2.26,-3.55 1.1,-5.33z"/>
    <path class="fil8" d="M297.88 6815.06c-26.15,-39.67 -34.75,-76.1 -34.76,-107.17 -0.01,-31.07 8.65,-56.82 17.32,-74.8 4.33,-9 8.66,-16.04 11.89,-20.81 1.62,-2.39 2.96,-4.21 3.88,-5.42l1.06 -1.35 0.34 -0.42 -2.93 -2.48 -0.39 3.82 87.03 8.77 0.39 -3.82 -2.93 -2.49c-0.27,0.35 -36.26,42.7 -36.31,107.75 -0.01,32.5 9.09,70.58 36.03,111.4 1.17,1.77 3.55,2.26 5.32,1.09 1.77,-1.17 2.26,-3.55 1.1,-5.32 -26.15,-39.67 -34.75,-76.1 -34.76,-107.17 0,-31.07 8.66,-56.82 17.32,-74.81 4.33,-8.99 8.66,-16.03 11.89,-20.8 1.62,-2.39 2.96,-4.2 3.89,-5.41l1.06 -1.35 0.34 -0.42c0.92,-1.08 1.17,-2.6 0.64,-3.92 -0.53,-1.32 -1.77,-2.25 -3.18,-2.39l-87.03 -8.77c-1.25,-0.13 -2.5,0.38 -3.31,1.34 -0.27,0.36 -36.26,42.71 -36.31,107.75 -0.01,32.51 9.09,70.59 36.03,111.4 1.17,1.78 3.55,2.27 5.32,1.1 1.77,-1.17 2.26,-3.55 1.09,-5.32l0 -0.01z"/>
    <path class="fil8" d="M1439.84 6677.17l-727.33 97.62c-0.7,0.1 -1.19,0.74 -1.1,1.45 0.09,0.7 0.74,1.19 1.44,1.1l727.32 -97.62c0.7,-0.09 1.2,-0.74 1.1,-1.44 -0.1,-0.71 -0.74,-1.2 -1.44,-1.1z"/>
    <path class="fil8" d="M1428.73 6652.76l-730.06 97.99c-0.7,0.09 -1.19,0.74 -1.1,1.44 0.1,0.7 0.75,1.19 1.44,1.1l730.06 -97.99c0.7,-0.09 1.2,-0.74 1.1,-1.44 -0.1,-0.7 -0.74,-1.2 -1.45,-1.1z"/>
    <path class="fil8" d="M1420.33 6627.98l-732.92 98.37c-0.7,0.09 -1.19,0.74 -1.1,1.44 0.09,0.7 0.74,1.2 1.44,1.1l732.93 -98.37c0.7,-0.09 1.19,-0.74 1.1,-1.44 -0.1,-0.7 -0.75,-1.2 -1.45,-1.1z"/>
    <path class="fil8" d="M1426.42 6601.26l-737.14 98.94c-0.7,0.1 -1.2,0.75 -1.1,1.45 0.1,0.7 0.74,1.19 1.44,1.09l737.15 -98.93c0.7,-0.1 1.19,-0.74 1.1,-1.44 -0.11,-0.7 -0.75,-1.2 -1.45,-1.1z"/>
    <path class="fil8" d="M1436.16 6574.06l-737.49 98.98c-0.7,0.1 -1.19,0.74 -1.1,1.44 0.1,0.7 0.75,1.19 1.44,1.1l737.49 -98.99c0.7,-0.09 1.19,-0.74 1.1,-1.44 -0.09,-0.71 -0.73,-1.2 -1.44,-1.1z"/>
    <path class="fil4" d="M642.3 6614.1l848.54 -113.92c16.27,-17.05 0,-28.7 0,-28.7l0 -0.09 -12.68 1.72 -797.05 106.99c-54.74,-90.8 -12.59,-163.6 -0.08,-181.86l797.13 -106.99 12.68 -1.71c16.18,-17.05 0,-27.76 0,-27.76l-848.54 113.84c-0.01,0.01 -85.57,104.34 0,238.47z"/>
    <path class="fil9" d="M449.98 6573.14c-3.77,-7.31 -6.98,-14.5 -9.68,-21.55 -37.83,-98.72 22.97,-170.4 22.97,-170.4l87.04 8.74c0,0 -1.25,1.47 -3.27,4.27 -1.01,1.4 -2.21,3.14 -3.56,5.19 -0.67,1.03 -1.38,2.13 -2.11,3.31 -2.19,3.55 -4.63,7.79 -7.1,12.68 -3.31,6.52 -6.68,14.17 -9.68,22.83 -1.5,4.33 -2.9,8.91 -4.14,13.73 -0.62,2.41 -1.21,4.89 -1.74,7.4 -1.62,7.58 -2.81,15.67 -3.39,24.21 -0.2,2.85 -0.32,5.75 -0.37,8.7 -0.31,17.69 2.1,37.12 8.79,57.89 5.57,17.3 14.12,35.52 26.56,54.38l91.99 9.6c-85.57,-134.14 0,-238.47 0,-238.47l848.54 -113.84 -1093.69 -71.1 -218.11 18.29 -179.05 36.6 0 301.62 294.1 30.67c-39.36,-60.13 -39.22,-113.56 -29.22,-151.96 1.26,-4.81 2.66,-9.37 4.16,-13.68 10.49,-30.2 25.67,-48.08 25.67,-48.08l34.81 3.53 52.22 5.3c0,0 -13.1,15.43 -23.37,41.83 -2.52,6.47 -4.85,13.65 -6.8,21.38 -1.63,6.51 -2.98,13.43 -3.9,20.74l-0.22 1.8c-3.76,32.7 1.12,72.84 26.91,117.02 2.17,3.72 4.48,7.46 6.95,11.22l81.72 8.48c-4.95,-7.54 -9.27,-14.97 -13.04,-22.29z"/>
    <path class="fil6" d="M681.11 6580.09l797.05 -106.99c-46.17,-107.76 0,-181.86 0,-181.86l-797.13 106.99c-12.51,18.26 -54.66,91.06 0.08,181.86z"/>
    <path class="fil4" d="M347.45 6458.71l0.22 -1.8c0.92,-7.31 2.27,-14.23 3.9,-20.74 1.95,-7.73 4.28,-14.91 6.8,-21.38 10.27,-26.4 23.37,-41.83 23.37,-41.83l-52.22 -5.3 -34.81 -3.53c0,0 -15.19,17.89 -25.67,48.08 -1.5,4.32 -2.9,8.88 -4.16,13.68 -9.99,38.4 -10.14,91.83 29.22,151.96l87.21 9.08c-2.47,-3.77 -4.78,-7.51 -6.95,-11.22 -25.79,-44.18 -30.66,-84.32 -26.91,-117.02z"/>
    <path class="fil4" d="M514.97 6492.24c0.05,-2.95 0.18,-5.85 0.37,-8.7 0.58,-8.55 1.78,-16.64 3.39,-24.21 0.54,-2.52 1.12,-4.99 1.74,-7.4 1.25,-4.82 2.64,-9.4 4.14,-13.73 3,-8.66 6.37,-16.31 9.68,-22.83 2.48,-4.89 4.91,-9.13 7.1,-12.68 0.73,-1.18 1.44,-2.29 2.11,-3.31 1.35,-2.05 2.55,-3.79 3.56,-5.19 2.03,-2.8 3.27,-4.27 3.27,-4.27l-87.04 -8.74c0,0 -60.8,71.68 -22.97,170.4 2.7,7.06 5.91,14.25 9.68,21.55 3.77,7.32 8.1,14.75 13.04,22.29l87.29 9.08c-12.44,-18.87 -20.99,-37.08 -26.56,-54.38 -6.69,-20.77 -9.09,-40.2 -8.79,-57.89z"/>
    <polygon class="fil10" points="-0,6245.58 179.05,6208.98 -0,6223.98 "/>
    <path class="fil8" d="M642.84 6379.47l848.53 -113.89c2.1,-0.28 3.58,-2.22 3.3,-4.31 -0.3,-2.11 -2.23,-3.59 -4.33,-3.3l-848.52 113.89c-2.11,0.28 -3.58,2.21 -3.3,4.32 0.28,2.1 2.22,3.58 4.32,3.3z"/>
    <path class="fil8" d="M1490.36 6467.62l-809.76 108.7c-2.11,0.28 -3.58,2.22 -3.3,4.31 0.28,2.11 2.22,3.59 4.32,3.3l809.76 -108.69c2.1,-0.29 3.58,-2.22 3.3,-4.32 -0.29,-2.11 -2.21,-3.58 -4.32,-3.3z"/>
    <path class="fil8" d="M1490.36 6285.76l-809.82 108.69c-2.1,0.28 -3.58,2.22 -3.3,4.32 0.29,2.11 2.22,3.58 4.32,3.3l809.82 -108.7c2.1,-0.28 3.58,-2.21 3.3,-4.31 -0.29,-2.11 -2.21,-3.58 -4.32,-3.3z"/>
    <path class="fil8" d="M1491.1 6257.95l-1093.74 -71.06 -0.57 0.01 -396.8 33.23 0 7.71 397.15 -33.26 1093.45 71.04c2.12,0.14 3.95,-1.47 4.09,-3.58 0.14,-2.12 -1.47,-3.95 -3.59,-4.09zm-1491.1 293.11l641.94 66.85 0.91 -0.02 848.53 -113.89c2.1,-0.28 3.58,-2.21 3.3,-4.32 -0.3,-2.1 -2.23,-3.58 -4.33,-3.3l-848.06 113.83 -642.28 -66.88 0 7.73z"/>
    <path class="fil8" d="M639.37 6373.23c-0.27,0.36 -38.89,47.35 -38.94,119.42 -0.01,36.01 9.74,78.22 38.67,123.5 1.14,1.79 3.52,2.32 5.31,1.18 1.79,-1.15 2.31,-3.51 1.17,-5.31 -28.17,-44.14 -37.45,-84.74 -37.46,-119.37 0,-34.62 9.34,-63.32 18.68,-83.36 4.67,-10.02 9.33,-17.86 12.81,-23.18 1.74,-2.66 3.19,-4.69 4.19,-6.03 0.5,-0.68 0.89,-1.18 1.15,-1.51l0.37 -0.47c1.35,-1.64 1.11,-4.06 -0.53,-5.4 -1.64,-1.35 -4.06,-1.11 -5.4,0.53z"/>
    <path class="fil8" d="M684.4 6578.13c-20.11,-33.38 -26.83,-64.04 -26.84,-90.38 -0.02,-44.14 19.05,-76.3 26.66,-87.33 1.21,-1.74 0.76,-4.13 -0.99,-5.34 -1.75,-1.21 -4.14,-0.76 -5.34,0.99 -8.11,11.78 -28,45.28 -28.02,91.68 -0.01,27.65 7.13,59.84 27.95,94.34 1.09,1.82 3.45,2.4 5.27,1.3 1.82,-1.09 2.4,-3.45 1.31,-5.27z"/>
    <path class="fil8" d="M1474.93 6289.25c-0.24,0.39 -21.11,33.97 -21.12,88.85 0,27.43 5.24,60.16 20.86,96.55 0.84,1.96 3.09,2.86 5.05,2.02 1.95,-0.83 2.84,-3.1 2.01,-5.05 -15.19,-35.43 -20.23,-67.07 -20.23,-93.52 0,-26.45 5.04,-47.73 10.07,-62.37 2.51,-7.32 5.02,-12.97 6.88,-16.77 0.94,-1.9 1.71,-3.34 2.24,-4.29l0.61 -1.07 0.19 -0.3c1.13,-1.81 0.57,-4.17 -1.23,-5.3 -1.8,-1.12 -4.16,-0.57 -5.29,1.23z"/>
    <path class="fil8" d="M1488.73 6264.98l0.05 -0.05 -0.05 0.05 0 0 0.05 -0.05 -0.05 0.05c0.18,0.13 1.69,1.23 3.02,2.98 1.35,1.77 2.49,4.06 2.49,6.84 -0.02,2.95 -1.23,6.92 -6.16,12.14 -1.46,1.55 -1.4,3.97 0.15,5.44 1.53,1.46 3.96,1.39 5.43,-0.15 5.88,-6.15 8.28,-12.15 8.26,-17.44 0,-5.29 -2.32,-9.37 -4.46,-12.02 -2.17,-2.67 -4.26,-4.06 -4.48,-4.21 -1.76,-1.17 -4.15,-0.69 -5.32,1.08 -1.17,1.78 -0.69,4.16 1.08,5.32z"/>
    <path class="fil8" d="M1488.61 6474.55l0 0.01c0.2,0.14 1.72,1.34 3.07,3.24 1.38,1.91 2.55,4.4 2.55,7.36 -0.03,3.13 -1.25,7.18 -6.16,12.39 -1.46,1.54 -1.4,3.97 0.15,5.43 1.53,1.47 3.96,1.4 5.43,-0.14 5.89,-6.17 8.28,-12.31 8.26,-17.68 0,-5.38 -2.27,-9.61 -4.39,-12.39 -2.15,-2.8 -4.23,-4.3 -4.42,-4.45 -1.72,-1.24 -4.13,-0.86 -5.36,0.87 -1.24,1.73 -0.85,4.12 0.87,5.36z"/>
    <path class="fil8" d="M-0 6304.68l590.82 61.52c0.71,0.08 1.33,-0.44 1.41,-1.14 0.07,-0.71 -0.44,-1.34 -1.15,-1.41l-591.09 -61.55 0 2.58z"/>
    <path class="fil8" d="M466.52 6593.62c-26.16,-39.68 -34.75,-76.11 -34.76,-107.17 -0.01,-31.07 8.65,-56.83 17.32,-74.81 4.33,-9 8.66,-16.04 11.89,-20.81 1.62,-2.38 2.96,-4.2 3.88,-5.42l1.06 -1.35 0.34 -0.41 -2.93 -2.49 -0.39 3.82 87.03 8.77 0.39 -3.82 -2.93 -2.49c-0.27,0.35 -36.26,42.71 -36.31,107.75 -0.02,32.5 9.09,70.59 36.03,111.41 1.17,1.77 3.55,2.26 5.32,1.08 1.77,-1.16 2.26,-3.54 1.1,-5.31 -26.16,-39.68 -34.75,-76.11 -34.76,-107.18 0,-31.07 8.66,-56.82 17.32,-74.8 4.33,-9 8.66,-16.04 11.89,-20.81 1.62,-2.39 2.96,-4.2 3.88,-5.41l1.06 -1.35 0.34 -0.42c0.92,-1.08 1.17,-2.6 0.64,-3.92 -0.53,-1.33 -1.77,-2.25 -3.18,-2.39l-87.03 -8.77c-1.25,-0.13 -2.5,0.38 -3.32,1.34 -0.27,0.36 -36.26,42.71 -36.3,107.76 -0.01,32.5 9.09,70.58 36.03,111.39 1.17,1.78 3.55,2.27 5.32,1.09 1.77,-1.17 2.26,-3.55 1.1,-5.31z"/>
    <path class="fil8" d="M297.88 6576.63c-26.15,-39.68 -34.75,-76.11 -34.76,-107.17 -0.01,-31.08 8.65,-56.82 17.32,-74.81 4.33,-9 8.66,-16.04 11.89,-20.81 1.62,-2.38 2.96,-4.2 3.88,-5.41l1.06 -1.36 0.34 -0.41 -2.93 -2.49 -0.39 3.82 87.03 8.77 0.39 -3.82 -2.93 -2.49c-0.27,0.36 -36.26,42.71 -36.31,107.76 -0.01,32.5 9.09,70.58 36.03,111.4 1.17,1.77 3.55,2.26 5.32,1.09 1.77,-1.17 2.26,-3.55 1.1,-5.32 -26.15,-39.68 -34.75,-76.11 -34.76,-107.17 0,-31.07 8.66,-56.82 17.32,-74.81 4.33,-9 8.66,-16.04 11.89,-20.81 1.62,-2.38 2.96,-4.2 3.89,-5.41l1.06 -1.36 0.34 -0.41c0.92,-1.09 1.17,-2.61 0.64,-3.92 -0.53,-1.32 -1.77,-2.25 -3.18,-2.39l-87.03 -8.77c-1.25,-0.13 -2.5,0.38 -3.31,1.34 -0.27,0.36 -36.26,42.7 -36.31,107.76 -0.01,32.49 9.09,70.57 36.03,111.39 1.17,1.77 3.55,2.26 5.32,1.09 1.77,-1.17 2.26,-3.55 1.09,-5.32z"/>
    <path class="fil8" d="M1439.84 6438.73l-727.33 97.62c-0.7,0.09 -1.19,0.74 -1.1,1.44 0.09,0.7 0.74,1.19 1.44,1.1l727.32 -97.62c0.7,-0.1 1.2,-0.74 1.1,-1.44 -0.1,-0.71 -0.74,-1.2 -1.44,-1.1z"/>
    <path class="fil8" d="M1428.73 6414.32l-730.06 97.99c-0.7,0.09 -1.19,0.74 -1.1,1.44 0.1,0.7 0.75,1.2 1.44,1.1l730.06 -97.99c0.7,-0.09 1.2,-0.74 1.1,-1.44 -0.1,-0.7 -0.74,-1.19 -1.45,-1.1z"/>
    <path class="fil8" d="M1420.33 6389.55l-732.92 98.37c-0.7,0.09 -1.19,0.74 -1.1,1.44 0.09,0.71 0.74,1.2 1.44,1.1l732.93 -98.37c0.7,-0.1 1.19,-0.74 1.1,-1.44 -0.1,-0.71 -0.75,-1.2 -1.45,-1.1z"/>
    <path class="fil8" d="M1426.42 6362.83l-737.14 98.94c-0.7,0.09 -1.2,0.74 -1.1,1.44 0.1,0.71 0.74,1.2 1.44,1.11l737.15 -98.94c0.7,-0.09 1.19,-0.74 1.1,-1.44 -0.11,-0.7 -0.75,-1.2 -1.45,-1.1z"/>
    <path class="fil8" d="M1436.16 6335.62l-737.49 98.99c-0.7,0.09 -1.19,0.74 -1.1,1.44 0.1,0.7 0.75,1.2 1.44,1.1l737.49 -98.98c0.7,-0.1 1.19,-0.74 1.1,-1.44 -0.09,-0.71 -0.73,-1.2 -1.44,-1.1z"/>
    <path class="fil9" d="M367.97 6821.21l-0.93 -4.93 -367.04 0 0 128.6 361.7 0c0,0 9.76,-12.92 9.76,-72.27 0,-23.93 -1.63,-40.35 -3.49,-51.41z"/>
    <path class="fil4" d="M426.81 6872.62c0,-13.76 -1.12,-25.99 -2.7,-36.35l-1.67 -9.53 -53.45 0 -1.02 -5.53c1.86,11.06 3.49,27.48 3.49,51.41 0,59.35 -9.76,72.27 -9.76,72.27l53.54 0c0,0 0.75,-1.9 1.91,-5.48 3.3,-10.28 9.67,-34.4 9.67,-66.79z"/>
    <path class="fil11" d="M478.68 6927.08l-45.18 0c30.12,-2.65 48.52,-23.42 48.52,-23.42 0.28,14.22 -3.35,23.42 -3.35,23.42zm-54.57 -90.81c1.59,10.36 2.7,22.59 2.7,36.35 0,32.4 -6.37,56.51 -9.67,66.79l71.07 0c0,0 8.04,-29.19 8.04,-66.79 0,-12.27 -0.84,-23.66 -2.01,-33.42l-69.62 0 -0.51 -2.93z"/>
    <path class="fil10" d="M-0 6816.29l367.04 0c-2.61,-12.32 -5.35,-15.99 -5.35,-15.99l-361.7 0 0 15.99z"/>
    <path class="fil12" d="M367.97 6821.21l1.02 5.53 53.45 0 1.67 9.53c-2.14,-14.04 -5.07,-24.59 -6.97,-30.49 -1.16,-3.58 -1.91,-5.49 -1.91,-5.49l-53.54 0c0,0 2.74,3.67 5.35,15.99l0.93 4.93z"/>
    <path class="fil13" d="M424.62 6839.2l69.62 0c-2.37,-20.17 -6.04,-33.41 -6.04,-33.41l-71.07 0c1.91,5.9 4.84,16.45 6.97,30.49l0.51 2.93z"/>
    <path class="fil14" d="M433.5 6927.08l45.18 0c0,0 3.63,-9.2 3.35,-23.42 0,0 -18.41,20.78 -48.52,23.42z"/>
    <path class="fil8" d="M361.7 6804.15l53.53 0 0 -3.84 -3.56 1.45 0.11 0.27c1.16,3 11.19,30.29 11.19,70.58 0,2.13 1.72,3.85 3.84,3.85 2.12,0 3.84,-1.72 3.84,-3.85 -0.01,-44.34 -11.74,-73.41 -11.86,-73.73 -0.59,-1.45 -2,-2.4 -3.56,-2.4l-53.53 0c-2.12,0 -3.84,1.72 -3.84,3.84 0,2.13 1.72,3.84 3.84,3.84z"/>
    <path class="fil8" d="M417.13 6809.61l71.06 0 0 -3.84 -3.7 1.02c0,0.01 0.11,0.41 0.32,1.25 1.5,5.9 7.6,32.12 7.59,64.56 0,2.13 1.72,3.85 3.85,3.85 2.12,0 3.84,-1.72 3.84,-3.85 -0.01,-38.16 -8.14,-67.64 -8.19,-67.84 -0.46,-1.67 -1.97,-2.82 -3.7,-2.82l-71.06 0c-2.12,0 -3.84,1.72 -3.84,3.84 0,2.12 1.72,3.84 3.84,3.84z"/>
    <path class="fil8" d="M367.61 6872.6c0,29.47 -2.43,47.27 -4.78,57.55 -1.18,5.13 -2.34,8.39 -3.15,10.28 -0.4,0.95 -0.72,1.56 -0.91,1.89l-0.19 0.3 -0.01 0.02 1.99 1.39 -1.94 -1.46 -0.05 0.07 1.99 1.39 -1.94 -1.46 3.07 2.31 0 -3.84 -361.7 0 0 7.68 361.7 0c1.21,0 2.35,-0.56 3.07,-1.53 0.82,-1.19 10.49,-14.85 10.52,-74.6 0,-2.12 -1.72,-3.84 -3.84,-3.84 -2.12,0 -3.84,1.73 -3.84,3.84zm-367.61 -68.45l361.7 0 0 -3.84 -3.07 2.32 1.94 -1.46 -1.99 1.39 0.05 0.07 1.94 -1.46 -1.99 1.39 0.07 0.12c0.9,1.39 8.98,16.4 8.96,69.93 0,2.13 1.72,3.85 3.84,3.85 2.12,0 3.84,-1.72 3.84,-3.85 -0.04,-59.75 -9.7,-73.41 -10.52,-74.6 -0.73,-0.96 -1.86,-1.53 -3.07,-1.53l-361.7 0 0 7.68z"/>
    <path class="fil8" d="M361.7 6948.72l53.53 0c1.57,0 2.98,-0.95 3.56,-2.39 0.12,-0.32 11.85,-29.39 11.86,-73.73 0,-2.12 -1.72,-3.84 -3.84,-3.84 -2.12,0 -3.84,1.73 -3.84,3.84 0,21.49 -2.85,39.28 -5.69,51.66 -1.42,6.2 -2.84,11.03 -3.89,14.3 -0.53,1.64 -0.96,2.88 -1.26,3.71l-0.35 0.92 -0.11 0.28 3.56 1.44 0 -3.84 -53.53 0c-2.12,0 -3.84,1.72 -3.84,3.84 0,2.12 1.72,3.84 3.84,3.84z"/>
    <path class="fil8" d="M417.13 6943.26l71.06 0c1.73,0 3.24,-1.16 3.7,-2.82 0.06,-0.22 8.19,-29.69 8.19,-67.85 0,-2.12 -1.72,-3.84 -3.84,-3.84 -2.13,0 -3.85,1.73 -3.85,3.84 0.01,18.54 -1.99,35.04 -3.97,46.89 -1,5.92 -1.99,10.67 -2.73,13.94 -0.37,1.63 -0.68,2.89 -0.9,3.73 -0.21,0.85 -0.32,1.25 -0.32,1.25l3.7 1.02 0 -3.84 -71.06 0c-2.12,0 -3.84,1.72 -3.84,3.84 0,2.13 1.72,3.85 3.84,3.85z"/>
    <path class="fil8" d="M-0 6837.73l343.95 0c0.71,0 1.28,-0.57 1.28,-1.28 0,-0.71 -0.57,-1.28 -1.28,-1.28l-343.95 0 0 2.56z"/>
    <path class="fil8" d="M-0 6910.02l343.95 0c0.71,0 1.28,-0.58 1.28,-1.29 0,-0.71 -0.57,-1.28 -1.28,-1.28l-343.95 0 0 2.57z"/>
    <path class="fil8" d="M405.17 6818.36l-20.64 0c-0.71,0 -1.28,0.58 -1.28,1.28 0,0.71 0.58,1.28 1.28,1.28l20.64 0c0.71,0 1.28,-0.57 1.28,-1.28 0,-0.7 -0.57,-1.28 -1.28,-1.28z"/>
    <path class="fil8" d="M409.19 6844.84l-20.64 0c-0.71,0 -1.28,0.57 -1.28,1.28 0,0.71 0.58,1.28 1.28,1.28l20.64 0c0.71,0 1.28,-0.58 1.28,-1.28 0,-0.71 -0.58,-1.28 -1.28,-1.28z"/>
    <path class="fil8" d="M410.7 6871.32l-20.64 0c-0.71,0 -1.28,0.58 -1.28,1.28 0,0.71 0.58,1.28 1.28,1.28l20.64 0c0.71,0 1.28,-0.58 1.28,-1.28 0,-0.7 -0.58,-1.28 -1.28,-1.28z"/>
    <path class="fil8" d="M405.17 6924.28l-20.64 0c-0.71,0 -1.28,0.57 -1.28,1.28 0,0.71 0.58,1.28 1.28,1.28l20.64 0c0.71,0 1.28,-0.58 1.28,-1.28 0,-0.71 -0.57,-1.28 -1.28,-1.28z"/>
    <path class="fil8" d="M409.19 6897.8l-20.64 0c-0.71,0 -1.28,0.58 -1.28,1.29 0,0.71 0.58,1.27 1.28,1.27l20.64 0c0.71,0 1.28,-0.57 1.28,-1.27 0,-0.71 -0.58,-1.29 -1.28,-1.29z"/>
   </g>
  </g>
  <g id="_2485599897712">
   <path class="fil2" d="M8062.89 6684.61c-316.74,0 -573.42,-18.67 -573.42,-41.7 0,-23.03 256.68,-41.7 573.42,-41.7 316.64,0 573.41,18.67 573.41,41.7 0,23.03 -256.78,41.7 -573.41,41.7z"/>
   <path class="fil9" d="M8362.93 6532.55l-0.92 -4.6 -676 0 -0.09 0.09 15.68 18.75 -28.24 33.76 28.24 33.72 -28.24 33.76 683.7 0c0,0 9.08,-12.06 9.08,-67.48 0,-22.34 -1.47,-37.66 -3.21,-48z"/>
   <path class="fil4" d="M8417.85 6580.55c0,-12.84 -1.01,-24.26 -2.48,-33.93l-1.56 -8.9 -49.96 0 -0.92 -5.17c1.75,10.34 3.21,25.66 3.21,48 0,55.42 -9.08,67.48 -9.08,67.48l49.97 0c0,0 0.73,-1.77 1.74,-5.12 3.12,-9.6 9.08,-32.12 9.08,-62.37z"/>
   <path class="fil11" d="M8466.25 6631.41l-42.17 0c28.14,-2.48 45.29,-21.88 45.29,-21.88 0.28,13.28 -3.12,21.88 -3.12,21.88zm-50.88 -84.79c1.47,9.67 2.48,21.09 2.48,33.93 0,30.25 -5.96,52.77 -9.08,62.37l66.46 0c0,0 7.52,-27.26 7.52,-62.37 0,-11.46 -0.83,-22.09 -1.93,-31.2l-65 0 -0.46 -2.73z"/>
   <polygon class="fil8" points="7591.97,6571.57 7584.82,6564.38 7583.07,6562.59 7550.26,6580.55 7583.07,6598.52 7600.86,6580.55 "/>
   <path class="fil15" d="M7671.08 6636.1l-71.87 -37.6c58.22,25.41 91.13,15.78 91.13,15.78l-19.26 21.82zm2.3 -55.55l28.24 -33.76 -15.68 -18.75 -93.97 43.53 8.89 8.98 -17.79 17.97 90.3 49.51 28.24 -33.76 -28.24 -33.72z"/>
   <path class="fil10" d="M7686.02 6527.95l676 0c-2.39,-11.5 -4.95,-14.93 -4.95,-14.93l-683.7 0 12.56 15.02 0.09 -0.09z"/>
   <path class="fil12" d="M8362.93 6532.55l0.92 5.17 49.96 0 1.56 8.9c-2.02,-13.12 -4.77,-22.97 -6.6,-28.48 -1.01,-3.34 -1.74,-5.12 -1.74,-5.12l-49.97 0c0,0 2.57,3.43 4.95,14.93l0.92 4.6z"/>
   <path class="fil13" d="M8415.83 6549.35l65 0c-2.3,-18.83 -5.6,-31.21 -5.6,-31.21l-66.46 0c1.83,5.52 4.58,15.37 6.6,28.48l0.46 2.73z"/>
   <polygon class="fil16" points="7591.97,6571.57 7685.93,6528.04 7673.37,6513.02 7583.07,6562.59 "/>
   <path class="fil14" d="M8424.08 6631.41l42.17 0c0,0 3.39,-8.6 3.12,-21.88 0,0 -17.15,19.4 -45.29,21.88z"/>
   <path class="fil17" d="M7599.21 6598.5l71.87 37.6 19.26 -21.82c0,0 -32.91,9.64 -91.13,-15.78z"/>
   <polygon class="fil8" points="7672.36,6513.86 7699.87,6546.78 7672.36,6579.71 7672.55,6581.52 7674.38,6581.35 7702.52,6547.6 7702.52,6545.97 7674.38,6512.22 7672.55,6512.06 "/>
   <path class="fil8" d="M8357.07 6516.88l49.97 0 0 -3.84 -3.58 1.44 0.1 0.26c1.1,2.78 10.45,28.23 10.45,65.81 0,2.12 1.74,3.85 3.85,3.85 2.11,0 3.85,-1.73 3.85,-3.85 0,-41.45 -11,-68.62 -11.1,-68.94 -0.64,-1.45 -2.02,-2.4 -3.57,-2.4l-49.97 0c-2.11,0 -3.85,1.72 -3.85,3.84 0,2.12 1.74,3.84 3.85,3.84z"/>
   <path class="fil8" d="M8408.77 6521.98l66.37 0 0 -3.84 -3.67 1.03c0,0 0.09,0.37 0.28,1.16 1.47,5.5 7.15,29.96 7.15,60.22 0,2.12 1.65,3.85 3.85,3.85 2.11,0 3.85,-1.73 3.85,-3.85 -0.09,-35.67 -7.7,-63.21 -7.7,-63.42 -0.46,-1.67 -2.02,-2.82 -3.76,-2.82l-66.37 0c-2.02,0 -3.85,1.72 -3.85,3.84 0,2.13 1.83,3.84 3.85,3.84z"/>
   <path class="fil8" d="M8362.29 6580.53c0,27.5 -2.2,44.11 -4.4,53.68 -1.1,4.79 -2.2,7.81 -2.94,9.56 -0.37,0.88 -0.64,1.44 -0.82,1.74l-0.19 0.28 0 0.01 2.02 1.45 -2.02 -1.52 0 0.07 2.02 1.45 -2.02 -1.52 3.12 2.31 0 -3.84 -682.69 0 -116.15 -63.66 116.15 -63.66 682.69 0 0 -3.84 -3.12 2.32 2.02 -1.53 -2.02 1.45 0 0.08 2.02 -1.53 -2.02 1.45 0 0.1c0.83,1.23 8.43,15.21 8.34,65.16 0,2.12 1.74,3.85 3.85,3.85 2.11,0 3.85,-1.73 3.85,-3.85 -0.09,-55.82 -8.98,-68.62 -9.9,-69.81 -0.64,-0.97 -1.83,-1.53 -3.03,-1.53l-683.7 0c-0.65,0 -1.29,0.16 -1.84,0.47l-123.12 67.5c-1.19,0.67 -2.02,1.97 -2.02,3.36 0,1.4 0.83,2.7 2.02,3.37l123.12 67.49c0.55,0.32 1.19,0.48 1.84,0.48l683.7 0c1.2,0 2.39,-0.57 3.03,-1.54 0.92,-1.19 9.81,-13.99 9.9,-69.81 0,-2.12 -1.74,-3.84 -3.85,-3.84 -2.11,0 -3.85,1.72 -3.85,3.84z"/>
   <path class="fil8" d="M7585.73 6601.21l17.88 -17.98c1.47,-1.49 1.47,-3.91 0,-5.41l-17.88 -17.97c-1.47,-1.51 -3.95,-1.51 -5.41,-0.02 -1.56,1.49 -1.56,3.92 0,5.43l15.13 15.27 -15.13 15.27c-1.56,1.51 -1.56,3.94 0,5.43 1.47,1.5 3.95,1.48 5.41,-0.02z"/>
   <polygon class="fil8" points="7674.38,6648.85 7702.52,6615.1 7702.52,6613.46 7674.38,6579.71 7672.55,6579.55 7672.36,6581.35 7699.87,6614.28 7672.36,6647.21 7672.55,6649.01 "/>
   <path class="fil8" d="M8357.07 6651.87l49.97 0c1.56,0 2.93,-0.96 3.57,-2.41 0.1,-0.32 11.1,-27.49 11.1,-68.94 0,-2.12 -1.74,-3.84 -3.85,-3.84 -2.11,0 -3.85,1.72 -3.85,3.84 0,20.04 -2.66,36.63 -5.32,48.18 -1.38,5.77 -2.57,10.28 -3.58,13.33 -0.46,1.53 -0.92,2.69 -1.19,3.45l-0.37 0.86 -0.1 0.25 3.58 1.44 0 -3.84 -49.97 0c-2.11,0 -3.85,1.72 -3.85,3.84 0,2.12 1.74,3.85 3.85,3.85z"/>
   <path class="fil8" d="M8408.77 6646.76l66.37 0c1.74,0 3.3,-1.15 3.76,-2.81 0,-0.22 7.61,-27.76 7.7,-63.42 0,-2.12 -1.74,-3.84 -3.85,-3.84 -2.2,0 -3.85,1.72 -3.85,3.84 0,17.3 -1.93,32.69 -3.76,43.74 -0.92,5.53 -1.84,9.96 -2.48,13 -0.37,1.53 -0.64,2.7 -0.92,3.48 -0.19,0.79 -0.28,1.16 -0.28,1.16l3.67 1.02 0 -3.84 -66.37 0c-2.02,0 -3.85,1.72 -3.85,3.84 0,2.12 1.83,3.84 3.85,3.84z"/>
   <path class="fil8" d="M7733.33 6548.07l607.15 0c0.65,0 1.29,-0.58 1.29,-1.29 0,-0.71 -0.64,-1.28 -1.29,-1.28l-607.15 0c-0.74,0 -1.38,0.58 -1.38,1.28 0,0.71 0.64,1.29 1.38,1.29z"/>
   <path class="fil8" d="M7733.33 6615.56l607.15 0c0.65,0 1.29,-0.58 1.29,-1.29 0,-0.71 -0.64,-1.28 -1.29,-1.28l-607.15 0c-0.74,0 -1.38,0.58 -1.38,1.28 0,0.71 0.64,1.29 1.38,1.29z"/>
   <path class="fil8" d="M8397.68 6529.8l-19.34 0c-0.74,0 -1.29,0.58 -1.29,1.29 0,0.71 0.55,1.28 1.29,1.28l19.34 0c0.74,0 1.29,-0.57 1.29,-1.28 0,-0.71 -0.55,-1.29 -1.29,-1.29z"/>
   <path class="fil8" d="M8401.44 6554.53l-19.35 0c-0.64,0 -1.19,0.57 -1.19,1.28 0,0.71 0.55,1.29 1.19,1.29l19.35 0c0.64,0 1.19,-0.58 1.19,-1.29 0,-0.71 -0.55,-1.28 -1.19,-1.28z"/>
   <path class="fil8" d="M8402.81 6579.26l-19.25 0c-0.74,0 -1.29,0.57 -1.29,1.28 0,0.71 0.55,1.28 1.29,1.28l19.25 0c0.64,0 1.29,-0.58 1.29,-1.28 0,-0.71 -0.65,-1.28 -1.29,-1.28z"/>
   <path class="fil8" d="M8397.68 6628.7l-19.34 0c-0.74,0 -1.29,0.58 -1.29,1.29 0,0.71 0.55,1.27 1.29,1.27l19.34 0c0.74,0 1.29,-0.57 1.29,-1.27 0,-0.71 -0.55,-1.29 -1.29,-1.29z"/>
   <path class="fil8" d="M8401.44 6603.98l-19.35 0c-0.64,0 -1.19,0.58 -1.19,1.28 0,0.71 0.55,1.29 1.19,1.29l19.35 0c0.64,0 1.19,-0.58 1.19,-1.29 0,-0.71 -0.55,-1.28 -1.19,-1.28z"/>
  </g>
 </g>
</svg>
