<?xml version="1.0" encoding="UTF-8"?>
<!DOCTYPE svg PUBLIC "-//W3C//DTD SVG 1.1//EN" "http://www.w3.org/Graphics/SVG/1.1/DTD/svg11.dtd">
<!-- Creator: CorelDRAW 2021 (64-Bit) -->
<svg xmlns="http://www.w3.org/2000/svg" xml:space="preserve" width="366.889mm" height="124.094mm" version="1.1" style="shape-rendering:geometricPrecision; text-rendering:geometricPrecision; image-rendering:optimizeQuality; fill-rule:evenodd; clip-rule:evenodd"
viewBox="0 0 36688.8 12409.41"
 xmlns:xlink="http://www.w3.org/1999/xlink"
 xmlns:xodm="http://www.corel.com/coreldraw/odm/2003">
 <defs>
  <style type="text/css">
   <![CDATA[
    .fil0 {fill:#E0E1E0;fill-rule:nonzero}
   ]]>
  </style>
 </defs>
 <g id="Capa_x0020_1">
  <metadata id="CorelCorpID_0Corel-Layer"/>
  <path class="fil0" d="M36230.34 4122.77l0 -116.7 0 -0.28 0 -270.83 447.71 0c5.93,0 10.75,-4.79 10.75,-10.72 0,-5.94 -4.82,-10.74 -10.75,-10.74l-447.71 0 0 -739.18 447.71 0c5.93,0 10.75,-4.8 10.75,-10.75 0,-5.92 -4.82,-10.71 -10.75,-10.71l-447.71 0 0 -739.16 447.71 0c5.93,0 10.75,-4.82 10.75,-10.78 0,-5.91 -4.82,-10.71 -10.75,-10.71l-447.71 0 0 -739.16 447.71 0c5.93,0 10.75,-4.82 10.75,-10.76 0,-5.93 -4.82,-10.75 -10.75,-10.75l-447.71 0 0 -739.16 447.71 0c5.93,0 10.75,-4.82 10.75,-10.74 0,-5.92 -4.82,-10.74 -10.75,-10.74l-447.71 0 0 -665.64c0,-2.91 -4.81,-5.27 -10.74,-5.27 -5.94,0 -10.75,2.36 -10.75,5.27l0 665.64 -739.17 0 0 -665.64c0,-2.91 -4.8,-5.27 -10.73,-5.27 -5.94,0 -10.75,2.36 -10.75,5.27l0 665.64 -739.16 0 0 -665.64c0,-2.91 -4.8,-5.27 -10.74,-5.27 -5.94,0 -10.74,2.36 -10.74,5.27l0 665.64 -739.16 0 0 -665.64c0,-2.91 -4.82,-5.27 -10.75,-5.27 -5.95,0 -10.75,2.36 -10.75,5.27l0 665.64 -739.15 0 0 -665.64c0,-2.91 -4.82,-5.27 -10.77,-5.27 -5.9,0 -10.71,2.36 -10.71,5.27l0 665.64 -739.19 0 0 -665.65c0,-2.9 -4.79,-5.26 -10.72,-5.26 -5.94,0 -10.74,2.36 -10.74,5.26l0 665.65 -739.18 0 0 -665.65c0,-2.9 -4.8,-5.26 -10.76,-5.26 -5.91,0 -10.71,2.36 -10.71,5.26l0 665.65 -739.16 0 0 -665.65c0,-2.9 -4.82,-5.26 -10.77,-5.26 -5.89,0 -10.74,2.36 -10.74,5.26l0 665.65 -739.16 0 0 -665.65c0,-2.9 -4.79,-5.26 -10.74,-5.26 -5.93,0 -10.72,2.36 -10.72,5.26l0 665.65 -739.15 0 0 -665.65c0,-2.9 -4.82,-5.26 -10.77,-5.26 -5.93,0 -10.75,2.36 -10.75,5.26l0 665.65 -739.15 0 0 -665.65c0,-2.9 -4.82,-5.26 -10.75,-5.26 -5.93,0 -10.75,2.36 -10.75,5.26l0 665.65 -739.14 0 0 -665.64c0,-2.91 -4.8,-5.27 -10.76,-5.27 -5.92,0 -10.74,2.36 -10.74,5.27l0 665.64 -739.18 0 0 -665.64c0,-2.91 -4.79,-5.27 -10.72,-5.27 -5.95,0 -10.75,2.36 -10.75,5.27l0 665.64 -739.14 0 0 -665.64c0,-2.91 -4.83,-5.27 -10.76,-5.27 -5.92,0 -10.74,2.36 -10.74,5.27l0 665.64 -739.18 0 0 -665.64c0,-2.91 -4.8,-5.27 -10.72,-5.27 -5.94,0 -10.74,2.36 -10.74,5.27l0 665.64 -739.16 0 0 -665.64c0,-2.91 -4.82,-5.27 -10.77,-5.27 -5.92,0 -10.72,2.36 -10.72,5.27l0 665.64 -739.18 0 0 -665.64c0,-2.91 -4.8,-5.27 -10.74,-5.27 -5.93,0 -10.75,2.36 -10.75,5.27l0 665.64 -739.16 0 0 -665.64c0,-2.91 -4.82,-5.27 -10.73,-5.27 -5.93,0 -10.75,2.36 -10.75,5.27l0 665.64 -739.15 0 0 -665.64c0,-2.91 -4.8,-5.27 -10.75,-5.27 -5.96,0 -10.75,2.36 -10.75,5.27l0 665.64 -739.15 0 0 -665.64c0,-2.91 -4.82,-5.27 -10.75,-5.27 -5.92,0 -10.74,2.36 -10.74,5.27l0 665.64 -739.15 0 0 -665.64c0,-2.91 -4.82,-5.27 -10.75,-5.27 -5.96,0 -10.78,2.36 -10.78,5.27l0 665.64 -739.14 0 0 -665.64c0,-2.91 -4.8,-5.27 -10.73,-5.27 -5.92,0 -10.74,2.36 -10.74,5.27l0 665.64 -739.16 0 0 -665.64c0,-2.91 -4.82,-5.27 -10.77,-5.27 -5.92,0 -10.72,2.36 -10.72,5.27l0 665.64 -739.17 0 0 -665.64c0,-2.91 -4.8,-5.27 -10.76,-5.27 -5.92,0 -10.74,2.36 -10.74,5.27l0 665.64 -739.16 0 0 -665.64c0,-2.91 -4.79,-5.27 -10.73,-5.27 -5.93,0 -10.75,2.36 -10.75,5.27l0 665.64 -739.18 0 0 -665.64c0,-2.91 -4.72,-5.27 -10.77,-5.27 -5.9,0 -10.59,2.36 -10.59,5.27l0 665.64 -739.34 0 0 -665.64c0,-2.91 -4.69,-5.27 -10.59,-5.27 -6.08,0 -10.77,2.36 -10.77,5.27l0 665.64 -739.15 0 0 -665.64c0,-2.91 -4.9,-5.27 -10.75,-5.27 -5.9,0 -10.8,2.36 -10.8,5.27l0 665.64 -739.12 0 0 -665.64c0,-2.91 -4.9,-5.27 -10.78,-5.27 -5.9,0 -10.8,2.36 -10.8,5.27l0 665.64 -739.12 0 0 -665.64c0,-2.91 -4.72,-5.27 -10.77,-5.27 -5.9,0 -10.8,2.36 -10.8,5.27l0 665.64 -739.12 0 0 -665.64c0,-2.91 -4.73,-5.27 -10.78,-5.27 -5.9,0 -10.58,2.36 -10.58,5.27l0 665.64 -739.14 0 0 -665.64c0,-2.91 -4.92,-5.27 -10.76,-5.27 -6.12,0 -10.8,2.36 -10.8,5.27l0 665.64 -739.13 0 0 -665.64c0,-2.91 -4.9,-5.27 -10.77,-5.27 -5.9,0 -10.8,2.36 -10.8,5.27l0 665.64 -739.05 0 0 -665.64c0,-2.91 -4.88,-5.27 -10.77,-5.27 -5.9,0 -10.77,2.36 -10.77,5.27l0 665.64 -739.13 0 0 -665.64c0,-2.91 -4.87,-5.27 -10.77,-5.27 -5.9,0 -10.78,2.36 -10.78,5.27l0 665.64 -739.12 0 0 -665.64c0,-2.91 -4.87,-5.27 -10.77,-5.27 -5.91,0 -10.78,2.36 -10.78,5.27l0 665.64 -739.12 0 0 -665.65c0,-2.9 -4.87,-5.26 -10.77,-5.26 -5.9,0 -10.78,2.36 -10.78,5.26l0 665.65 -739.12 0 0 -665.65c0,-2.9 -4.87,-5.26 -10.77,-5.26 -5.91,0 -10.78,2.36 -10.78,5.26l0 665.65 -739.12 0 0 -665.64c0,-2.91 -4.62,-5.27 -10.78,-5.27 -5.9,0 -10.51,2.36 -10.51,5.27l0 665.64 -739.38 0 0 -665.64c0,-2.91 -4.63,-5.27 -10.52,-5.27 -6.15,0 -10.77,2.36 -10.77,5.27l0 665.64 -739.12 0 0 -665.64c0,-2.91 -5.14,-5.27 -10.78,-5.27 -5.9,0 -10.77,2.36 -10.77,5.27l0 665.64 -739.38 0 0 -665.64c0,-2.91 -4.87,-5.27 -10.78,-5.27 -5.64,0 -10.76,2.36 -10.76,5.27l0 665.64 -739.14 0 0 -665.65c0,-2.9 -4.61,-5.26 -10.77,-5.26 -5.89,0 -10.76,2.36 -10.76,5.26l0 665.65 -739.14 0 0 -665.64c0,-2.91 -4.61,-5.27 -10.51,-5.27 -6.15,0 -10.77,2.36 -10.77,5.27l0 665.64 -739.13 0 0 -665.64c0,-2.91 -4.87,-5.27 -10.77,-5.27 -6.16,0 -10.78,2.36 -10.78,5.27l0 665.64 -739.12 0 0 -665.64c0,-2.91 -4.87,-5.27 -10.77,-5.27 -5.89,0 -10.78,2.36 -10.78,5.27l0 665.64 -739.12 0 0 -665.64c0,-2.91 -4.87,-5.27 -10.77,-5.27 -5.89,0 -10.77,2.36 -10.77,5.27l0 665.64 -739.13 0 0 -665.64c0,-2.91 -4.87,-5.27 -10.77,-5.27 -5.9,0 -10.77,2.36 -10.77,5.27l0 665.64 -447.53 0c-5.9,0 -10.77,4.82 -10.77,10.74 0,5.92 4.87,10.74 10.77,10.74l447.53 0 0 739.16 -447.53 0c-5.9,0 -10.77,4.82 -10.77,10.75 0,5.94 4.87,10.76 10.77,10.76l447.53 0 0 739.16 -447.53 0c-5.9,0 -10.77,4.8 -10.77,10.71 0,5.96 4.87,10.78 10.77,10.78l447.53 0 0 739.16 -447.53 0c-5.9,0 -10.77,4.79 -10.77,10.71 0,5.95 4.87,10.75 10.77,10.75l447.53 0 0 739.18 -447.53 0c-5.9,0 -10.77,4.8 -10.77,10.74 0,5.93 4.87,10.72 10.77,10.72l447.53 0 0 270.83 0 0.28 0 116.7 0 0.13 0 265.52 -447.71 0c-5.93,0 -10.75,4.79 -10.75,10.71 0,5.95 4.82,10.75 10.75,10.75l447.71 0 0 739.18 -447.71 0c-5.93,0 -10.75,4.79 -10.75,10.74 0,5.93 4.82,10.72 10.75,10.72l447.71 0 0 739.15 -447.71 0c-5.93,0 -10.75,4.82 -10.75,10.78 0,5.92 4.82,10.72 10.75,10.72l447.71 0 0 739.15 -447.71 0c-5.93,0 -10.75,4.82 -10.75,10.77 0,5.93 4.82,10.75 10.75,10.75l447.71 0 0 739.15 -447.71 0c-5.93,0 -10.75,4.82 -10.75,10.75 0,5.92 4.82,10.74 10.75,10.74l447.71 0 0 739.15 -447.71 0c-5.93,0 -10.75,4.8 -10.75,10.75 0,5.95 4.82,10.74 10.75,10.74l447.71 0 0 739.18 -447.71 0c-5.93,0 -10.75,4.8 -10.75,10.73 0,5.94 4.82,10.74 10.75,10.74l447.71 0 0 739.16 -447.71 0c-5.93,0 -10.75,4.82 -10.75,10.74 0,5.95 4.82,10.75 10.75,10.75l447.71 0 0 739.17 -447.71 0c-5.93,0 -10.75,4.8 -10.75,10.73 0,5.92 4.82,10.75 10.75,10.75l447.71 0 0 739.15 -447.71 0c-5.93,0 -10.75,4.83 -10.75,10.76 0,5.94 4.82,10.74 10.75,10.74l447.71 0 0 739.16 -447.71 0c-5.93,0 -10.75,4.82 -10.75,10.75 0,5.93 4.82,10.74 10.75,10.74l447.71 0 0 382.31c0,5.94 4.81,10.75 10.74,10.75 5.94,0 10.75,-4.81 10.75,-10.75l0 -382.31 739.17 0 0 382.31c0,5.94 4.8,10.75 10.73,10.75 5.94,0 10.75,-4.81 10.75,-10.75l0 -382.31 739.16 0 0 382.31c0,5.94 4.8,10.75 10.74,10.75 5.94,0 10.74,-4.81 10.74,-10.75l0 -382.31 739.16 0 0 382.31c0,5.94 4.82,10.75 10.75,10.75 5.95,0 10.75,-4.81 10.75,-10.75l0 -382.31 739.15 0 0 382.31c0,5.94 4.82,10.75 10.77,10.75 5.9,0 10.71,-4.81 10.71,-10.75l0 -382.31 739.19 0 0 382.32c0,5.93 4.79,10.74 10.72,10.74 5.94,0 10.74,-4.81 10.74,-10.74l0 -382.32 739.18 0 0 382.32c0,5.93 4.8,10.74 10.76,10.74 5.91,0 10.71,-4.81 10.71,-10.74l0 -382.32 739.16 0 0 382.32c0,5.93 4.82,10.74 10.77,10.74 5.89,0 10.74,-4.81 10.74,-10.74l0 -382.32 739.16 0 0 382.32c0,5.93 4.79,10.74 10.74,10.74 5.93,0 10.72,-4.81 10.72,-10.74l0 -382.32 739.15 0 0 382.32c0,5.93 4.82,10.74 10.77,10.74 5.93,0 10.75,-4.81 10.75,-10.74l0 -382.32 739.15 0 0 382.32c0,5.93 4.82,10.74 10.75,10.74 5.93,0 10.75,-4.81 10.75,-10.74l0 -382.32 739.14 0 0 382.31c0,5.94 4.8,10.75 10.76,10.75 5.92,0 10.74,-4.81 10.74,-10.75l0 -382.31 739.18 0 0 382.31c0,5.94 4.79,10.75 10.72,10.75 5.95,0 10.75,-4.81 10.75,-10.75l0 -382.31 739.14 0 0 382.31c0,5.94 4.83,10.75 10.76,10.75 5.92,0 10.74,-4.81 10.74,-10.75l0 -382.31 739.18 0 0 382.31c0,5.94 4.8,10.75 10.72,10.75 5.94,0 10.74,-4.81 10.74,-10.75l0 -382.31 739.16 0 0 382.31c0,5.94 4.82,10.75 10.77,10.75 5.92,0 10.72,-4.81 10.72,-10.75l0 -382.31 739.18 0 0 382.31c0,5.94 4.8,10.75 10.74,10.75 5.93,0 10.75,-4.81 10.75,-10.75l0 -382.31 739.16 0 0 382.31c0,5.94 4.82,10.75 10.73,10.75 5.93,0 10.75,-4.81 10.75,-10.75l0 -382.31 739.15 0 0 382.31c0,5.94 4.8,10.75 10.75,10.75 5.96,0 10.75,-4.81 10.75,-10.75l0 -382.31 739.15 0 0 382.31c0,5.94 4.82,10.75 10.75,10.75 5.92,0 10.74,-4.81 10.74,-10.75l0 -382.31 739.15 0 0 382.31c0,5.94 4.82,10.75 10.75,10.75 5.96,0 10.78,-4.81 10.78,-10.75l0 -382.31 739.14 0 0 382.31c0,5.94 4.8,10.75 10.73,10.75 5.92,0 10.74,-4.81 10.74,-10.75l0 -382.31 739.16 0 0 382.31c0,5.94 4.82,10.75 10.77,10.75 5.92,0 10.72,-4.81 10.72,-10.75l0 -382.31 739.17 0 0 382.31c0,5.94 4.8,10.75 10.76,10.75 5.92,0 10.74,-4.81 10.74,-10.75l0 -382.31 739.16 0 0 382.31c0,5.94 4.79,10.75 10.73,10.75 5.93,0 10.75,-4.81 10.75,-10.75l0 -382.31 739.18 0 0 382.31c0,5.94 4.72,10.75 10.77,10.75 5.9,0 10.59,-4.81 10.59,-10.75l0 -382.31 739.34 0 0 382.31c0,5.94 4.69,10.75 10.59,10.75 6.08,0 10.77,-4.81 10.77,-10.75l0 -382.31 739.15 0 0 382.31c0,5.94 4.9,10.75 10.75,10.75 5.9,0 10.8,-4.81 10.8,-10.75l0 -382.31 739.12 0 0 382.31c0,5.94 4.9,10.75 10.78,10.75 5.9,0 10.8,-4.81 10.8,-10.75l0 -382.31 739.12 0 0 382.31c0,5.94 4.72,10.75 10.77,10.75 5.9,0 10.8,-4.81 10.8,-10.75l0 -382.31 739.12 0 0 382.31c0,5.94 4.73,10.75 10.78,10.75 5.9,0 10.58,-4.81 10.58,-10.75l0 -382.31 739.14 0 0 382.31c0,5.94 4.92,10.75 10.76,10.75 6.12,0 10.8,-4.81 10.8,-10.75l0 -382.31 739.13 0 0 382.31c0,5.94 4.9,10.75 10.77,10.75 5.9,0 10.8,-4.81 10.8,-10.75l0 -382.31 739.05 0 0 382.31c0,5.94 4.88,10.75 10.77,10.75 5.9,0 10.77,-4.81 10.77,-10.75l0 -382.31 739.13 0 0 382.31c0,5.94 4.87,10.75 10.77,10.75 5.9,0 10.78,-4.81 10.78,-10.75l0 -382.31 739.12 0 0 382.31c0,5.94 4.87,10.75 10.77,10.75 5.91,0 10.78,-4.81 10.78,-10.75l0 -382.31 739.12 0 0 382.32c0,5.93 4.87,10.74 10.77,10.74 5.9,0 10.78,-4.81 10.78,-10.74l0 -382.32 739.12 0 0 382.32c0,5.93 4.87,10.74 10.77,10.74 5.91,0 10.78,-4.81 10.78,-10.74l0 -382.32 739.12 0 0 382.31c0,5.94 4.62,10.75 10.78,10.75 5.9,0 10.51,-4.81 10.51,-10.75l0 -382.31 739.38 0 0 382.31c0,5.94 4.63,10.75 10.52,10.75 6.15,0 10.77,-4.81 10.77,-10.75l0 -382.31 739.12 0 0 382.31c0,5.94 5.14,10.75 10.78,10.75 5.9,0 10.77,-4.81 10.77,-10.75l0 -382.31 739.38 0 0 382.31c0,5.94 4.87,10.75 10.78,10.75 5.64,0 10.76,-4.81 10.76,-10.75l0 -382.31 739.14 0 0 382.32c0,5.93 4.61,10.74 10.77,10.74 5.89,0 10.76,-4.81 10.76,-10.74l0 -382.32 739.14 0 0 382.31c0,5.94 4.61,10.75 10.51,10.75 6.15,0 10.77,-4.81 10.77,-10.75l0 -382.31 739.13 0 0 382.31c0,5.94 4.87,10.75 10.77,10.75 6.16,0 10.78,-4.81 10.78,-10.75l0 -382.31 739.12 0 0 382.31c0,5.94 4.87,10.75 10.77,10.75 5.89,0 10.78,-4.81 10.78,-10.75l0 -382.31 739.12 0 0 382.31c0,5.94 4.87,10.75 10.77,10.75 5.89,0 10.77,-4.81 10.77,-10.75l0 -382.31 739.13 0 0 382.31c0,5.94 4.87,10.75 10.77,10.75 5.9,0 10.77,-4.81 10.77,-10.75l0 -382.31 447.53 0c5.9,0 10.77,-4.81 10.77,-10.74 0,-5.93 -4.87,-10.75 -10.77,-10.75l-447.53 0 0 -739.16 447.53 0c5.9,0 10.77,-4.8 10.77,-10.74 0,-5.93 -4.87,-10.76 -10.77,-10.76l-447.53 0 0 -739.15 447.53 0c5.9,0 10.77,-4.83 10.77,-10.75 0,-5.93 -4.87,-10.73 -10.77,-10.73l-447.53 0 0 -739.17 447.53 0c5.9,0 10.77,-4.8 10.77,-10.75 0,-5.92 -4.87,-10.74 -10.77,-10.74l-447.53 0 0 -739.16 447.53 0c5.9,0 10.77,-4.8 10.77,-10.74 0,-5.93 -4.87,-10.73 -10.77,-10.73l-447.53 0 0 -739.18 447.53 0c5.9,0 10.77,-4.79 10.77,-10.74 0,-5.95 -4.87,-10.75 -10.77,-10.75l-447.53 0 0 -739.15 447.53 0c5.9,0 10.77,-4.82 10.77,-10.74 0,-5.93 -4.87,-10.75 -10.77,-10.75l-447.53 0 0 -739.15 447.53 0c5.9,0 10.77,-4.82 10.77,-10.75 0,-5.95 -4.87,-10.77 -10.77,-10.77l-447.53 0 0 -739.15 447.53 0c5.9,0 10.77,-4.8 10.77,-10.72 0,-5.96 -4.87,-10.78 -10.77,-10.78l-447.53 0 0 -739.15 447.53 0c5.9,0 10.77,-4.79 10.77,-10.72 0,-5.95 -4.87,-10.74 -10.77,-10.74l-447.53 0 0 -739.18 447.53 0c5.9,0 10.77,-4.8 10.77,-10.75 0,-5.92 -4.87,-10.71 -10.77,-10.71l-447.53 0 0 -265.52 0 -0.13zm-35750.29 7872.07l0 -739.16 739.17 0 0 739.16 -739.17 0zm760.65 0l0 -739.16 739.16 0 0 739.16 -739.16 0zm760.63 0l0 -739.16 739.16 0 0 739.16 -739.16 0zm760.66 0l0 -739.16 739.15 0 0 739.16 -739.15 0zm760.63 0l0 -739.16 739.19 0 0 739.16 -739.19 0zm760.65 0l0 -739.16 739.18 0 0 739.16 -739.18 0zm760.65 0l0 -739.16 739.16 0 0 739.16 -739.16 0zm760.66 0l0 -739.16 739.16 0 0 739.16 -739.16 0zm760.62 0l0 -739.16 739.15 0 0 739.16 -739.15 0zm760.67 0l0 -739.16 739.15 0 0 739.16 -739.15 0zm760.65 0l0 -739.16 739.14 0 0 739.16 -739.14 0zm760.64 0l0 -739.16 739.18 0 0 739.16 -739.18 0zm760.64 0l0 -739.16 739.14 0 0 739.16 -739.14 0zm760.64 0l0 -739.16 739.18 0 0 739.16 -739.18 0zm760.64 0l0 -739.16 739.16 0 0 739.16 -739.16 0zm760.65 0l0 -739.16 739.18 0 0 739.16 -739.18 0zm760.67 0l0 -739.16 739.16 0 0 739.16 -739.16 0zm760.63 0l0 -739.16 739.15 0 0 739.16 -739.15 0zm760.65 0l0 -739.16 739.15 0 0 739.16 -739.15 0zm760.64 0l0 -739.16 739.15 0 0 739.16 -739.15 0zm760.68 0l0 -739.16 739.14 0 0 739.16 -739.14 0zm760.61 0l0 -739.16 739.16 0 0 739.16 -739.16 0zm760.64 0l0 -739.16 739.17 0 0 739.16 -739.17 0zm760.67 0l0 -739.16 739.16 0 0 739.16 -739.16 0zm760.64 0l0 -739.16 739.18 0 0 739.16 -739.18 0zm760.54 0l0 -739.16 739.34 0 0 739.16 -739.34 0zm760.7 0l0 -739.16 739.15 0 0 739.16 -739.15 0zm760.69 0l0 -739.16 739.12 0 0 739.16 -739.12 0zm760.7 0l0 -739.16 739.12 0 0 739.16 -739.12 0zm760.69 0l0 -739.16 739.12 0 0 739.16 -739.12 0zm760.48 0l0 -739.16 739.14 0 0 739.16 -739.14 0zm760.7 0l0 -739.16 739.13 0 0 739.16 -739.13 0zm760.69 0l0 -739.16 739.05 0 0 739.16 -739.05 0zm760.59 0l0 -739.16 739.13 0 0 739.16 -739.13 0zm760.68 0l0 -739.16 739.12 0 0 739.16 -739.12 0zm760.67 0l0 -739.16 739.12 0 0 739.16 -739.12 0zm760.67 0l0 -739.16 739.12 0 0 739.16 -739.12 0zm760.66 0l0 -739.16 739.12 0 0 739.16 -739.12 0zm760.41 0l0 -739.16 739.38 0 0 739.16 -739.38 0zm760.67 0l0 -739.16 739.12 0 0 739.16 -739.12 0zm760.67 0l0 -739.16 739.38 0 0 739.16 -739.38 0zm760.92 0l0 -739.16 739.14 0 0 739.16 -739.14 0zm760.66 0l0 -739.16 739.14 0 0 739.16 -739.14 0zm760.42 0l0 -739.16 739.13 0 0 739.16 -739.13 0zm760.68 0l0 -739.16 739.12 0 0 739.16 -739.12 0zm760.67 0l0 -739.16 739.12 0 0 739.16 -739.12 0zm760.65 0l0 -739.16 739.13 0 0 739.16 -739.13 0zm-34989.62 -760.66l0 -739.15 739.17 0 0 739.15 -739.17 0zm760.65 0l0 -739.15 739.16 0 0 739.15 -739.16 0zm760.63 0l0 -739.15 739.16 0 0 739.15 -739.16 0zm760.66 0l0 -739.15 739.15 0 0 739.15 -739.15 0zm760.63 0l0 -739.15 739.19 0 0 739.15 -739.19 0zm760.65 0l0 -739.15 739.18 0 0 739.15 -739.18 0zm760.65 0l0 -739.15 739.16 0 0 739.15 -739.16 0zm760.66 0l0 -739.15 739.16 0 0 739.15 -739.16 0zm760.62 0l0 -739.15 739.15 0 0 739.15 -739.15 0zm760.67 0l0 -739.15 739.15 0 0 739.15 -739.15 0zm760.65 0l0 -739.15 739.14 0 0 739.15 -739.14 0zm760.64 0l0 -739.15 739.18 0 0 739.15 -739.18 0zm760.64 0l0 -739.15 739.14 0 0 739.15 -739.14 0zm760.64 0l0 -739.15 739.18 0 0 739.15 -739.18 0zm760.64 0l0 -739.15 739.16 0 0 739.15 -739.16 0zm760.65 0l0 -739.15 739.18 0 0 739.15 -739.18 0zm760.67 0l0 -739.15 739.16 0 0 739.15 -739.16 0zm760.63 0l0 -739.15 739.15 0 0 739.15 -739.15 0zm760.65 0l0 -739.15 739.15 0 0 739.15 -739.15 0zm760.64 0l0 -739.15 739.15 0 0 739.15 -739.15 0zm760.68 0l0 -739.15 739.14 0 0 739.15 -739.14 0zm760.61 0l0 -739.15 739.16 0 0 739.15 -739.16 0zm760.64 0l0 -739.15 739.17 0 0 739.15 -739.17 0zm760.67 0l0 -739.15 739.16 0 0 739.15 -739.16 0zm760.64 0l0 -739.15 739.18 0 0 739.15 -739.18 0zm760.54 0l0 -739.15 739.34 0 0 739.15 -739.34 0zm760.7 0l0 -739.15 739.15 0 0 739.15 -739.15 0zm760.69 0l0 -739.15 739.12 0 0 739.15 -739.12 0zm760.7 0l0 -739.15 739.12 0 0 739.15 -739.12 0zm760.69 0l0 -739.15 739.12 0 0 739.15 -739.12 0zm760.48 0l0 -739.15 739.14 0 0 739.15 -739.14 0zm760.7 0l0 -739.15 739.13 0 0 739.15 -739.13 0zm760.69 0l0 -739.15 739.05 0 0 739.15 -739.05 0zm760.59 0l0 -739.15 739.13 0 0 739.15 -739.13 0zm760.68 0l0 -739.15 739.12 0 0 739.15 -739.12 0zm760.67 0l0 -739.15 739.12 0 0 739.15 -739.12 0zm760.67 0l0 -739.15 739.12 0 0 739.15 -739.12 0zm760.66 0l0 -739.15 739.12 0 0 739.15 -739.12 0zm760.41 0l0 -739.15 739.38 0 0 739.15 -739.38 0zm760.67 0l0 -739.15 739.12 0 0 739.15 -739.12 0zm760.67 0l0 -739.15 739.38 0 0 739.15 -739.38 0zm760.92 0l0 -739.15 739.14 0 0 739.15 -739.14 0zm760.66 0l0 -739.15 739.14 0 0 739.15 -739.14 0zm760.42 0l0 -739.15 739.13 0 0 739.15 -739.13 0zm760.68 0l0 -739.15 739.12 0 0 739.15 -739.12 0zm760.67 0l0 -739.15 739.12 0 0 739.15 -739.12 0zm760.65 0l0 -739.15 739.13 0 0 739.15 -739.13 0zm-34989.62 -760.63l0 -739.17 739.17 0 0 739.17 -739.17 0zm760.65 0l0 -739.17 739.16 0 0 739.17 -739.16 0zm760.63 0l0 -739.17 739.16 0 0 739.17 -739.16 0zm760.66 0l0 -739.17 739.15 0 0 739.17 -739.15 0zm760.63 0l0 -739.17 739.19 0 0 739.17 -739.19 0zm760.65 0l0 -739.17 739.18 0 0 739.17 -739.18 0zm760.65 0l0 -739.17 739.16 0 0 739.17 -739.16 0zm760.66 0l0 -739.17 739.16 0 0 739.17 -739.16 0zm760.62 0l0 -739.17 739.15 0 0 739.17 -739.15 0zm760.67 0l0 -739.17 739.15 0 0 739.17 -739.15 0zm760.65 0l0 -739.17 739.14 0 0 739.17 -739.14 0zm760.64 0l0 -739.17 739.18 0 0 739.17 -739.18 0zm760.64 0l0 -739.17 739.14 0 0 739.17 -739.14 0zm760.64 0l0 -739.17 739.18 0 0 739.17 -739.18 0zm760.64 0l0 -739.17 739.16 0 0 739.17 -739.16 0zm760.65 0l0 -739.17 739.18 0 0 739.17 -739.18 0zm760.67 0l0 -739.17 739.16 0 0 739.17 -739.16 0zm760.63 0l0 -739.17 739.15 0 0 739.17 -739.15 0zm760.65 0l0 -739.17 739.15 0 0 739.17 -739.15 0zm760.64 0l0 -739.17 739.15 0 0 739.17 -739.15 0zm760.68 0l0 -739.17 739.14 0 0 739.17 -739.14 0zm760.61 0l0 -739.17 739.16 0 0 739.17 -739.16 0zm760.64 0l0 -739.17 739.17 0 0 739.17 -739.17 0zm760.67 0l0 -739.17 739.16 0 0 739.17 -739.16 0zm760.64 0l0 -739.17 739.18 0 0 739.17 -739.18 0zm760.54 0l0 -739.17 739.34 0 0 739.17 -739.34 0zm760.7 0l0 -739.17 739.15 0 0 739.17 -739.15 0zm760.69 0l0 -739.17 739.12 0 0 739.17 -739.12 0zm760.7 0l0 -739.17 739.12 0 0 739.17 -739.12 0zm760.69 0l0 -739.17 739.12 0 0 739.17 -739.12 0zm760.48 0l0 -739.17 739.14 0 0 739.17 -739.14 0zm760.7 0l0 -739.17 739.13 0 0 739.17 -739.13 0zm760.69 0l0 -739.17 739.05 0 0 739.17 -739.05 0zm760.59 0l0 -739.17 739.13 0 0 739.17 -739.13 0zm760.68 0l0 -739.17 739.12 0 0 739.17 -739.12 0zm760.67 0l0 -739.17 739.12 0 0 739.17 -739.12 0zm760.67 0l0 -739.17 739.12 0 0 739.17 -739.12 0zm760.66 0l0 -739.17 739.12 0 0 739.17 -739.12 0zm760.41 0l0 -739.17 739.38 0 0 739.17 -739.38 0zm760.67 0l0 -739.17 739.12 0 0 739.17 -739.12 0zm760.67 0l0 -739.17 739.38 0 0 739.17 -739.38 0zm760.92 0l0 -739.17 739.14 0 0 739.17 -739.14 0zm760.66 0l0 -739.17 739.14 0 0 739.17 -739.14 0zm760.42 0l0 -739.17 739.13 0 0 739.17 -739.13 0zm760.68 0l0 -739.17 739.12 0 0 739.17 -739.12 0zm760.67 0l0 -739.17 739.12 0 0 739.17 -739.12 0zm760.65 0l0 -739.17 739.13 0 0 739.17 -739.13 0zm-34989.62 -760.66l0 -739.16 739.17 0 0 739.16 -739.17 0zm760.65 0l0 -739.16 739.16 0 0 739.16 -739.16 0zm760.63 0l0 -739.16 739.16 0 0 739.16 -739.16 0zm760.66 0l0 -739.16 739.15 0 0 739.16 -739.15 0zm760.63 0l0 -739.16 739.19 0 0 739.16 -739.19 0zm760.65 0l0 -739.16 739.18 0 0 739.16 -739.18 0zm760.65 0l0 -739.16 739.16 0 0 739.16 -739.16 0zm760.66 0l0 -739.16 739.16 0 0 739.16 -739.16 0zm760.62 0l0 -739.16 739.15 0 0 739.16 -739.15 0zm760.67 0l0 -739.16 739.15 0 0 739.16 -739.15 0zm760.65 0l0 -739.16 739.14 0 0 739.16 -739.14 0zm760.64 0l0 -739.16 739.18 0 0 739.16 -739.18 0zm760.64 0l0 -739.16 739.14 0 0 739.16 -739.14 0zm760.64 0l0 -739.16 739.18 0 0 739.16 -739.18 0zm760.64 0l0 -739.16 739.16 0 0 739.16 -739.16 0zm760.65 0l0 -739.16 739.18 0 0 739.16 -739.18 0zm760.67 0l0 -739.16 739.16 0 0 739.16 -739.16 0zm760.63 0l0 -739.16 739.15 0 0 739.16 -739.15 0zm760.65 0l0 -739.16 739.15 0 0 739.16 -739.15 0zm760.64 0l0 -739.16 739.15 0 0 739.16 -739.15 0zm760.68 0l0 -739.16 739.14 0 0 739.16 -739.14 0zm760.61 0l0 -739.16 739.16 0 0 739.16 -739.16 0zm760.64 0l0 -739.16 739.17 0 0 739.16 -739.17 0zm760.67 0l0 -739.16 739.16 0 0 739.16 -739.16 0zm760.64 0l0 -739.16 739.18 0 0 739.16 -739.18 0zm760.54 0l0 -739.16 739.34 0 0 739.16 -739.34 0zm760.7 0l0 -739.16 739.15 0 0 739.16 -739.15 0zm760.69 0l0 -739.16 739.12 0 0 739.16 -739.12 0zm760.7 0l0 -739.16 739.12 0 0 739.16 -739.12 0zm760.69 0l0 -739.16 739.12 0 0 739.16 -739.12 0zm760.48 0l0 -739.16 739.14 0 0 739.16 -739.14 0zm760.7 0l0 -739.16 739.13 0 0 739.16 -739.13 0zm760.69 0l0 -739.16 739.05 0 0 739.16 -739.05 0zm760.59 0l0 -739.16 739.13 0 0 739.16 -739.13 0zm760.68 0l0 -739.16 739.12 0 0 739.16 -739.12 0zm760.67 0l0 -739.16 739.12 0 0 739.16 -739.12 0zm760.67 0l0 -739.16 739.12 0 0 739.16 -739.12 0zm760.66 0l0 -739.16 739.12 0 0 739.16 -739.12 0zm760.41 0l0 -739.16 739.38 0 0 739.16 -739.38 0zm760.67 0l0 -739.16 739.12 0 0 739.16 -739.12 0zm760.67 0l0 -739.16 739.38 0 0 739.16 -739.38 0zm760.92 0l0 -739.16 739.14 0 0 739.16 -739.14 0zm760.66 0l0 -739.16 739.14 0 0 739.16 -739.14 0zm760.42 0l0 -739.16 739.13 0 0 739.16 -739.13 0zm760.68 0l0 -739.16 739.12 0 0 739.16 -739.12 0zm760.67 0l0 -739.16 739.12 0 0 739.16 -739.12 0zm760.65 0l0 -739.16 739.13 0 0 739.16 -739.13 0zm-34989.62 -760.62l0 -739.18 739.17 0 0 739.18 -739.17 0zm760.65 0l0 -739.18 739.16 0 0 739.18 -739.16 0zm760.63 0l0 -739.18 739.16 0 0 739.18 -739.16 0zm760.66 0l0 -739.18 739.15 0 0 739.18 -739.15 0zm760.63 0l0 -739.18 739.19 0 0 739.18 -739.19 0zm760.65 0l0 -739.18 739.18 0 0 739.18 -739.18 0zm760.65 0l0 -739.18 739.16 0 0 739.18 -739.16 0zm760.66 0l0 -739.18 739.16 0 0 739.18 -739.16 0zm760.62 0l0 -739.18 739.15 0 0 739.18 -739.15 0zm760.67 0l0 -739.18 739.15 0 0 739.18 -739.15 0zm760.65 0l0 -739.18 739.14 0 0 739.18 -739.14 0zm760.64 0l0 -739.18 739.18 0 0 739.18 -739.18 0zm760.64 0l0 -739.18 739.14 0 0 739.18 -739.14 0zm760.64 0l0 -739.18 739.18 0 0 739.18 -739.18 0zm760.64 0l0 -739.18 739.16 0 0 739.18 -739.16 0zm760.65 0l0 -739.18 739.18 0 0 739.18 -739.18 0zm760.67 0l0 -739.18 739.16 0 0 739.18 -739.16 0zm760.63 0l0 -739.18 739.15 0 0 739.18 -739.15 0zm760.65 0l0 -739.18 739.15 0 0 739.18 -739.15 0zm760.64 0l0 -739.18 739.15 0 0 739.18 -739.15 0zm760.68 0l0 -739.18 739.14 0 0 739.18 -739.14 0zm760.61 0l0 -739.18 739.16 0 0 739.18 -739.16 0zm760.64 0l0 -739.18 739.17 0 0 739.18 -739.17 0zm760.67 0l0 -739.18 739.16 0 0 739.18 -739.16 0zm760.64 0l0 -739.18 739.18 0 0 739.18 -739.18 0zm760.54 0l0 -739.18 739.34 0 0 739.18 -739.34 0zm760.7 0l0 -739.18 739.15 0 0 739.18 -739.15 0zm760.69 0l0 -739.18 739.12 0 0 739.18 -739.12 0zm760.7 0l0 -739.18 739.12 0 0 739.18 -739.12 0zm760.69 0l0 -739.18 739.12 0 0 739.18 -739.12 0zm760.48 0l0 -739.18 739.14 0 0 739.18 -739.14 0zm760.7 0l0 -739.18 739.13 0 0 739.18 -739.13 0zm760.69 0l0 -739.18 739.05 0 0 739.18 -739.05 0zm760.59 0l0 -739.18 739.13 0 0 739.18 -739.13 0zm760.68 0l0 -739.18 739.12 0 0 739.18 -739.12 0zm760.67 0l0 -739.18 739.12 0 0 739.18 -739.12 0zm760.67 0l0 -739.18 739.12 0 0 739.18 -739.12 0zm760.66 0l0 -739.18 739.12 0 0 739.18 -739.12 0zm760.41 0l0 -739.18 739.38 0 0 739.18 -739.38 0zm760.67 0l0 -739.18 739.12 0 0 739.18 -739.12 0zm760.67 0l0 -739.18 739.38 0 0 739.18 -739.38 0zm760.92 0l0 -739.18 739.14 0 0 739.18 -739.14 0zm760.66 0l0 -739.18 739.14 0 0 739.18 -739.14 0zm760.42 0l0 -739.18 739.13 0 0 739.18 -739.13 0zm760.68 0l0 -739.18 739.12 0 0 739.18 -739.12 0zm760.67 0l0 -739.18 739.12 0 0 739.18 -739.12 0zm760.65 0l0 -739.18 739.13 0 0 739.18 -739.13 0zm-34989.62 -760.67l0 -739.15 739.17 0 0 739.15 -739.17 0zm760.65 0l0 -739.15 739.16 0 0 739.15 -739.16 0zm760.63 0l0 -739.15 739.16 0 0 739.15 -739.16 0zm760.66 0l0 -739.15 739.15 0 0 739.15 -739.15 0zm760.63 0l0 -739.15 739.19 0 0 739.15 -739.19 0zm760.65 0l0 -739.15 739.18 0 0 739.15 -739.18 0zm760.65 0l0 -739.15 739.16 0 0 739.15 -739.16 0zm760.66 0l0 -739.15 739.16 0 0 739.15 -739.16 0zm760.62 0l0 -739.15 739.15 0 0 739.15 -739.15 0zm760.67 0l0 -739.15 739.15 0 0 739.15 -739.15 0zm760.65 0l0 -739.15 739.14 0 0 739.15 -739.14 0zm760.64 0l0 -739.15 739.18 0 0 739.15 -739.18 0zm760.64 0l0 -739.15 739.14 0 0 739.15 -739.14 0zm760.64 0l0 -739.15 739.18 0 0 739.15 -739.18 0zm760.64 0l0 -739.15 739.16 0 0 739.15 -739.16 0zm760.65 0l0 -739.15 739.18 0 0 739.15 -739.18 0zm760.67 0l0 -739.15 739.16 0 0 739.15 -739.16 0zm760.63 0l0 -739.15 739.15 0 0 739.15 -739.15 0zm760.65 0l0 -739.15 739.15 0 0 739.15 -739.15 0zm760.64 0l0 -739.15 739.15 0 0 739.15 -739.15 0zm760.68 0l0 -739.15 739.14 0 0 739.15 -739.14 0zm760.61 0l0 -739.15 739.16 0 0 739.15 -739.16 0zm760.64 0l0 -739.15 739.17 0 0 739.15 -739.17 0zm760.67 0l0 -739.15 739.16 0 0 739.15 -739.16 0zm760.64 0l0 -739.15 739.18 0 0 739.15 -739.18 0zm760.54 0l0 -739.15 739.34 0 0 739.15 -739.34 0zm760.7 0l0 -739.15 739.15 0 0 739.15 -739.15 0zm760.69 0l0 -739.15 739.12 0 0 739.15 -739.12 0zm760.7 0l0 -739.15 739.12 0 0 739.15 -739.12 0zm760.69 0l0 -739.15 739.12 0 0 739.15 -739.12 0zm760.48 0l0 -739.15 739.14 0 0 739.15 -739.14 0zm760.7 0l0 -739.15 739.13 0 0 739.15 -739.13 0zm760.69 0l0 -739.15 739.05 0 0 739.15 -739.05 0zm760.59 0l0 -739.15 739.13 0 0 739.15 -739.13 0zm760.68 0l0 -739.15 739.12 0 0 739.15 -739.12 0zm760.67 0l0 -739.15 739.12 0 0 739.15 -739.12 0zm760.67 0l0 -739.15 739.12 0 0 739.15 -739.12 0zm760.66 0l0 -739.15 739.12 0 0 739.15 -739.12 0zm760.41 0l0 -739.15 739.38 0 0 739.15 -739.38 0zm760.67 0l0 -739.15 739.12 0 0 739.15 -739.12 0zm760.67 0l0 -739.15 739.38 0 0 739.15 -739.38 0zm760.92 0l0 -739.15 739.14 0 0 739.15 -739.14 0zm760.66 0l0 -739.15 739.14 0 0 739.15 -739.14 0zm760.42 0l0 -739.15 739.13 0 0 739.15 -739.13 0zm760.68 0l0 -739.15 739.12 0 0 739.15 -739.12 0zm760.67 0l0 -739.15 739.12 0 0 739.15 -739.12 0zm760.65 0l0 -739.15 739.13 0 0 739.15 -739.13 0zm-34989.62 -760.64l0 -739.15 739.17 0 0 739.15 -739.17 0zm760.65 0l0 -739.15 739.16 0 0 739.15 -739.16 0zm760.63 0l0 -739.15 739.16 0 0 739.15 -739.16 0zm760.66 0l0 -739.15 739.15 0 0 739.15 -739.15 0zm760.63 0l0 -739.15 739.19 0 0 739.15 -739.19 0zm760.65 0l0 -739.15 739.18 0 0 739.15 -739.18 0zm760.65 0l0 -739.15 739.16 0 0 739.15 -739.16 0zm760.66 0l0 -739.15 739.16 0 0 739.15 -739.16 0zm760.62 0l0 -739.15 739.15 0 0 739.15 -739.15 0zm760.67 0l0 -739.15 739.15 0 0 739.15 -739.15 0zm760.65 0l0 -739.15 739.14 0 0 739.15 -739.14 0zm760.64 0l0 -739.15 739.18 0 0 739.15 -739.18 0zm760.64 0l0 -739.15 739.14 0 0 739.15 -739.14 0zm760.64 0l0 -739.15 739.18 0 0 739.15 -739.18 0zm760.64 0l0 -739.15 739.16 0 0 739.15 -739.16 0zm760.65 0l0 -739.15 739.18 0 0 739.15 -739.18 0zm760.67 0l0 -739.15 739.16 0 0 739.15 -739.16 0zm760.63 0l0 -739.15 739.15 0 0 739.15 -739.15 0zm760.65 0l0 -739.15 739.15 0 0 739.15 -739.15 0zm760.64 0l0 -739.15 739.15 0 0 739.15 -739.15 0zm760.68 0l0 -739.15 739.14 0 0 739.15 -739.14 0zm760.61 0l0 -739.15 739.16 0 0 739.15 -739.16 0zm760.64 0l0 -739.15 739.17 0 0 739.15 -739.17 0zm760.67 0l0 -739.15 739.16 0 0 739.15 -739.16 0zm760.64 0l0 -739.15 739.18 0 0 739.15 -739.18 0zm760.54 0l0 -739.15 739.34 0 0 739.15 -739.34 0zm760.7 0l0 -739.15 739.15 0 0 739.15 -739.15 0zm760.69 0l0 -739.15 739.12 0 0 739.15 -739.12 0zm760.7 0l0 -739.15 739.12 0 0 739.15 -739.12 0zm760.69 0l0 -739.15 739.12 0 0 739.15 -739.12 0zm760.48 0l0 -739.15 739.14 0 0 739.15 -739.14 0zm760.7 0l0 -739.15 739.13 0 0 739.15 -739.13 0zm760.69 0l0 -739.15 739.05 0 0 739.15 -739.05 0zm760.59 0l0 -739.15 739.13 0 0 739.15 -739.13 0zm760.68 0l0 -739.15 739.12 0 0 739.15 -739.12 0zm760.67 0l0 -739.15 739.12 0 0 739.15 -739.12 0zm760.67 0l0 -739.15 739.12 0 0 739.15 -739.12 0zm760.66 0l0 -739.15 739.12 0 0 739.15 -739.12 0zm760.41 0l0 -739.15 739.38 0 0 739.15 -739.38 0zm760.67 0l0 -739.15 739.12 0 0 739.15 -739.12 0zm760.67 0l0 -739.15 739.38 0 0 739.15 -739.38 0zm760.92 0l0 -739.15 739.14 0 0 739.15 -739.14 0zm760.66 0l0 -739.15 739.14 0 0 739.15 -739.14 0zm760.42 0l0 -739.15 739.13 0 0 739.15 -739.13 0zm760.68 0l0 -739.15 739.12 0 0 739.15 -739.12 0zm760.67 0l0 -739.15 739.12 0 0 739.15 -739.12 0zm760.65 0l0 -739.15 739.13 0 0 739.15 -739.13 0zm-34989.62 -760.67l0 -739.15 739.17 0 0 739.15 -739.17 0zm760.65 0l0 -739.15 739.16 0 0 739.15 -739.16 0zm760.63 0l0 -739.15 739.16 0 0 739.15 -739.16 0zm760.66 0l0 -739.15 739.15 0 0 739.15 -739.15 0zm760.63 0l0 -739.15 739.19 0 0 739.15 -739.19 0zm760.65 0l0 -739.15 739.18 0 0 739.15 -739.18 0zm760.65 0l0 -739.15 739.16 0 0 739.15 -739.16 0zm760.66 0l0 -739.15 739.16 0 0 739.15 -739.16 0zm760.62 0l0 -739.15 739.15 0 0 739.15 -739.15 0zm760.67 0l0 -739.15 739.15 0 0 739.15 -739.15 0zm760.65 0l0 -739.15 739.14 0 0 739.15 -739.14 0zm760.64 0l0 -739.15 739.18 0 0 739.15 -739.18 0zm760.64 0l0 -739.15 739.14 0 0 739.15 -739.14 0zm760.64 0l0 -739.15 739.18 0 0 739.15 -739.18 0zm760.64 0l0 -739.15 739.16 0 0 739.15 -739.16 0zm760.65 0l0 -739.15 739.18 0 0 739.15 -739.18 0zm760.67 0l0 -739.15 739.16 0 0 739.15 -739.16 0zm760.63 0l0 -739.15 739.15 0 0 739.15 -739.15 0zm760.65 0l0 -739.15 739.15 0 0 739.15 -739.15 0zm760.64 0l0 -739.15 739.15 0 0 739.15 -739.15 0zm760.68 0l0 -739.15 739.14 0 0 739.15 -739.14 0zm760.61 0l0 -739.15 739.16 0 0 739.15 -739.16 0zm760.64 0l0 -739.15 739.17 0 0 739.15 -739.17 0zm760.67 0l0 -739.15 739.16 0 0 739.15 -739.16 0zm760.64 0l0 -739.15 739.18 0 0 739.15 -739.18 0zm760.54 0l0 -739.15 739.34 0 0 739.15 -739.34 0zm760.7 0l0 -739.15 739.15 0 0 739.15 -739.15 0zm760.69 0l0 -739.15 739.12 0 0 739.15 -739.12 0zm760.7 0l0 -739.15 739.12 0 0 739.15 -739.12 0zm760.69 0l0 -739.15 739.12 0 0 739.15 -739.12 0zm760.48 0l0 -739.15 739.14 0 0 739.15 -739.14 0zm760.7 0l0 -739.15 739.13 0 0 739.15 -739.13 0zm760.69 0l0 -739.15 739.05 0 0 739.15 -739.05 0zm760.59 0l0 -739.15 739.13 0 0 739.15 -739.13 0zm760.68 0l0 -739.15 739.12 0 0 739.15 -739.12 0zm760.67 0l0 -739.15 739.12 0 0 739.15 -739.12 0zm760.67 0l0 -739.15 739.12 0 0 739.15 -739.12 0zm760.66 0l0 -739.15 739.12 0 0 739.15 -739.12 0zm760.41 0l0 -739.15 739.38 0 0 739.15 -739.38 0zm760.67 0l0 -739.15 739.12 0 0 739.15 -739.12 0zm760.67 0l0 -739.15 739.38 0 0 739.15 -739.38 0zm760.92 0l0 -739.15 739.14 0 0 739.15 -739.14 0zm760.66 0l0 -739.15 739.14 0 0 739.15 -739.14 0zm760.42 0l0 -739.15 739.13 0 0 739.15 -739.13 0zm760.68 0l0 -739.15 739.12 0 0 739.15 -739.12 0zm760.67 0l0 -739.15 739.12 0 0 739.15 -739.12 0zm760.65 0l0 -739.15 739.13 0 0 739.15 -739.13 0zm-34989.62 -760.65l0 -739.15 739.17 0 0 739.15 -739.17 0zm760.65 0l0 -739.15 739.16 0 0 739.15 -739.16 0zm760.63 0l0 -739.15 739.16 0 0 739.15 -739.16 0zm760.66 0l0 -739.15 739.15 0 0 739.15 -739.15 0zm760.63 0l0 -739.15 739.19 0 0 739.15 -739.19 0zm760.65 0l0 -739.15 739.18 0 0 739.15 -739.18 0zm760.65 0l0 -739.15 739.16 0 0 739.15 -739.16 0zm760.66 0l0 -739.15 739.16 0 0 739.15 -739.16 0zm760.62 0l0 -739.15 739.15 0 0 739.15 -739.15 0zm760.67 0l0 -739.15 739.15 0 0 739.15 -739.15 0zm760.65 0l0 -739.15 739.14 0 0 739.15 -739.14 0zm760.64 0l0 -739.15 739.18 0 0 739.15 -739.18 0zm760.64 0l0 -739.15 739.14 0 0 739.15 -739.14 0zm760.64 0l0 -739.15 739.18 0 0 739.15 -739.18 0zm760.64 0l0 -739.15 739.16 0 0 739.15 -739.16 0zm760.65 0l0 -739.15 739.18 0 0 739.15 -739.18 0zm760.67 0l0 -739.15 739.16 0 0 739.15 -739.16 0zm760.63 0l0 -739.15 739.15 0 0 739.15 -739.15 0zm760.65 0l0 -739.15 739.15 0 0 739.15 -739.15 0zm760.64 0l0 -739.15 739.15 0 0 739.15 -739.15 0zm760.68 0l0 -739.15 739.14 0 0 739.15 -739.14 0zm760.61 0l0 -739.15 739.16 0 0 739.15 -739.16 0zm760.64 0l0 -739.15 739.17 0 0 739.15 -739.17 0zm760.67 0l0 -739.15 739.16 0 0 739.15 -739.16 0zm760.64 0l0 -739.15 739.18 0 0 739.15 -739.18 0zm760.54 0l0 -739.15 739.34 0 0 739.15 -739.34 0zm760.7 0l0 -739.15 739.15 0 0 739.15 -739.15 0zm760.69 0l0 -739.15 739.12 0 0 739.15 -739.12 0zm760.7 0l0 -739.15 739.12 0 0 739.15 -739.12 0zm760.69 0l0 -739.15 739.12 0 0 739.15 -739.12 0zm760.48 0l0 -739.15 739.14 0 0 739.15 -739.14 0zm760.7 0l0 -739.15 739.13 0 0 739.15 -739.13 0zm760.69 0l0 -739.15 739.05 0 0 739.15 -739.05 0zm760.59 0l0 -739.15 739.13 0 0 739.15 -739.13 0zm760.68 0l0 -739.15 739.12 0 0 739.15 -739.12 0zm760.67 0l0 -739.15 739.12 0 0 739.15 -739.12 0zm760.67 0l0 -739.15 739.12 0 0 739.15 -739.12 0zm760.66 0l0 -739.15 739.12 0 0 739.15 -739.12 0zm760.41 0l0 -739.15 739.38 0 0 739.15 -739.38 0zm760.67 0l0 -739.15 739.12 0 0 739.15 -739.12 0zm760.67 0l0 -739.15 739.38 0 0 739.15 -739.38 0zm760.92 0l0 -739.15 739.14 0 0 739.15 -739.14 0zm760.66 0l0 -739.15 739.14 0 0 739.15 -739.14 0zm760.42 0l0 -739.15 739.13 0 0 739.15 -739.13 0zm760.68 0l0 -739.15 739.12 0 0 739.15 -739.12 0zm760.67 0l0 -739.15 739.12 0 0 739.15 -739.12 0zm760.65 0l0 -739.15 739.13 0 0 739.15 -739.13 0zm-34989.62 -760.6l0 -739.18 739.17 0 0 739.18 -739.17 0zm760.65 0l0 -739.18 739.16 0 0 739.18 -739.16 0zm760.63 0l0 -739.18 739.16 0 0 739.18 -739.16 0zm760.66 0l0 -739.18 739.15 0 0 739.18 -739.15 0zm760.63 0l0 -739.18 739.19 0 0 739.18 -739.19 0zm760.65 0l0 -739.18 739.18 0 0 739.18 -739.18 0zm760.65 0l0 -739.18 739.16 0 0 739.18 -739.16 0zm760.66 0l0 -739.18 739.16 0 0 739.18 -739.16 0zm760.62 0l0 -739.18 739.15 0 0 739.18 -739.15 0zm760.67 0l0 -739.18 739.15 0 0 739.18 -739.15 0zm760.65 0l0 -739.18 739.14 0 0 739.18 -739.14 0zm760.64 0l0 -739.18 739.18 0 0 739.18 -739.18 0zm760.64 0l0 -739.18 739.14 0 0 739.18 -739.14 0zm760.64 0l0 -739.18 739.18 0 0 739.18 -739.18 0zm760.64 0l0 -739.18 739.16 0 0 739.18 -739.16 0zm760.65 0l0 -739.18 739.18 0 0 739.18 -739.18 0zm760.67 0l0 -739.18 739.16 0 0 739.18 -739.16 0zm760.63 0l0 -739.18 739.15 0 0 739.18 -739.15 0zm760.65 0l0 -739.18 739.15 0 0 739.18 -739.15 0zm760.64 0l0 -739.18 739.15 0 0 739.18 -739.15 0zm760.68 0l0 -739.18 739.14 0 0 739.18 -739.14 0zm760.61 0l0 -739.18 739.16 0 0 739.18 -739.16 0zm760.64 0l0 -739.18 739.17 0 0 739.18 -739.17 0zm760.67 0l0 -739.18 739.16 0 0 739.18 -739.16 0zm760.64 0l0 -739.18 739.18 0 0 739.18 -739.18 0zm760.54 0l0 -739.18 739.34 0 0 739.18 -739.34 0zm760.7 0l0 -739.18 739.15 0 0 739.18 -739.15 0zm760.69 0l0 -739.18 739.12 0 0 739.18 -739.12 0zm760.7 0l0 -739.18 739.12 0 0 739.18 -739.12 0zm760.69 0l0 -739.18 739.12 0 0 739.18 -739.12 0zm760.48 0l0 -739.18 739.14 0 0 739.18 -739.14 0zm760.7 0l0 -739.18 739.13 0 0 739.18 -739.13 0zm760.69 0l0 -739.18 739.05 0 0 739.18 -739.05 0zm760.59 0l0 -739.18 739.13 0 0 739.18 -739.13 0zm760.68 0l0 -739.18 739.12 0 0 739.18 -739.12 0zm760.67 0l0 -739.18 739.12 0 0 739.18 -739.12 0zm760.67 0l0 -739.18 739.12 0 0 739.18 -739.12 0zm760.66 0l0 -739.18 739.12 0 0 739.18 -739.12 0zm760.41 0l0 -739.18 739.38 0 0 739.18 -739.38 0zm760.67 0l0 -739.18 739.12 0 0 739.18 -739.12 0zm760.67 0l0 -739.18 739.38 0 0 739.18 -739.38 0zm760.92 0l0 -739.18 739.14 0 0 739.18 -739.14 0zm760.66 0l0 -739.18 739.14 0 0 739.18 -739.14 0zm760.42 0l0 -739.18 739.13 0 0 739.18 -739.13 0zm760.68 0l0 -739.18 739.12 0 0 739.18 -739.12 0zm760.67 0l0 -739.18 739.12 0 0 739.18 -739.12 0zm760.65 0l0 -739.18 739.13 0 0 739.18 -739.13 0zm-34989.62 -760.64l0 -265.11 0.05 -0.54 0 -387.81 739.13 0 0 270.56 -0.01 0.55 0 382.35 -739.17 0zm760.65 0l0 -265.03 0.07 -0.62 0 -387.81 739.12 0 0 270.28 -0.03 0.83 0 382.35 -739.16 0zm760.63 0l0 -264.93c0.07,-0.24 0.1,-0.47 0.1,-0.72l0 -387.81 739.12 0 0 269.92 -0.06 1.19 0 382.35 -739.16 0zm760.66 0l0 -264.88c0.07,-0.25 0.11,-0.51 0.11,-0.77l0 -387.81 739.13 0 0 269.67c-0.06,0.47 -0.09,0.95 -0.09,1.44l0 382.35 -739.15 0zm760.63 0l0 -382.35c0,-0.53 -0.04,-1.06 -0.11,-1.58l0 -269.53 739.14 0 0 387.81c0,0.31 0.05,0.62 0.16,0.91l0 264.74 -739.19 0zm760.65 0l0 -382.35c0,-0.49 -0.03,-0.97 -0.09,-1.44l0 -269.67 739.14 0 0 387.81c0,0.28 0.04,0.54 0.13,0.81l0 264.84 -739.18 0zm760.65 0l0 -382.35 -0.06 -1.19 0 -269.92 739.38 0 0 269.2c-0.1,0.62 -0.16,1.27 -0.16,1.91l0 382.35 -739.16 0zm760.66 0l0 -264.68c0.12,-0.31 0.2,-0.63 0.2,-0.97l0 -387.81 739.12 0 0 269.2c-0.1,0.62 -0.16,1.27 -0.16,1.91l0 382.35 -739.16 0zm760.62 0l0 -382.35 -0.01 -0.55 0 -270.56 739.38 0 0 268.94c-0.14,0.71 -0.22,1.42 -0.22,2.17l0 382.35 -739.15 0zm760.67 0l0 -382.35 -0.01 -0.55 0 -270.56 739.12 0 0 387.81 0.04 0.48 0 265.17 -739.15 0zm760.65 0l0 -265.37 0.01 -0.28 0 -387.81 739.12 0 0 387.81 0.01 0.28 0 265.37 -739.14 0zm760.64 0l0 -265.17 0.04 -0.48 0 -387.81 739.12 0 0 387.81 0.02 0.35 0 265.3 -739.18 0zm760.64 0l0 -265.08 0.06 -0.57 0 -387.81 739.12 0 0 270.15 -0.04 0.96 0 382.35 -739.14 0zm760.64 0l0 -265 0.09 -0.65 0 -387.81 739.13 0 0 270.15 -0.04 0.96 0 382.35 -739.18 0zm760.64 0l0 -264.88c0.07,-0.25 0.12,-0.51 0.12,-0.77l0 -387.81 739.05 0 0 270.56 -0.01 0.55 0 382.35 -739.16 0zm760.65 0l0 -264.97c0.06,-0.23 0.09,-0.45 0.09,-0.68l0 -387.81 739.13 0 0 270.15 -0.04 0.96 0 382.35 -739.18 0zm760.67 0l0 -264.88c0.07,-0.25 0.11,-0.51 0.11,-0.77l0 -387.81 739.14 0 0 269.67c-0.06,0.47 -0.09,0.95 -0.09,1.44l0 382.35 -739.16 0zm760.63 0l0 -382.35 -0.03 -0.83 0 -270.28 739.12 0 0 387.81 0.06 0.54 0 265.11 -739.15 0zm760.65 0l0 -265.37 0.01 -0.28 0 -387.81 739.12 0 0 387.81 0.02 0.35 0 265.3 -739.15 0zm760.64 0l0 -265.07 0.07 -0.58 0 -387.81 739.12 0 0 270.15 -0.04 0.96 0 382.35 -739.15 0zm760.68 0l0 -265.11 0.06 -0.54 0 -387.81 739.15 0 0 269.83 -0.07 1.28 0 382.35 -739.14 0zm760.61 0l0 -382.35 -0.04 -0.96 0 -270.15 739.34 0 0 269.34c-0.09,0.57 -0.14,1.17 -0.14,1.77l0 382.35 -739.16 0zm760.64 0l0 -265.37 0.01 -0.28 0 -387.81 739.18 0 0 270.41 -0.02 0.7 0 382.35 -739.17 0zm760.67 0l0 -265.52 0 -0.13 0 -116.7 0 -0.28 0 -270.83 739.16 0 0 270.83 0 0.28 0 116.7 0 0.13 0 265.52 -739.16 0zm760.64 0l0 -265.3 0.02 -0.35 0 -387.81 739.17 0 0 270.56 -0.01 0.55 0 382.35 -739.18 0zm760.54 0l0 -264.78c0.09,-0.29 0.14,-0.57 0.14,-0.87l0 -387.81 739.16 0 0 387.81 0.04 0.48 0 265.17 -739.34 0zm760.7 0l0 -265.01 0.07 -0.64 0 -387.81 739.14 0 0 270.01 -0.06 1.1 0 382.35 -739.15 0zm760.69 0l0 -265.17 0.04 -0.48 0 -387.81 739.15 0 0 269.92 -0.07 1.19 0 382.35 -739.12 0zm760.7 0l0 -382.35 -0.02 -0.7 0 -270.41 739.15 0 0 270.56 -0.01 0.55 0 382.35 -739.12 0zm760.69 0l0 -382.35 -0.06 -1.1 0 -270.01 739.15 0 0 387.81 0.03 0.41 0 265.24 -739.12 0zm760.48 0l0 -264.94c0.06,-0.24 0.09,-0.47 0.09,-0.71l0 -387.81 739.16 0 0 269.56c-0.07,0.51 -0.11,1.03 -0.11,1.55l0 382.35 -739.14 0zm760.7 0l0 -265.17 0.04 -0.48 0 -387.81 739.18 0 0 269.74c-0.06,0.45 -0.09,0.91 -0.09,1.37l0 382.35 -739.13 0zm760.69 0l0 -265.37 0.01 -0.28 0 -387.81 739.16 0 0 269.56c-0.07,0.51 -0.12,1.03 -0.12,1.55l0 382.35 -739.05 0zm760.59 0l0 -265.17 0.04 -0.48 0 -387.81 739.18 0 0 269.81 -0.09 1.3 0 382.35 -739.13 0zm760.68 0l0 -265.17 0.04 -0.48 0 -387.81 739.14 0 0 269.94 -0.06 1.17 0 382.35 -739.12 0zm760.67 0l0 -382.35 -0.02 -0.7 0 -270.41 739.18 0 0 270.15 -0.04 0.96 0 382.35 -739.12 0zm760.67 0l0 -382.35 -0.01 -0.55 0 -270.56 739.14 0 0 270.56 -0.01 0.55 0 382.35 -739.12 0zm760.66 0l0 -382.35 -0.04 -0.96 0 -270.15 739.15 0 0 387.81 0.01 0.28 0 265.37 -739.12 0zm760.41 0l0 -264.58c0.14,-0.35 0.22,-0.7 0.22,-1.07l0 -387.81 739.15 0 0 387.81 0.01 0.28 0 265.37 -739.38 0zm760.67 0l0 -264.72c0.1,-0.29 0.16,-0.61 0.16,-0.93l0 -387.81 739.16 0 0 269.11c-0.12,0.65 -0.2,1.32 -0.2,2l0 382.35 -739.12 0zm760.67 0l0 -264.72c0.1,-0.29 0.16,-0.61 0.16,-0.93l0 -387.81 739.16 0 0 387.81 0.06 0.58 0 265.07 -739.38 0zm760.92 0l0 -382.35c0,-0.55 -0.04,-1.11 -0.13,-1.64l0 -269.47 739.18 0 0 387.81c0,0.24 0.03,0.47 0.09,0.71l0 264.94 -739.14 0zm760.66 0l0 -382.35c0,-0.63 -0.05,-1.25 -0.16,-1.85l0 -269.26 739.19 0 0 387.81c0,0.27 0.04,0.53 0.11,0.78l0 264.87 -739.14 0zm760.42 0l0 -264.94c0.06,-0.24 0.09,-0.47 0.09,-0.71l0 -387.81 739.15 0 0 269.56c-0.07,0.51 -0.11,1.03 -0.11,1.55l0 382.35 -739.13 0zm760.68 0l0 -265.07 0.06 -0.58 0 -387.81 739.16 0 0 269.65c-0.07,0.47 -0.1,0.97 -0.1,1.46l0 382.35 -739.12 0zm760.67 0l0 -265.24 0.03 -0.41 0 -387.81 739.16 0 0 269.87 -0.07 1.24 0 382.35 -739.12 0zm760.65 0l0 -265.37 0.01 -0.28 0 -387.81 739.17 0 0 270.01 -0.05 1.1 0 382.35 -739.13 0zm739.18 -3696.02l0 739.16 -739.17 0 0 -739.16 739.17 0zm-760.65 0l0 739.16 -739.16 0 0 -739.16 739.16 0zm-760.63 0l0 739.16 -739.16 0 0 -739.16 739.16 0zm-760.66 0l0 739.16 -739.15 0 0 -739.16 739.15 0zm-760.63 0l0 739.16 -739.19 0 0 -739.16 739.19 0zm-760.65 0l0 739.16 -739.18 0 0 -739.16 739.18 0zm-760.64 0l0 739.16 -739.16 0 0 -739.16 739.16 0zm-760.67 0l0 739.16 -739.16 0 0 -739.16 739.16 0zm-760.62 0l0 739.16 -739.15 0 0 -739.16 739.15 0zm-760.67 0l0 739.16 -739.15 0 0 -739.16 739.15 0zm-760.65 0l0 739.16 -739.14 0 0 -739.16 739.14 0zm-760.63 0l0 739.16 -739.18 0 0 -739.16 739.18 0zm-760.65 0l0 739.16 -739.14 0 0 -739.16 739.14 0zm-760.64 0l0 739.16 -739.18 0 0 -739.16 739.18 0zm-760.64 0l0 739.16 -739.16 0 0 -739.16 739.16 0zm-760.65 0l0 739.16 -739.18 0 0 -739.16 739.18 0zm-760.66 0l0 739.16 -739.16 0 0 -739.16 739.16 0zm-760.64 0l0 739.16 -739.15 0 0 -739.16 739.15 0zm-760.65 0l0 739.16 -739.15 0 0 -739.16 739.15 0zm-760.64 0l0 739.16 -739.15 0 0 -739.16 739.15 0zm-760.68 0l0 739.16 -739.14 0 0 -739.16 739.14 0zm-760.6 0l0 739.16 -739.16 0 0 -739.16 739.16 0zm-760.65 0l0 739.16 -739.17 0 0 -739.16 739.17 0zm-760.67 0l0 739.16 -739.16 0 0 -739.16 739.16 0zm-760.64 0l0 739.16 -739.18 0 0 -739.16 739.18 0zm-760.54 0l0 739.16 -739.34 0 0 -739.16 739.34 0zm-760.69 0l0 739.16 -739.15 0 0 -739.16 739.15 0zm-760.7 0l0 739.16 -739.12 0 0 -739.16 739.12 0zm-760.7 0l0 739.16 -739.12 0 0 -739.16 739.12 0zm-760.69 0l0 739.16 -739.12 0 0 -739.16 739.12 0zm-760.48 0l0 739.16 -739.14 0 0 -739.16 739.14 0zm-760.69 0l0 739.16 -739.13 0 0 -739.16 739.13 0zm-760.7 0l0 739.16 -739.05 0 0 -739.16 739.05 0zm-760.59 0l0 739.16 -739.13 0 0 -739.16 739.13 0zm-760.68 0l0 739.16 -739.12 0 0 -739.16 739.12 0zm-760.67 0l0 739.16 -739.12 0 0 -739.16 739.12 0zm-760.66 0l0 739.16 -739.12 0 0 -739.16 739.12 0zm-760.67 0l0 739.16 -739.12 0 0 -739.16 739.12 0zm-760.41 0l0 739.16 -739.38 0 0 -739.16 739.38 0zm-760.67 0l0 739.16 -739.12 0 0 -739.16 739.12 0zm-760.67 0l0 739.16 -739.38 0 0 -739.16 739.38 0zm-760.91 0l0 739.16 -739.14 0 0 -739.16 739.14 0zm-760.67 0l0 739.16 -739.14 0 0 -739.16 739.14 0zm-760.42 0l0 739.16 -739.13 0 0 -739.16 739.13 0zm-760.68 0l0 739.16 -739.12 0 0 -739.16 739.12 0zm-760.67 0l0 739.16 -739.12 0 0 -739.16 739.12 0zm-760.65 0l0 739.16 -739.13 0 0 -739.16 739.13 0zm34989.62 760.67l0 739.16 -739.17 0 0 -739.16 739.17 0zm-760.65 0l0 739.16 -739.16 0 0 -739.16 739.16 0zm-760.63 0l0 739.16 -739.16 0 0 -739.16 739.16 0zm-760.66 0l0 739.16 -739.15 0 0 -739.16 739.15 0zm-760.63 0l0 739.16 -739.19 0 0 -739.16 739.19 0zm-760.65 0l0 739.16 -739.18 0 0 -739.16 739.18 0zm-760.64 0l0 739.16 -739.16 0 0 -739.16 739.16 0zm-760.67 0l0 739.16 -739.16 0 0 -739.16 739.16 0zm-760.62 0l0 739.16 -739.15 0 0 -739.16 739.15 0zm-760.67 0l0 739.16 -739.15 0 0 -739.16 739.15 0zm-760.65 0l0 739.16 -739.14 0 0 -739.16 739.14 0zm-760.63 0l0 739.16 -739.18 0 0 -739.16 739.18 0zm-760.65 0l0 739.16 -739.14 0 0 -739.16 739.14 0zm-760.64 0l0 739.16 -739.18 0 0 -739.16 739.18 0zm-760.64 0l0 739.16 -739.16 0 0 -739.16 739.16 0zm-760.65 0l0 739.16 -739.18 0 0 -739.16 739.18 0zm-760.66 0l0 739.16 -739.16 0 0 -739.16 739.16 0zm-760.64 0l0 739.16 -739.15 0 0 -739.16 739.15 0zm-760.65 0l0 739.16 -739.15 0 0 -739.16 739.15 0zm-760.64 0l0 739.16 -739.15 0 0 -739.16 739.15 0zm-760.68 0l0 739.16 -739.14 0 0 -739.16 739.14 0zm-760.6 0l0 739.16 -739.16 0 0 -739.16 739.16 0zm-760.65 0l0 739.16 -739.17 0 0 -739.16 739.17 0zm-760.67 0l0 739.16 -739.16 0 0 -739.16 739.16 0zm-760.64 0l0 739.16 -739.18 0 0 -739.16 739.18 0zm-760.54 0l0 739.16 -739.34 0 0 -739.16 739.34 0zm-760.69 0l0 739.16 -739.15 0 0 -739.16 739.15 0zm-760.7 0l0 739.16 -739.12 0 0 -739.16 739.12 0zm-760.7 0l0 739.16 -739.12 0 0 -739.16 739.12 0zm-760.69 0l0 739.16 -739.12 0 0 -739.16 739.12 0zm-760.48 0l0 739.16 -739.14 0 0 -739.16 739.14 0zm-760.69 0l0 739.16 -739.13 0 0 -739.16 739.13 0zm-760.7 0l0 739.16 -739.05 0 0 -739.16 739.05 0zm-760.59 0l0 739.16 -739.13 0 0 -739.16 739.13 0zm-760.68 0l0 739.16 -739.12 0 0 -739.16 739.12 0zm-760.67 0l0 739.16 -739.12 0 0 -739.16 739.12 0zm-760.66 0l0 739.16 -739.12 0 0 -739.16 739.12 0zm-760.67 0l0 739.16 -739.12 0 0 -739.16 739.12 0zm-760.41 0l0 739.16 -739.38 0 0 -739.16 739.38 0zm-760.67 0l0 739.16 -739.12 0 0 -739.16 739.12 0zm-760.67 0l0 739.16 -739.38 0 0 -739.16 739.38 0zm-760.91 0l0 739.16 -739.14 0 0 -739.16 739.14 0zm-760.67 0l0 739.16 -739.14 0 0 -739.16 739.14 0zm-760.42 0l0 739.16 -739.13 0 0 -739.16 739.13 0zm-760.68 0l0 739.16 -739.12 0 0 -739.16 739.12 0zm-760.67 0l0 739.16 -739.12 0 0 -739.16 739.12 0zm-760.65 0l0 739.16 -739.13 0 0 -739.16 739.13 0zm34989.62 760.64l0 739.16 -739.17 0 0 -739.16 739.17 0zm-760.65 0l0 739.16 -739.16 0 0 -739.16 739.16 0zm-760.63 0l0 739.16 -739.16 0 0 -739.16 739.16 0zm-760.66 0l0 739.16 -739.15 0 0 -739.16 739.15 0zm-760.63 0l0 739.16 -739.19 0 0 -739.16 739.19 0zm-760.65 0l0 739.16 -739.18 0 0 -739.16 739.18 0zm-760.64 0l0 739.16 -739.16 0 0 -739.16 739.16 0zm-760.67 0l0 739.16 -739.16 0 0 -739.16 739.16 0zm-760.62 0l0 739.16 -739.15 0 0 -739.16 739.15 0zm-760.67 0l0 739.16 -739.15 0 0 -739.16 739.15 0zm-760.65 0l0 739.16 -739.14 0 0 -739.16 739.14 0zm-760.63 0l0 739.16 -739.18 0 0 -739.16 739.18 0zm-760.65 0l0 739.16 -739.14 0 0 -739.16 739.14 0zm-760.64 0l0 739.16 -739.18 0 0 -739.16 739.18 0zm-760.64 0l0 739.16 -739.16 0 0 -739.16 739.16 0zm-760.65 0l0 739.16 -739.18 0 0 -739.16 739.18 0zm-760.66 0l0 739.16 -739.16 0 0 -739.16 739.16 0zm-760.64 0l0 739.16 -739.15 0 0 -739.16 739.15 0zm-760.65 0l0 739.16 -739.15 0 0 -739.16 739.15 0zm-760.64 0l0 739.16 -739.15 0 0 -739.16 739.15 0zm-760.68 0l0 739.16 -739.14 0 0 -739.16 739.14 0zm-760.6 0l0 739.16 -739.16 0 0 -739.16 739.16 0zm-760.65 0l0 739.16 -739.17 0 0 -739.16 739.17 0zm-760.67 0l0 739.16 -739.16 0 0 -739.16 739.16 0zm-760.64 0l0 739.16 -739.18 0 0 -739.16 739.18 0zm-760.54 0l0 739.16 -739.34 0 0 -739.16 739.34 0zm-760.69 0l0 739.16 -739.15 0 0 -739.16 739.15 0zm-760.7 0l0 739.16 -739.12 0 0 -739.16 739.12 0zm-760.7 0l0 739.16 -739.12 0 0 -739.16 739.12 0zm-760.69 0l0 739.16 -739.12 0 0 -739.16 739.12 0zm-760.48 0l0 739.16 -739.14 0 0 -739.16 739.14 0zm-760.69 0l0 739.16 -739.13 0 0 -739.16 739.13 0zm-760.7 0l0 739.16 -739.05 0 0 -739.16 739.05 0zm-760.59 0l0 739.16 -739.13 0 0 -739.16 739.13 0zm-760.68 0l0 739.16 -739.12 0 0 -739.16 739.12 0zm-760.67 0l0 739.16 -739.12 0 0 -739.16 739.12 0zm-760.66 0l0 739.16 -739.12 0 0 -739.16 739.12 0zm-760.67 0l0 739.16 -739.12 0 0 -739.16 739.12 0zm-760.41 0l0 739.16 -739.38 0 0 -739.16 739.38 0zm-760.67 0l0 739.16 -739.12 0 0 -739.16 739.12 0zm-760.67 0l0 739.16 -739.38 0 0 -739.16 739.38 0zm-760.91 0l0 739.16 -739.14 0 0 -739.16 739.14 0zm-760.67 0l0 739.16 -739.14 0 0 -739.16 739.14 0zm-760.42 0l0 739.16 -739.13 0 0 -739.16 739.13 0zm-760.68 0l0 739.16 -739.12 0 0 -739.16 739.12 0zm-760.67 0l0 739.16 -739.12 0 0 -739.16 739.12 0zm-760.65 0l0 739.16 -739.13 0 0 -739.16 739.13 0zm34989.62 760.62l0 739.18 -739.17 0 0 -739.18 739.17 0zm-760.65 0l0 739.18 -739.16 0 0 -739.18 739.16 0zm-760.63 0l0 739.18 -739.16 0 0 -739.18 739.16 0zm-760.66 0l0 739.18 -739.15 0 0 -739.18 739.15 0zm-760.63 0l0 739.18 -739.19 0 0 -739.18 739.19 0zm-760.65 0l0 739.18 -739.18 0 0 -739.18 739.18 0zm-760.64 0l0 739.18 -739.16 0 0 -739.18 739.16 0zm-760.67 0l0 739.18 -739.16 0 0 -739.18 739.16 0zm-760.62 0l0 739.18 -739.15 0 0 -739.18 739.15 0zm-760.67 0l0 739.18 -739.15 0 0 -739.18 739.15 0zm-760.65 0l0 739.18 -739.14 0 0 -739.18 739.14 0zm-760.63 0l0 739.18 -739.18 0 0 -739.18 739.18 0zm-760.65 0l0 739.18 -739.14 0 0 -739.18 739.14 0zm-760.64 0l0 739.18 -739.18 0 0 -739.18 739.18 0zm-760.64 0l0 739.18 -739.16 0 0 -739.18 739.16 0zm-760.65 0l0 739.18 -739.18 0 0 -739.18 739.18 0zm-760.66 0l0 739.18 -739.16 0 0 -739.18 739.16 0zm-760.64 0l0 739.18 -739.15 0 0 -739.18 739.15 0zm-760.65 0l0 739.18 -739.15 0 0 -739.18 739.15 0zm-760.64 0l0 739.18 -739.15 0 0 -739.18 739.15 0zm-760.68 0l0 739.18 -739.14 0 0 -739.18 739.14 0zm-760.6 0l0 739.18 -739.16 0 0 -739.18 739.16 0zm-760.65 0l0 739.18 -739.17 0 0 -739.18 739.17 0zm-760.67 0l0 739.18 -739.16 0 0 -739.18 739.16 0zm-760.64 0l0 739.18 -739.18 0 0 -739.18 739.18 0zm-760.54 0l0 739.18 -739.34 0 0 -739.18 739.34 0zm-760.69 0l0 739.18 -739.15 0 0 -739.18 739.15 0zm-760.7 0l0 739.18 -739.12 0 0 -739.18 739.12 0zm-760.7 0l0 739.18 -739.12 0 0 -739.18 739.12 0zm-760.69 0l0 739.18 -739.12 0 0 -739.18 739.12 0zm-760.48 0l0 739.18 -739.14 0 0 -739.18 739.14 0zm-760.69 0l0 739.18 -739.13 0 0 -739.18 739.13 0zm-760.7 0l0 739.18 -739.05 0 0 -739.18 739.05 0zm-760.59 0l0 739.18 -739.13 0 0 -739.18 739.13 0zm-760.68 0l0 739.18 -739.12 0 0 -739.18 739.12 0zm-760.67 0l0 739.18 -739.12 0 0 -739.18 739.12 0zm-760.66 0l0 739.18 -739.12 0 0 -739.18 739.12 0zm-760.67 0l0 739.18 -739.12 0 0 -739.18 739.12 0zm-760.41 0l0 739.18 -739.38 0 0 -739.18 739.38 0zm-760.67 0l0 739.18 -739.12 0 0 -739.18 739.12 0zm-760.67 0l0 739.18 -739.38 0 0 -739.18 739.38 0zm-760.91 0l0 739.18 -739.14 0 0 -739.18 739.14 0zm-760.67 0l0 739.18 -739.14 0 0 -739.18 739.14 0zm-760.42 0l0 739.18 -739.13 0 0 -739.18 739.13 0zm-760.68 0l0 739.18 -739.12 0 0 -739.18 739.12 0zm-760.67 0l0 739.18 -739.12 0 0 -739.18 739.12 0zm-760.65 0l0 739.18 -739.13 0 0 -739.18 739.13 0z"/>
 </g>
</svg>
