<svg width="407" height="56" viewBox="0 0 407 56" fill="none" xmlns="http://www.w3.org/2000/svg">
<g clip-path="url(#clip0_16_2723)">
<path d="M48.6353 15.4158C46.006 9.50396 41.2304 5.21786 35.6361 3.0681C30.0404 0.917865 23.6236 0.902104 17.7129 3.53096C11.8011 6.16052 7.51505 10.9361 5.36528 16.5302C3.21505 22.1258 3.19928 28.5427 5.82814 34.4533C8.4577 40.3651 13.2333 44.6512 18.8273 46.801C24.423 48.9512 30.8399 48.967 36.7505 46.3381C42.6623 43.7088 46.9484 38.9332 49.0982 33.3389C51.2484 27.7433 51.2642 21.3264 48.6353 15.4158ZM36.1697 1.67231C42.1246 3.96069 47.2059 8.51959 50.0019 14.8057C52.7983 21.093 52.7814 27.9197 50.494 33.8725C48.2056 39.8274 43.6467 44.9087 37.3606 47.7047C31.0733 50.5011 24.2466 50.4842 18.2938 48.1968C12.3393 45.9084 7.25777 41.3495 4.46156 35.0634C1.66513 28.7761 1.68205 21.9494 3.96949 15.9966C6.25787 10.0422 10.8168 4.96059 17.1029 2.16438C23.3902 -0.632054 30.2168 -0.615134 36.1697 1.67231Z" fill="white"/>
<path d="M15.7933 24.4063C15.7933 23.2731 15.9227 22.1914 16.1806 21.1619C16.4377 20.1358 16.8271 19.1611 17.3474 18.2389C18.3851 16.4004 19.7999 14.9624 21.5906 13.9264C22.4855 13.4086 23.4324 13.0192 24.4297 12.7596C25.4271 12.4997 26.4659 12.3695 27.5456 12.3695C28.8088 12.3695 30.0003 12.5243 31.1196 12.8337C32.2412 13.1436 33.2833 13.6097 34.2443 14.2316C35.2092 14.8558 36.0438 15.6109 36.7468 16.4952C37.4463 17.375 38.016 18.384 38.4548 19.5208C38.6036 19.9061 38.4119 20.3397 38.0267 20.4885C37.9379 20.5228 37.8466 20.5391 37.7569 20.5388V20.5414H34.311C33.9918 20.5414 33.719 20.3418 33.6106 20.0609C33.3394 19.4817 33.0103 18.9669 32.6239 18.5179C32.2322 18.0627 31.7823 17.6766 31.2754 17.3604C30.7631 17.041 30.2013 16.8014 29.5906 16.6424C28.9708 16.481 28.2886 16.4001 27.5456 16.4001C26.834 16.4001 26.1662 16.481 25.5444 16.6424C24.9206 16.8041 24.3328 17.0468 23.7826 17.3692C23.2354 17.69 22.7451 18.0799 22.3136 18.5376C21.8804 18.997 21.5056 19.5259 21.1901 20.1237C20.8726 20.7252 20.6338 21.3793 20.4751 22.0846C20.3151 22.7954 20.235 23.5696 20.235 24.4063C20.235 25.2322 20.3151 25.9984 20.4751 26.7042C20.6336 27.4037 20.8721 28.0555 21.1901 28.6574C21.5056 29.2552 21.8804 29.7841 22.3136 30.2435C22.7451 30.7013 23.2354 31.0911 23.7826 31.4119C24.3328 31.7343 24.9206 31.977 25.5444 32.1388C26.1662 32.3001 26.834 32.381 27.5456 32.381C29.0062 32.381 30.2509 32.0648 31.2784 31.4335C31.7902 31.1189 32.2401 30.7379 32.6267 30.2908C33.0191 29.8372 33.354 29.3092 33.6307 28.7082C33.7571 28.4344 34.028 28.2731 34.311 28.2729L37.7569 28.2713C38.1713 28.2713 38.5076 28.6076 38.5076 29.022C38.5076 29.136 38.4821 29.2441 38.4367 29.3407C38.001 30.4454 37.4363 31.43 36.7438 32.2929C36.0392 33.1709 35.2043 33.9193 34.2415 34.5368C33.2842 35.1503 32.2426 35.6115 31.1168 35.9198C29.9969 36.2265 28.8062 36.3799 27.5456 36.3799C26.4687 36.3799 25.431 36.2513 24.4327 35.994C23.431 35.7355 22.4837 35.3513 21.5934 34.8416C20.6999 34.3303 19.8975 33.716 19.1866 32.9996C18.4785 32.286 17.865 31.4729 17.3474 30.561C16.828 29.6464 16.4388 28.6743 16.1804 27.6466C15.9227 26.6198 15.7933 25.5393 15.7933 24.4063ZM17.6348 21.5253C17.4082 22.4295 17.2948 23.39 17.2948 24.4063C17.2948 25.4225 17.4084 26.3818 17.6346 27.2832C17.8608 28.1834 18.1992 29.0299 18.6491 29.8221C19.1006 30.6174 19.6342 31.3252 20.2482 31.9441C20.8596 32.5601 21.5566 33.0926 22.3384 33.5399C23.1225 33.9888 23.9446 34.3242 24.8022 34.5454C25.6635 34.7672 26.5783 34.8784 27.5456 34.8784C28.6875 34.8784 29.7472 34.7447 30.7237 34.4772C31.6949 34.2114 32.5982 33.8106 33.4321 33.2759C34.2598 32.7451 34.9753 32.1042 35.577 31.3547C35.9625 30.8744 36.3029 30.3471 36.5987 29.7728H34.7757C34.4851 30.3232 34.1458 30.8227 33.7587 31.2703C33.2659 31.8398 32.7006 32.3207 32.0641 32.712C30.7947 33.4921 29.2883 33.8825 27.5456 33.8825C26.7193 33.8825 25.9266 33.784 25.1689 33.5874C24.4128 33.3913 23.698 33.0958 23.0261 32.702C22.3513 32.3066 21.7501 31.8289 21.2228 31.2698C20.6971 30.7124 20.2442 30.0738 19.8648 29.3551C19.4872 28.6398 19.2038 27.8652 19.0149 27.0324C18.8273 26.2054 18.7335 25.3295 18.7335 24.4063C18.7335 23.4732 18.8273 22.5894 19.0149 21.7564C19.2035 20.9185 19.4872 20.1411 19.8648 19.426C20.2442 18.7073 20.6971 18.0687 21.2228 17.5113C21.7499 16.9525 22.3513 16.4745 23.0261 16.0791C23.698 15.6853 24.4128 15.3898 25.1689 15.1937C25.9266 14.9972 26.7193 14.8987 27.5456 14.8987C28.4036 14.8987 29.2109 14.9972 29.966 15.1937C30.73 15.3926 31.4309 15.6911 32.0671 16.0879C32.7087 16.4882 33.274 16.972 33.7615 17.5384C34.1462 17.9853 34.4846 18.4862 34.776 19.0399H36.6049C36.3076 18.4553 35.9638 17.9176 35.574 17.4274C34.9704 16.6683 34.2552 16.0207 33.4293 15.4865C32.5991 14.9492 31.6958 14.5457 30.721 14.2763C29.7438 14.0061 28.685 13.871 27.5456 13.871C26.5811 13.871 25.6674 13.9834 24.8052 14.2082C23.9432 14.4326 23.1213 14.7712 22.3411 15.2225C20.7813 16.125 19.5503 17.3753 18.6491 18.9718C18.2006 19.7665 17.862 20.6181 17.6348 21.5253Z" fill="white"/>
<path d="M15.829 47.4829C15.829 51.6464 12.4531 55.022 8.28987 55.022C4.12639 55.022 0.750732 51.6462 0.750732 47.4829C0.750732 43.3197 8.28987 32.7106 8.28987 32.7106C8.28987 32.7106 15.829 43.3185 15.829 47.4829Z" fill="#009DE0"/>
<path d="M16.5798 47.4829C16.5798 49.7715 15.6517 51.8443 14.1514 53.3444C12.6513 54.8447 10.5785 55.7728 8.28988 55.7728C6.00127 55.7728 3.92822 54.8445 2.42837 53.3444C0.928051 51.8443 0 49.7715 0 47.4829C0 43.079 7.65526 32.3105 7.67705 32.2794C7.91509 31.941 8.38259 31.8597 8.72099 32.0977C8.79725 32.1513 8.86029 32.2166 8.90966 32.2892C9.16717 32.6531 16.5798 43.1481 16.5798 47.4829ZM13.0898 52.2828C14.3183 51.0546 15.0783 49.3573 15.0783 47.4829C15.0783 44.2484 10.0635 36.6218 8.28988 34.0257C6.51652 36.6221 1.50148 44.2491 1.50148 47.4829C1.50148 49.3573 2.26149 51.0546 3.48993 52.2828C4.71813 53.5113 6.41547 54.2713 8.28988 54.2713C10.1643 54.2713 11.8616 53.5113 13.0898 52.2828Z" fill="white"/>
<path d="M401.356 15.8297C398.845 9.87085 394.154 5.4932 388.601 3.23334C383.047 0.97301 376.631 0.830696 370.672 3.34204C364.713 5.85385 360.335 10.5449 358.075 16.0976C355.815 21.6523 355.673 28.0677 358.184 34.0266C360.696 39.9859 365.386 44.3636 370.939 46.6234C376.494 48.8838 382.91 49.0261 388.869 46.5147C394.828 44.0031 399.205 39.3121 401.465 33.7591C403.726 28.2045 403.868 21.7888 401.356 15.8297ZM389.164 1.84358C395.069 4.24692 400.059 8.90409 402.733 15.2449L402.735 15.2496C405.408 21.5922 405.258 28.4168 402.855 34.3219C400.451 40.2286 395.792 45.2193 389.449 47.8929C383.106 50.566 376.282 50.4163 370.377 48.0132C364.471 45.6099 359.482 40.9527 356.808 34.6116L356.806 34.607C354.133 28.2645 354.282 21.44 356.685 15.5349C359.088 9.63096 363.744 4.6421 370.083 1.96781L370.092 1.96387C376.435 -0.709257 383.259 -0.559526 389.164 1.84358Z" fill="white"/>
<path d="M390.793 13.5629V35.4396C390.793 35.854 390.456 36.1903 390.042 36.1903H387.165C386.75 36.1903 386.414 35.854 386.414 35.4396V22.6489L380.577 35.7446C380.453 36.0227 380.18 36.1877 379.894 36.188L377.87 36.1903C377.543 36.1903 377.265 35.9805 377.162 35.6883L371.318 22.6098V35.4396C371.318 35.854 370.982 36.1903 370.568 36.1903H367.691C367.276 36.1903 366.94 35.854 366.94 35.4396V13.5629C366.94 13.1485 367.276 12.8122 367.691 12.8122H370.789C371.116 12.8122 371.394 13.0217 371.497 13.3137L378.882 29.8142L386.292 13.2579C386.416 12.9797 386.689 12.8147 386.975 12.8145L390.042 12.8122C390.456 12.8122 390.793 13.1485 390.793 13.5629ZM389.291 34.6888V14.3136H387.459L379.565 31.951C379.493 32.1135 379.362 32.2512 379.187 32.3293C378.81 32.4976 378.367 32.3284 378.199 31.951L370.305 14.3136H368.441V34.6888H369.817V19.0953C369.819 18.809 369.984 18.536 370.263 18.412C370.64 18.2437 371.083 18.4129 371.251 18.7903L378.355 34.6888H379.409L386.456 18.8788C386.559 18.5861 386.837 18.3761 387.165 18.3761C387.579 18.3761 387.916 18.7124 387.916 19.1268V34.6888H389.291Z" fill="white"/>
<path d="M406.249 47.4829C406.249 51.6464 402.873 55.022 398.71 55.022C394.547 55.022 391.171 51.6462 391.171 47.4829C391.171 43.3197 398.71 32.7106 398.71 32.7106C398.71 32.7106 406.249 43.3185 406.249 47.4829Z" fill="#C4007A"/>
<path d="M407 47.4829C407 49.7715 406.072 51.8443 404.572 53.3444C403.072 54.8445 400.999 55.7728 398.71 55.7728C396.422 55.7728 394.349 54.8447 392.849 53.3444C391.348 51.8443 390.42 49.7715 390.42 47.4829C390.42 43.079 398.076 32.3105 398.097 32.2794C398.335 31.941 398.803 31.8597 399.141 32.0977C399.217 32.1513 399.281 32.2166 399.33 32.2892C399.587 32.6531 407 43.1481 407 47.4829ZM403.51 52.2828C404.738 51.0546 405.499 49.3573 405.499 47.4829C405.499 44.2484 400.484 36.6218 398.71 34.0257C396.937 36.6221 391.922 44.2491 391.922 47.4829C391.922 49.3573 392.682 51.0546 393.91 52.2828C395.138 53.5113 396.836 54.2713 398.71 54.2713C400.585 54.2713 402.282 53.5113 403.51 52.2828Z" fill="white"/>
</g>
<defs>
<clipPath id="clip0_16_2723">
<rect width="407" height="55.7728" fill="white"/>
</clipPath>
</defs>
</svg>
