<svg width="355" height="340" viewBox="0 0 355 340" fill="none" xmlns="http://www.w3.org/2000/svg">
<g clip-path="url(#clip0_16_2641)">
<path d="M273.984 71.8386C273.693 71.5235 273.199 71.4593 272.84 71.6949C272.356 72.0129 272.271 72.6777 272.667 73.1068C273.5 73.988 274.325 74.875 275.135 75.7773C275.912 76.6202 277.27 75.5646 276.484 74.5436C275.663 73.6298 274.828 72.7313 273.985 71.8396L273.984 71.8386ZM281.262 80.1518C280.982 79.8041 280.475 79.7054 280.091 79.9429C279.615 80.2265 279.503 80.8797 279.852 81.3146C280.61 82.26 281.361 83.2102 282.094 84.1747C282.444 84.6383 283.123 84.6584 283.503 84.2197C283.785 83.8902 283.801 83.4046 283.539 83.0579C282.794 82.0799 282.034 81.1067 281.262 80.1518ZM308.113 195.163C308.341 194.241 307.103 193.593 306.49 194.422C306.412 194.538 306.373 194.625 306.34 194.76C306.083 195.935 305.82 197.155 305.511 198.315C305.249 199.379 306.718 199.941 307.211 198.944C307.236 198.884 307.257 198.837 307.272 198.774C307.565 197.573 307.849 196.373 308.113 195.165V195.163ZM305.297 205.908C305.572 204.98 304.462 204.298 303.772 204.996C303.677 205.108 303.608 205.209 303.564 205.354C303.205 206.518 302.835 207.677 302.447 208.834C302.053 209.971 303.768 210.583 304.167 209.43C304.559 208.261 304.933 207.088 305.297 205.909V205.908ZM301.62 216.378C302.006 215.449 300.779 214.626 300.079 215.444C300.017 215.522 299.975 215.592 299.936 215.686C299.489 216.812 299.027 217.945 298.543 219.055C298.08 220.168 299.686 220.908 300.205 219.799C300.695 218.669 301.165 217.523 301.62 216.378ZM297.101 226.511C297.624 225.393 296.033 224.614 295.481 225.674C294.937 226.763 294.386 227.845 293.815 228.92C293.322 229.82 294.503 230.772 295.269 229.996C295.328 229.933 295.372 229.874 295.414 229.795C295.991 228.707 296.55 227.612 297.101 226.51V226.511ZM291.772 236.226C291.934 235.958 291.955 235.606 291.81 235.329C291.493 234.686 290.592 234.651 290.225 235.26C289.596 236.302 288.956 237.331 288.301 238.355C287.683 239.378 289.097 240.345 289.804 239.39C290.485 238.366 291.136 237.281 291.773 236.226H291.772ZM204.458 298.409C204.68 298.366 204.861 298.245 205.001 298.067C205.506 297.385 204.926 296.446 204.101 296.605C202.92 296.848 201.739 297.076 200.552 297.29C200.064 297.384 199.739 297.83 199.809 298.332C199.884 298.835 200.364 299.2 200.865 299.103C202.066 298.886 203.261 298.656 204.457 298.41L204.458 298.409ZM193.626 300.191C194.814 300.019 194.609 298.248 193.409 298.364C192.217 298.513 191.018 298.64 189.822 298.752C188.691 298.861 188.726 300.588 189.937 300.588C191.143 300.508 192.424 300.34 193.626 300.191ZM182.682 301.072C183.786 301.019 183.866 299.406 182.773 299.241C182.72 299.236 182.672 299.23 182.617 299.233C181.415 299.28 180.213 299.31 179.01 299.325C178.778 299.325 178.577 299.411 178.404 299.565C177.79 300.141 178.189 301.166 179.021 301.166C180.242 301.153 181.463 301.12 182.682 301.073V301.072ZM171.704 301.047C172.86 301.103 173.034 299.331 171.79 299.209C170.585 299.155 169.385 299.087 168.183 299.002C166.98 298.944 166.856 300.723 168.052 300.838C169.269 300.923 170.484 300.992 171.703 301.047H171.704ZM160.768 300.117C161.743 300.258 162.229 298.858 161.269 298.371C161.173 298.328 161.099 298.306 160.996 298.292C159.804 298.145 158.608 297.973 157.422 297.788C156.337 297.631 155.943 299.178 156.984 299.566C157.036 299.584 157.087 299.598 157.14 299.606C158.345 299.793 159.558 299.969 160.768 300.117H160.768ZM68.9637 244.97C69.0877 245.148 69.2892 245.286 69.5011 245.331C70.3166 245.515 70.9239 244.591 70.4414 243.898C69.7404 242.906 69.0442 241.914 68.3649 240.905C67.7301 239.995 66.3508 240.759 66.7841 241.801C66.8077 241.849 66.8295 241.895 66.8607 241.938C67.5494 242.958 68.2504 243.966 68.9637 244.968V244.97ZM62.9025 235.704C63.314 236.386 64.3131 236.263 64.5515 235.497C64.6271 235.257 64.5921 234.974 64.4616 234.758C63.8391 233.713 63.2327 232.662 62.6348 231.602C62.1334 230.689 60.6879 231.22 60.9726 232.316C60.9944 232.385 61.0171 232.443 61.053 232.509C61.6613 233.58 62.2715 234.646 62.9016 235.704H62.9025ZM57.618 225.964C58.0371 226.858 59.44 226.504 59.336 225.451C59.3171 225.332 59.2991 225.26 59.248 225.149C58.7126 224.06 58.1903 222.96 57.688 221.855C57.4827 221.417 56.9974 221.206 56.549 221.374C56.0561 221.548 55.8139 222.147 56.0353 222.62C56.5442 223.741 57.0759 224.859 57.6199 225.964H57.618ZM53.1433 215.811C53.4592 216.57 54.4724 216.596 54.8177 215.855C54.9161 215.629 54.9275 215.372 54.8357 215.14C54.393 214.005 53.9635 212.868 53.5472 211.722C53.2142 210.759 51.7318 210.999 51.7867 212.107C51.7952 212.197 51.8094 212.266 51.8387 212.351C52.2597 213.511 52.6948 214.661 53.1423 215.811H53.1433ZM49.5133 205.324C49.8085 206.318 51.2919 206.131 51.2919 205.037C51.2872 204.948 51.2777 204.876 51.2531 204.791C50.9021 203.628 50.5663 202.457 50.2475 201.284C49.8984 200.107 48.2031 200.592 48.4926 201.764C48.8142 202.955 49.1567 204.144 49.5133 205.325V205.324ZM46.7453 194.566C46.838 195.038 47.2977 195.357 47.766 195.286C48.2892 195.21 48.6269 194.706 48.5238 194.184C48.2703 192.991 48.0319 191.798 47.8048 190.599C47.6147 189.589 46.1653 189.604 46.0111 190.645C46.0007 190.748 45.9998 190.836 46.0187 190.938C46.2476 192.152 46.4889 193.359 46.7462 194.566H46.7453ZM70.344 87.6354L71.0677 86.6258C71.2683 86.3375 71.3042 86.0099 71.1633 85.6891C70.8672 85.0521 70.029 84.9716 69.6099 85.5262C69.3242 85.9151 69.0404 86.3097 68.7584 86.7053C69.2948 86.9908 69.8237 87.3011 70.3431 87.6344L70.344 87.6354ZM74.1054 79.6834C73.4186 80.5397 74.5273 81.6853 75.3939 80.9717C75.4336 80.9362 75.4743 80.897 75.5074 80.8548C76.2699 79.9161 77.0485 78.9841 77.8375 78.0675C78.5499 77.2428 77.4856 76.0589 76.5992 76.7313C76.5528 76.7686 76.5131 76.806 76.4733 76.851C75.6683 77.7734 74.8774 78.7303 74.1054 79.6815V79.6834ZM81.4239 71.399C80.704 72.1279 81.5866 73.3989 82.5658 72.8166C82.6263 72.7763 82.6755 72.7352 82.7257 72.6844C83.5657 71.807 84.4143 70.9497 85.2752 70.0934C85.5514 69.8147 85.6262 69.4143 85.4672 69.0522C85.2147 68.4775 84.4455 68.331 84.0056 68.7754C83.1343 69.6404 82.2725 70.512 81.4239 71.399ZM89.3791 63.74C88.5891 64.4393 89.4122 65.7486 90.4065 65.2448C90.4689 65.2074 90.5191 65.1758 90.5711 65.1289C91.4783 64.3253 92.395 63.5389 93.3193 62.7554C94.1348 62.0839 93.3212 60.7228 92.3146 61.2324C92.2579 61.265 92.2115 61.2956 92.1614 61.3358C91.2238 62.1261 90.2967 62.9259 89.3781 63.74H89.3791ZM97.9217 56.7602C97.7051 56.9144 97.567 57.1826 97.5528 57.4508C97.5121 58.2276 98.3654 58.696 98.9983 58.2439C99.968 57.5188 100.942 56.8062 101.929 56.106C102.313 55.8311 102.431 55.3186 102.202 54.8991C101.944 54.4298 101.327 54.2832 100.89 54.5955C99.8914 55.3052 98.9037 56.0255 97.9227 56.7602H97.9217ZM107.001 50.5141C106.721 50.6875 106.552 51.0093 106.569 51.3426C106.604 52.0409 107.365 52.4451 107.954 52.0802C108.979 51.4375 110.009 50.811 111.049 50.1942C112.075 49.5591 111.184 48.0132 110.134 48.6032C109.083 49.2315 108.039 49.8618 107.001 50.5131V50.5141ZM116.557 45.0477C115.509 45.6061 116.279 47.2162 117.383 46.6875C118.452 46.132 119.532 45.5917 120.616 45.0687C121.601 44.5965 121.071 43.0601 119.981 43.3513C119.933 43.3657 119.888 43.382 119.84 43.405C118.739 43.9337 117.641 44.4845 116.557 45.0486V45.0477ZM233.272 42.517C232.342 42.0707 231.489 43.3408 232.304 44.0563C232.371 44.1099 232.428 44.1492 232.507 44.1866C233.602 44.6961 234.688 45.2182 235.77 45.7555C236.625 46.1655 237.45 45.1875 236.912 44.3954C236.833 44.2804 236.703 44.1674 236.575 44.1061C235.479 43.562 234.38 43.0333 233.271 42.517H233.272ZM243.052 47.5611C242.089 47.0189 241.162 48.3599 242.05 49.0917C242.086 49.1176 242.119 49.1405 242.157 49.1626C243.207 49.7603 244.238 50.38 245.276 50.9959C246.217 51.5773 247.218 50.2334 246.297 49.4767C245.824 49.152 245.266 48.8513 244.769 48.5553C244.199 48.221 243.628 47.8886 243.053 47.5611H243.052ZM252.388 53.4049C251.596 52.8388 250.547 53.8302 251.136 54.6989C251.209 54.7966 251.269 54.857 251.367 54.9278C252.364 55.6079 253.347 56.31 254.325 57.0159C254.876 57.4096 255.65 57.0974 255.756 56.4183C255.807 56.0744 255.672 55.7257 255.392 55.5255C254.403 54.8043 253.398 54.0945 252.387 53.4039L252.388 53.4049ZM261.217 60.0083C260.389 59.3272 259.246 60.4374 259.953 61.3195C259.992 61.3646 260.032 61.4038 260.077 61.4412C261.013 62.1998 261.946 62.9795 262.857 63.7678C263.644 64.4651 264.85 63.4287 264.154 62.4891C264.119 62.446 264.082 62.4077 264.041 62.3722C263.114 61.5705 262.169 60.7803 261.217 60.0083ZM269.484 67.3205C268.677 66.558 267.459 67.6318 268.146 68.559C268.172 68.5925 268.2 68.6241 268.232 68.6538C269.107 69.4919 269.965 70.3453 270.82 71.2045C271.58 71.9737 272.82 70.9833 272.218 70.0427C272.182 69.99 272.149 69.9478 272.105 69.9028C271.236 69.035 270.371 68.1681 269.483 67.3195L269.484 67.3205Z" fill="white"/>
<path d="M212.246 187.458H205.56C205.598 186.846 205.589 186.23 205.535 185.617H212.245L212.248 185.621C217.577 185.62 221.9 181.24 221.9 175.844V148.832C221.9 143.433 217.578 139.056 212.245 139.056H142.753C137.42 139.056 133.098 143.433 133.098 148.832V175.842C133.098 181.242 137.42 185.618 142.753 185.618H149.09C149.068 186.249 149.093 186.859 149.166 187.459H142.753C136.417 187.459 131.281 182.258 131.281 175.843V148.833C131.281 142.417 136.417 137.217 142.753 137.217H212.245C218.581 137.217 223.717 142.417 223.717 148.833V175.843C223.717 182.262 218.586 187.454 212.247 187.455L212.245 187.459L212.246 187.458Z" fill="white"/>
<path d="M143.907 166.449C143.406 166.449 142.998 166.036 142.998 165.528C142.998 165.021 143.405 164.608 143.907 164.608H211.092C211.593 164.608 212.001 165.021 212.001 165.528C212.001 166.036 211.594 166.449 211.092 166.449H143.907Z" fill="white"/>
<path d="M150.645 207.057H204.354V166.449H150.645V207.057ZM205.263 208.898H149.737C149.235 208.898 148.828 208.485 148.828 207.977V165.529C148.828 165.022 149.235 164.609 149.737 164.609H205.263C205.764 164.609 206.172 165.022 206.172 165.529V207.977C206.172 208.485 205.764 208.898 205.263 208.898Z" fill="white"/>
<path d="M159.618 176.028C159.117 176.028 158.709 175.616 158.709 175.108C158.709 174.6 159.116 174.187 159.618 174.187H195.382C195.883 174.187 196.291 174.6 196.291 175.108C196.291 175.615 195.884 176.028 195.382 176.028H159.618Z" fill="white"/>
<path d="M159.618 183.059C159.117 183.059 158.709 182.647 158.709 182.138C158.709 181.631 159.116 181.218 159.618 181.218H195.382C195.883 181.218 196.291 181.631 196.291 182.138C196.291 182.646 195.884 183.059 195.382 183.059H159.618Z" fill="white"/>
<path d="M172.408 190.09C171.907 190.09 171.499 189.678 171.499 189.17C171.499 188.662 171.907 188.249 172.408 188.249H182.591C183.093 188.249 183.501 188.661 183.501 189.17C183.501 189.678 183.093 190.09 182.591 190.09H172.408Z" fill="white"/>
<path d="M194.423 122.688H150.645V137.216H204.354V132.743L194.423 122.689V122.688ZM149.737 120.847H194.8C195.033 120.847 195.265 120.937 195.442 121.117L205.905 131.711C206.07 131.877 206.172 132.107 206.172 132.361V138.136C206.172 138.644 205.764 139.056 205.263 139.056H149.737C149.235 139.056 148.828 138.645 148.828 138.136V121.767C148.828 121.26 149.235 120.847 149.737 120.847Z" fill="white"/>
<path d="M193.891 121.767C193.891 121.26 194.298 120.847 194.8 120.847C195.301 120.847 195.709 121.26 195.709 121.767V131.519H205.263C205.764 131.519 206.172 131.932 206.172 132.44C206.172 132.947 205.764 133.36 205.263 133.36H194.8C194.299 133.36 193.891 132.948 193.891 132.44V121.767Z" fill="white"/>
<path d="M203.245 149.182C203.245 150.08 202.885 150.894 202.304 151.483C201.722 152.073 200.918 152.437 200.031 152.437C199.143 152.437 198.339 152.073 197.757 151.483C197.175 150.894 196.816 150.08 196.816 149.182C196.816 148.283 197.176 147.469 197.757 146.88C198.339 146.291 199.143 145.927 200.031 145.927V145.931C200.919 145.932 201.721 146.295 202.301 146.881H202.305C202.886 147.469 203.246 148.284 203.246 149.182H203.245ZM201.018 150.182C201.271 149.926 201.428 149.572 201.428 149.182C201.428 148.791 201.272 148.438 201.019 148.182C200.767 147.923 200.416 147.763 200.031 147.763V147.767C199.646 147.767 199.296 147.925 199.043 148.181C198.79 148.437 198.633 148.791 198.633 149.181C198.633 149.571 198.789 149.925 199.043 150.181C199.296 150.437 199.646 150.596 200.031 150.596C200.417 150.596 200.766 150.438 201.018 150.181V150.182Z" fill="white"/>
<path d="M212.001 149.182C212.001 150.08 211.641 150.894 211.059 151.483C210.478 152.073 209.673 152.437 208.786 152.437C207.899 152.437 207.095 152.073 206.513 151.483C205.931 150.894 205.571 150.08 205.571 149.182C205.571 148.283 205.931 147.469 206.513 146.88C207.095 146.291 207.898 145.927 208.786 145.927V145.931C209.676 145.932 210.48 146.295 211.059 146.881L211.114 146.941C211.664 147.527 212.001 148.316 212.001 149.182ZM209.774 150.182C210.026 149.926 210.183 149.572 210.183 149.182C210.183 148.808 210.042 148.469 209.814 148.219L209.775 148.182C209.519 147.923 209.169 147.763 208.787 147.763V147.767C208.401 147.767 208.052 147.925 207.799 148.181C207.547 148.437 207.39 148.791 207.39 149.181C207.39 149.571 207.547 149.925 207.799 150.181C208.052 150.437 208.402 150.596 208.787 150.596C209.172 150.596 209.522 150.438 209.775 150.181L209.774 150.182Z" fill="white"/>
<path d="M143.907 150.102C143.406 150.102 142.998 149.69 142.998 149.182C142.998 148.674 143.405 148.261 143.907 148.261H149.736C150.237 148.261 150.645 148.674 150.645 149.182C150.645 149.689 150.238 150.102 149.736 150.102H143.907Z" fill="white"/>
<path d="M235.155 209.063L224.605 205.799L227.828 216.482L228.978 212.834C229.129 212.353 229.638 212.085 230.114 212.238C230.258 212.284 230.381 212.362 230.48 212.464L230.483 212.461L238.791 220.873L239.49 220.166L231.181 211.754C230.827 211.395 230.827 210.811 231.181 210.452C231.309 210.323 231.465 210.241 231.629 210.204L235.154 209.065L235.155 209.063ZM223.504 203.541L238.453 208.167C238.728 208.252 238.959 208.469 239.052 208.767C239.203 209.249 238.94 209.765 238.463 209.918L233.519 211.516L241.418 219.514C241.773 219.874 241.773 220.456 241.418 220.815L239.435 222.824C239.08 223.183 238.504 223.183 238.15 222.824L230.251 214.826L228.676 219.816C228.592 220.101 228.374 220.339 228.072 220.432C227.593 220.579 227.088 220.305 226.943 219.821L222.376 204.685C222.326 204.517 222.322 204.334 222.376 204.153C222.521 203.67 223.027 203.396 223.504 203.542V203.541Z" fill="white"/>
<path d="M304.747 289.287C304.747 276.052 299.448 264.07 290.883 255.396C282.316 246.723 270.482 241.359 257.41 241.359C244.339 241.359 232.504 246.724 223.939 255.396C215.372 264.07 210.074 276.051 210.074 289.287C210.074 302.521 215.372 314.504 223.939 323.176C232.504 331.85 244.339 337.214 257.41 337.214C270.481 337.214 282.316 331.849 290.883 323.176C299.449 314.503 304.747 302.521 304.747 289.287ZM292.167 254.096C301.063 263.101 306.565 275.545 306.565 289.287C306.565 303.03 301.063 315.472 292.167 324.478C283.273 333.484 270.984 339.055 257.41 339.055C243.837 339.055 231.548 333.484 222.653 324.478C213.757 315.472 208.255 303.03 208.255 289.287C208.255 275.545 213.757 263.101 222.653 254.096C231.548 245.09 243.837 239.519 257.41 239.519C270.984 239.519 283.273 245.09 292.167 254.096Z" fill="white"/>
<path d="M269.359 286.162C266.059 282.82 261.732 281.149 257.405 281.149C253.079 281.149 248.752 282.82 245.451 286.162C242.151 289.504 240.5 293.885 240.5 298.266C240.5 302.647 242.151 307.027 245.451 310.369C248.752 313.711 253.079 315.382 257.405 315.382C261.732 315.382 266.059 313.711 269.359 310.369C272.66 307.027 274.311 302.646 274.311 298.266C274.311 293.885 272.66 289.504 269.359 286.162ZM257.405 279.308C262.197 279.308 266.989 281.159 270.645 284.861C274.301 288.562 276.129 293.414 276.129 298.266C276.129 303.117 274.302 307.969 270.645 311.671C266.99 315.372 262.197 317.223 257.405 317.223C252.614 317.223 247.822 315.373 244.166 311.671C240.509 307.97 238.682 303.117 238.682 298.266C238.682 293.414 240.51 288.563 244.166 284.861C247.821 281.159 252.614 279.308 257.405 279.308Z" fill="white"/>
<path d="M281.692 268.203C278.391 264.861 274.064 263.189 269.738 263.189C265.412 263.189 261.085 264.861 257.784 268.203C254.483 271.545 252.832 275.926 252.832 280.306C252.832 284.686 254.483 289.067 257.784 292.409C261.085 295.751 265.412 297.423 269.738 297.423C274.064 297.423 278.391 295.751 281.692 292.409C284.993 289.067 286.644 284.686 286.644 280.306C286.644 275.926 284.993 271.545 281.692 268.203ZM269.738 261.349C274.53 261.349 279.321 263.2 282.978 266.902C286.633 270.603 288.462 275.456 288.462 280.307C288.462 285.158 286.633 290.01 282.978 293.712C279.322 297.413 274.53 299.265 269.738 299.265C264.946 299.265 260.155 297.414 256.498 293.712C252.843 290.011 251.014 285.158 251.014 280.307C251.014 275.456 252.842 270.604 256.498 266.902C260.154 263.201 264.946 261.349 269.738 261.349Z" fill="white"/>
<path d="M261.537 276.408C260.471 271.804 257.664 268.074 253.988 265.767C250.312 263.459 245.763 262.571 241.214 263.65L241.208 263.652C236.664 264.732 232.983 267.573 230.705 271.293C228.425 275.016 227.548 279.621 228.614 284.226L228.616 284.232C229.683 288.833 232.489 292.561 236.162 294.866C239.839 297.175 244.388 298.063 248.937 296.983C253.483 295.904 257.167 293.062 259.445 289.341C261.725 285.618 262.602 281.013 261.536 276.408H261.537ZM254.94 264.208C259.015 266.765 262.124 270.895 263.305 275.991C264.485 281.084 263.512 286.181 260.987 290.305C258.461 294.43 254.382 297.579 249.349 298.773C244.318 299.968 239.284 298.983 235.212 296.427C231.153 293.879 228.051 289.77 226.861 284.702L226.835 284.589C225.675 279.514 226.648 274.438 229.165 270.33C231.681 266.221 235.74 263.08 240.745 261.875L240.857 261.848C245.869 260.674 250.882 261.661 254.939 264.208H254.94Z" fill="white"/>
<path d="M144.925 289.287C144.925 276.052 139.627 264.07 131.06 255.396C122.495 246.723 110.66 241.359 97.5887 241.359C84.5174 241.359 72.6826 246.724 64.1163 255.396C55.5499 264.07 50.2522 276.051 50.2522 289.287C50.2522 302.521 55.5509 314.504 64.1163 323.176C72.6826 331.85 84.5165 337.214 97.5887 337.214C110.66 337.214 122.495 331.849 131.06 323.176C139.627 314.503 144.925 302.521 144.925 289.287ZM132.346 254.096C141.241 263.101 146.744 275.545 146.744 289.287C146.744 303.03 141.241 315.472 132.346 324.478C123.451 333.484 111.161 339.055 97.5887 339.055C84.0151 339.055 71.7261 333.484 62.8315 324.478C53.936 315.472 48.4339 303.03 48.4339 289.287C48.4339 275.545 53.936 263.101 62.8315 254.096C71.7261 245.09 84.0151 239.519 97.5887 239.519C111.161 239.519 123.451 245.09 132.346 254.096Z" fill="white"/>
<path d="M95.2161 275.802C95.2161 274.958 95.287 274.124 95.4232 273.305C95.5131 272.761 95.6342 272.225 95.7827 271.696L92.1698 270.157C91.7091 269.96 91.4934 269.423 91.6864 268.957L91.7375 268.853L94.8689 263.36C95.1196 262.921 95.6749 262.772 96.1082 263.026C96.1602 263.056 96.2084 263.091 96.252 263.13L99.284 265.46C100.222 264.455 101.292 263.58 102.467 262.867C103.629 262.163 104.894 261.614 106.233 261.25L105.766 257.502C105.704 257 106.055 256.541 106.55 256.477C106.594 256.471 106.637 256.468 106.681 256.469H112.928C113.427 256.469 113.833 256.88 113.833 257.386L113.826 257.501L113.378 261.101C114.765 261.416 116.077 261.927 117.284 262.601C118.528 263.297 119.666 264.17 120.663 265.186L123.392 263.09C123.79 262.784 124.358 262.863 124.659 263.266L124.722 263.361L127.856 268.852C128.107 269.291 127.959 269.853 127.526 270.107C127.477 270.136 127.426 270.16 127.374 270.178L124.363 271.46C124.53 272.021 124.666 272.593 124.766 273.174C124.916 274.029 124.993 274.909 124.993 275.802C124.993 276.675 124.918 277.535 124.774 278.376C124.676 278.946 124.548 279.504 124.391 280.047L127.422 281.338C127.883 281.534 128.099 282.071 127.905 282.538L127.854 282.641L124.723 288.134C124.472 288.573 123.917 288.723 123.483 288.469C123.431 288.438 123.383 288.404 123.34 288.365L120.722 286.355C119.724 287.384 118.582 288.269 117.33 288.975C116.111 289.661 114.788 290.18 113.389 290.498L113.824 293.995C113.887 294.497 113.536 294.955 113.04 295.019C112.997 295.025 112.953 295.027 112.911 295.027L106.664 295.028C106.164 295.028 105.759 294.617 105.759 294.111L105.766 293.997L106.22 290.352C104.867 289.982 103.591 289.426 102.422 288.711C101.242 287.99 100.166 287.103 99.2244 286.083L96.2009 288.407C95.8026 288.712 95.235 288.634 94.9332 288.23L94.8708 288.135L91.7366 282.644C91.4859 282.205 91.6334 281.643 92.0667 281.389C92.1159 281.361 92.167 281.337 92.2181 281.318L95.7553 279.812C95.6153 279.3 95.5008 278.778 95.4147 278.247C95.2842 277.441 95.2151 276.625 95.2151 275.803L95.2161 275.802ZM97.2131 273.607C97.0958 274.313 97.0343 275.046 97.0343 275.802C97.0343 276.544 97.093 277.262 97.2046 277.951C97.321 278.67 97.496 279.369 97.7211 280.043C97.8697 280.493 97.653 280.991 97.2131 281.179L93.8197 282.624L95.9256 286.316L98.7817 284.122C99.1657 283.811 99.7267 283.867 100.042 284.251C100.974 285.385 102.096 286.363 103.358 287.135C104.591 287.889 105.954 288.443 107.404 288.75C107.862 288.847 108.177 289.286 108.117 289.764L107.689 293.193L111.899 293.192L111.49 289.908C111.409 289.408 111.745 288.936 112.239 288.855C113.745 288.605 115.164 288.094 116.448 287.37C117.767 286.627 118.945 285.659 119.933 284.519C120.243 284.16 120.781 284.1 121.162 284.393L123.664 286.316L125.77 282.623L122.962 281.43C122.49 281.259 122.243 280.732 122.412 280.254C122.661 279.546 122.854 278.815 122.982 278.066C123.107 277.335 123.172 276.577 123.172 275.8C123.172 275.009 123.104 274.236 122.974 273.488C122.839 272.713 122.64 271.966 122.383 271.254C122.221 270.798 122.438 270.287 122.884 270.097L125.769 268.868L123.663 265.176L121.134 267.118C120.76 267.432 120.205 267.39 119.88 267.019C118.895 265.896 117.721 264.942 116.408 264.208C115.127 263.492 113.718 262.987 112.225 262.74C111.746 262.661 111.411 262.21 111.473 261.719L111.899 258.298H107.69L108.125 261.785C108.21 262.273 107.898 262.743 107.417 262.845C105.975 263.149 104.621 263.694 103.397 264.436C102.145 265.196 101.028 266.162 100.095 267.286C99.7873 267.658 99.2414 267.722 98.8554 267.426L95.9246 265.174L93.8188 268.866L97.2434 270.325C97.6786 270.511 97.9037 271.01 97.7476 271.468C97.5149 272.149 97.3342 272.862 97.2112 273.602L97.2131 273.607ZM110.103 284.149C112.375 284.149 114.437 283.212 115.929 281.701C117.421 280.19 118.347 278.103 118.347 275.802C118.347 273.501 117.422 271.414 115.929 269.903C114.438 268.391 112.376 267.456 110.103 267.456C107.83 267.456 105.769 268.391 104.277 269.903C102.784 271.413 101.86 273.501 101.86 275.802C101.86 278.103 102.784 280.19 104.277 281.701C105.769 283.212 107.83 284.148 110.103 284.148V284.149ZM117.214 283.002C115.392 284.846 112.877 285.989 110.103 285.989C107.328 285.989 104.813 284.846 102.991 283.002C101.17 281.159 100.042 278.612 100.042 275.802C100.042 272.994 101.17 270.446 102.991 268.602C104.813 266.758 107.329 265.616 110.103 265.616C112.877 265.616 115.393 266.758 117.214 268.602C119.035 270.446 120.164 272.994 120.164 275.802C120.164 278.611 119.035 281.158 117.214 283.002Z" fill="white"/>
<path d="M113.408 275.749C113.408 274.738 113.003 273.823 112.35 273.161C111.696 272.5 110.792 272.09 109.794 272.09C108.796 272.09 107.893 272.5 107.239 273.161C106.585 273.823 106.181 274.738 106.181 275.749C106.181 276.759 106.585 277.674 107.239 278.336C107.893 278.998 108.796 279.408 109.794 279.408C110.792 279.408 111.696 278.998 112.35 278.336C113.003 277.674 113.408 276.759 113.408 275.749ZM113.635 271.861C114.618 272.856 115.227 274.23 115.227 275.749C115.227 277.267 114.618 278.642 113.635 279.636C112.652 280.632 111.295 281.248 109.795 281.248C108.296 281.248 106.937 280.632 105.955 279.636C104.972 278.641 104.364 277.267 104.364 275.749C104.364 274.23 104.972 272.855 105.955 271.861C106.938 270.866 108.296 270.25 109.795 270.25C111.295 270.25 112.653 270.866 113.635 271.861Z" fill="white"/>
<path d="M70.8047 302.879C70.8047 302.036 70.8757 301.2 71.0119 300.382C71.1018 299.837 71.2229 299.3 71.3714 298.772L67.7585 297.234C67.2978 297.038 67.0821 296.499 67.276 296.034L67.3271 295.93L70.4585 290.437C70.7092 289.998 71.2645 289.848 71.6978 290.103C71.7498 290.134 71.7981 290.168 71.8416 290.207L74.8745 292.538C75.8121 291.532 76.883 290.657 78.0589 289.945C79.2206 289.24 80.4845 288.691 81.8231 288.327L81.3567 284.577C81.2943 284.075 81.6453 283.616 82.142 283.552L82.2555 283.545V283.541H88.5191C89.0205 283.541 89.4283 283.954 89.4283 284.461C89.4283 284.528 89.4207 284.593 89.4075 284.658L88.9685 288.177C90.3554 288.492 91.6675 289.002 92.8756 289.677C94.1196 290.372 95.2568 291.246 96.2539 292.263L98.9823 290.166C99.3805 289.861 99.9481 289.939 100.25 290.342L100.312 290.437L103.447 295.929C103.697 296.367 103.55 296.929 103.116 297.183C103.067 297.212 103.016 297.236 102.964 297.254L99.9538 298.536C100.12 299.097 100.256 299.669 100.357 300.249C100.505 301.105 100.584 301.983 100.584 302.878C100.584 303.75 100.509 304.611 100.365 305.451C100.268 306.022 100.139 306.581 99.9822 307.125L103.014 308.415C103.475 308.611 103.691 309.149 103.497 309.615L103.446 309.719L100.314 315.212C100.064 315.651 99.5082 315.8 99.075 315.546C99.0229 315.515 98.9747 315.481 98.9321 315.442L96.3154 313.431C95.3183 314.46 94.1764 315.345 92.9239 316.051C91.7054 316.738 90.3809 317.257 88.9827 317.576L89.4188 321.072C89.4813 321.574 89.1303 322.033 88.6336 322.097L88.5201 322.105V322.108H82.2564C81.755 322.108 81.3473 321.696 81.3473 321.188C81.3473 321.121 81.3549 321.056 81.3681 320.991L81.8127 317.427C80.459 317.058 79.1828 316.501 78.0144 315.787C76.8338 315.065 75.7581 314.178 74.8187 313.158L71.7952 315.482C71.3969 315.788 70.8293 315.709 70.5275 315.306L70.4651 315.211L67.3309 309.72C67.0802 309.281 67.2278 308.719 67.6611 308.465C67.7103 308.436 67.7613 308.412 67.8124 308.394L71.3487 306.888C71.2096 306.379 71.0951 305.857 71.0091 305.324C70.8776 304.519 70.8094 303.702 70.8094 302.88L70.8047 302.879ZM72.8018 300.683C72.6845 301.389 72.623 302.123 72.623 302.879C72.623 303.621 72.6816 304.338 72.7942 305.028C72.9096 305.742 73.0847 306.44 73.3108 307.115C73.4602 307.567 73.2436 308.066 72.8027 308.254L69.4093 309.699L71.5152 313.392L74.3713 311.198C74.7553 310.886 75.3163 310.943 75.6314 311.327C76.5632 312.462 77.6843 313.439 78.9463 314.211C80.1789 314.964 81.5431 315.518 82.9915 315.826C83.4494 315.923 83.7644 316.361 83.7048 316.839L83.2772 320.264H87.4861L87.0774 316.985C86.997 316.485 87.3328 316.013 87.8267 315.931C89.3327 315.681 90.7527 315.171 92.0365 314.447C93.3543 313.703 94.5331 312.736 95.5207 311.595C95.831 311.237 96.3674 311.176 96.7487 311.47L99.2509 313.392L101.357 309.699L98.549 308.506C98.0769 308.335 97.83 307.809 97.9984 307.331C98.2481 306.622 98.4411 305.889 98.5688 305.14C98.6937 304.409 98.759 303.653 98.759 302.876C98.759 302.085 98.6909 301.313 98.5603 300.564C98.426 299.79 98.2264 299.043 97.97 298.332C97.8073 297.876 98.0249 297.364 98.4704 297.175L101.356 295.946L99.25 292.253L96.7212 294.196C96.3466 294.509 95.7913 294.468 95.4668 294.096C94.482 292.974 93.308 292.02 91.9949 291.285C90.7139 290.569 89.3044 290.065 87.8115 289.817C87.3328 289.738 86.9979 289.288 87.0594 288.796L87.4851 285.378H83.2762L83.7105 288.863C83.7966 289.35 83.4834 289.821 83.0028 289.923C81.5611 290.227 80.2064 290.772 78.9841 291.515C77.7306 292.275 76.6143 293.241 75.6806 294.364C75.3731 294.736 74.8272 294.8 74.4413 294.504L71.5105 292.252L69.4046 295.945L72.8292 297.404C73.2644 297.589 73.4896 298.088 73.3335 298.546C73.1007 299.226 72.92 299.94 72.7971 300.68L72.8018 300.683ZM85.6915 311.225C87.9648 311.225 90.0262 310.289 91.519 308.778C93.0109 307.267 93.9361 305.18 93.9361 302.88C93.9361 300.579 93.0119 298.492 91.519 296.981C90.0271 295.47 87.9657 294.534 85.6924 294.534C83.42 294.534 81.3586 295.47 79.8667 296.981C78.3739 298.492 77.4496 300.579 77.4496 302.88C77.4496 305.181 78.3739 307.267 79.8667 308.778C81.3615 310.291 83.4219 311.229 85.6915 311.23L85.6924 311.226L85.6915 311.225ZM92.8037 310.079C90.9817 311.924 88.4662 313.066 85.6924 313.066L85.6905 313.062C82.9149 313.061 80.3994 311.92 78.5811 310.079C76.76 308.235 75.6314 305.688 75.6314 302.882C75.6314 300.071 76.76 297.523 78.5811 295.679C80.4022 293.836 82.9186 292.693 85.6924 292.693C88.4662 292.693 90.9826 293.836 92.8037 295.679C94.6248 297.523 95.7534 300.071 95.7534 302.88C95.7534 305.689 94.6248 308.236 92.8037 310.08V310.079Z" fill="white"/>
<path d="M81.7701 302.824C81.7701 303.836 82.1741 304.751 82.8268 305.413C83.4824 306.073 84.3859 306.483 85.384 306.483C86.383 306.483 87.2874 306.074 87.9411 305.413C88.5929 304.749 88.9978 303.835 88.9978 302.824C88.9978 301.814 88.5929 300.899 87.9392 300.237C87.2855 299.575 86.382 299.165 85.384 299.165C84.3859 299.165 83.4824 299.575 82.8287 300.237L82.7852 300.278C82.157 300.936 81.7701 301.834 81.7701 302.824ZM81.5431 306.709C80.5601 305.714 79.9518 304.34 79.9518 302.824C79.9518 301.335 80.5393 299.982 81.492 298.992L81.5431 298.935C82.526 297.94 83.8835 297.324 85.383 297.324C86.8825 297.324 88.241 297.94 89.2229 298.935C90.2059 299.93 90.8142 301.305 90.8142 302.823C90.8142 304.341 90.2059 305.717 89.2229 306.711H89.2192C88.2362 307.706 86.8796 308.322 85.383 308.322C83.8835 308.322 82.525 307.706 81.5431 306.711V306.707V306.709Z" fill="white"/>
<path d="M226.011 41.7268C226.024 41.7756 226.032 41.8264 226.036 41.8781C228.185 55.4153 224.723 68.5589 217.382 78.872C210.041 89.1861 198.82 96.6688 185.456 98.8853C185.408 98.8977 185.359 98.9054 185.308 98.9092C171.936 101.085 158.955 97.5797 148.769 90.1468C138.563 82.6996 131.164 71.3108 128.989 57.7467C126.815 44.1827 130.277 31.0094 137.632 20.6762C144.974 10.3621 156.195 2.87943 169.559 0.662015C169.607 0.649563 169.657 0.6419 169.707 0.638069C183.079 -1.53816 196.06 1.96756 206.246 9.40044C216.433 16.8343 223.823 28.1943 226.012 41.7249L226.011 41.7268ZM224.233 42.0879C222.137 29.0267 215.012 18.0603 205.186 10.8908C195.358 3.71946 182.827 0.343053 169.923 2.46276L169.918 2.46372C157.016 4.58439 146.183 11.7998 139.101 21.749C132.018 31.7 128.684 44.3886 130.777 57.4527C132.872 70.5187 139.997 81.4879 149.826 88.6593C159.654 95.8316 172.186 99.2071 185.089 97.0864L185.095 97.0855C197.997 94.9648 208.829 87.7493 215.911 77.8002C222.995 67.8491 226.328 55.1615 224.235 42.0965L224.233 42.086V42.0879Z" fill="white"/>
<path d="M150.162 64.8214H204.836C206.104 64.8214 207.252 64.3013 208.082 63.4603L208.128 63.4172C208.931 62.582 209.427 61.4373 209.427 60.1739V27.7451C209.427 26.4597 208.914 25.2978 208.086 24.4587L208.082 24.4549C207.254 23.6158 206.107 23.0976 204.836 23.0976H150.162C148.893 23.0976 147.745 23.6168 146.917 24.4549L146.913 24.4587C146.085 25.2969 145.572 26.4587 145.572 27.7451V60.1739C145.572 61.4594 146.085 62.6212 146.913 63.4603H146.917C147.747 64.3013 148.895 64.8214 150.162 64.8214ZM204.836 66.6624H150.162C148.393 66.6624 146.791 65.9354 145.632 64.762C144.472 63.5839 143.755 61.9622 143.755 60.1749V27.7461C143.755 25.9597 144.471 24.34 145.63 23.1647L145.636 23.1589C146.797 21.9846 148.398 21.2586 150.162 21.2586H204.836C206.6 21.2586 208.2 21.9837 209.361 23.157L209.367 23.1628C210.527 24.339 211.244 25.9597 211.244 27.7461V60.1749C211.244 61.9354 210.548 63.535 209.417 64.7074L209.367 64.763C208.208 65.9373 206.606 66.6633 204.836 66.6633V66.6624Z" fill="white"/>
<path d="M210.336 26.8256C210.837 26.8256 211.245 27.2384 211.245 27.7461C211.245 28.2537 210.838 28.6665 210.336 28.6665H144.664C144.163 28.6665 143.755 28.2547 143.755 27.7461C143.755 27.2384 144.162 26.8256 144.664 26.8256H210.336Z" fill="white"/>
<path d="M210.336 59.2534C210.837 59.2534 211.245 59.6653 211.245 60.1739C211.245 60.6816 210.838 61.0944 210.336 61.0944H144.664C144.163 61.0944 143.755 60.6816 143.755 60.1739C143.755 59.6663 144.162 59.2534 144.664 59.2534H210.336Z" fill="white"/>
<path d="M184.279 66.6614H170.72V69.8118H184.279V66.6614ZM169.812 64.8204H185.188C185.69 64.8204 186.097 65.2333 186.097 65.7409V70.7323C186.097 71.2399 185.691 71.6528 185.188 71.6528H169.812C169.31 71.6528 168.902 71.2409 168.902 70.7323V65.7409C168.902 65.2333 169.31 64.8204 169.812 64.8204Z" fill="white"/>
<path d="M160.371 76.4573H194.629C194.435 75.2447 193.865 74.1594 193.045 73.329L193.002 73.2821C191.985 72.2734 190.588 71.6518 189.046 71.6518V71.648H165.953C164.392 71.6489 162.977 72.2897 161.955 73.3261C161.135 74.1575 160.565 75.2428 160.371 76.4573ZM195.61 78.2983H159.389C158.888 78.2983 158.48 77.8855 158.48 77.3778C158.48 75.2916 159.317 73.4008 160.669 72.0321C162.021 70.6633 163.889 69.8156 165.953 69.8147H189.046V69.8108C191.08 69.8108 192.926 70.6365 194.276 71.9765L194.331 72.0273C195.683 73.396 196.52 75.2878 196.52 77.3778C196.52 77.8855 196.113 78.2983 195.611 78.2983H195.61Z" fill="white"/>
<path d="M162.894 43.699C164.813 45.4538 170.634 50.199 177.5 50.199C184.366 50.199 190.187 45.4547 192.106 43.699C190.187 41.9433 184.366 37.1991 177.5 37.1991C170.634 37.1991 164.813 41.9433 162.894 43.699ZM177.5 52.039C168.326 52.039 160.953 44.3638 160.931 44.3417C160.585 43.9854 160.584 43.4126 160.931 43.0553C160.953 43.0333 168.325 35.3581 177.5 35.3581C186.674 35.3581 194.047 43.0333 194.069 43.0553C194.415 43.4117 194.416 43.9845 194.069 44.3417C194.047 44.3638 186.675 52.039 177.5 52.039Z" fill="white"/>
<path d="M183.883 43.699C183.883 41.9136 183.169 40.2977 182.013 39.1291C180.858 37.9596 179.262 37.2364 177.5 37.2364C175.737 37.2364 174.142 37.9596 172.986 39.1291C171.831 40.2977 171.117 41.9145 171.117 43.699C171.117 45.4834 171.831 47.0993 172.986 48.2689C174.142 49.4374 175.737 50.1616 177.5 50.1616C179.262 50.1616 180.858 49.4374 182.013 48.2689C183.169 47.0993 183.883 45.4834 183.883 43.699ZM183.298 37.8274C184.782 39.3293 185.7 41.4059 185.7 43.699C185.7 45.9911 184.782 48.0677 183.298 49.5706C181.815 51.0725 179.764 52.0025 177.499 52.0025C175.234 52.0025 173.184 51.0725 171.7 49.5706C170.215 48.0687 169.298 45.9921 169.298 43.699C169.298 41.4059 170.215 39.3302 171.7 37.8274C173.183 36.3245 175.234 35.3954 177.499 35.3954C179.764 35.3954 181.814 36.3245 183.298 37.8274Z" fill="white"/>
<path d="M177.5 47.3302C178.489 47.3302 179.384 46.9231 180.033 46.266C180.682 45.609 181.085 44.7009 181.085 43.7009C181.085 42.7 180.682 41.7929 180.033 41.1349C179.384 40.4778 178.488 40.0707 177.5 40.0707C176.511 40.0707 175.615 40.4778 174.966 41.1349C174.317 41.7919 173.914 42.7 173.914 43.7009C173.914 44.7038 174.316 45.6109 174.963 46.266L174.966 46.2699C175.613 46.925 176.509 47.3312 177.5 47.3312V47.3302ZM181.319 47.5668C180.341 48.5572 178.989 49.1712 177.5 49.1712C176.016 49.1712 174.667 48.5582 173.687 47.5697L173.682 47.5639C172.704 46.5716 172.097 45.2038 172.097 43.7009C172.097 42.1923 172.704 40.8245 173.682 39.8341C174.66 38.8437 176.012 38.2297 177.501 38.2297C178.99 38.2297 180.342 38.8437 181.32 39.8341C182.298 40.8245 182.905 42.1923 182.905 43.7009C182.905 45.2086 182.298 46.5773 181.32 47.5677L181.319 47.5668Z" fill="white"/>
<path d="M205.647 41.5333C205.647 42.041 205.239 42.4538 204.738 42.4538C204.237 42.4538 203.829 42.041 203.829 41.5333V34.3322H196.717C196.215 34.3322 195.808 33.9194 195.808 33.4117C195.808 32.9041 196.215 32.4912 196.717 32.4912H204.738C205.239 32.4912 205.647 32.9031 205.647 33.4117V41.5333Z" fill="white"/>
<path d="M149.352 46.3858C149.352 45.8781 149.759 45.4653 150.261 45.4653C150.762 45.4653 151.17 45.8781 151.17 46.3858V53.5878H158.282C158.784 53.5878 159.191 54.0006 159.191 54.5083C159.191 55.016 158.784 55.4288 158.282 55.4288H150.261C149.759 55.4288 149.352 55.0169 149.352 54.5083V46.3858Z" fill="white"/>
<path d="M96.4913 135.567C96.4913 122.332 91.1926 110.35 82.6263 101.677C74.0609 93.0041 62.2261 87.6392 49.1548 87.6392C36.0835 87.6392 24.2486 93.0041 15.6823 101.677C7.11601 110.35 1.81824 122.332 1.81824 135.567C1.81824 148.802 7.11696 160.784 15.6823 169.457C24.2486 178.131 36.0825 183.495 49.1548 183.495C62.2261 183.495 74.0609 178.13 82.6263 169.457C91.1926 160.784 96.4913 148.802 96.4913 135.567ZM83.912 100.376C92.8075 109.381 98.3096 121.824 98.3096 135.567C98.3096 149.309 92.8075 161.753 83.912 170.758C75.0174 179.765 62.7275 185.336 49.1548 185.336C35.5811 185.336 23.2922 179.765 14.3976 170.758C5.50209 161.753 -3.05176e-05 149.309 -3.05176e-05 135.567C-3.05176e-05 121.824 5.50209 109.381 14.3976 100.376C23.2922 91.3691 35.5811 85.7982 49.1548 85.7982C62.7275 85.7982 75.0174 91.3691 83.912 100.376Z" fill="white"/>
<path d="M20.8855 160.285H33.656V120.868H20.8855V160.285ZM34.5642 162.126H19.9764C19.475 162.126 19.0672 161.713 19.0672 161.206V119.948C19.0672 119.441 19.475 119.028 19.9764 119.028H34.5642C35.0656 119.028 35.4733 119.44 35.4733 119.948V161.206C35.4733 161.713 35.0656 162.126 34.5642 162.126Z" fill="white"/>
<path d="M23.5306 123.773H31.0118V114.541H23.5306V123.773ZM31.92 125.614H22.6215C22.1201 125.614 21.7123 125.202 21.7123 124.693V113.621C21.7123 113.113 22.1191 112.7 22.6215 112.7H31.92C32.4214 112.7 32.8291 113.113 32.8291 113.621V124.693C32.8291 125.201 32.4214 125.614 31.92 125.614Z" fill="white"/>
<path d="M26.3573 112.699H28.1841V110.85H26.3573V112.699ZM29.0933 114.54H25.4482C24.9468 114.54 24.5391 114.127 24.5391 113.62V109.929C24.5391 109.422 24.9459 109.009 25.4482 109.009H29.0933C29.5947 109.009 30.0024 109.421 30.0024 109.929V113.62C30.0024 114.127 29.5947 114.54 29.0933 114.54Z" fill="white"/>
<path d="M31.3041 137.412C31.3041 138.536 30.8519 139.556 30.1225 140.296C29.3903 141.037 28.3818 141.496 27.2712 141.496C26.1596 141.496 25.1511 141.037 24.4198 140.296C23.6905 139.557 23.2383 138.536 23.2383 137.412C23.2383 135.376 26.5238 130.695 26.5333 130.682C26.8228 130.269 27.3894 130.172 27.7972 130.466C27.8889 130.532 27.9646 130.612 28.0233 130.701C28.2465 131.021 31.3041 135.448 31.3041 137.413V137.412ZM28.8378 139.002C29.238 138.596 29.4868 138.033 29.4868 137.412C29.4868 136.428 28.1463 134.198 27.2721 132.848C26.397 134.198 25.0575 136.428 25.0575 137.412C25.0575 138.034 25.3053 138.597 25.7064 139.003C26.1047 139.406 26.6582 139.656 27.2731 139.656C27.887 139.656 28.4405 139.406 28.8397 139.002H28.8378Z" fill="white"/>
<path d="M19.9773 147.363C19.4759 147.363 19.0682 146.95 19.0682 146.442C19.0682 145.935 19.4759 145.522 19.9773 145.522H34.5651C35.0665 145.522 35.4742 145.934 35.4742 146.442C35.4742 146.95 35.0665 147.363 34.5651 147.363H19.9773Z" fill="white"/>
<path d="M29.0289 149.476C29.5303 149.476 29.9381 149.889 29.9381 150.396C29.9381 150.904 29.5313 151.317 29.0289 151.317H26.4226V156.298H29.0289C29.5303 156.298 29.9381 156.71 29.9381 157.218C29.9381 157.726 29.5313 158.139 29.0289 158.139H25.5135C25.0121 158.139 24.6043 157.727 24.6043 157.218V150.396C24.6043 149.889 25.0111 149.476 25.5135 149.476H29.0289Z" fill="white"/>
<path d="M35.4742 160.285H48.2456V120.868H35.4742V160.285ZM49.1548 162.126H34.5651C34.0637 162.126 33.6559 161.713 33.6559 161.206V119.948C33.6559 119.441 34.0637 119.028 34.5651 119.028H49.1548C49.6562 119.028 50.0639 119.44 50.0639 119.948V161.206C50.0639 161.713 49.6571 162.126 49.1548 162.126Z" fill="white"/>
<path d="M38.1193 123.773H45.6005V114.541H38.1193V123.773ZM46.5087 125.614H37.2102C36.7088 125.614 36.3011 125.202 36.3011 124.693V113.621C36.3011 113.113 36.7078 112.7 37.2102 112.7H46.5087C47.0101 112.7 47.4179 113.113 47.4179 113.621V124.693C47.4179 125.201 47.0101 125.614 46.5087 125.614Z" fill="white"/>
<path d="M40.946 112.699H42.7728V110.85H40.946V112.699ZM43.682 114.54H40.0369C39.5355 114.54 39.1278 114.127 39.1278 113.62V109.929C39.1278 109.422 39.5355 109.009 40.0369 109.009H43.682C44.1834 109.009 44.5911 109.421 44.5911 109.929V113.62C44.5911 114.127 44.1843 114.54 43.682 114.54Z" fill="white"/>
<path d="M45.8938 137.412C45.8938 138.539 45.4426 139.56 44.7122 140.3L44.6545 140.353C43.928 141.061 42.9422 141.496 41.86 141.496C40.7465 141.496 39.738 141.039 39.0077 140.3L38.9547 140.241C38.2556 139.506 37.8261 138.508 37.8261 137.412C37.8261 135.376 41.1126 130.695 41.1221 130.682C41.4115 130.269 41.9782 130.172 42.386 130.466C42.4777 130.532 42.5525 130.612 42.6121 130.701C42.8344 131.02 45.8948 135.448 45.8948 137.413L45.8938 137.412ZM43.4266 138.999C43.8277 138.593 44.0756 138.031 44.0756 137.412C44.0756 136.428 42.735 134.197 41.86 132.848C40.9849 134.198 39.6434 136.428 39.6434 137.412C39.6434 138.013 39.8742 138.558 40.2498 138.959L40.2924 138.999C40.6935 139.405 41.2479 139.656 41.86 139.656C42.4541 139.656 42.9924 139.422 43.3868 139.042L43.4266 138.999Z" fill="white"/>
<path d="M34.5651 147.363C34.0637 147.363 33.6559 146.95 33.6559 146.442C33.6559 145.935 34.0627 145.522 34.5651 145.522H49.1548C49.6562 145.522 50.0639 145.934 50.0639 146.442C50.0639 146.95 49.6571 147.363 49.1548 147.363H34.5651Z" fill="white"/>
<path d="M50.063 160.285H62.8334V120.868H50.063V160.285ZM63.7416 162.126H49.1538C48.6524 162.126 48.2447 161.713 48.2447 161.206V119.948C48.2447 119.441 48.6524 119.028 49.1538 119.028H63.7416C64.243 119.028 64.6508 119.44 64.6508 119.948V161.206C64.6508 161.713 64.243 162.126 63.7416 162.126Z" fill="white"/>
<path d="M52.7081 123.773H60.1893V114.541H52.7081V123.773ZM61.0975 125.614H51.7989C51.2975 125.614 50.8898 125.202 50.8898 124.693V113.621C50.8898 113.113 51.2966 112.7 51.7989 112.7H61.0975C61.5989 112.7 62.0066 113.113 62.0066 113.621V124.693C62.0066 125.201 61.5989 125.614 61.0975 125.614Z" fill="white"/>
<path d="M55.5357 112.699H57.3635V110.85H55.5357V112.699ZM58.2717 114.54H54.6266C54.1252 114.54 53.7175 114.127 53.7175 113.62V109.929C53.7175 109.422 54.1243 109.009 54.6266 109.009H58.2717C58.7731 109.009 59.1808 109.421 59.1808 109.929V113.62C59.1808 114.127 58.7731 114.54 58.2717 114.54Z" fill="white"/>
<path d="M60.4816 137.412C60.4816 138.536 60.0294 139.556 59.3 140.296L59.2962 140.3C58.5659 141.038 57.5584 141.496 56.4477 141.496C55.3361 141.496 54.3277 141.037 53.5964 140.296C52.867 139.557 52.4148 138.536 52.4148 137.412C52.4148 135.376 55.7004 130.695 55.7098 130.682C55.9993 130.269 56.566 130.172 56.9737 130.466C57.0655 130.532 57.1402 130.612 57.1998 130.701C57.4221 131.02 60.4825 135.448 60.4825 137.413L60.4816 137.412ZM58.0162 139C58.4164 138.594 58.6633 138.032 58.6633 137.412C58.6633 136.428 57.3228 134.198 56.4468 132.848C55.5717 134.198 54.2321 136.428 54.2321 137.412C54.2321 138.034 54.48 138.597 54.8811 139.003C55.2794 139.406 55.8328 139.656 56.4477 139.656C57.0608 139.656 57.6161 139.405 58.0162 139.001V139Z" fill="white"/>
<path d="M49.1548 147.363C48.6534 147.363 48.2456 146.95 48.2456 146.442C48.2456 145.935 48.6534 145.522 49.1548 145.522H63.7426C64.244 145.522 64.6517 145.934 64.6517 146.442C64.6517 146.95 64.244 147.363 63.7426 147.363H49.1548Z" fill="white"/>
<path d="M64.6517 160.285H77.4232V120.868H64.6517V160.285ZM78.3323 162.126H63.7426C63.2412 162.126 62.8335 161.713 62.8335 161.206V119.948C62.8335 119.441 63.2412 119.028 63.7426 119.028H78.3323C78.8337 119.028 79.2414 119.44 79.2414 119.948V161.206C79.2414 161.713 78.8337 162.126 78.3323 162.126Z" fill="white"/>
<path d="M67.2968 123.773H74.778V114.541H67.2968V123.773ZM75.6862 125.614H66.3877C65.8863 125.614 65.4785 125.202 65.4785 124.693V113.621C65.4785 113.113 65.8853 112.7 66.3877 112.7H75.6862C76.1876 112.7 76.5954 113.113 76.5954 113.621V124.693C76.5954 125.201 76.1876 125.614 75.6862 125.614Z" fill="white"/>
<path d="M70.1236 112.699H71.9504V110.85H70.1236V112.699ZM72.8595 114.54H69.2144C68.713 114.54 68.3053 114.127 68.3053 113.62V109.929C68.3053 109.422 68.713 109.009 69.2144 109.009H72.8595C73.3609 109.009 73.7686 109.421 73.7686 109.929V113.62C73.7686 114.127 73.3618 114.54 72.8595 114.54Z" fill="white"/>
<path d="M75.0713 137.412C75.0713 138.539 74.6191 139.561 73.8897 140.3L73.832 140.353C73.1054 141.06 72.1206 141.496 71.0384 141.496C69.9249 141.496 68.9164 141.039 68.1861 140.3L68.1331 140.241C67.434 139.506 67.0045 138.508 67.0045 137.412C67.0045 135.376 70.291 130.695 70.3005 130.682C70.5909 130.269 71.1566 130.172 71.5644 130.466C71.6561 130.532 71.7309 130.612 71.7905 130.701C72.0137 131.021 75.0713 135.448 75.0713 137.413V137.412ZM72.605 138.999C73.0061 138.593 73.254 138.032 73.254 137.412C73.254 136.428 71.9134 134.198 71.0393 132.848C70.1642 134.198 68.8237 136.428 68.8237 137.412C68.8237 138.013 69.0545 138.558 69.4301 138.959L69.4727 138.999C69.8738 139.405 70.4282 139.656 71.0403 139.656C71.6344 139.656 72.1717 139.422 72.5671 139.042L72.6069 138.999H72.605Z" fill="white"/>
<path d="M63.7426 147.363C63.2412 147.363 62.8335 146.95 62.8335 146.442C62.8335 145.935 63.2403 145.522 63.7426 145.522H78.3323C78.8337 145.522 79.2414 145.934 79.2414 146.442C79.2414 146.95 78.8346 147.363 78.3323 147.363H63.7426Z" fill="white"/>
<path d="M39.4003 157.218C39.4003 157.726 38.9935 158.139 38.4911 158.139C37.9897 158.139 37.582 157.727 37.582 157.218V150.396C37.582 149.889 37.9897 149.476 38.4911 149.476C38.6955 149.476 38.8837 149.544 39.0351 149.659L41.86 151.427L44.7529 149.616C45.1786 149.349 45.7358 149.483 45.9988 149.914C46.0906 150.064 46.1341 150.231 46.1341 150.395H46.1379V157.217C46.1379 157.725 45.7302 158.138 45.2288 158.138C44.7274 158.138 44.3196 157.726 44.3196 157.217V152.042L42.3509 153.275C42.0662 153.46 41.6906 153.476 41.3841 153.284L39.4003 152.042V157.217V157.218Z" fill="white"/>
<path d="M52.4479 151.053C52.0894 150.7 52.0818 150.119 52.43 149.755C52.7791 149.392 53.3523 149.385 53.7118 149.737L56.4487 152.437L59.1856 149.737C59.5441 149.384 60.1184 149.392 60.4674 149.755C60.8165 150.119 60.808 150.7 60.4495 151.053L57.0825 154.374C56.7306 154.721 56.1696 154.723 55.8168 154.376L52.4479 151.053Z" fill="white"/>
<path d="M55.5395 153.718C55.5395 153.21 55.9473 152.798 56.4487 152.798C56.9501 152.798 57.3578 153.209 57.3578 153.718V157.217C57.3578 157.725 56.951 158.138 56.4487 158.138C55.9473 158.138 55.5395 157.726 55.5395 157.217V153.718Z" fill="white"/>
<path d="M67.9581 150.396C67.9581 149.889 68.3649 149.476 68.8672 149.476C69.3686 149.476 69.7764 149.889 69.7764 150.396V157.218C69.7764 157.726 69.3686 158.139 68.8672 158.139C68.3658 158.139 67.9581 157.727 67.9581 157.218V150.396Z" fill="white"/>
<path d="M72.6542 149.67C73.0506 149.361 73.6191 149.435 73.9247 149.836C74.2303 150.237 74.1574 150.813 73.761 151.122L70.3449 153.807L73.761 156.492C74.1574 156.801 74.2303 157.378 73.9247 157.778C73.6191 158.18 73.0496 158.254 72.6542 157.944L68.3289 154.546C68.2627 154.496 68.2031 154.437 68.1501 154.368C67.8445 153.967 67.9174 153.391 68.3138 153.082L72.6542 149.671V149.67Z" fill="white"/>
<path d="M353.182 135.567C353.182 122.332 347.883 110.35 339.318 101.677C330.751 93.0041 318.917 87.6392 305.845 87.6392C292.774 87.6392 280.939 93.0041 272.374 101.677C263.807 110.35 258.509 122.332 258.509 135.567C258.509 148.802 263.807 160.784 272.374 169.457C280.939 178.131 292.774 183.495 305.845 183.495C318.916 183.495 330.751 178.13 339.318 169.457C347.884 160.784 353.182 148.802 353.182 135.567ZM340.602 100.376C349.498 109.381 355 121.824 355 135.567C355 149.309 349.498 161.753 340.602 170.758C331.708 179.765 319.419 185.336 305.845 185.336C292.272 185.336 279.983 179.765 271.088 170.758C262.192 161.753 256.69 149.309 256.69 135.567C256.69 121.824 262.192 109.381 271.088 100.376C279.983 91.3691 292.272 85.7982 305.845 85.7982C319.419 85.7982 331.708 91.3691 340.602 100.376Z" fill="white"/>
<path d="M330.998 110.1H280.692V161.034H330.998V110.1ZM279.783 108.259H331.907C332.409 108.259 332.816 108.672 332.816 109.179V161.955C332.816 162.462 332.409 162.875 331.907 162.875H279.783C279.282 162.875 278.874 162.462 278.874 161.955V109.179C278.874 108.672 279.282 108.259 279.783 108.259Z" fill="white"/>
<path d="M331.906 115.291C332.408 115.291 332.815 115.704 332.815 116.212C332.815 116.719 332.408 117.132 331.906 117.132H279.782C279.281 117.132 278.873 116.72 278.873 116.212C278.873 115.704 279.281 115.291 279.782 115.291H331.906Z" fill="white"/>
<path d="M328.642 111.579C329.143 111.579 329.551 111.991 329.551 112.499C329.551 113.007 329.143 113.42 328.642 113.42H327.271C326.769 113.42 326.362 113.007 326.362 112.499C326.362 111.991 326.769 111.579 327.271 111.579H328.642Z" fill="white"/>
<path d="M324.393 111.579C324.894 111.579 325.302 111.991 325.302 112.499C325.302 113.007 324.895 113.42 324.393 113.42H323.022C322.521 113.42 322.113 113.007 322.113 112.499C322.113 111.991 322.521 111.579 323.022 111.579H324.393Z" fill="white"/>
<path d="M320.144 111.579C320.646 111.579 321.053 111.991 321.053 112.499C321.053 113.007 320.647 113.42 320.144 113.42H318.774C318.272 113.42 317.864 113.007 317.864 112.499C317.864 111.991 318.272 111.579 318.774 111.579H320.144Z" fill="white"/>
<path d="M309.421 123.13H325.729C326.23 123.13 326.638 123.542 326.638 124.051V152.356C326.638 152.864 326.23 153.277 325.729 153.277H304.076C303.575 153.277 303.167 152.864 303.167 152.356V129.463C303.167 129.209 303.269 128.979 303.434 128.812L308.779 123.4C308.956 123.221 309.188 123.131 309.421 123.131V123.13ZM324.82 124.971H309.798L304.985 129.843V151.436H324.82V124.971Z" fill="white"/>
<path d="M308.512 124.051C308.512 123.543 308.92 123.13 309.421 123.13C309.922 123.13 310.33 123.542 310.33 124.051V129.601C310.33 130.108 309.923 130.521 309.421 130.521H304.076C303.575 130.521 303.167 130.108 303.167 129.601C303.167 129.093 303.574 128.68 304.076 128.68H308.512V124.05V124.051Z" fill="white"/>
<path d="M298.26 126.248H286.872V127.183H298.26V126.248ZM285.962 124.407H299.169C299.67 124.407 300.078 124.819 300.078 125.328V128.102C300.078 128.61 299.671 129.023 299.169 129.023H285.962C285.461 129.023 285.053 128.61 285.053 128.102V125.328C285.053 124.82 285.46 124.407 285.962 124.407Z" fill="white"/>
<path d="M299.168 130.79C299.669 130.79 300.077 131.202 300.077 131.711C300.077 132.218 299.67 132.631 299.168 132.631H294.894C294.392 132.631 293.985 132.218 293.985 131.711C293.985 131.203 294.392 130.79 294.894 130.79H299.168Z" fill="white"/>
<path d="M298.26 136.239H286.872V137.174H298.26V136.239ZM285.962 134.398H299.169C299.67 134.398 300.078 134.811 300.078 135.319V138.094C300.078 138.601 299.671 139.014 299.169 139.014H285.962C285.461 139.014 285.053 138.601 285.053 138.094V135.319C285.053 134.811 285.46 134.398 285.962 134.398Z" fill="white"/>
<path d="M299.168 140.781C299.669 140.781 300.077 141.193 300.077 141.702C300.077 142.21 299.67 142.622 299.168 142.622H294.894C294.392 142.622 293.985 142.21 293.985 141.702C293.985 141.194 294.392 140.781 294.894 140.781H299.168Z" fill="white"/>
<path d="M298.26 146.229H286.872V147.163H298.26V146.229ZM285.962 144.388H299.169C299.67 144.388 300.078 144.8 300.078 145.308V148.083C300.078 148.591 299.671 149.004 299.169 149.004H285.962C285.461 149.004 285.053 148.592 285.053 148.083V145.308C285.053 144.801 285.46 144.388 285.962 144.388Z" fill="white"/>
<path d="M299.168 150.77C299.669 150.77 300.077 151.182 300.077 151.69C300.077 152.198 299.67 152.611 299.168 152.611H294.894C294.392 152.611 293.985 152.198 293.985 151.69C293.985 151.183 294.392 150.77 294.894 150.77H299.168Z" fill="white"/>
</g>
<defs>
<clipPath id="clip0_16_2641">
<rect width="355" height="339.054" fill="white"/>
</clipPath>
</defs>
</svg>
