<svg width="407" height="56" viewBox="0 0 407 56" fill="none" xmlns="http://www.w3.org/2000/svg">
<g clip-path="url(#clip0_16_2733)">
<path d="M48.6411 15.4139C46.0118 9.5021 41.2361 5.216 35.6419 3.06624C30.0462 0.916004 23.6294 0.900242 17.7187 3.5291C11.8069 6.15866 7.52081 10.9343 5.37105 16.5283C3.22081 22.124 3.20505 28.5408 5.83391 34.4515C8.46347 40.3633 13.2391 44.6494 18.8331 46.7991C24.4288 48.9494 30.8456 48.9651 36.7563 46.3363C42.6681 43.7067 46.9542 38.9311 49.1039 33.3371C51.2542 27.7414 51.2699 21.3246 48.6411 15.4139ZM36.1754 1.67045C42.1304 3.95882 47.2117 8.51773 50.0077 14.8039C52.8041 21.0912 52.7872 27.9178 50.4997 33.8706C48.2114 39.8251 43.6525 44.9066 37.3663 47.7029C31.079 50.4993 24.2524 50.4824 18.2996 48.1949C12.3451 45.9066 7.26354 41.3476 4.46733 35.0615C1.67089 28.7742 1.68781 21.9476 3.97526 15.9947C6.26363 10.0403 10.8225 4.95873 17.1087 2.16252C23.396 -0.633916 30.2226 -0.616996 36.1754 1.67045Z" fill="white"/>
<path d="M35.116 14.3141L28.0599 27.8047V35.9416C28.0599 36.356 27.7235 36.6923 27.3091 36.6923H24.4323C24.0178 36.6923 23.6815 36.356 23.6815 35.9416V27.8084L16.5617 14.2557C16.3691 13.8899 16.5097 13.4368 16.8755 13.2442C16.987 13.1856 17.1066 13.1578 17.2243 13.158L20.4171 13.1561C20.7245 13.1561 20.9887 13.3411 21.1048 13.6056L25.8547 23.3538L30.6178 13.5784C30.7476 13.3119 31.0144 13.1568 31.2923 13.1566L34.4853 13.1561C34.8997 13.1561 35.236 13.4924 35.236 13.9069C35.236 14.0568 35.192 14.1968 35.116 14.3141ZM26.6465 27.2811L33.249 14.6576H31.7609L26.5294 25.3942C26.4585 25.5406 26.34 25.6644 26.1831 25.7409C25.8107 25.9222 25.3615 25.7673 25.1802 25.3949L19.9485 14.6576H18.4646L25.0708 27.2324C25.142 27.3472 25.183 27.4823 25.183 27.6271V35.1909H26.5584V27.6271H26.5616C26.5614 27.5103 26.5887 27.3917 26.6465 27.2811Z" fill="white"/>
<path d="M15.829 47.5601C15.829 51.7245 12.4531 55.0992 8.28987 55.0992C4.12639 55.0992 0.750732 51.7233 0.750732 47.5601C0.750732 43.3966 8.28987 32.7878 8.28987 32.7878C8.28987 32.7878 15.829 43.3954 15.829 47.5601Z" fill="#FFED00"/>
<path d="M16.5798 47.5601C16.5798 49.8491 15.6517 51.9217 14.1516 53.4218C12.6515 54.9219 10.5789 55.85 8.28988 55.85C6.00127 55.85 3.92822 54.9217 2.42837 53.4216C0.928283 51.9217 0 49.8487 0 47.5601C0 43.156 7.65526 32.3877 7.67705 32.3566C7.91509 32.0182 8.38259 31.9369 8.72099 32.1749C8.79725 32.2285 8.86029 32.2936 8.90966 32.3664C9.16694 32.73 16.5798 43.2248 16.5798 47.5601ZM13.0901 52.3603C14.3183 51.1321 15.0783 49.4347 15.0783 47.5601C15.0783 44.3253 10.0635 36.6991 8.28988 34.1029C6.51652 36.6991 1.50148 44.326 1.50148 47.5601C1.50148 49.4345 2.26149 51.1318 3.48993 52.36C4.71813 53.5885 6.41547 54.3485 8.28988 54.3485C10.1645 54.3485 11.8619 53.5885 13.0901 52.3603Z" fill="white"/>
<path d="M401.363 15.8295C398.851 9.87065 394.16 5.493 388.607 3.23314C383.053 0.972576 376.637 0.830494 370.678 3.34184L370.674 3.3437C364.717 5.85574 360.341 10.5458 358.081 16.0974C355.821 21.6521 355.679 28.0675 358.19 34.0264L358.192 34.0294C360.703 39.9869 365.394 44.3636 370.946 46.6232C376.5 48.8838 382.916 49.0259 388.875 46.5145C394.834 44.0027 399.212 39.3119 401.472 33.7589C403.732 28.2045 403.874 21.7886 401.363 15.8295ZM389.17 1.84338C395.077 4.24718 400.067 8.90597 402.741 15.2491C405.414 21.592 405.264 28.4166 402.861 34.3217C400.458 40.227 395.801 45.2166 389.46 47.8906L389.455 47.8927C383.113 50.5658 376.288 50.4161 370.383 48.013C364.497 45.6178 359.521 40.9833 356.841 34.6747C356.818 34.6316 356.799 34.5857 356.784 34.5379C354.14 28.2147 354.297 21.4187 356.692 15.5347C359.087 9.64907 363.722 4.67319 370.03 1.99264C370.073 1.96923 370.119 1.95 370.167 1.93516C376.49 -0.708068 383.286 -0.551153 389.17 1.84338Z" fill="white"/>
<path d="M382.552 36.4142L374.812 27.839V35.9418C374.812 36.3563 374.476 36.6926 374.062 36.6926H371.185C370.77 36.6926 370.434 36.3563 370.434 35.9418V13.9071C370.434 13.4927 370.77 13.1564 371.185 13.1564H374.062C374.476 13.1564 374.812 13.4927 374.812 13.9071V22.1497L382.606 13.4085C382.754 13.2424 382.96 13.1575 383.166 13.1575L386.802 13.1564C387.217 13.1564 387.553 13.4927 387.553 13.9071C387.553 14.1264 387.459 14.3236 387.309 14.4608L377.823 24.9373L387.448 35.4375C387.727 35.7418 387.706 36.2146 387.401 36.493C387.258 36.6242 387.077 36.6889 386.897 36.6889V36.6926H383.135C382.899 36.6926 382.689 36.5841 382.552 36.4142ZM374.619 25.3872L383.467 35.1911H385.195L376.273 25.4577C376.003 25.1772 375.993 24.7317 376.258 24.439L385.114 14.6579H383.502L374.645 24.5906C374.507 24.7603 374.297 24.869 374.062 24.869C373.647 24.869 373.311 24.5326 373.311 24.1182V14.6579H371.935V35.1911H373.311V25.8886C373.312 25.6834 373.396 25.4792 373.56 25.3314C373.868 25.0546 374.342 25.0797 374.619 25.3872Z" fill="white"/>
<path d="M406.249 47.5601C406.249 51.7245 402.873 55.0992 398.71 55.0992C394.547 55.0992 391.171 51.7233 391.171 47.5601C391.171 43.3966 398.71 32.7878 398.71 32.7878C398.71 32.7878 406.249 43.3954 406.249 47.5601Z" fill="#222220"/>
<path d="M407 47.5601C407 49.8491 406.072 51.9217 404.572 53.4218C403.072 54.9219 400.999 55.85 398.71 55.85C396.422 55.85 394.349 54.9219 392.849 53.4216C391.349 51.9217 390.42 49.8487 390.42 47.5601C390.42 43.156 398.076 32.3877 398.097 32.3566C398.335 32.0182 398.803 31.9369 399.141 32.1749C399.218 32.2285 399.281 32.2936 399.33 32.3664C399.587 32.73 407 43.2248 407 47.5601ZM403.51 52.3603C404.739 51.1321 405.499 49.4347 405.499 47.5601C405.499 44.3253 400.484 36.6991 398.71 34.1029C396.937 36.6991 391.922 44.326 391.922 47.5601C391.922 49.4345 392.682 51.1318 393.91 52.36C395.138 53.5885 396.836 54.3485 398.71 54.3485C400.585 54.3485 402.282 53.5885 403.51 52.3603Z" fill="white"/>
</g>
<defs>
<clipPath id="clip0_16_2733">
<rect width="407" height="55.85" fill="white"/>
</clipPath>
</defs>
</svg>
