<?xml version="1.0" encoding="UTF-8"?>
<!DOCTYPE svg PUBLIC "-//W3C//DTD SVG 1.1//EN" "http://www.w3.org/Graphics/SVG/1.1/DTD/svg11.dtd">
<!-- Creator: CorelDRAW 2021 (64-Bit) -->
<svg xmlns="http://www.w3.org/2000/svg" xml:space="preserve" width="354.334mm" height="117.229mm" version="1.1" style="shape-rendering:geometricPrecision; text-rendering:geometricPrecision; image-rendering:optimizeQuality; fill-rule:evenodd; clip-rule:evenodd"
viewBox="0 0 34226.14 11323.47"
 xmlns:xlink="http://www.w3.org/1999/xlink"
 xmlns:xodm="http://www.corel.com/coreldraw/odm/2003">
 <defs>
  <style type="text/css">
   <![CDATA[
    .str0 {stroke:#212121;stroke-width:39.62;stroke-miterlimit:22.9256}
    .fil12 {fill:none;fill-rule:nonzero}
    .fil16 {fill:#212121}
    .fil13 {fill:#4DB6F7}
    .fil14 {fill:#E4027B}
    .fil15 {fill:#FBEC00}
    .fil2 {fill:aqua;fill-rule:nonzero}
    .fil1 {fill:#212121;fill-rule:nonzero}
    .fil10 {fill:#3D3D3D;fill-rule:nonzero}
    .fil6 {fill:#4699E5;fill-rule:nonzero}
    .fil11 {fill:#4DB6F7;fill-rule:nonzero}
    .fil0 {fill:#87C5F4;fill-rule:nonzero}
    .fil3 {fill:#919191;fill-rule:nonzero}
    .fil4 {fill:#A5A5A5;fill-rule:nonzero}
    .fil9 {fill:#C19E67;fill-rule:nonzero}
    .fil7 {fill:#E4027B;fill-rule:nonzero}
    .fil8 {fill:#FBEC00;fill-rule:nonzero}
    .fil5 {fill:white;fill-rule:nonzero}
   ]]>
  </style>
 </defs>
 <g id="Capa_x0020_1">
  <metadata id="CorelCorpID_0Corel-Layer"/>
  <g id="_1706251271376">
   <g>
    <g>
     <path class="fil0" d="M598.33 9573.45c-1.43,-0.17 -2.84,-0.51 -4.23,-1.07 -122.16,-48.9 -246.56,-98.98 -347.92,-185.21 -45.23,-38.46 -85.38,-84.18 -114.82,-135.89 -31.27,-54.93 -55.14,-121.5 -45.99,-185.4 15.88,-111 138.34,-162.21 239.21,-148.69 59.56,7.98 115.48,33.91 161.36,72.52 45.51,38.3 77.25,89.71 98.36,144.8 24.02,62.62 33.62,129.97 40.05,196.39 7.58,78.23 12.12,156.79 17.91,235.18 1.93,26.56 -35.41,28.9 -43.93,7.35z"/>
     <path class="fil0" d="M787.94 9702.03c-2.88,1.73 -6.42,2.68 -10.12,2.88 -0.17,0.12 -0.32,0.22 -0.48,0.34 -21.39,14.91 -41.71,-14.5 -29.3,-32.97 -29.83,-76.54 -47.43,-157.83 -44.66,-240.34 2.36,-71.11 15.96,-160.22 78.9,-204.32 33.11,-23.21 78.11,-24.08 116.89,-19.57 41.53,4.85 73.3,28.45 91.45,65.99 35.88,74.27 21.99,162.5 -15.09,233.45 -40.24,76.98 -108.56,133.8 -178.3,183.72 -1.63,4.26 -4.62,8.05 -9.28,10.83z"/>
     <path class="fil0" d="M74.29 9525.83c73.97,-47.69 169.22,-33.82 243.11,5.57 48.42,25.8 90.75,61.93 131.95,97.76 42.64,37.06 83.99,75.6 114.91,123.31 1.85,2.9 2.97,5.75 3.44,8.52 5.67,1.19 10.8,4.48 14.31,10.29 5.79,9.64 3.04,26.21 -8.18,31.17 -94.47,41.8 -196.52,64.25 -299.97,63.6 -94.24,-0.59 -193.45,-19.94 -247.06,-105.72 -48.33,-77.35 -30.52,-184.16 47.5,-234.5z"/>
     <path class="fil0" d="M1069.12 9701.11c47.74,-23.09 99.34,-22.25 145.44,4.82 34.66,20.36 61.66,52.85 77.75,89.48 36.69,83.41 18.83,176.35 -31.9,249.95 -64.36,93.33 -165.79,146.54 -265.83,193.47 -17.17,8.07 -32.97,-5.79 -34.6,-19.82 -0.08,-0.25 -0.17,-0.46 -0.22,-0.71 -28.08,-102.12 -54.48,-209.88 -32.88,-315.86 16.69,-81.97 64.8,-163.89 142.24,-201.34z"/>
     <path class="fil0" d="M1242.43 10277.98c82.9,-15.28 168.83,21.45 207.03,98.39 18.56,37.34 25.47,79.02 19.2,120.24 -6.57,43.24 -30.37,81.29 -59.44,113.14 -35.26,38.61 -78.51,71.17 -122.07,99.8 -45.99,30.21 -95.06,55.04 -146.13,75.49 -4.47,1.81 -9.27,1.41 -13.62,-0.37 -2.43,0.2 -4.85,-0.02 -7.08,-0.9 -6.74,-2.7 -13.47,-5.38 -20.19,-8.09 -5.73,-2.29 -10.38,-4.96 -13.63,-10.46 -2.84,-4.89 -4.06,-12.07 -2.28,-17.54 0.19,-0.57 0.39,-1.13 0.61,-1.7 -2.65,-2.48 -4.82,-5.75 -6.17,-9.96 -28.35,-87.69 -34.77,-184.76 -8.18,-273.75 24.95,-83.52 80.65,-167.44 171.95,-184.28z"/>
     <path class="fil0" d="M186.46 9973.71c81.86,-47.04 187.26,-15.91 260.77,32.2 93,60.82 155.19,155.03 234.42,230.94 14.21,13.63 4.43,32.53 -9.95,37.45 3.04,10.99 -0.96,24.08 -15.04,28.22 -50.87,15.01 -102.21,28.2 -154.08,39.39 -49.41,10.63 -101.05,23.36 -151.77,16.35 -87.7,-12.09 -171.11,-80.9 -211.27,-158.36 -38.62,-74.55 -32.9,-180.35 46.91,-226.2z"/>
     <path class="fil0" d="M382.22 10434.2c98.56,-39.83 213.72,5.3 293.86,65.16 97.42,72.78 147.65,181.75 189.12,292.74 7.62,20.38 -14.6,32.17 -30.76,25.79 -0.22,0.06 -0.42,0.14 -0.66,0.22 -99.96,26.84 -206.58,26.03 -306.27,-1.75 -49.15,-13.7 -96.91,-33.98 -140.65,-60.29 -41.03,-24.67 -83.36,-55.91 -105.02,-99.96 -43.25,-87.97 15.09,-187.46 100.36,-221.91z"/>
    </g>
    <path class="fil1" d="M234.83 9654.53c158.92,40.93 317.85,81.83 476.78,122.75 -36.64,-85.33 -77.03,-169.05 -121.9,-250.57 -81.17,-147.45 -176.64,-286.84 -287.68,-413.43 -19.27,-21.97 12.83,-54.3 32.2,-32.2 173.85,198.12 308.7,425.29 413.65,666.09 32.99,-111.22 65.95,-222.41 98.92,-333.62 8.32,-28.03 52.31,-16.1 43.94,12.12 -38.3,129.17 -76.62,258.37 -114.94,387.54 7.2,17.51 14.21,35.1 21.09,52.72 50.93,130.65 93.94,264.06 131.32,399.12 73.94,-124.18 140.44,-252.69 199.03,-384.83 5.01,-11.34 21.34,-13.77 31.16,-8.18 11.65,6.63 13.14,19.99 8.18,31.16 -64.6,145.65 -138.74,286.9 -221.9,422.79 37.57,142.48 69.3,286.62 97.71,431.05 2.43,12.38 4.79,24.77 7.2,37.13 66.35,-102.89 132.73,-205.79 199.09,-308.69 15.85,-24.56 55.3,-1.76 39.34,22.98 -75.37,116.86 -150.75,233.72 -226.1,350.57 25.52,136.69 48.61,273.81 71.26,410.99 4.74,28.69 -39.17,41 -43.94,12.12 -21.6,-130.84 -43.59,-261.75 -67.7,-392.23 -1.47,-0.42 -2.95,-0.99 -4.38,-1.66 -162.68,-76.93 -320.46,-163.91 -472.36,-260.39 -24.67,-15.67 -1.85,-55.13 22.99,-39.33 142.89,90.75 290.99,173.09 443.45,246.59 -29.27,-154.11 -61.87,-307.54 -100.8,-459.53 -1.16,-4.48 -2.34,-8.97 -3.5,-13.46 -1.13,-0.16 -2.24,-0.45 -3.31,-0.9 -199.62,-79.97 -402.62,-151.24 -608.42,-213.58 -27.97,-8.49 -16.04,-52.48 12.12,-43.94 197.87,59.96 393.17,128.2 585.35,204.42 -42.96,-159.23 -93.53,-316.78 -155.49,-469.63 -4.21,-2.53 -7.56,-6.32 -9.18,-11.04 -2.23,0.08 -4.6,-0.14 -7.1,-0.79 -166.06,-42.74 -332.14,-85.49 -498.22,-128.25 -28.34,-7.28 -16.34,-51.25 12.12,-43.91z"/>
   </g>
   <g>
    <path class="fil2" d="M8518.54 3848.48c-62.57,-202.88 -53.16,-409.7 -60.94,-619.33 -13.65,-368.14 -126.2,-697.41 -373.13,-974.86 -238.73,-268.27 -577.26,-444.11 -929.51,-504.81 -404.89,-69.8 -782.81,3.7 -1171.9,116.06 -193.45,55.87 -390.84,115.36 -594.27,109.36 -162.74,-4.82 -305.45,-65.5 -437.88,-156.66 -257.86,-177.57 -453.61,-432.41 -706.8,-617.61 -284.64,-208.2 -642.54,-295.56 -992.29,-268.09 -721.36,56.61 -1465.1,499.23 -1750.03,1180.29 -266.03,635.88 -309.37,1613.77 261.24,2103.7 95.4,81.92 201.12,147.37 317.17,190.82 156.28,111.28 335,187.81 522.59,260.93 145.37,56.64 291.53,112.2 424.99,194.23 137.8,84.71 244.59,205.01 335.34,337.56 196.74,287.49 353.56,595.65 621.69,826.91 259.34,223.67 566.43,378.24 890.97,483.61 688.36,223.51 1491.24,282.83 2201.15,140.8 709.57,-141.95 1340.86,-573.49 1613.2,-1259.98 124.87,-314.77 142.92,-667.14 39.59,-990.44 -60.07,-188.07 -152.98,-363.81 -211.19,-552.49z"/>
    <path class="fil2" d="M17523.56 4099.88c-258.27,-152.33 -554.96,-263.5 -774.1,-473.86 -239.77,-230.19 -318.55,-562.86 -417.79,-868.21 -203.71,-626.95 -599.6,-1147.83 -1192.36,-1454.35 -614.05,-317.52 -1341.47,-354.18 -1992.37,-126.82 -328.07,114.6 -639.55,287.37 -899.35,519.51 -274.93,245.67 -403.3,562.35 -444.41,922.7 -38.3,335.59 3.16,681.69 -73.83,1012.6 -78.73,338.53 -322.25,605.48 -420.67,937.35 -173.16,583.95 68.52,1247.16 550.16,1608.95 575.48,432.32 1330.11,273.84 1996.31,331.86 165.84,14.44 336.25,46.6 490.24,111.92 53.33,22.62 110.51,28.06 160.19,11 700.04,191.04 1410.97,377.63 2141.29,265.74 660.96,-101.26 1308.87,-509.53 1532.33,-1164.5 105.68,-309.8 100.36,-663.66 -25.33,-966.43 -123.42,-297.28 -357.58,-506.63 -630.32,-667.48z"/>
   </g>
   <g>
    <g>
     <rect class="fil3" x="2448.94" y="5638.6" width="1563.1" height="5673.65"/>
     <rect class="fil4" x="4012" y="5633.5" width="3333.11" height="5678.76"/>
     <polygon class="fil4" points="6992.55,5638.61 6939.36,5195.12 5797.87,4195.81 3553.83,4195.81 4666.15,5202.71 4666.15,5610.22 "/>
     <polygon class="fil3" points="3519.71,4195.81 2711.62,4195.81 2711.62,5610.3 4690.42,5610.3 4690.42,5206 "/>
     <polygon class="fil5" points="5735.78,5181.13 5414.09,3599.85 4134.34,3599.85 4377.84,4405.61 5252.62,5206 "/>
     <path class="fil1" d="M7321.83 5610.3l-4849.6 0c-31.04,0 -31.09,48.25 0,48.25l1526.16 0 0 5630.39c0,31.04 48.25,31.1 48.25,0l0 -5630.39 3275.19 0c31.04,0 31.1,-48.25 0,-48.25z"/>
     <path class="fil1" d="M6987.34 5187.48c0.03,-3.89 -1.04,-8.04 -3.53,-12.24 -22.25,-37.57 -52.29,-69.29 -84.48,-98.44 -35.64,-32.29 -72.5,-63.34 -108.93,-94.75 -75.88,-65.39 -152.16,-130.36 -228.81,-194.86 -153.3,-129.01 -308.12,-256.22 -464.44,-381.59 -87.93,-70.53 -176.29,-140.47 -265.13,-209.8 -10.35,-8.1 -23.99,-9.9 -34.11,0 -8.44,8.26 -10.25,26.11 0,34.11 312.55,244.06 619.5,495.29 920.42,753.59 42.33,36.32 84.62,72.72 126.61,109.41 23.38,20.44 46.59,41.34 66.8,64.79l-498 0.02c-20.68,-30.1 -46.19,-56.43 -73.27,-80.93 -35.64,-32.29 -72.5,-63.34 -108.93,-94.75 -75.88,-65.39 -152.16,-130.36 -228.8,-194.86 -93.99,-79.1 -321.56,-264.47 -416.66,-342.19 4.54,22.02 9.83,48.3 14.31,70.3 147.11,120.69 414.68,344.28 559.09,468.23 42.33,36.33 84.63,72.72 126.61,109.41 23.38,20.44 46.62,41.34 66.8,64.79l-1099.58 0c-20.67,-30.09 -46.18,-56.42 -73.26,-80.93 -35.64,-32.28 -72.5,-63.33 -108.93,-94.74 -75.88,-65.4 -152.16,-130.36 -228.81,-194.86 -153.28,-129.01 -308.12,-256.22 -464.44,-381.6 -87.93,-70.52 -176.29,-140.46 -265.15,-209.8 -10.35,-8.09 -23.99,-9.9 -34.12,0 -8.44,8.27 -10.24,26.11 0,34.12 312.55,244.06 619.5,495.29 920.42,753.59 42.33,36.32 84.63,72.72 126.61,109.41 23.38,20.44 46.59,41.34 66.8,64.79l-487.24 0.01c-3.6,0 -6.76,0.69 -9.53,1.81 -20.87,-30.85 -46.89,-57.75 -74.52,-82.77 -35.64,-32.28 -72.5,-63.33 -108.94,-94.74 -75.88,-65.4 -152.15,-130.36 -228.8,-194.87 -153.31,-129 -308.12,-256.21 -464.44,-381.59 -87.93,-70.53 -176.3,-140.46 -265.13,-209.8 -10.35,-8.09 -23.99,-9.9 -34.12,0 -8.43,8.27 -10.27,26.11 0,34.12 312.56,244.06 619.5,495.29 920.42,753.59 42.34,36.32 84.63,72.72 126.61,109.41 36.41,31.8 72.39,64.69 97.23,106.64 0.68,1.13 1.41,2.14 2.16,3.1l0 407.51c0,31.04 48.25,31.09 48.25,0l0 -404.2 510.63 0.03 0 404.2c0,31.04 48.25,31.09 48.25,0l0 -276.03c1.01,0.12 2.09,0.19 3.18,0.19l1108.98 0 0 275.84c0,31.04 48.25,31.09 48.25,0l0 -404.2 485.87 0c9.53,0 16.16,-4.58 19.83,-10.89 0.93,1.5 1.85,2.97 2.76,4.48 0.68,1.12 1.41,2.14 2.17,3.1l0 407.51c0,31.04 48.25,31.09 48.25,0l0 -407.61c-0.04,-6.33 -2.07,-11.34 -5.25,-15.09zm-601.91 98.64l-1108.97 0c-1.1,0 -2.17,0.08 -3.19,0.19l0 -80.32 1112.16 0 0 80.12z"/>
     <g>
      <polygon class="fil6" points="4480.81,3717.44 4545.17,3920.26 4340.75,3920.26 4276.4,3717.44 "/>
      <polygon class="fil7" points="4758.72,3717.44 4823.03,3920.26 4618.62,3920.26 4554.3,3717.44 "/>
      <polygon class="fil8" points="5036.62,3717.44 5100.93,3920.26 4896.53,3920.26 4832.2,3717.44 "/>
      <polygon class="fil1" points="5314.48,3717.44 5378.84,3920.26 5174.43,3920.26 5110.08,3717.44 "/>
     </g>
    </g>
    <g>
     <g>
      <path class="fil1" d="M7140.96 6066.36c2.1,-13.31 -5.54,-28.45 -22.94,-28.45l-2682.91 -0.01c-14.67,0 -22.41,10.77 -23.24,22.14 -7.76,3.24 -13.73,10.29 -13.73,21.26l0 860.07c0,11.34 6.45,18.52 14.6,21.6 2.51,9.22 9.93,16.92 22.33,16.92l2682.9 0c8.83,0 15.14,-3.89 18.95,-9.48 9.7,-2.19 18.02,-9.73 18.02,-22.62l0 -860.07c0.02,-11.07 -6.13,-18.18 -14,-21.37zm-2694.54 19.79l2660.4 0c-0.03,0.5 -0.08,1.01 -0.08,1.56l0 843.9 -2660.33 0 0 -845.46z"/>
      <path class="fil1" d="M6041.77 7080.41l-530.39 0c-21.23,0 -38.61,-17.37 -38.61,-38.61l0 -123.91c0,-21.24 17.38,-38.61 38.61,-38.61l530.39 0.01c21.23,0 38.61,17.37 38.61,38.61l0 123.91c0,21.23 -17.38,38.6 -38.61,38.6z"/>
     </g>
     <g>
      <path class="fil1" d="M7140.96 7397.77c2.1,-13.31 -5.54,-28.45 -22.94,-28.45l-2682.91 -0.01c-14.67,0 -22.41,10.77 -23.24,22.14 -7.76,3.24 -13.73,10.29 -13.73,21.26l0 860.07c0,11.34 6.45,18.52 14.6,21.61 2.51,9.21 9.93,16.91 22.33,16.91l2682.9 0c8.83,0 15.14,-3.89 18.95,-9.48 9.7,-2.19 18.02,-9.73 18.02,-22.62l0 -860.07c0.02,-11.07 -6.13,-18.18 -14,-21.37zm-2694.54 19.79l2660.4 0c-0.03,0.5 -0.08,1.01 -0.08,1.56l0 843.9 -2660.33 0.01 0 -845.47z"/>
      <path class="fil1" d="M6041.77 8411.83l-530.39 0c-21.23,0 -38.61,-17.37 -38.61,-38.61l0 -123.91c0,-21.24 17.38,-38.61 38.61,-38.61l530.39 0.01c21.23,0 38.61,17.38 38.61,38.61l0 123.92c0,21.22 -17.38,38.59 -38.61,38.59z"/>
     </g>
     <g>
      <path class="fil1" d="M7140.96 8729.18c2.1,-13.31 -5.54,-28.45 -22.94,-28.45l-2682.91 0c-14.67,0 -22.41,10.78 -23.24,22.14 -7.76,3.24 -13.73,10.3 -13.73,21.26l0 860.07c0,11.34 6.45,18.53 14.6,21.61 2.51,9.22 9.93,16.91 22.33,16.91l2682.9 -0.01c8.83,0 15.14,-3.89 18.95,-9.48 9.7,-2.19 18.02,-9.73 18.02,-22.62l0 -860.07c0.02,-11.07 -6.13,-18.15 -14,-21.37zm-2694.54 19.8l2660.4 0c-0.03,0.51 -0.08,1.02 -0.08,1.56l0 843.9 -2660.33 0 0 -845.46z"/>
      <path class="fil1" d="M6041.77 9743.24l-530.39 0c-21.23,0 -38.61,-17.37 -38.61,-38.61l0 -123.91c0,-21.23 17.38,-38.61 38.61,-38.61l530.39 0.01c21.23,0 38.61,17.38 38.61,38.62l0 123.91c0,21.22 -17.38,38.59 -38.61,38.59z"/>
     </g>
     <g>
      <path class="fil1" d="M7140.96 10060.62c2.1,-13.31 -5.54,-28.45 -22.94,-28.45l-2682.91 0c-14.67,0 -22.41,10.77 -23.24,22.14 -7.76,3.24 -13.73,10.29 -13.73,21.26l0 860.07c0,11.34 6.45,18.52 14.6,21.61 2.51,9.21 9.93,16.91 22.33,16.91l2682.9 -0.02c8.83,0 15.14,-3.89 18.95,-9.47 9.7,-2.19 18.02,-9.71 18.02,-22.62l0 -860.07c0.02,-11.08 -6.13,-18.18 -14,-21.37zm-2694.54 19.8l2660.4 0c-0.03,0.51 -0.08,1.01 -0.08,1.56l0 843.9 -2660.33 0 0 -845.46z"/>
      <path class="fil1" d="M6041.77 11074.65l-530.39 0c-21.23,0 -38.61,-17.37 -38.61,-38.61l0 -123.91c0,-21.23 17.38,-38.61 38.61,-38.61l530.39 0.01c21.23,0 38.61,17.38 38.61,38.62l0 123.91c0,21.22 -17.38,38.59 -38.61,38.59z"/>
     </g>
    </g>
   </g>
   <g>
    <g>
     <polygon class="fil5" points="3176.33,3555.11 3459.85,2379.99 2235.31,2162.75 1812.75,3848.96 3015.77,4198.01 "/>
     <g>
      <path class="fil6" d="M2787.98 6395.21l281.85 4100.66 79.8 -26.03 0 301.73c0,0 -109.46,77.13 -385.68,83.41 -276.21,6.28 -339.97,-38.3 -339.97,-38.3l-17.79 -320.81 106.94 58.31 -448.19 -3479.88 -107.13 -0.99 -456.29 3422.56 90.6 -20.73 -2.41 290.65c0,0 -181.35,116.57 -388.83,88.31 -207.49,-28.27 -315.89,-94.24 -315.89,-94.24l1.41 -306.65 55.84 4.94 254.95 -3141.08 115.14 -921.8 1475.64 0 0 -0.06z"/>
      <path class="fil1" d="M2148.2 6695.82c5.11,-23.32 40.9,-13.46 35.79,9.87 -5.01,22.84 -1.22,45.72 3.72,68.24 1.92,8.76 1.97,17.96 9.78,23.04 9.3,6.07 20.14,10.41 30,15.48 20.98,10.8 41.76,22.04 62.97,32.4 11.39,5.55 19.51,6.01 31.56,2.12 10.94,-3.53 21.68,-7.73 32.43,-11.73 21.92,-8.17 43.71,-16.74 65.31,-25.71 16.08,-6.69 38.49,-13.26 48.54,-28.69 10.58,-16.21 11.62,-42.67 14.35,-61.36 3.64,-24.89 5.5,-50 6.23,-75.16 0.71,-23.82 37.81,-23.91 37.1,0 -0.93,31.47 -3.89,62.78 -8.91,93.85 -4.01,24.84 -7.13,52.96 -24.99,72.21 -16.44,17.73 -40.72,25.89 -62.46,34.91 -27.01,11.2 -54.28,21.8 -81.78,31.78 -28.49,10.32 -48.34,13.63 -76.11,-0.16 -26.42,-13.12 -52.48,-27.02 -78.73,-40.52 -11.17,-5.75 -23.57,-10.99 -30.79,-21.82 -6.09,-9.15 -7.98,-20.25 -10.3,-30.76 -6.39,-29.31 -10.2,-58.35 -3.72,-87.99z"/>
      <path class="fil1" d="M1443.15 6770.56c0.16,-32 0.56,-64.01 0.85,-96.01 0.19,-23.86 37.3,-23.92 37.1,0 -0.22,26.01 -0.45,52.02 -0.68,78.03 -0.08,9.64 -3.24,27.13 1.81,35.23 4.88,7.83 21.79,15.25 29.58,20.51 21.71,14.66 43.43,29.33 65.14,44.02 10,6.76 20.04,13.53 30.05,20.29 9.61,6.49 19.97,15.84 30.6,20.44 9.39,4.07 19.03,-4.42 27.69,-8.83 10.85,-5.53 21.74,-11.05 32.6,-16.61 23.55,-11.99 47.1,-23.96 70.63,-35.95 10.86,-5.53 21.83,-10.92 32.6,-16.61 12.92,-6.79 14,-10.3 14.53,-25.3 0.93,-25.8 0.93,-51.66 0.45,-77.47 -0.45,-23.89 36.64,-23.89 37.11,0 0.59,30.79 2.63,63.33 -1.53,93.94 -4.1,30.09 -29.39,39.61 -53.55,51.94 -28.99,14.75 -57.96,29.52 -86.93,44.28 -14.48,7.35 -28.81,15.12 -43.46,22.14 -10.38,4.96 -20.36,9.08 -32.07,6.96 -12.32,-2.23 -22.16,-9.87 -32.31,-16.72 -13.36,-9.02 -26.74,-18.05 -40.1,-27.08 -26.74,-18.05 -53.44,-36.1 -80.17,-54.17 -10.75,-7.27 -24.01,-14.06 -31.67,-24.89 -8.2,-11.53 -8.37,-24.5 -8.28,-38.13z"/>
      <g>
       <path class="fil1" d="M1848 7162.03c6.92,0 12.9,-5.14 13.79,-12.16l6.23 -49.07c0.96,-7.62 -4.42,-14.58 -12.04,-15.57 -7.59,-0.96 -14.58,4.42 -15.57,12.05l-6.23 49.07c-0.96,7.61 4.42,14.58 12.04,15.57 0.59,0.08 1.18,0.12 1.78,0.12z"/>
       <path class="fil1" d="M1444.56 10324c-7.61,-0.96 -13.02,-7.93 -12.05,-15.55l12.56 -98.8c0.95,-7.61 7.95,-13.02 15.54,-12.04 7.61,0.95 13.02,7.92 12.04,15.54l-12.55 98.8c-0.9,7.02 -6.89,12.16 -13.79,12.16 -0.57,0 -1.16,-0.03 -1.75,-0.12zm25.09 -197.65c-7.61,-0.95 -13.02,-7.92 -12.04,-15.56l12.55 -98.81c0.96,-7.61 7.96,-13.02 15.57,-12.04 7.61,0.95 13.02,7.92 12.05,15.56l-12.56 98.81c-0.9,7.02 -6.88,12.16 -13.79,12.16 -0.58,0 -1.17,-0.04 -1.78,-0.13zm25.1 -197.61c-7.61,-0.96 -13.02,-7.93 -12.04,-15.57l12.55 -98.8c0.96,-7.61 7.98,-13.02 15.57,-12.05 7.61,0.96 13.02,7.93 12.05,15.57l-12.56 98.8c-0.9,7.03 -6.88,12.16 -13.79,12.16 -0.59,-0.01 -1.19,-0.04 -1.78,-0.12zm25.09 -197.63c-7.61,-0.96 -13.02,-7.93 -12.05,-15.57l12.56 -98.8c0.95,-7.61 7.95,-13.02 15.56,-12.05 7.62,0.96 13.03,7.93 12.05,15.57l-12.55 98.8c-0.91,7.03 -6.89,12.16 -13.79,12.16 -0.59,0 -1.18,-0.05 -1.78,-0.12zm25.12 -197.64c-7.61,-0.96 -13.02,-7.93 -12.04,-15.54l12.55 -98.8c0.96,-7.62 7.98,-13 15.57,-12.05 7.61,0.96 13.02,7.93 12.05,15.57l-12.56 98.8c-0.9,7.02 -6.88,12.16 -13.79,12.16 -0.58,-0.03 -1.19,-0.07 -1.78,-0.14zm25.1 -197.61c-7.61,-0.96 -13.02,-7.93 -12.04,-15.57l12.55 -98.81c0.96,-7.61 7.96,-13.02 15.57,-12.04 7.61,0.95 13.02,7.93 12.05,15.57l-12.56 98.8c-0.87,7.02 -6.88,12.16 -13.79,12.16 -0.6,-0.02 -1.19,-0.07 -1.78,-0.12zm25.09 -197.66c-7.61,-0.96 -13.02,-7.93 -12.05,-15.54l12.56 -98.8c0.95,-7.62 7.98,-13.02 15.54,-12.05 7.61,0.96 13.02,7.93 12.04,15.57l-12.55 98.8c-0.9,7.02 -6.89,12.16 -13.79,12.16 -0.56,-0.03 -1.16,-0.06 -1.75,-0.14zm25.1 -197.61c-7.62,-0.96 -13.02,-7.93 -12.05,-15.55l12.56 -98.8c0.95,-7.61 7.95,-12.99 15.56,-12.04 7.62,0.95 13,7.92 12.05,15.56l-12.55 98.81c-0.91,7.02 -6.89,12.15 -13.79,12.15 -0.6,-0.02 -1.19,-0.06 -1.78,-0.14zm25.11 -197.62c-7.61,-0.96 -13.02,-7.93 -12.05,-15.57l12.56 -98.8c0.95,-7.64 7.98,-13.02 15.57,-12.05 7.61,0.96 13.02,7.93 12.04,15.57l-12.55 98.8c-0.9,7.03 -6.89,12.16 -13.79,12.16 -0.59,-0.01 -1.18,-0.07 -1.78,-0.12zm25.1 -197.65c-7.61,-0.96 -13.02,-7.93 -12.05,-15.57l12.56 -98.8c0.95,-7.62 7.95,-13.03 15.56,-12.05 7.62,0.96 13.03,7.93 12.05,15.57l-12.55 98.8c-0.91,7.02 -6.89,12.16 -13.79,12.16 -0.6,0 -1.19,-0.03 -1.78,-0.12zm25.09 -197.62c-7.61,-0.96 -13.02,-7.93 -12.04,-15.57l12.55 -98.8c0.96,-7.61 7.98,-13.02 15.57,-12.05 7.61,0.96 13.02,7.93 12.05,15.57l-12.56 98.8c-0.9,7.03 -6.88,12.16 -13.79,12.16 -0.58,0 -1.17,-0.06 -1.78,-0.12zm25.1 -197.64c-7.61,-0.96 -13.02,-7.93 -12.04,-15.57l12.55 -98.8c0.96,-7.64 7.96,-13.02 15.57,-12.05 7.61,0.96 13.02,7.93 12.05,15.57l-12.56 98.8c-0.9,7.03 -6.88,12.16 -13.79,12.16 -0.6,-0.01 -1.19,-0.04 -1.78,-0.12zm25.12 -197.63c-7.62,-0.96 -13.03,-7.93 -12.05,-15.57l12.55 -98.8c0.96,-7.61 7.99,-12.99 15.54,-12.05 7.62,0.96 13.03,7.93 12.05,15.57l-12.55 98.8c-0.88,7.03 -6.89,12.16 -13.79,12.16 -0.56,0 -1.15,-0.05 -1.75,-0.12zm25.09 -197.64c-7.61,-0.96 -13.02,-7.93 -12.04,-15.57l12.55 -98.8c0.96,-7.61 7.96,-13.02 15.54,-12.05 7.62,0.96 13.02,7.93 12.05,15.57l-12.55 98.8c-0.91,7.03 -6.89,12.16 -13.79,12.16 -0.56,-0.01 -1.17,-0.04 -1.76,-0.12zm25.09 -197.62c-7.61,-0.95 -13.02,-7.92 -12.05,-15.56l12.56 -98.81c0.95,-7.61 7.98,-13.02 15.57,-12.04 7.61,0.95 13.02,7.93 12.04,15.57l-12.55 98.8c-0.9,7.02 -6.89,12.16 -13.79,12.16 -0.59,-0.02 -1.18,-0.04 -1.78,-0.13zm25.1 -197.62c-7.61,-0.96 -13.02,-7.93 -12.05,-15.57l12.56 -98.8c0.95,-7.62 7.95,-13 15.56,-12.05 7.62,0.96 13.03,7.93 12.05,15.57l-12.55 98.8c-0.91,7.02 -6.89,12.16 -13.79,12.16 -0.59,0 -1.17,-0.06 -1.78,-0.12z"/>
       <path class="fil1" d="M1427.53 10471.99c6.91,0 12.89,-5.13 13.79,-12.16l6.23 -49.07c0.95,-7.61 -4.43,-14.58 -12.05,-15.57 -7.61,-0.95 -14.58,4.43 -15.54,12.05l-6.23 49.07c-0.96,7.61 4.42,14.58 12.05,15.57 0.56,0.09 1.15,0.12 1.75,0.12z"/>
      </g>
      <path class="fil1" d="M2952.75 10474.78l-7.42 -98.63c-0.56,-7.67 5.16,-14.33 12.83,-14.91 7.64,-0.59 14.35,5.16 14.91,12.82l7.42 98.64c0.59,7.67 -5.16,14.35 -12.83,14.91 -0.34,0.03 -0.71,0.03 -1.04,0.03 -7.23,0 -13.34,-5.55 -13.87,-12.86zm-14.82 -197.31l-7.42 -98.64c-0.56,-7.66 5.16,-14.35 12.83,-14.91 7.61,-0.59 14.32,5.16 14.91,12.83l7.42 98.64c0.57,7.67 -5.16,14.32 -12.82,14.91 -0.35,0.03 -0.71,0.03 -1.05,0.03 -7.23,0.04 -13.33,-5.55 -13.87,-12.86zm-14.82 -197.27l-7.42 -98.64c-0.57,-7.67 5.16,-14.35 12.82,-14.91 7.64,-0.59 14.33,5.16 14.92,12.83l7.42 98.63c0.56,7.67 -5.16,14.33 -12.83,14.92 -0.34,0.02 -0.71,0.02 -1.04,0.02 -7.23,0 -13.34,-5.54 -13.87,-12.85zm-14.84 -197.32l-7.42 -98.63c-0.57,-7.67 5.16,-14.33 12.82,-14.91 7.62,-0.59 14.33,5.16 14.92,12.82l7.42 98.64c0.56,7.67 -5.17,14.35 -12.83,14.91 -0.34,0.03 -0.71,0.03 -1.07,0.03 -7.19,0.01 -13.28,-5.55 -13.84,-12.86zm-14.8 -197.3l-7.43 -98.63c-0.56,-7.67 5.17,-14.35 12.83,-14.91 7.64,-0.57 14.33,5.16 14.92,12.82l7.42 98.64c0.56,7.67 -5.17,14.32 -12.83,14.91 -0.37,0.03 -0.71,0.03 -1.07,0.03 -7.23,0.03 -13.31,-5.55 -13.84,-12.86zm-14.85 -197.28l-7.42 -98.64c-0.56,-7.67 5.17,-14.35 12.83,-14.91 7.67,-0.56 14.33,5.16 14.91,12.83l7.42 98.63c0.57,7.67 -5.16,14.33 -12.82,14.92 -0.37,0.02 -0.71,0.02 -1.07,0.02 -7.2,0.02 -13.31,-5.54 -13.85,-12.85zm-14.84 -197.3l-7.42 -98.64c-0.56,-7.67 5.16,-14.32 12.83,-14.91 7.64,-0.56 14.33,5.16 14.91,12.83l7.42 98.63c0.57,7.67 -5.16,14.35 -12.82,14.92 -0.35,0.02 -0.71,0.02 -1.05,0.02 -7.21,0 -13.3,-5.54 -13.87,-12.85zm-14.8 -197.32l-7.42 -98.63c-0.56,-7.67 5.16,-14.33 12.83,-14.91 7.67,-0.57 14.32,5.16 14.91,12.82l7.42 98.64c0.57,7.67 -5.16,14.35 -12.82,14.91 -0.37,0.03 -0.71,0.03 -1.07,0.03 -7.2,0.04 -13.31,-5.55 -13.85,-12.86zm-14.84 -197.27l-7.42 -98.64c-0.59,-7.66 5.16,-14.35 12.83,-14.91 7.61,-0.59 14.32,5.16 14.91,12.83l7.42 98.64c0.59,7.66 -5.16,14.35 -12.83,14.91 -0.34,0.03 -0.71,0.03 -1.04,0.03 -7.21,0 -13.31,-5.55 -13.87,-12.86zm-14.8 -197.31l-7.42 -98.64c-0.56,-7.67 5.16,-14.32 12.83,-14.91 7.64,-0.59 14.35,5.16 14.91,12.83l7.42 98.63c0.56,7.67 -5.16,14.35 -12.83,14.92 -0.36,0.02 -0.71,0.02 -1.04,0.02 -7.24,0.04 -13.33,-5.54 -13.87,-12.85zm-14.84 -197.28l-7.42 -98.63c-0.59,-7.67 5.16,-14.33 12.83,-14.91 7.61,-0.59 14.32,5.16 14.91,12.82l7.42 98.64c0.56,7.67 -5.16,14.35 -12.83,14.91 -0.36,0.03 -0.71,0.03 -1.07,0.03 -7.18,0 -13.28,-5.55 -13.84,-12.86zm-14.84 -197.31l-7.42 -98.64c-0.56,-7.66 5.16,-14.32 12.83,-14.91 7.64,-0.59 14.32,5.16 14.91,12.83l7.42 98.64c0.59,7.66 -5.16,14.32 -12.83,14.91 -0.34,0.03 -0.71,0.03 -1.04,0.03 -7.21,0.01 -13.29,-5.54 -13.87,-12.86zm-14.8 -197.3l-7.42 -98.64c-0.56,-7.66 5.16,-14.35 12.83,-14.91 7.61,-0.59 14.32,5.16 14.91,12.83l7.42 98.64c0.59,7.66 -5.16,14.32 -12.83,14.91 -0.34,0.03 -0.71,0.03 -1.04,0.03 -7.23,0.04 -13.33,-5.55 -13.87,-12.86zm-14.84 -197.27l-7.42 -98.64c-0.59,-7.67 5.16,-14.35 12.83,-14.91 7.64,-0.59 14.32,5.16 14.91,12.83l7.42 98.63c0.56,7.67 -5.16,14.35 -12.83,14.92 -0.37,0.02 -0.71,0.02 -1.07,0.02 -7.18,0 -13.28,-5.54 -13.84,-12.85zm-14.8 -197.32l-7.42 -98.63c-0.56,-7.67 5.16,-14.33 12.83,-14.91 7.67,-0.59 14.32,5.16 14.91,12.82l7.42 98.64c0.56,7.67 -5.16,14.32 -12.83,14.91 -0.34,0.03 -0.71,0.03 -1.07,0.03 -7.22,0.01 -13.31,-5.55 -13.84,-12.86zm-14.84 -197.31l-7.42 -98.64c-0.56,-7.66 5.16,-14.32 12.83,-14.91 7.69,-0.59 14.32,5.16 14.91,12.83l7.42 98.64c0.56,7.66 -5.16,14.32 -12.83,14.91 -0.34,0.03 -0.71,0.03 -1.04,0.03 -7.21,0.04 -13.34,-5.52 -13.87,-12.86zm-14.83 -197.27l-7.42 -98.64c-0.59,-7.67 5.16,-14.35 12.83,-14.91 7.64,-0.59 14.32,5.16 14.91,12.83l7.42 98.63c0.56,7.67 -5.16,14.35 -12.83,14.92 -0.36,0.02 -0.71,0.02 -1.06,0.02 -7.21,0.02 -13.29,-5.54 -13.85,-12.85zm-14.81 -197.3l-7.42 -98.64c-0.56,-7.67 5.16,-14.35 12.83,-14.91 7.61,-0.59 14.32,5.16 14.91,12.83l7.42 98.63c0.56,7.67 -5.16,14.35 -12.83,14.92 -0.34,0.02 -0.71,0.02 -1.07,0.02 -7.19,0 -13.31,-5.54 -13.84,-12.85zm-14.84 -197.32l-7.42 -98.63c-0.56,-7.67 5.16,-14.33 12.83,-14.91 7.64,-0.59 14.32,5.16 14.91,12.82l7.42 98.64c0.56,7.67 -5.16,14.35 -12.83,14.91 -0.37,0.03 -0.71,0.03 -1.04,0.03 -7.22,0.04 -13.3,-5.53 -13.87,-12.86zm-14.8 -197.27l-7.42 -98.64c-0.59,-7.66 5.16,-14.35 12.83,-14.91 7.61,-0.59 14.32,5.16 14.91,12.83l7.42 98.64c0.56,7.66 -5.16,14.35 -12.83,14.91 -0.34,0.03 -0.71,0.03 -1.04,0.03 -7.25,0 -13.34,-5.55 -13.87,-12.86z"/>
      <path class="fil1" d="M1761.62 7024.05c70.27,1.02 140.51,2.03 210.76,3.04 0,-0.5 0,-1.01 0.03,-1.57 7.3,-110.61 8.91,-221.45 4.76,-332.21 -0.87,-23.89 36.21,-23.82 37.11,0 4.11,110.77 2.53,221.62 -4.77,332.21 -0.05,0.75 -0.14,1.46 -0.24,2.16 60.41,1.1 121.31,1.6 180.02,-14.03 28.87,-7.7 41.17,37.02 12.32,44.71 -70.19,18.73 -143.11,16.33 -215.07,15.28 -74.97,-1.09 -149.93,-2.16 -224.92,-3.26 -29.79,-0.39 -29.89,-46.75 0.01,-46.33z"/>
      <g>
       <path class="fil8" d="M2577.41 10854.95l0 447.85 986.3 0c0,0 -7.84,-275.93 -275.94,-275.93l-207.82 -207.83c0.02,0.02 -193.33,35.9 -502.54,35.9z"/>
       <path class="fil1" d="M3174.87 11184.49c7.52,-53.95 35.35,-103.94 76.93,-139.07 18.13,-15.31 44.5,10.8 26.23,26.23 -37.44,31.63 -60.62,74.16 -67.39,122.72 -3.27,23.55 -38.99,13.5 -35.76,-9.87z"/>
       <path class="fil8" d="M968.44 10796.64l0 515.61 986.28 0.01c0,0 -7.83,-275.93 -275.93,-275.93l-207.83 -207.83c0.04,0 -233.46,-19.91 -502.53,-31.87zm316.87 117.34c40.19,-15.45 83.48,-24.73 120.58,-46.35 -37.1,21.63 -80.36,30.9 -120.58,46.35z"/>
       <path class="fil1" d="M1565.9 11193.94c7.52,-53.95 35.35,-103.94 76.93,-139.07 18.13,-15.31 44.5,10.8 26.23,26.23 -37.45,31.63 -60.63,74.16 -67.39,122.72 -3.27,23.54 -39,13.49 -35.76,-9.87z"/>
       <path class="fil1" d="M2423.98 10816.68c3.14,-11.14 16.72,-20.72 28.51,-16.18 111.44,42.97 231.21,49.18 349.31,41.34 56.2,-3.73 112.94,-9.08 168.31,-19.51 53.02,-9.98 104.2,-26.37 147.76,-59.08 10.1,-7.59 25.8,-1.56 31.73,8.32 7.05,11.78 1.63,24.25 -8.33,31.72 -43.48,32.66 -94.21,50.28 -146.73,61.32 10.68,12.91 21.6,25.6 32.68,38.14 14.94,-16.13 29.9,-32.28 44.81,-48.41 16.25,-17.57 42.43,8.71 26.23,26.23 -15.37,16.61 -30.76,33.22 -46.13,49.85 8.86,9.59 17.76,19.13 26.84,28.49 0.48,-0.42 0.99,-0.82 1.53,-1.19 14.87,-10.65 27.13,-24.4 36.7,-39.92 12.46,-20.3 44.55,-1.7 32.04,18.73 -11.74,19.12 -26.54,35.23 -44.11,48.81 12.16,12.02 24.48,23.82 37.03,35.47 0.39,-0.42 0.82,-0.87 1.27,-1.29 17,-15.59 34.01,-31.21 51.04,-46.81 17.57,-16.1 43.87,10.07 26.23,26.23 -17,15.6 -34.01,31.19 -51.01,46.79 15.47,13.73 31.24,27.18 47.25,40.32 18.47,15.14 -7.93,41.26 -26.23,26.23 -81.53,-66.86 -156.31,-141.45 -223.43,-222.74 -5.08,-6.17 -5.47,-13.25 -3.19,-19.22 -25.09,4.13 -50.36,7.2 -75.23,10.01 -95.74,10.83 -192.96,16.18 -288.85,3.94 -54.7,-6.98 -108.24,-19.14 -159.77,-39 -11.68,-4.52 -19.85,-15.66 -16.25,-28.55z"/>
       <path class="fil1" d="M1418.28 10912.15c14.94,-16.13 29.91,-32.29 44.82,-48.42 16.25,-17.57 42.43,8.71 26.23,26.23 -15.38,16.61 -30.76,33.22 -46.13,49.83 8.86,9.58 17.76,19.12 26.81,28.49 0.48,-0.42 0.99,-0.82 1.53,-1.19 14.87,-10.66 27.13,-24.4 36.67,-39.93 12.46,-20.29 44.55,-1.7 32.04,18.73 -11.74,19.13 -26.54,35.23 -44.11,48.81 12.16,12.02 24.48,23.87 37.03,35.48 0.39,-0.42 0.82,-0.88 1.27,-1.29 17,-15.6 34.04,-31.19 51.04,-46.81 17.57,-16.1 43.87,10.06 26.23,26.23 -17,15.59 -34.01,31.19 -51.01,46.78 15.47,13.74 31.24,27.18 47.25,40.33 18.47,15.14 -7.93,41.25 -26.23,26.23 -81.52,-66.86 -156.31,-141.45 -223.45,-222.74 -2.19,-2.68 -3.48,-5.53 -4.09,-8.37 11.52,-4.07 22.86,-8.49 33.87,-13.65 9.91,11.94 20,23.69 30.24,35.3z"/>
      </g>
      <path class="fil1" d="M2423.98 10514.93c3.14,-11.14 16.72,-20.76 28.51,-16.18 111.44,42.96 231.21,49.18 349.31,41.33 56.2,-3.72 112.94,-9.07 168.31,-19.51 53.02,-9.98 104.2,-26.37 147.76,-59.08 10.1,-7.58 25.8,-1.56 31.73,8.33 7.05,11.77 1.63,24.25 -8.33,31.72 -72.44,54.43 -164.96,67.08 -252.49,76.98 -95.73,10.83 -192.96,16.18 -288.84,3.94 -54.7,-6.98 -108.25,-19.14 -159.78,-38.99 -11.61,-4.48 -19.78,-15.63 -16.18,-28.54z"/>
      <path class="fil1" d="M862.82 10753.95c3.97,-10.86 18.29,-19.37 29.68,-13.9 107.76,51.58 226.64,67.11 344.99,68.56 56.31,0.68 113.3,-0.22 169.34,-6.29 53.63,-5.81 105.93,-18.1 151.93,-47.32 10.66,-6.76 25.87,0.49 30.97,10.78 6.13,12.29 -0.24,24.3 -10.77,31 -76.47,48.59 -169.7,53.97 -257.74,56.98 -96.29,3.3 -193.64,1.02 -288.27,-18.66 -54,-11.24 -106.42,-27.55 -156.22,-51.41 -11.23,-5.44 -18.51,-17.16 -13.91,-29.74z"/>
      <path class="fil1" d="M886.44 10453.15c3.97,-10.85 18.29,-19.37 29.69,-13.89 107.75,51.57 226.64,67.1 344.98,68.55 56.31,0.68 113.3,-0.22 169.34,-6.28 53.63,-5.81 105.93,-18.1 151.93,-47.32 10.66,-6.77 25.87,0.48 30.98,10.77 6.12,12.3 -0.25,24.31 -10.78,31 -76.47,48.59 -169.7,53.97 -257.74,56.99 -96.29,3.3 -193.64,1.01 -288.27,-18.67 -53.99,-11.24 -106.42,-27.54 -156.22,-51.41 -11.23,-5.43 -18.54,-17.17 -13.91,-29.74z"/>
     </g>
     <g>
      <path class="fil7" d="M788.01 4587.49c54.45,-162.31 159.1,-311.5 315.4,-388.86 87.9,-43.49 184.14,-65.51 280.24,-82.07 106.35,-18.32 213.94,-29.56 321.82,-33.19 26.2,-0.88 52.38,-1.29 78.61,-1.32 6.6,0 11.74,2.26 15.41,5.79 2.26,-0.78 4.76,-1.24 7.52,-1.31 126.61,-3.16 254.64,-5.81 379.21,20.87 112.2,24.01 218.56,72.44 315.1,133.86 100.02,63.67 190.32,141.73 274.26,225.14 47.21,46.89 93.34,95.25 138.15,144.73 56.4,-188.63 121.53,-374.56 195.45,-557.04 21.51,-53.13 43.8,-105.93 66.69,-158.51 3.02,-6.94 10.27,-10.58 17.74,-11.14 3.16,-1.66 7.05,-2.53 11.62,-2.29 157.32,9 314.32,22.79 470.84,41.29 12.74,1.53 22.78,9.41 23.18,23.18 9.92,331.35 -22.02,663.88 -94.92,987.3 -33.64,149.29 -68.26,310.11 -165.52,432.57 -41.43,52.14 -94.35,95.01 -156.39,119.93 -71.87,28.87 -151.65,30.39 -227.17,17.37 -87.78,-15.14 -170.15,-52.29 -249.78,-90.8 -12.24,-5.92 -24.48,-11.9 -36.72,-17.86 31.46,207.74 63.38,415.4 94.04,623.26 14.69,99.6 27.64,204.42 -1.7,302.71 -26.43,88.6 -87.67,159.66 -164.31,209.61 -84.91,55.3 -184.73,81.5 -283.76,97.35 -108.88,17.42 -219.33,29.07 -329.31,36.85 -110.06,7.81 -220.85,9.62 -330.82,-0.68 -54.85,-5.13 -109.49,-13.11 -163.33,-24.73 -51.8,-11.17 -103.96,-25.12 -150.72,-50.82 -86.86,-47.71 -144.79,-137.64 -194.71,-220.34 -51.36,-85.11 -92.6,-177.83 -105.98,-276.91 -39.34,-37.02 -75.55,-77.74 -111.6,-117.17 -65.26,-71.34 -124.26,-147.05 -165.43,-235.06 -80.02,-171.09 -100.86,-361.8 -115.1,-547.97 -15.28,-200.9 -22.96,-410.05 42.02,-603.74z"/>
      <path class="fil9" d="M2905.14 3538.46c24.73,-40.32 75.74,-28.78 111.51,-12.97 56.05,24.8 111.06,52.26 166.46,78.57 12.46,-29.28 27.21,-57.56 39.02,-87.11 12.27,-30.74 22.31,-62.31 30.8,-94.27 15.59,-58.68 25.96,-118.58 35.89,-178.42 -4.11,-7.32 -1.5,-16.74 4.54,-22.48 6.52,-12.91 26.51,-9.05 32.58,3.86 36.85,23.05 65.5,56.11 90.58,91.48 29.38,41.46 55.61,85.42 79.75,130.07 49.32,91.31 88.97,188.06 117.84,287.74 16.37,56.52 29.15,113.98 38.51,172.04 0.51,3.16 0.29,6.09 -0.48,8.71 19.94,0.48 27.1,31.78 5.27,36.17 -86.45,17.38 -175.17,22.11 -262.89,12.72 -43.65,-4.68 -87,-12.4 -129.46,-23.63 -35.67,-9.42 -74.81,-19.46 -100.44,-47.85 -5.89,-6.55 -6.04,-14.24 -3.07,-20.51 -76.59,-68.72 -150.39,-140.58 -220.82,-215.59 -28.91,-30.8 -62.01,-75.47 -35.59,-118.56z"/>
      <path class="fil1" d="M2951.87 4603.96c127.54,118.66 222.52,269.98 274.74,436.13 8.97,28.53 -35.79,40.74 -44.72,12.32 -49.88,-158.73 -141.02,-302.36 -262.81,-415.66 -21.92,-20.37 10.94,-53.12 32.79,-32.78z"/>
      <path class="fil1" d="M2711.39 4837.75c12.65,187.32 32.15,374.15 58.71,560.01 1.78,12.49 -3.07,24.77 -16.19,28.51 -10.85,3.09 -26.76,-3.81 -28.5,-16.18 -27.18,-189.98 -47.43,-380.86 -60.37,-572.33 -2.04,-29.79 44.36,-29.67 46.35,-0.01z"/>
      <path class="fil1" d="M1024.52 4937.66c7.86,304.74 44.05,608.42 108.59,906.33 18.13,83.73 38.52,166.96 61,249.62 7.83,28.81 -36.89,41.14 -44.72,12.32 -80.48,-296.17 -133.26,-599.77 -157.51,-905.72 -6.94,-87.39 -11.46,-174.94 -13.71,-262.59 -0.78,-29.81 45.57,-29.78 46.35,0.05z"/>
      <path class="fil1" d="M2869.23 3523.99c40.6,-53.67 120.55,-44.94 173.66,-17.99 33.75,17.15 64.63,41.7 100.87,53.63 6.99,2.31 14.43,4.68 21.77,5.55 9.4,1.12 8.1,-0.4 10.81,-10.07 6.54,-23.29 12.16,-46.92 18.07,-70.39 26.18,-103.74 50.32,-207.99 72.5,-312.67 2.94,-13.78 22.22,-22.27 34.06,-13.84 186.23,132.65 291.22,343.52 349.75,559.38 18.1,66.72 32.26,134.4 44.69,202.36 5.36,29.19 -39.33,41.67 -44.72,12.32 -39.92,-217.9 -100.22,-442.81 -246.05,-615.62 -30.22,-35.84 -63.73,-68.95 -100.42,-98.15 -16.74,77.44 -34.48,154.65 -53.41,231.57 -5.3,21.58 -10.68,43.11 -16.18,64.62 -5.36,21.05 -9.37,43.24 -17.03,63.53 -16,42.41 -60.49,36.33 -95.31,22.9 -58.1,-22.42 -111.95,-80.42 -178.76,-68.95 -23.43,4.04 -45.77,17.91 -44.82,44.36 1.32,36.25 37.03,67.14 60.32,91.11 67.14,69.1 140.07,132.43 218,189.05 10.21,7.42 14.94,20.07 8.32,31.72 -5.72,10.07 -21.63,15.65 -31.72,8.33 -71.97,-52.29 -140.18,-109.58 -203.42,-172.14 -47.96,-47.51 -136.31,-127.58 -81,-200.61z"/>
     </g>
     <g>
      <rect class="fil6" transform="matrix(0.231223 -1.3323 1.3323 0.231223 3056.59 2631.83)" width="144.15" height="145.3"/>
      <rect class="fil7" transform="matrix(0.231223 -1.3323 1.3323 0.231223 2793.39 2586.14)" width="144.15" height="145.3"/>
      <rect class="fil8" transform="matrix(0.231223 -1.3323 1.3323 0.231223 2530.3 2540.54)" width="144.15" height="145.3"/>
      <rect class="fil1" transform="matrix(0.231223 -1.3323 1.3323 0.231223 2267.15 2494.88)" width="144.15" height="145.3"/>
     </g>
    </g>
    <g>
     <path class="fil9" d="M1554.03 3984.88c2.42,-22.22 17,-39.84 40.89,-37.45 28.59,2.88 56.91,15.41 85.16,21.01 21.88,4.31 43.71,6.01 65.21,2.68 1.77,-7.33 7.51,-13.5 17.31,-13.46 63.29,0.32 124.87,-26.98 142.36,-91.58 -14.75,-6.74 -18.13,-31.39 1.24,-34.29 45.6,-6.88 87.96,-30.17 114.82,-68.27 23.63,-33.53 42.22,-87.95 25.94,-128.33 -9.39,-23.36 -30.22,-15.33 -50.17,-22.19 -19.63,-6.74 -35.39,-22.68 -44.4,-41.09 -11.17,-22.84 -12.12,-48.67 -9.3,-73.49 2.73,-24.05 6.32,-49.29 17.4,-71.11 11.31,-22.28 33.45,-40.56 59.16,-41.63 25.36,-1.07 46.31,14.53 64.5,30.44 11.12,-4.6 20.93,-12.09 28.13,-22.51 14.43,-20.78 12.21,-42.5 7.61,-65.95 -2.34,-11.96 -4.31,-23.95 -2.82,-36.15 1.53,-12.49 6.68,-23.46 11.31,-35.06 9.34,-23.4 17.13,-48.83 13.31,-74.27 -1.81,-11.93 6.62,-20.36 15.79,-22.65 -9.59,-34.94 -32,-62.97 -65.4,-79.61 -21.38,-10.65 -2.6,-42.67 18.73,-32.03 33.89,16.88 60.82,45.56 75.4,80.5 16.42,39.4 15.65,84.91 17.13,126.9 1.7,48.1 1.36,96.27 -0.99,144.35 -1.04,21.71 -3.35,43.53 -2.41,65.26 1.05,23.71 8.93,45.77 16.35,68.07 49.35,148.11 1.05,314.86 -125.76,408.02 -62.26,45.74 -139.67,70.64 -216.9,70.08 1.49,18.12 1.07,36.25 -1.63,54.59 -2.99,20.22 -6.23,48.73 -29.73,54.7 -11.95,3.04 -25.89,1.72 -38.08,1.85 -15.25,0.19 -30.5,0.16 -45.79,-0.13 -28.49,-0.5 -56.96,-1.8 -85.36,-3.88 -27.41,-2.03 -56.98,-2.51 -83.83,-8.77 -23.9,-5.54 -32.04,-23.96 -33.29,-46.76 -1.37,-25.2 -4.61,-52.67 -1.87,-77.78z"/>
     <g>
      <path class="fil10" d="M1022.14 3297.67c2.65,-24.55 9.08,-47.96 19.82,-70.24 2.48,-5.13 5.22,-10.14 8.18,-15.03 2.63,-4.34 9.27,-11.53 9.68,-16.79 0.37,-4.91 -4.57,-12.11 -6.35,-16.37 -2.51,-6.04 -4.74,-12.12 -6.45,-18.45 -13.17,-47.66 -4.32,-101.88 25.26,-141.77 24.93,-33.62 61.61,-56.28 101.96,-64.5 -3.53,-82.8 18.76,-166.43 68.93,-233.57 62.57,-83.7 160.08,-137.95 265.66,-137.57 55.14,0.22 109.92,14.72 157.37,42.67 44.05,-65.28 125.29,-96.95 203.21,-87.98 82.57,9.47 159.41,55.67 202.88,127.12 22.14,36.38 34.12,78.81 31.39,121.44 35.28,9.92 68.58,26.13 91.09,56.05 22.28,29.62 31.43,67.71 29.68,104.36 -0.95,20.27 -4.88,40.52 -10.8,59.9 -4.94,16.21 -10.3,36.18 -21.8,49.15 -10.75,12.12 -25.37,16.3 -41.11,14.11 -13.77,-1.92 -29.92,-12.43 -43.75,-9.34 -5.42,1.22 -10.12,0.19 -13.84,-2.14 -2.73,3.89 -5.3,7.86 -6.55,12.21 -2.87,10.07 6.35,19.52 11.76,27.18 6.66,9.42 12.24,19.06 16.21,29.95 8.55,23.4 9.03,49.15 6.13,73.65 -1.44,11.99 -4.4,23.71 -6.01,35.64 -1.85,13.9 1.99,25.89 4.23,39.42 5.79,34.94 -2.56,124.69 -57.76,100.22 -47.25,-20.95 -100.78,0.25 -116.03,50.92 -1.95,6.52 -6.29,10.35 -11.29,12.02 -12.61,42.87 -29.3,87.54 -12.72,130.25 16.3,41.93 58.23,72.44 103.24,73.43 11.5,0.25 21.77,11.73 17.88,23.48 -24.77,74.96 -79.32,134.72 -150.56,167.42 -2.62,54.2 -59.53,91.47 -107.44,111.04 -29.9,12.18 -64.51,19.85 -95.62,7.5 -14.66,-5.81 -27.04,-14.97 -35.98,-26.71 -3.44,0.19 -7.03,-0.54 -10.46,-2.29 -0.51,-0.25 -2.73,-1.29 -2.88,-1.44 -1.56,-0.58 -3.13,-1.16 -4.71,-1.63 -1.66,-0.5 -3.33,-0.93 -5.01,-1.31 -0.78,-0.17 -6.74,-1.07 -2.77,-0.62 -2.76,-0.34 -5.47,-1.12 -7.98,-2.31 -39.98,7.2 -81.86,4.2 -120.05,-9.78 -22.33,-8.17 -43.8,-20.44 -57.75,-40.29 -6.57,-9.34 -11.17,-20.39 -11.73,-31.9 -0.29,-5.75 0.34,-11.71 1.77,-17.28 0.32,-1.02 0.66,-2.03 0.99,-3.04 -11.53,-5.3 -22.45,-11.9 -32.57,-19.83 -8.23,-6.45 -14.94,-16.02 -23.38,-21.88 -1.92,-1.31 -4.1,-2.48 -6.36,-3.55 -0.65,0 -1.28,-0.05 -1.97,-0.12 -45.77,-5.16 -84.08,-31.19 -113.13,-66.16 -15.12,-18.19 -28.96,-38.99 -33.14,-62.68 -1.38,-7.8 -1.94,-16.37 -0.85,-24.25 -17.43,-34.54 -34.4,-69.32 -51.01,-104.28 -0.56,-0.12 -1.13,-0.22 -1.7,-0.39 -92.05,-27.1 -156.24,-117.08 -145.83,-213.64z"/>
      <path class="fil1" d="M1368.92 3742.14c10.86,36.52 53.27,53.44 87.4,39.65 11.7,-4.71 25.35,5.16 28.51,16.19 3.77,13.18 -4.63,23.86 -16.19,28.5 -11.07,4.48 -22.58,6.74 -34.06,7.06 23.77,40.6 65.23,69.41 112.65,75.66 28.85,3.77 58.29,-8.4 86.15,1.97 24.31,9.05 44.34,22.28 70.73,25.4 45.38,5.38 93.9,-9.37 128.76,-38.86 18.42,-15.57 32.18,-34.32 41.97,-56.34 6.49,-14.64 13.81,-26.91 28.51,-34.66 12.52,-6.59 27.09,-7.69 40.04,-13.25 53.98,-23.24 86.18,-82.11 79.83,-139.73 0,-0.08 0,-0.14 0,-0.19 -35.59,8.71 -74.31,-20.41 -91.31,-50.7 -23.66,-42.16 -22.78,-98.53 -14.89,-144.91 7.33,-43.21 32.12,-85.79 75.01,-101.46 29.46,-10.8 65.08,-3.75 87.22,18.1 0.61,-0.88 1.31,-1.73 2.12,-2.56 17.76,-18.9 26.93,-43.77 25.89,-69.68 -0.56,-14.13 -6.49,-27.41 -5.72,-41.65 0.82,-15.2 8.12,-29.19 10.88,-44.09 9.39,-50.73 -12.21,-103.08 -51.48,-135.38 -4.18,-3.44 -6.26,-8.43 -6.66,-13.68 -0.56,-0.24 -1.12,-0.53 -1.66,-0.82 -11.77,-6.71 -13.47,-20.39 -8.32,-31.72 19,-41.6 7.64,-93 -19.93,-128.05 -30.66,-39 -80.23,-60.78 -128.57,-66.83 -12.43,-1.56 -23.18,-9.53 -23.18,-23.18 0,-11.31 10.68,-24.77 23.18,-23.18 64.91,8.14 127.69,35.28 167.88,88.73 35.18,46.84 45.48,108.46 25.89,163.07 1.43,0.85 2.84,1.81 4.17,2.88 49.64,40.8 73.91,107.6 64.97,170.82 -1.07,7.67 -2.51,15.22 -4.63,22.7 -2.09,7.32 -6.49,15.28 -6.28,22.99 0.22,8.43 3.8,17.43 4.85,25.91 0.93,7.67 1.38,15.29 0.93,23.02 -2,34.28 -15.91,65.98 -39.4,90.94 -5.88,6.26 -12.77,7.98 -19.12,6.79 -5.33,17.99 -31.7,27.62 -41.49,6.55 -9.27,-19.98 -32.53,-25.43 -51.6,-15.6 -4.34,2.26 -8.27,4.99 -11.82,8.1 28.91,21.68 50.88,52.38 61.73,87.02 2.98,9.51 -11.93,13.6 -14.92,4.11 -10,-31.97 -30.46,-59.87 -57.22,-79.58 -9.95,13.94 -15.37,31.47 -17.98,48.06 -4.74,30.05 -5.22,65.11 3.94,94.32 5.53,17.63 30.17,56.26 52.92,40.37 19.1,-13.34 37.36,8.06 33.04,26.23 10.51,2.37 16.74,11.78 17.93,22.62 6.71,60.73 -22.33,122.33 -70.12,159.48 -12.36,9.61 -25.33,17.28 -39.79,23.29 -10.8,4.51 -30.82,6.09 -38.49,14.64 -4.68,5.22 -6.49,14.47 -9.61,20.84 -2.9,5.92 -6.18,11.65 -9.78,17.15 -8.23,12.59 -17.91,24.43 -28.78,34.77 -39.71,37.79 -94.41,59.7 -149.23,59.97 -29.24,0.14 -57.86,-6.28 -84.28,-18.66 -13.71,-6.42 -23.64,-13.36 -39.34,-11.93 -17.06,1.56 -33.11,4.18 -50.33,2.51 -69.71,-6.74 -135.05,-50.03 -163.5,-114.89 -2.63,-6.01 -3.38,-12.43 -1.92,-18.22 -28.12,-13.31 -51.12,-37.84 -60.17,-68.24 -8.56,-28.71 36.16,-40.95 44.67,-12.38z"/>
      <path class="fil1" d="M1145.02 3425.64c10.47,-27.64 55.31,-15.65 44.72,12.32 -22.16,58.59 4.85,134 64.57,158.91 11.51,4.79 19.88,15.37 16.19,28.5 -3.04,10.89 -16.87,21.08 -28.51,16.19 -81.51,-33.94 -128.98,-131.35 -96.97,-215.91z"/>
     </g>
    </g>
   </g>
   <g>
    <g>
     <g>
      <rect class="fil4" x="8493.84" y="8411.83" width="361.43" height="2900.43"/>
      <rect class="fil4" x="14657.82" y="8411.83" width="361.43" height="2900.43"/>
      <path class="fil4" d="M14086.42 6463.54c-6.42,6.42 -16.07,19.31 -22.53,25.74 -109.39,131.89 -160.85,289.51 -186.59,456.8 -52.29,332.13 -83.92,658.38 -55.7,987.18 242.57,-172.67 456.92,-374.03 686.22,-575.43 70.77,-67.57 147.95,-122.24 215.52,-189.78 19.32,-19.32 41.82,-38.61 61.14,-57.89 58.9,-58.9 123.2,-104.33 190.43,-156.03 0,-138.4 0,-346.83 0,-392.08 0,-69.05 -91.48,-283.28 -317.11,-283.28 -33.55,0 -167.87,0 -372.2,0 -71.85,53.74 -138.45,115.34 -199.19,184.76z"/>
      <path class="fil4" d="M14974.92 7080.41c0,0 0,-53.46 0,-126.31 -67.23,51.69 -131.53,97.12 -190.43,156.03 -19.32,19.3 -41.82,38.62 -61.14,57.89 -67.57,67.57 -144.74,122.24 -215.52,189.78 -229.29,201.41 -443.66,402.77 -686.22,575.43 1.29,15.15 2.68,30.29 4.23,45.43 -1.56,-15.14 -2.94,-30.28 -4.23,-45.43 -9.27,6.6 -18.58,13.17 -27.95,19.69 9.37,-6.52 18.66,-13.09 27.95,-19.69 -28.22,-328.79 3.41,-655.06 55.7,-987.18 25.74,-167.27 77.2,-324.91 186.59,-456.8 6.42,-6.42 16.07,-19.29 22.53,-25.74 60.74,-69.42 127.35,-131.02 199.19,-184.82 -1168.87,0 -4629.34,0 -4629.34,0 0,0 -453.69,12.83 -670.98,747.07l-130.02 34.48 -1202.31 1059.57 -7.48 322.12 6658.67 19.17c2.34,-111.87 6.45,-223.53 4.65,-335.74 -10.34,11.5 -20.94,22.78 -32.57,33.38 11.65,-10.58 22.22,-21.85 32.57,-33.38 -0.56,-34.91 -1.65,-69.9 -3.64,-104.96 1.95,35.05 3.07,70.02 3.64,104.96 21.12,-23.48 41.23,-47.96 67.15,-69.57 131.89,-106.14 250.92,-209.09 376.37,-318.48 212.31,-186.57 395.66,-369.94 604.76,-556.51 38.91,-34.57 78.03,-67.76 117.02,-100.51l-499.17 0.03 0 0.08z"/>
      <path class="fil4" d="M15474.12 7080.41c-38.99,32.75 -78.14,65.91 -117.02,100.51 -209.09,186.56 -392.45,369.94 -604.76,556.51 -125.46,109.38 -244.49,212.3 -376.37,318.48 -25.92,21.61 -46.02,46.08 -67.15,69.57 1.81,112.2 -2.31,223.86 -4.65,335.74l1780.54 5.13 0 -1385.89 -610.59 0 0 -0.04z"/>
      <path class="fil1" d="M9332.31 8455.54c0.56,-0.85 4.76,-26.48 6.82,-37.48l-1688.2 0c-31.04,0 -31.09,48.25 0,48.25l1679.55 0c0.81,-4.88 1.28,-6.32 1.84,-10.77z"/>
      <path class="fil1" d="M16084.68 8418.06l-3278.99 0c-4.11,16.89 -6.77,32.34 -9.96,48.25l3288.98 0c31.01,0 31.07,-48.25 -0.04,-48.25z"/>
      <path class="fil1" d="M15409.89 7120.24c-283.84,250.15 -567.73,500.3 -851.61,750.45 -80.19,70.66 -160.36,141.33 -240.56,211.99 -2.7,2.37 -4.6,4.94 -5.86,7.56 -10.35,11.36 -16.72,25.1 -20.61,39.98l-616.13 0.01c-4.31,0 -7.98,0.96 -11.12,2.54 2.09,-4.63 4.94,-8.92 8.89,-12.63 2.02,-1.92 3.57,-3.92 4.73,-5.98 282.87,-249.29 565.74,-498.56 848.63,-747.84 80.19,-70.66 160.36,-141.33 240.56,-211.99 23.36,-20.55 -10.88,-54.59 -34.12,-34.12 -283.84,250.15 -567.73,500.3 -851.61,750.45 -13.31,11.73 -26.64,23.46 -39.95,35.23 2.99,-123.28 5.96,-246.59 8.93,-369.89 2.97,-122.35 4.6,-244.88 13.65,-366.95 16.1,-216.91 60,-436.51 181.65,-620.6 60.44,-91.45 139.25,-170.38 234.87,-224.71 26.98,-15.34 2.7,-57.06 -24.36,-41.68 -178.13,101.24 -297.13,279.79 -363.11,470.14 -0.31,0.93 -0.61,1.89 -0.96,2.82l-4743.54 0c-31.04,0 -31.1,48.25 0,48.25l4728.2 0c-64.63,217.78 -67.76,449.6 -73.21,675.05 -3.55,147.42 -7.14,294.85 -10.68,442.27 -0.22,9.24 3.91,15.72 9.83,19.46 -53.95,47.54 -107.88,95.09 -161.84,142.6 -2.7,2.37 -4.6,4.94 -5.86,7.56 -33.38,36.64 -25.37,97.85 -25.6,143.35 -0.29,61.78 0.78,123.55 3.13,185.3 1.16,30.97 49.44,31.09 48.25,0 -2.09,-55.47 -3.19,-110.95 -3.16,-166.43 0,-26.93 0.08,-53.89 0.78,-80.79 0,-0.08 0,-0.17 0,-0.25 3.89,4.26 9.56,7.08 17.06,7.08l610.5 -0.01c-0.36,19.14 0.71,38.2 0.62,55.1 -0.29,61.78 0.78,123.55 3.13,185.3 1.17,30.97 49.44,31.09 48.25,0 -2.09,-55.47 -3.19,-110.95 -3.16,-166.43 0,-26.93 0.08,-53.89 0.78,-80.79 0.46,-18.1 0.83,-38.3 14.84,-51.51 2.03,-1.92 3.58,-3.92 4.74,-5.99 282.86,-249.28 565.74,-498.56 848.62,-747.83 80.2,-70.67 160.36,-141.33 240.56,-211.99 23.33,-20.53 -10.91,-54.57 -34.15,-34.08z"/>
      <path class="fil1" d="M9422.74 8104.49c7.36,-16.03 15.5,-31.9 26.25,-45.88l-475.88 0c-0.22,0 -0.46,0.03 -0.69,0.03 -8.17,-126.87 -13.18,-253.93 -14.84,-381.06 -1.7,-129.99 -3.13,-261.31 6.12,-391.07 4.68,-65.54 15.94,-131.6 47.6,-189.92 14.84,-27.3 -26.81,-51.68 -41.68,-24.36 -59.88,110.24 -57.05,241.24 -59.47,363.18 -0.9,45.46 -1.35,90.94 -1.41,136.4 -113.04,99.63 -226.1,199.24 -339.14,298.88 -80.2,70.66 -160.36,141.33 -240.56,211.99 -2.7,2.37 -4.6,4.94 -5.86,7.56 -10.35,11.36 -16.72,25.1 -20.61,39.98l-616.13 0.01c-4.31,0 -7.98,0.96 -11.12,2.54 2.1,-4.63 4.94,-8.92 8.89,-12.63 2.02,-1.92 3.57,-3.92 4.74,-5.98 282.86,-249.29 565.75,-498.56 848.62,-747.84 80.19,-70.66 160.36,-141.33 240.56,-211.99 23.36,-20.55 -10.88,-54.59 -34.12,-34.12 -283.84,250.15 -567.73,500.3 -851.6,750.45 -80.2,70.66 -160.36,141.33 -240.56,211.99 -2.7,2.37 -4.6,4.94 -5.86,7.56 -33.38,36.64 -25.37,97.86 -25.6,143.36 -0.29,61.78 0.78,123.54 3.13,185.29 1.17,30.97 49.44,31.1 48.25,0 -2.09,-55.47 -3.19,-110.94 -3.16,-166.42 0,-26.94 0.08,-53.89 0.78,-80.8 0,-0.08 0,-0.16 0,-0.25 3.89,4.26 9.56,7.08 17.06,7.08l610.48 0c-0.37,19.15 0.71,38.2 0.61,55.11 -0.28,61.78 0.79,123.54 3.14,185.29 1.16,30.97 49.44,31.1 48.25,0 -2.09,-55.46 -3.19,-110.94 -3.16,-166.42 0,-26.93 0.08,-53.89 0.78,-80.8 0.45,-18.1 0.82,-38.29 14.84,-51.51 2.02,-1.91 3.57,-3.91 4.74,-5.98 180.92,-159.44 361.84,-318.87 542.77,-478.31 0.51,70.21 2,140.41 4.54,210.55 2.8,77.5 6.82,154.96 12.02,232.31 1.22,18.16 18.47,25.69 32.04,22.48 3.81,3.48 9,5.67 15.65,5.67l448.75 -0.01c0.22,-0.78 0.51,-1.58 0.85,-2.37z"/>
      <path class="fil1" d="M13632.88 8058.61l-722.4 0c-9.98,16.13 -13.59,32.2 -23.66,48.25l746.06 0c31.04,0.03 31.07,-48.25 0,-48.25z"/>
     </g>
     <g>
      <path class="fil11" d="M10616.34 7593.61l-834.4 0c0,0 -487.65,292.59 -487.65,1332.87 0,1040.28 0,2080.57 0,2080.57l910.26 0.02c0,0 0,-1885.52 0,-2102.26 0,-216.72 65.03,-846.19 411.79,-1311.19z"/>
      <path class="fil7" d="M11476.42 7593.61l-834.4 0c0,0 -487.65,292.59 -487.65,1332.87 0,1040.28 0,2080.57 0,2080.57l910.26 0.02c0,0 0,-1885.52 0,-2102.26 0,-216.72 65.02,-846.19 411.79,-1311.19z"/>
      <path class="fil1" d="M13159.07 7593.61l-834.39 0c0,0 -487.65,292.59 -487.65,1332.87 0,1040.28 0,2080.57 0,2080.57l910.25 0.02c0,0 0,-1885.52 0,-2102.26 0,-216.72 65.01,-846.19 411.79,-1311.19z"/>
      <path class="fil8" d="M12315.31 7593.61l-834.41 0c0,0 -487.65,292.59 -487.65,1332.87 0,1040.28 0,2080.57 0,2080.57l910.27 0.02c0,0 0,-1885.52 0,-2102.26 0,-216.72 65.03,-846.19 411.79,-1311.19z"/>
     </g>
    </g>
    <g>
     <g>
      <path class="fil10" d="M16188.52 3960.35c-23.1,-67.04 -44.4,-134.14 -59.9,-203.38 -15.06,-67.25 -26.48,-135.25 -38.54,-203.09 -23.77,-133.74 -50.73,-268.56 -111.39,-391.23 -54.96,-111.19 -136.68,-208.98 -237.21,-281.74 -121.53,-87.96 -271.87,-135.49 -422,-130.73 -7.92,0.25 -13.3,4.4 -16.18,9.83 -183.43,3.64 -332.97,150.05 -388.19,317.52 -33.53,101.77 -37.25,211.63 -23.96,317.29 6.86,54.62 18.1,108.29 31.84,161.55 14.48,56.15 30.12,112.46 32.97,170.69 6.33,129.6 -39.56,254.35 -83.49,374.1 -2.34,6.38 0.45,14.16 4.96,18.78 25.68,26.25 61.75,30.74 96.35,35.89 44.13,6.6 88.29,13.02 132.48,19.27 89.02,12.58 178.17,24.48 267.34,35.69 177.1,22.22 354.54,41.68 532.26,58.34 101.55,9.51 203.2,18.1 304.89,25.8 1.12,0.08 2.19,0.05 3.24,-0.03 -2.31,24.02 -6.91,48.06 -14.3,72.08 -7.33,23.79 29.92,33.98 37.22,10.26 43.16,-140.15 -2.56,-283.9 -48.37,-416.91z"/>
      <path class="fil9" d="M15768.26 3871.86l5.16 -34.44c1.98,-13.14 -7.1,-22.24 -16.97,-23.82 -2.17,-8.76 -4.32,-17.57 -6.5,-26.34 0.91,-3.1 0.99,-6.66 -0.16,-10.61 -4.31,-14.84 -6.45,-29.44 -6.45,-44.9 0,-8.46 -4.48,-14.03 -10.41,-16.74l-7.66 -65.31c-8.04,-68.44 -12.83,-138.71 -30.93,-205.45 -17.23,-63.6 -49.32,-119.9 -103.29,-159.02 -53.5,-38.73 -118.41,-56.68 -176.59,-86.76 -36.88,-19.06 -72.39,-42.05 -104.81,-68.02 -26.77,-21.43 -55.89,-48.93 -57.13,-85.5 -0.56,-16.84 -20.63,-25.3 -32.96,-13.65 -39.4,37.28 -78.79,74.53 -118.15,111.81 -21.27,20.14 -46.02,39.9 -61.34,64.83 -11.08,-5.42 -28.49,0.14 -29.56,16.55 -2.97,45.77 -4.63,92.6 11.92,135.79 6.69,56.08 14.19,112.6 36.14,165.08 19.34,46.3 49.85,87.67 88.57,119.68 63.59,52.59 143.42,77.88 224.04,76 -0.06,0.54 -0.14,1.07 -0.17,1.63 -1.56,31.59 -3.13,63.16 -4.68,94.72 -1.36,27.64 -3.6,55.52 1.24,82.96 9.71,54.91 55.28,87.16 105.1,104.4 42.93,14.84 87.54,16.75 130.23,8.33 4.94,-0.76 9.83,-1.7 14.72,-2.73 63.16,-9.34 122.58,-35.39 153.18,-96.42 5.79,-11.53 -2.03,-25.01 -12.21,-28.85 0.12,-0.37 0.22,-0.71 0.34,-1.07 4.74,-1.97 8.43,-5.94 9.36,-12.14z"/>
      <path class="fil1" d="M15151.8 3327.3c-3.22,-5.54 -7.76,-10.06 -13.06,-13.17 -2.6,-3.04 -5.61,-5.75 -8.93,-8.03 -10.51,-7.16 -25.49,-8.66 -36.67,-2 -9.98,5.96 -13.3,14.38 -14.4,25.3 -0.59,5.89 -0.05,11.9 1.32,17.66 3.43,14.04 13.84,25.65 27.54,30.19 12.92,4.32 28.66,1.66 38.49,-8.09 11.19,-10.97 13.58,-28.23 5.71,-41.86z"/>
      <path class="fil1" d="M15459.14 3320.01c-2.9,1.41 -5.5,3.24 -7.8,5.38 -3.25,1.97 -6.13,4.73 -8.44,8.2 -14.18,21.32 0.56,51.48 24.06,57.95 24.42,6.71 46.56,-13.87 45.45,-38.2 -1.23,-26.98 -27.96,-45.62 -53.26,-33.32z"/>
      <path class="fil1" d="M15338.39 3450.07c-7.61,-9.64 -19.9,-8.21 -30.65,-10.55 -10.44,-2.28 -14.41,-11.99 -17.23,-21.34 -4.31,-14.38 -7.76,-29.1 -11.58,-43.62 -4.04,-15.28 -8.06,-30.54 -12.09,-45.82 -2.66,-10.01 -18.16,-5.75 -15.5,4.29 4.17,15.78 8.32,31.58 12.48,47.34 3.89,14.72 7.2,29.78 11.88,44.28 3.91,12.09 10.29,23.92 22.72,28.85 5.38,2.14 11.22,2.53 16.95,3.19 4.8,0.54 8.77,1.12 11.66,4.79 2.68,3.41 8.57,2.82 11.36,0 3.41,-3.41 2.73,-8.01 0.01,-11.41z"/>
      <path class="fil1" d="M15413.74 3497.66c-31.16,28.22 -81.04,30.74 -115.45,6.98 -3.57,-2.48 -8.93,-0.68 -10.99,2.88 -2.34,3.97 -0.71,8.51 2.87,10.99 40.46,27.92 98.71,23.29 134.93,-9.53 7.71,-6.92 -3.72,-18.26 -11.36,-11.32z"/>
      <path class="fil1" d="M16058.79 4023.59c-35.76,-97.54 -52.38,-200.49 -65.98,-303.08 -12.9,-97.26 -23.32,-195.14 -46.08,-290.75 -20.55,-86.42 -50.78,-171.96 -99.07,-247 -24.06,-37.39 -52.56,-71.99 -85.52,-101.88 -36.54,-33.16 -77.88,-60.58 -120.41,-85.45 -44.94,-26.3 -91.16,-50.48 -136.96,-75.32l-146.57 -79.44 -27.71 -15.03c3.22,-8.55 2.14,-17.99 -5.04,-25.36 -8.37,-8.54 -25.94,-10.12 -34.12,0 -8.17,10.15 -16.18,20.41 -24.02,30.82 -51.51,13.94 -101.21,34.86 -147.02,62.23 -13.6,8.12 -26.81,16.82 -39.71,26.03 -3.53,2.51 -5.21,7.03 -2.87,11 2.02,3.5 7.45,5.42 10.99,2.87 44.41,-31.75 93.26,-57.22 144.86,-75.06 6.04,-2.09 12.12,-4.06 18.25,-5.91 -16.15,22.58 -31.5,45.77 -45.81,69.65 -0.82,1.38 -1.46,2.72 -1.97,4.09 -49.13,24.93 -94.98,56.18 -136.21,92.72 -11.87,10.52 -23.31,21.51 -34.38,32.88 -7.22,7.42 4.14,18.81 11.37,11.36 38.54,-39.71 82.16,-74.25 129.74,-102.53 7.08,-4.2 14.21,-8.27 21.46,-12.18 0.31,3.41 1.49,6.96 3.78,10.58 1.38,2.17 2.7,4.34 4.03,6.57 -0.87,2.43 -1.46,4.99 -1.75,7.64 -5.21,49.44 -53.91,82.77 -90.75,109.32 -42.72,30.79 -83.43,63.19 -102.75,113.84 -11.08,29.05 35.55,41.59 46.52,12.82 18.45,-48.38 69.65,-75.68 108.57,-105.55 28.31,-21.74 53.97,-46.52 70.1,-76.83 5.72,12.46 11.65,24.83 18.56,36.72 17.6,30.22 39.34,58.46 63.87,83.38 48.13,48.98 107.87,85.67 173.09,106.93 1.89,3.67 5.02,6.99 9.71,9.53 38.78,20.95 78.56,42.19 111.73,71.65 36.54,32.48 56.87,71.65 68.51,118.81 26.34,106.74 43.31,216.74 61.61,325.07 10.52,62.22 20.34,124.53 29.56,186.93 1.89,12.87 18.23,20.05 29.66,16.87 13.82,-3.86 18.79,-16.69 16.87,-29.66 -17.03,-115.47 -36.26,-230.61 -57.76,-345.32 -10.4,-55.57 -19.82,-111.78 -33.4,-166.71 -12.22,-49.35 -33.59,-93.9 -70.02,-129.92 -37.91,-37.45 -85.06,-63.79 -131.53,-88.93 -2.51,-5.55 -7.27,-10.18 -14.72,-12.46 -61.87,-18.92 -117.71,-53.7 -162.48,-100.36 -22.07,-23.02 -40.99,-48.62 -56.55,-76.47 -15.74,-28.25 -26.45,-59.03 -42.33,-87.16 10.07,-16.79 20.64,-33.25 31.61,-49.38 8.64,78.62 59.93,143.56 119.71,192.18 65.93,53.61 144.01,88.55 214.72,134.96 35.42,23.27 68.95,49.66 96.78,81.8 27.44,31.7 48.79,68.47 65.06,106.99 33.78,80.05 46.67,167 56.28,252.75 10.58,94.27 18.13,190.14 47.66,280.89 3.7,11.36 7.76,22.58 12.16,33.67 1.6,4.06 5.35,6.79 9.9,5.61 3.86,-1.01 7.23,-5.86 5.61,-9.9 -35.25,-89.1 -45.56,-184.93 -55.83,-279.45 -9.48,-87.25 -19.57,-175.37 -48.98,-258.59 -13.84,-39.17 -31.81,-77.09 -55.57,-111.27 -24.56,-35.32 -54.99,-65.28 -89.19,-91.28 -67.86,-51.58 -146.72,-85.72 -216.43,-134.45 -63.02,-44.09 -123.87,-104.09 -141.92,-181.46 -2.19,-9.42 -3.67,-18.93 -4.45,-28.54 -0.34,-4.06 -3.07,-6.52 -6.2,-7.35 10.46,-14.87 21.38,-29.41 32.71,-43.65 92.94,50.33 186.31,99.97 278.68,151.26 42.53,23.6 84.67,48.53 122.94,78.68 35.93,28.32 67.86,61.31 94.55,98.44 51.43,71.52 84.13,154.6 106.51,239.36 24.45,92.63 36,187.81 48.24,282.65 13.15,101.92 27.1,204.44 58.37,302.66 3.81,11.99 7.9,23.89 12.24,35.66 3.58,9.71 19.13,5.55 15.53,-4.2z"/>
      <path class="fil1" d="M16145.57 4060.68c-48.91,-105.01 -72.58,-219.38 -90.63,-333.17 -18.15,-114.4 -30.82,-229.93 -58.17,-342.67 -25.65,-105.55 -65.6,-207.27 -129.1,-295.95 -58.66,-81.92 -133.4,-151.87 -218.57,-205.67 -84.67,-53.49 -179.9,-91.05 -278.78,-107.63 -12.32,-2.07 -24.7,-3.8 -37.13,-5.27 -10.27,-1.22 -10.17,14.88 0,16.07 98.5,11.65 194.09,44.58 279.97,93.97 86.33,49.63 163.07,115.93 224.18,194.6 65.5,84.35 108.68,181.77 136.32,284.52 29.91,111.22 43.51,225.87 60.68,339.51 17,112.58 37.5,225.84 80.73,331.77 5.25,12.8 10.77,25.49 16.61,38.04 4.35,9.37 18.22,1.2 13.88,-8.1z"/>
     </g>
     <g>
      <g>
       <path class="fil1" d="M15297.69 10722.23l0 590.03 -372.23 0 -27.1 -145.61 -145.61 145.61 -620.82 0c0,0 -6.42,-74.76 141.7,-139.16 148.13,-64.41 387.09,-155.86 387.09,-155.86l80.56 -359.42 306.87 -85.31 249.56 149.73z"/>
       <path class="fil1" d="M16333.12 10722.23l0 590.03 -372.23 0 -27.1 -145.61 -145.61 145.61 -620.84 0c0,0 -6.43,-74.76 141.69,-139.16 148.13,-64.41 387.1,-155.86 387.1,-155.86l80.56 -359.42 306.86 -85.31 249.59 149.73z"/>
      </g>
      <g>
       <path class="fil7" d="M14972.36 6110.55c0,0 -273.23,183.06 -404.15,1289.14 -130.95,1106.08 -272.43,3211.12 -272.43,3211.12 0,0 286.96,173.45 516.56,55.47 0,0 207.48,184.33 524.56,73.75 0,0 324.43,191.72 582.53,-44.24 0,0 226.69,191.72 474.65,-14.75 0,0 247.97,154.53 424.95,-70.21 0,0 -184.33,-1633.14 -213.84,-2274.65 -29.49,-641.51 -191.86,-1551.42 -313.45,-1859.64l-677.68 -368.55 -593.87 -108.66 -47.82 111.22z"/>
       <path class="fil1" d="M14924.87 9334.98l-89.42 997.08c-8.39,93.74 -16.81,187.5 -25.21,281.23 -2.23,24.73 36.41,24.59 38.61,0 29.81,-332.35 59.62,-664.7 89.42,-997.08 8.4,-93.74 16.82,-187.49 25.21,-281.23 2.19,-24.74 -36.42,-24.59 -38.61,0z"/>
       <path class="fil1" d="M14988.42 8755.89c-16.55,144.97 -33.14,289.94 -49.69,434.91 -2.82,24.65 35.82,24.46 38.61,0 16.58,-144.97 33.14,-289.94 49.69,-434.91 2.79,-24.64 -35.82,-24.45 -38.61,0z"/>
       <path class="fil1" d="M14999.03 8460.01c-5.89,59.34 -11.82,118.66 -17.72,178 -2.45,24.7 36.15,24.52 38.61,0 5.89,-59.34 11.82,-118.66 17.72,-178 2.44,-24.69 -36.15,-24.52 -38.61,0z"/>
       <path class="fil1" d="M15079.81 7690.3c-20.95,130.76 -35.39,262.45 -43.06,394.61 -1.44,24.81 37.17,24.73 38.61,0 7.47,-128.76 21.29,-257.02 41.68,-384.34 3.89,-24.31 -33.3,-34.77 -37.23,-10.27z"/>
       <path class="fil1" d="M15352.08 9967.65c-10.35,201.79 -16.66,403.79 -18.97,605.83 -0.29,24.83 38.32,24.86 38.61,0 2.31,-202.04 8.64,-404.04 18.97,-605.83 1.29,-24.84 -37.33,-24.77 -38.61,0z"/>
       <path class="fil1" d="M15449.45 7439.53c-21.69,420 -37.57,840.27 -47.54,1260.72 -2.79,117.39 -5.11,234.79 -6.98,352.18 -0.4,24.84 38.2,24.87 38.61,0 6.71,-420.5 19.26,-840.88 37.7,-1261.05 5.16,-117.3 10.78,-234.59 16.82,-351.84 1.27,-24.85 -37.33,-24.8 -38.6,-0.01z"/>
       <path class="fil1" d="M15484.02 7024.5c-0.93,-24.76 -39.54,-24.86 -38.61,0l8.49 223.79c0.93,24.77 39.54,24.87 38.61,0l-8.49 -223.79z"/>
       <path class="fil1" d="M15483.88 6801.87c-8.15,-23.29 -45.45,-13.28 -37.22,10.27 5.53,15.84 8.14,32.38 5.72,49.15 -1.49,10.3 2.53,20.73 13.47,23.75 9.05,2.48 22.25,-3.1 23.75,-13.48 3.43,-23.74 2.23,-46.88 -5.73,-69.68z"/>
       <path class="fil1" d="M15861.52 7144.79c-7.42,-108.51 -15.91,-216.94 -25.4,-325.28 -2.14,-24.55 -40.78,-24.79 -38.61,0 33.72,384.52 54.37,770.14 61.67,1156.08 2.06,108.73 3.04,217.49 3.01,326.26 0,24.84 38.61,24.86 38.61,0 0.08,-386 -12.94,-771.98 -39.28,-1157.07z"/>
       <path class="fil1" d="M15900.4 8756.05c-4.79,-59.22 -9.58,-118.47 -14.38,-177.68 -1.99,-24.6 -40.6,-24.82 -38.61,0 4.8,59.21 9.59,118.46 14.38,177.68 2.01,24.59 40.65,24.79 38.61,0z"/>
       <path class="fil1" d="M15893.39 9401.36c-2.85,-35.06 -5.69,-70.13 -8.54,-105.18 -2,-24.6 -40.61,-24.82 -38.61,0 2.85,35.05 5.69,70.12 8.54,105.18 2,24.59 40.61,24.79 38.61,0z"/>
       <path class="fil1" d="M15887.52 9774.29c-0.88,-73.79 -1.49,-147.61 -1.89,-221.45 -0.12,-24.84 -38.71,-24.89 -38.61,0 1.31,259.97 5.81,519.87 13.53,779.74 2.19,73.77 4.65,147.57 7.35,221.33 0.9,24.77 39.51,24.87 38.61,0 -9.52,-259.77 -15.9,-519.69 -18.99,-779.62z"/>
       <path class="fil1" d="M16214.31 7478.84c-8.93,-118.65 -17.85,-237.29 -26.79,-355.95 -8.17,-108.75 -12.89,-218.77 -32.76,-326.19 -10.95,-59.17 -27.72,-116.69 -52.48,-171.56 -10.22,-22.62 -43.49,-3.02 -33.33,19.48 42.95,95.26 57.49,200.12 66.51,303.33 9.76,111.63 17.13,223.53 25.53,335.29 4.91,65.2 9.8,130.41 14.71,195.61 1.84,24.61 40.48,24.83 38.61,-0.01z"/>
       <path class="fil1" d="M16233.75 7729.13c-6.36,-48.3 -12.72,-96.64 -19.06,-144.94 -1.39,-10.41 -7.9,-19.17 -19.29,-19.32 -9.4,-0.08 -20.68,8.97 -19.3,19.32 6.36,48.3 12.72,96.64 19.06,144.94 1.39,10.41 7.9,19.17 19.29,19.29 9.37,0.12 20.65,-8.93 19.3,-19.29z"/>
       <path class="fil1" d="M16251.31 8154.11c-3.75,-60.63 -7.76,-121.23 -11.95,-181.8 -1.73,-24.64 -40.32,-24.84 -38.61,0 14.88,213.66 26.84,427.49 35.82,641.47 2.53,60.68 4.84,121.36 6.91,182.08 0.85,24.8 39.44,24.9 38.61,0 -7.31,-214.05 -17.54,-427.99 -30.77,-641.75z"/>
       <path class="fil1" d="M16285.54 8929.03c-4.26,-24.43 -41.48,-14.06 -37.22,10.27 6.91,39.61 8.97,79.63 6.81,119.76 -1.28,24.81 37.3,24.77 38.61,0 2.32,-43.65 -0.68,-87 -8.2,-130.02z"/>
       <path class="fil1" d="M16409.34 10321.15c-2.19,-46.5 -4.42,-93 -6.66,-139.51 -2.12,-44.21 0.22,-92.24 -15.94,-134.18 -8.86,-22.92 -46.18,-12.96 -37.23,10.27 15.65,40.61 12.8,87.39 14.84,130.25 2.19,46.5 4.43,93 6.66,139.51 4.42,92.99 8.86,186 13.28,279 1.19,24.72 39.79,24.86 38.61,0 -4.52,-95.11 -9.06,-190.21 -13.57,-285.34z"/>
       <path class="fil1" d="M15139.53 6787.54c-1.89,79.02 -3.77,158.03 -5.66,237.07 -0.59,24.84 38,24.84 38.61,0 1.89,-79.01 3.77,-158.03 5.66,-237.07 0.59,-24.84 -38,-24.84 -38.61,0z"/>
       <path class="fil1" d="M14595.34 8387.8c-18.73,244.54 -39.34,488.92 -61.88,733.15 -22.53,244.2 -46.95,488.24 -73.26,732.07 -14.89,137.81 -30.37,275.57 -46.47,413.25 -2.88,24.62 35.76,24.43 38.61,0 28.45,-243.57 55.04,-487.41 79.71,-731.42 24.68,-244 47.43,-488.21 68.3,-732.55 11.77,-138.13 22.99,-276.29 33.56,-414.5 1.91,-24.79 -36.7,-24.67 -38.57,0z"/>
       <path class="fil1" d="M14642.52 8024.06c-2.2,-24.52 -40.83,-24.79 -38.61,0 4.54,50.93 3.38,102.17 -4.55,152.7 -3.8,24.3 33.38,34.76 37.23,10.27 8.49,-54.09 10.8,-108.4 5.93,-162.97z"/>
       <path class="fil1" d="M14722.42 7277.1c-9.02,-2.6 -22.28,3.17 -23.74,13.48 -19.61,138.76 -29.73,278.6 -29.66,418.78 0,24.84 38.61,24.86 38.61,0 -0.05,-136.62 9.17,-273.23 28.28,-408.51 1.47,-10.4 -2.54,-20.58 -13.48,-23.75z"/>
      </g>
      <g>
       <path class="fil8" d="M16729.48 5655.92c-5.79,-148.08 -18.32,-296.01 -42.1,-442.33 -44.69,-275.11 -132.14,-547.65 -290.18,-779.42 -137.81,-202.07 -325.76,-372.96 -553.15,-467.51 -16.91,-7.03 -34.01,-13.53 -51.27,-19.66 0.06,-0.14 0.14,-0.25 0.22,-0.4 11.59,-21.97 -21.74,-41.48 -33.32,-19.48 -1.36,2.6 -2.88,5.01 -4.46,7.39 -14.18,-2.94 -22.89,10.44 -21.29,22.33 -14.84,11.48 -32.53,19.71 -49.71,27.25 -34.65,15.2 -71.97,27.41 -109.78,31.19 -63.75,6.35 -134.28,-12.72 -171.09,-68.83 -2.6,-3.94 -5.89,-6.42 -9.48,-7.73 3.55,-11.08 -2.31,-26.01 -17.59,-26.68 -129.58,-5.72 -260.53,15.94 -380.8,64.8 -104.93,42.63 -200.77,104.03 -285.95,178.47 -182.28,159.26 -307.2,371.4 -395.55,594.51 -47.49,119.93 -85.2,243.69 -117.53,368.51 -33.87,130.73 -60.07,264.33 -65.95,399.55 -5.45,124.98 7.13,252.23 45.85,371.55 35.11,108.22 91.31,216.78 180.53,290.21 40.4,33.28 87.42,59.53 139.16,69.8 55.36,10.97 112.07,3.84 164.06,-17.66 106.45,-43.97 179.41,-134.31 236.44,-231.09 1.2,0.71 2.46,1.35 3.87,1.85 194.37,71.4 393.91,128.47 596.72,170.26 48.59,10.01 97.37,19.06 146.27,27.35 100.97,178.27 297.95,300.24 505.32,297.22 120.44,-1.75 239.8,-43.93 336.33,-115.58 101.96,-75.67 174.35,-180 210.76,-301.62 40.92,-136.98 39.19,-282.74 33.66,-424.27z"/>
       <polygon class="fil5" points="14466.71,5388.98 14295.74,4303.67 15156.43,4328.66 15557.37,6699.59 14717.11,6620.1 "/>
       <g>
        <path class="fil9" d="M14790.61 5484.44c-18.52,-30.29 -52.02,-47.47 -85.96,-54.33 -42.36,-8.6 -84.39,-1.22 -127,0.51 -21.75,0.87 -45.21,0.93 -65.82,-6.99 -14.32,-5.5 -34.91,-19.31 -30.9,-37.2 0.29,-1.27 0.42,-2.5 0.48,-3.69 4.26,-4.21 6.52,-10.35 4.57,-17.86 -10.86,-41.67 -21.7,-83.35 -32.57,-125.03 -5.28,-20.25 -32.58,-16.18 -37.26,0.03 -6.76,-5.33 -16.25,-6.23 -23.35,2.53 -77.91,95.88 -79.61,225.27 -53.89,340.87 13.22,59.37 32.03,123.68 76.59,167.53 46.66,45.91 116.64,65.82 180.33,71.34 69.23,6.01 147.23,-18.13 178.67,-85.3 1.89,-4.04 2.34,-8.01 1.78,-11.65 40.07,-32.63 48.19,-94.89 16.88,-135.95 14.31,-33.54 17.17,-72.54 -2.56,-104.8z"/>
        <path class="fil9" d="M15732.81 5721.97c-3.57,-14.32 -18.22,-16.53 -28.2,-10.86 -0.03,-0.02 -0.05,-0.05 -0.08,-0.12 -62.26,-82.63 -125.43,-165.44 -200.12,-237.37 -42.41,-40.86 -88.63,-77.86 -138.82,-108.73 -11.76,-7.25 -30.29,1.94 -29.06,16.66 3.97,47.35 3.26,95.06 -3.21,142.16 -0.08,0.68 -0.08,1.36 -0.14,2 -27.5,29.1 -58.83,53.92 -93.45,74.33 -41.28,24.36 -85.01,39.93 -130.58,53.97 -42.67,13.17 -91.48,38.81 -94.6,89.43 -1.85,30.14 21.48,60.46 50.44,65.22 -2.14,37.45 3.81,76.94 38.86,98.02 8.3,4.99 17.35,7.64 26.9,8.66 10.33,1.09 21.01,-0.93 29.44,6.12 7.93,6.6 14.11,15.47 21.8,22.41 7.79,6.99 16.16,13.46 24.81,19.3 72.55,48.63 163.58,48.95 247.03,59.72 50.51,6.52 100.73,18.13 143.08,47.63 14.13,9.81 27.69,-3.09 28.05,-16.69 7.11,6.94 18.79,9.08 26.65,0.17 79.23,-90.04 110.22,-215.59 81.2,-332.04z"/>
       </g>
       <path class="fil1" d="M16387 5957.22c-97.42,-76.08 -205.6,-136.42 -320.34,-179.32 -20.53,-255.39 -41.08,-510.81 -61.65,-766.21 -5.81,-72.31 -11.62,-144.6 -17.44,-216.91 -2.48,-30.73 -50.76,-31.02 -48.25,0 20.7,257.32 41.39,514.64 62.09,771.95 5.19,64.63 10.41,129.27 15.59,193.89 -80.41,-26.11 -163.69,-43.81 -248.46,-52.5 -0.45,-4.68 -2.41,-9.42 -6.23,-13.77 -64.32,-72.81 -132.31,-142.28 -203.94,-207.91 -35.08,-32.12 -70.98,-63.36 -107.69,-93.62 -34.17,-28.18 -72.97,-65.06 -120.94,-59.59 -12.06,1.39 -22.62,8.92 -23.96,21.35 -9.98,2.9 -19.49,12.38 -18.07,23.18 6.62,50.14 13.28,100.24 19.9,150.39 -42.24,16.1 -84.45,32.2 -126.69,48.3 -49.85,19.01 -106.28,34.35 -149.87,66.16 -38.98,28.42 -64.91,72.31 -57.47,121.73 3.17,20.98 13.15,40.24 29.52,53.92 8.35,6.96 17.76,12.05 26.88,17.86 11.02,7.02 12.41,14.01 14.58,26.64 8.39,48.44 49.44,86.49 97.71,91.34 13.09,28.81 37.22,51.55 65.81,65.59 41.52,20.36 87.78,22.51 133.18,23.97 94.82,3.04 186.91,23.01 272.69,64.21 18.64,8.97 35.77,-6.71 36.67,-22.07 1.24,-0.85 2.48,-1.81 3.67,-2.99 87.08,-84.54 130.61,-205.94 120.75,-325.78 209.14,22.89 411.9,104.74 577.79,234.25 10.35,8.06 23.99,9.9 34.12,0 8.51,-8.17 10.31,-26.03 0.07,-34.04zm-766.77 91.53c-2.26,2.2 -3.92,4.51 -5.08,6.89 -73.86,-32.41 -152.28,-52.33 -232.94,-58.26 -63.53,-4.65 -177.4,7.81 -199.69,-73.43 -0.65,-2.4 -1.77,-4.76 -3.26,-6.91 67.4,-26.9 134.14,-55.44 200.1,-85.7 19.17,-8.8 38.29,-17.73 57.32,-26.81 3.92,-1.85 4.95,-7.47 2.88,-10.99 -2.34,-4.01 -7.08,-4.77 -11,-2.88 -66.15,31.54 -133.09,61.41 -200.8,89.48 -19.26,7.98 -38.58,15.82 -57.93,23.52 -1.8,0.71 -3.33,1.85 -4.38,3.33 -2,-0.56 -4.09,-0.82 -6.2,-0.68 -17.49,1.07 -33.64,-3.81 -46.98,-15.45 -16.42,-14.3 -18.28,-30.99 -22.99,-51.07 -1.8,-7.73 -4.79,-14.5 -8.73,-20.53 84.6,-31.85 169.19,-63.67 253.79,-95.52 25.04,-9.42 50.11,-18.85 75.15,-28.27 4.07,-1.54 6.86,-5.42 5.62,-9.9 -1.07,-3.89 -5.81,-7.16 -9.9,-5.62l-264.57 99.57c-23.69,8.91 -47.4,17.85 -71.09,26.77 -5.04,-4.77 -10.77,-9.03 -17,-12.9 -13.77,-8.57 -26.21,-15.09 -30.51,-31.81 -9.3,-36.13 17,-67.76 45.77,-85.49 39.39,-24.3 86.01,-37.73 128.98,-54.14 58.09,-22.14 116.15,-44.3 174.23,-66.44 28.74,-10.97 16.28,-57.62 -12.83,-46.53l-4.63 1.78c-5.72,-43.17 -11.42,-86.32 -17.15,-129.48 37.66,0.31 71.77,38.61 98.44,60.99 34.92,29.3 69.12,59.5 102.5,90.49 64.97,60.32 126.87,123.82 185.72,190.1 -0.29,2.45 -0.22,5.01 0.28,7.76 21.03,115 -19.49,236.93 -103.12,318.14z"/>
       <path class="fil1" d="M14803.92 5582.82c22.25,-25.89 40.9,-57.71 34.6,-92.27 -7.79,-42.77 -50,-58.31 -86.66,-69.36 -92.06,-27.74 -189.25,-38.46 -285.15,-32.18 -30.82,2.03 -31.04,50.28 0,48.25 77.74,-5.08 155.6,0.93 231.38,19.32 18.66,4.51 37.2,9.68 55.44,15.65 11.59,3.81 26.14,8.07 33.7,18.45 14.26,19.63 -6.29,46.49 -22.73,64.21 -1.02,-0.56 -2.23,-0.93 -3.64,-0.99 -61.11,-2.48 -122.02,-8.86 -182.28,-19.35 -17.23,-2.98 -34.41,-6.32 -51.51,-9.95 -10.1,-2.14 -14.41,13.36 -4.29,15.5 60.97,12.94 122.78,21.92 184.91,26.77 14.47,1.12 28.93,1.97 43.43,2.65 -5.83,9.34 -4.4,21.63 3.26,29.95 18.52,20.07 52.43,54.82 34.26,84.98 -6.63,11 -22.39,14.75 -32.44,22.17 -1.49,1.12 -2.87,2.29 -4.17,3.48 -61.34,-3.73 -122.34,-12.02 -182.39,-25.02 -18.28,-3.94 -36.46,-8.35 -54.55,-13.11 -10.01,-2.66 -14.31,12.87 -4.28,15.5 65.22,17.25 131.82,29.09 198.99,35.5 10.15,0.96 20.3,1.78 30.48,2.48 -4.88,9.42 -7.51,19.93 -11.7,31.16 -20.14,53.84 -105.4,46.45 -150.05,40.83 -63.93,-8.03 -131.02,-29.44 -174.91,-79.02 -49.83,-56.23 -60.04,-145.87 -59.59,-218 0.56,-87.13 23.11,-173.06 65.57,-249.11 15.14,-27.15 -26.51,-51.51 -41.68,-24.36 -44.74,80.26 -69.59,170.66 -71.99,262.56 -2.26,86.39 11.5,186.85 67.51,255.9 50.48,62.23 131.02,89.27 207.91,99.37 64.92,8.55 156.5,9.56 194.8,-55.18 5.61,-9.47 8.73,-19.82 11.7,-30.31 3.33,-11.78 6.89,-14.27 17.57,-20.02 20.19,-10.85 35.56,-25.23 42.24,-47.83 12.35,-41.45 -8.23,-77.8 -33.75,-108.6z"/>
      </g>
     </g>
    </g>
   </g>
   <line class="fil12 str0" x1="400.04" y1="11298.64" x2="18096.1" y2= "11298.64" />
   <g>
    <g>
     <path class="fil0" d="M17582.6 9859.69c-0.96,-0.72 -1.83,-1.57 -2.63,-2.56 -67.36,-87.1 -135.89,-176.01 -172.43,-281.2 -16.3,-46.95 -25.89,-96.95 -25.18,-146.74 0.73,-52.89 11.76,-111.04 45.48,-153.28 58.55,-73.35 168.6,-58.34 235.66,-5.79 39.59,31.02 68.93,73.48 85.65,120.78 16.58,46.95 17.66,97.48 9.53,146.2 -9.25,55.38 -30.88,108.03 -54.43,158.68 -27.71,59.64 -57.78,118.26 -86.86,177.25 -9.87,19.97 -37.79,5.81 -34.79,-13.34z"/>
     <path class="fil0" d="M17664.82 10032.9c-2.82,0.02 -5.79,-0.79 -8.52,-2.24 -0.16,0.03 -0.34,0.03 -0.48,0.03 -21.77,1.7 -23.94,-28.15 -7.16,-36.2 10.95,-67.86 32.75,-133.96 69.74,-192.36 31.87,-50.31 79.46,-108.82 143.6,-113.91 33.72,-2.69 66.54,15.74 92.62,35.47 27.92,21.12 40.8,51.63 37.96,86.4 -5.62,68.8 -53.07,126.59 -109.92,162.03 -61.67,38.46 -135.09,50.48 -206.56,56.9 -2.96,2.38 -6.72,3.84 -11.27,3.87z"/>
     <path class="fil0" d="M17224.76 9603.04c73.6,-3.04 136.43,47.4 173,107.15 23.96,39.17 39.2,83.16 53.72,126.5 15.04,44.84 28.51,90.17 30.6,137.73 0.13,2.87 -0.31,5.42 -1.12,7.61 3.6,3.24 5.89,7.8 5.96,13.5 0.08,9.39 -8.92,20.19 -19.13,19 -85.86,-9.92 -169.02,-37.02 -243.38,-81.38 -67.74,-40.41 -131.1,-96.44 -133.36,-181.06 -2.11,-76.33 56.04,-145.87 133.7,-149.05z"/>
     <path class="fil0" d="M17868.06 10151.51c44.24,3.57 81.12,26.08 102.87,65.2 16.35,29.41 22.01,64.26 18.13,97.51 -8.92,75.74 -61.22,135.21 -129.05,166.79 -86.01,40.05 -181.77,35.4 -273.86,26.81 -15.82,-1.46 -21.35,-18.15 -16.53,-28.98 0.05,-0.19 0.08,-0.4 0.14,-0.62 23.04,-85.58 49.71,-174.51 110.29,-241.79 46.81,-52.08 116.27,-90.77 188,-84.92z"/>
     <path class="fil0" d="M17748.39 10641.21c66.3,24.14 112.69,87.11 107.61,158.81 -2.45,34.79 -15.14,67.79 -37.17,94.89 -23.07,28.42 -56.4,45.77 -90.88,56.39 -41.82,12.9 -86.83,18.02 -130.39,20.2 -46.01,2.31 -91.92,-0.62 -137.44,-7.52 -4.01,-0.62 -7.27,-2.94 -9.68,-6.06 -1.83,-0.91 -3.5,-2.1 -4.71,-3.67 -3.72,-4.8 -7.42,-9.59 -11.14,-14.41 -3.16,-4.06 -5.38,-7.98 -5.38,-13.33 0,-4.74 2.19,-10.44 5.79,-13.65 0.37,-0.35 0.75,-0.66 1.16,-0.96 -0.88,-2.9 -1.04,-6.2 -0.22,-9.81 16.79,-75.29 53.3,-148.05 110.23,-200.94 53.45,-49.62 129.22,-86.53 202.23,-59.94z"/>
     <path class="fil0" d="M17115.65 9973.73c78.98,0.78 141.85,67.98 174.5,133.87 41.29,83.33 46.19,177.68 71.15,266.06 4.48,15.84 -10.63,25.35 -23.07,22.78 -2.48,9.21 -10.92,16.98 -22.84,13.99 -43.06,-10.75 -85.73,-23.02 -127.86,-36.94 -40.14,-13.28 -82.79,-26 -116.43,-52.59 -58.15,-45.94 -89.11,-130.92 -85.21,-203.89 3.75,-70.17 52.77,-144.05 129.77,-143.27z"/>
     <path class="fil0" d="M17061.54 10388.99c88.01,13.09 151.94,94.48 184.38,171.67 39.41,93.82 29.41,193.76 12.24,291.41 -3.17,17.93 -24.17,17 -33.14,5.55 -0.19,-0.06 -0.37,-0.09 -0.56,-0.13 -83.49,-23.04 -160.05,-68.85 -220.21,-131.18 -29.66,-30.74 -55.52,-65.62 -75.91,-103.15 -19.12,-35.23 -36.4,-75.72 -33.32,-116.67 6.1,-81.84 90.39,-128.85 166.54,-117.52z"/>
    </g>
    <path class="fil1" d="M17285.98 9763.97c97.29,96.95 194.6,193.87 291.88,290.82 9.76,-77.1 16.13,-154.65 18.36,-232.48 4.02,-140.79 -5.72,-281.87 -32.17,-420.31 -4.6,-24.01 32.29,-33.72 36.91,-9.55 41.37,216.68 42.27,437.75 15.84,656.01 70.98,-66.23 141.92,-132.48 212.9,-198.68 17.91,-16.69 44.55,10.58 26.56,27.37 -82.42,76.96 -164.88,153.89 -247.3,230.81 -2.26,15.67 -4.65,31.35 -7.16,47 -18.66,115.84 -44.24,230.36 -74.59,343.64 106.03,-58.23 208.51,-122.72 306.86,-193.19 8.43,-6.04 21.24,-0.88 25.94,7.32 5.58,9.74 0.99,20 -7.32,25.94 -108.4,77.66 -221.82,148.1 -339.44,210.87 -33.35,118.75 -71.62,236.17 -112.38,352.4 -3.5,9.95 -7.05,19.88 -10.58,29.83 91.53,-46.07 183.03,-92.16 274.57,-138.22 21.86,-10.99 40.64,22.19 18.61,33.28 -103.93,52.34 -207.88,104.68 -311.84,156.98 -39.59,109.44 -81.1,218.15 -122.94,326.74 -8.74,22.7 -45.65,12.97 -36.84,-9.9 39.93,-103.57 79.58,-207.32 117.54,-311.68 -0.88,-0.93 -1.7,-1.94 -2.45,-3.06 -84.72,-124.5 -161.64,-254.18 -230.31,-388.25 -11.18,-21.77 22.04,-40.55 33.28,-18.61 64.57,126.08 136.49,248.32 215.3,366.03 44.24,-123.6 85.84,-248.1 122.22,-374.28 1.06,-3.73 2.12,-7.45 3.18,-11.17 -0.72,-0.59 -1.41,-1.28 -1.99,-2.03 -110.1,-142.38 -226.3,-279.9 -348.31,-412.18 -16.58,-17.99 10.65,-44.66 27.37,-26.56 117.3,127.19 229.26,259.26 335.56,395.8 36.54,-133.1 66.91,-268.22 87.05,-404.76 -1.94,-3.6 -2.79,-7.76 -1.91,-11.87 -1.63,-0.88 -3.25,-2.07 -4.8,-3.58 -101.65,-101.29 -203.35,-202.57 -305,-303.86 -17.36,-17.37 9.97,-43.96 27.39,-26.62z"/>
   </g>
  </g>
  <g id="_1706251254624">
   <circle class="fil13" cx="31126.32" cy="338.08" r="338.08"/>
   <circle class="fil14" cx="32046.9" cy="338.08" r="338.08"/>
   <circle class="fil15" cx="32967.48" cy="338.08" r="338.08"/>
   <circle class="fil16" cx="33888.06" cy="338.08" r="338.08"/>
  </g>
 </g>
</svg>
