<svg width="62" height="58" viewBox="0 0 62 58" fill="none" xmlns="http://www.w3.org/2000/svg">
<g clip-path="url(#clip0_18_1142)">
<path d="M5.03156 42.8488L5.59588 44.9945C5.68353 45.3277 5.75019 45.7269 5.89773 46.0367C5.94246 46.1303 6.00588 46.2152 6.09481 46.2707C6.36527 46.4395 14.6661 46.3492 15.8137 46.3506L15.598 49.1247C15.556 49.6546 15.4314 50.3365 15.5222 50.8591C15.5732 51.1519 15.7234 51.4274 15.9141 51.6532C16.2087 52.0018 16.5986 52.2041 17.0558 52.2328C17.6351 52.2691 18.2305 52.2416 18.8116 52.2416L22.1103 52.2419L32.246 52.2423L40.6602 52.2418L43.2881 52.2416C43.7688 52.2415 44.2687 52.2695 44.7471 52.2281C45.0902 52.1983 45.4262 52.0474 45.684 51.8206C46.0142 51.5302 46.2292 51.1092 46.2518 50.6689C46.2699 50.3126 46.217 49.9498 46.1911 49.5944C46.114 48.5353 45.9589 47.4319 45.9722 46.3724L52.5248 46.3469C53.4118 46.3466 54.3625 46.4174 55.2435 46.3364C55.3764 46.3241 55.4714 46.2975 55.5682 46.2018C55.7587 46.0133 55.8104 45.6414 55.8776 45.3906L56.3379 43.6413C56.3741 43.4966 56.4235 43.1497 56.505 43.0297C56.5768 43.0652 56.5552 43.0618 56.6154 43.0732C56.9761 43.142 57.31 43.3252 57.6387 43.4835C58.5229 43.9097 59.3429 44.3741 60.0743 45.0409C60.604 45.5237 61.0893 46.1932 61.1153 46.936C61.2343 50.3223 53.2654 52.2473 50.714 52.8098L49.4747 53.0652C49.4186 53.075 48.9879 53.1306 48.969 53.1511C48.9375 53.1854 48.9101 53.4912 48.8879 53.5596C48.7929 53.8506 48.5991 54.1279 48.3889 54.3481C47.7974 54.968 47.0013 55.3544 46.2266 55.6906C43.5081 56.8705 40.3776 57.3583 37.447 57.6601L32.7546 57.9775C29.8462 58.0446 26.9655 57.9647 24.0677 57.7005C21.2642 57.445 18.3536 56.9914 15.703 56.0119C14.8775 55.7069 14.0513 55.3738 13.3283 54.8635C12.9725 54.6125 12.6301 54.3181 12.4017 53.9421C12.2782 53.7391 12.1992 53.5335 12.1509 53.3011C12.1479 53.2865 12.123 53.15 12.1215 53.1488C12.0791 53.1121 11.6256 53.0663 11.543 53.0499L9.2948 52.5613C7.8347 52.2158 6.40348 51.7786 5.00228 51.2426C3.55703 50.69 2.05891 50.0328 0.93195 48.9442C0.404128 48.4343 0.00702237 47.8036 0.000204483 47.0505C-0.00636816 46.3237 0.380976 45.685 0.882753 45.1846C1.84118 44.2286 3.11838 43.5904 4.36356 43.1001C4.59281 43.0098 4.78872 42.9063 5.03166 42.849L5.03156 42.8488Z" fill="#AFB1D2"/>
<path d="M8.93851 41.656C8.78293 41.5354 8.6837 41.3554 8.57682 41.1928L7.99755 40.2568C6.22029 37.2125 5.03775 33.7818 4.59596 30.282C4.3928 28.672 4.30882 27.0438 4.39005 25.4215C4.66051 20.0219 6.61003 14.7004 9.9274 10.4281C12.9359 6.55357 16.9934 3.4991 21.5846 1.75201C23.608 0.982075 25.7851 0.468624 27.9321 0.197772C33.4927 -0.503686 39.3495 0.682921 44.2315 3.42852C45.453 4.11551 46.6275 4.92507 47.7314 5.78761C53.1684 10.0356 56.8238 16.5314 57.6699 23.3755C58.3447 28.8335 57.368 34.3396 54.8146 39.2124C54.2682 40.255 53.6532 41.3491 52.9245 42.2741C52.8679 42.346 52.8109 42.4115 52.7427 42.4725L52.7331 40.2368L52.7339 36.2933L52.7332 34.893C52.7329 34.5687 52.7497 34.2225 52.6896 33.9033C52.6031 33.4436 52.3545 32.9435 52.0217 32.6134C51.6787 32.2733 51.2329 32.0178 50.7611 31.9093C50.44 31.8353 50.1165 31.8456 49.7895 31.8452L48.6223 31.8441L44.8036 31.8436L44.8071 29.0875L44.8072 27.9397C44.8064 27.6322 44.818 27.3366 44.7419 27.0363C44.6401 26.6354 44.403 26.263 44.0857 25.9987C43.8649 25.8148 43.5903 25.6722 43.3127 25.5966C43.2376 25.5761 42.8829 25.5588 42.8428 25.529C42.8337 25.5223 42.843 25.5063 42.8432 25.495L42.8453 24.6842C42.8449 24.6055 42.8639 24.4564 42.8436 24.3846C42.8267 24.3248 42.6884 24.1885 42.6415 24.1408L40.57 22.2259L38.7574 20.5554C38.5124 20.3316 38.2299 20.0004 37.9367 19.8467C37.7917 19.7707 23.5135 19.8213 22.0296 19.8208L20.9613 19.8207C20.375 19.8209 19.8228 19.7948 19.3791 20.2492C19.216 20.4161 19.0655 20.6493 19.0156 20.8791C18.9104 21.3627 18.9736 21.9621 18.9735 22.4578L18.9825 25.5334C18.3832 25.5359 17.8593 25.725 17.4348 26.1573C17.1946 26.4021 17.03 26.695 16.9491 27.0289C16.8065 27.6178 16.8807 28.3373 16.8803 28.9425L16.8797 31.8482L13.1241 31.8438C12.487 31.8438 11.775 31.777 11.1491 31.8694C10.7745 31.9248 10.4012 32.0709 10.0832 32.2749C9.53128 32.6292 9.17111 33.1855 9.02303 33.8176C8.93753 34.1823 8.94985 34.5572 8.9494 34.9294L8.94867 36.2695L8.93842 41.6561L8.93851 41.656Z" fill="#3EE5FC"/>
<path d="M4.43229 35.8951L4.44465 29.4141L4.44553 27.8018C4.44607 27.3539 4.43121 26.9029 4.53406 26.4641C4.71221 25.7035 5.14552 25.0342 5.80965 24.6079C6.19218 24.3625 6.64138 24.1866 7.09215 24.1201C7.84511 24.0088 8.70176 24.0893 9.46835 24.0893L13.9869 24.0946L13.9877 20.5986C13.9881 19.8704 13.8989 19.0047 14.0705 18.2962C14.1678 17.8944 14.3658 17.5419 14.6549 17.2474C15.1656 16.7273 15.7958 16.4997 16.5169 16.4968L16.5061 12.7963C16.5063 12.1999 16.4304 11.4786 16.5568 10.8969C16.6168 10.6204 16.798 10.3398 16.9941 10.139C17.528 9.59229 18.1925 9.62373 18.8977 9.62343L20.183 9.62358C21.9685 9.62422 39.1475 9.5632 39.3219 9.65473C39.6747 9.83969 40.0146 10.2381 40.3094 10.5074L42.4901 12.5174L44.9826 14.8212C45.0391 14.8786 45.2054 15.0426 45.2258 15.1146C45.2502 15.201 45.2273 15.3804 45.2278 15.475L45.2252 16.4506C45.2251 16.4643 45.2139 16.4835 45.2249 16.4915C45.2731 16.5274 45.6999 16.5482 45.7903 16.5728C46.1242 16.6638 46.4546 16.8353 46.7203 17.0566C47.1021 17.3746 47.3873 17.8228 47.5098 18.3051C47.6014 18.6664 47.5874 19.0221 47.5884 19.392L47.5883 20.7729L47.5839 24.089L52.1786 24.0896L53.5829 24.0909C53.9764 24.0914 54.3656 24.0791 54.7519 24.1681C55.3197 24.2987 55.8559 24.6061 56.2686 25.0152C56.6691 25.4123 56.9682 26.0141 57.0722 26.5671C57.1446 26.9512 57.1242 27.3678 57.1246 27.758L57.1254 29.4427L57.1245 34.1875L57.1361 36.8774L57.1267 39.3435C57.1271 39.7735 57.1609 40.2304 57.103 40.6548C56.9966 41.4365 56.6965 42.2588 56.5051 43.0295C56.4236 43.1495 56.3742 43.4964 56.338 43.6411L55.8777 45.3904C55.8105 45.6412 55.7589 46.0131 55.5683 46.2016C55.4715 46.2973 55.3765 46.3239 55.2436 46.3362C54.3626 46.4172 53.4119 46.3464 52.525 46.3467L45.9723 46.3722C45.959 47.4317 46.1141 48.5351 46.1912 49.5942C46.2171 49.9496 46.2701 50.3124 46.2519 50.6687C46.2293 51.1091 46.0144 51.53 45.6842 51.8204C45.4264 52.0472 45.0903 52.1981 44.7472 52.2279C44.2688 52.2693 43.7689 52.2413 43.2882 52.2414L40.6604 52.2416L32.2461 52.2421L22.1104 52.2417L18.8117 52.2414C18.2306 52.2414 17.6353 52.2689 17.0559 52.2326C16.5987 52.204 16.2088 52.0016 15.9143 51.653C15.7235 51.4272 15.5733 51.1517 15.5223 50.8589C15.4315 50.3364 15.5561 49.6544 15.5981 49.1245L15.8138 46.3504C14.6662 46.349 6.36538 46.4393 6.09492 46.2705C6.00599 46.215 5.94252 46.1301 5.89784 46.0365C5.75035 45.7268 5.68369 45.3276 5.59599 44.9943L5.03167 42.8486C4.89507 42.4389 4.80742 42.0044 4.69799 41.5867C4.61259 41.2609 4.50066 40.9321 4.46225 40.5962C4.40109 40.0601 4.43847 39.4848 4.43807 38.9437L4.43229 35.895V35.8951Z" fill="#000072"/>
<path d="M45.2311 18.1822L45.235 17.5833C45.6647 17.6675 46.0208 17.8216 46.2714 18.2027C46.3485 18.3203 46.4088 18.4385 46.4548 18.5711L46.3699 18.5956C46.0069 18.3694 45.6613 18.2232 45.2311 18.1823L45.2311 18.1822Z" fill="#A8CAFE"/>
<path d="M15.1207 18.6187C15.1496 18.5166 15.1808 18.4148 15.2304 18.3204C15.3903 18.0162 15.6924 17.7548 16.0229 17.6578C16.1569 17.6185 16.3731 17.5749 16.4952 17.6402L16.5056 18.1844C16.1305 18.2031 15.8356 18.2582 15.4957 18.4257C15.3796 18.4829 15.2453 18.603 15.1206 18.6187H15.1207Z" fill="#A8CAFE"/>
<path d="M46.3932 37.2273C46.4482 37.5319 46.4285 37.8532 46.4293 38.1624L46.4305 39.6658L46.4239 45.2505L45.8526 45.2518L45.556 41.3323L45.6477 41.505L46.3859 41.5087L46.3932 37.2273Z" fill="#2E5FD5"/>
<path d="M46.4733 18.6342C46.5599 19.115 46.5124 19.6713 46.513 20.1622L46.5074 24.0962L45.2316 24.0938L45.2312 21.444C45.6241 21.4897 46.0766 21.4476 46.4745 21.4436L46.4733 18.6342H46.4733Z" fill="#2E5FD5"/>
<path d="M16.1854 41.5043L15.9156 45.2564L15.1536 45.2507L15.1404 39.6215L15.14 38.191C15.141 37.8715 15.124 37.5445 15.182 37.2295L15.1886 41.499L16.1854 41.5043Z" fill="#2E5FD5"/>
<path d="M16.5023 20.8246L16.5084 24.0956L15.0911 24.0986L15.0913 21.4541L16.4771 21.4481L16.5023 20.8246Z" fill="#2E5FD5"/>
<path d="M45.2311 18.1822C45.6612 18.2232 46.0069 18.3693 46.3699 18.5956L46.4548 18.571L46.4733 18.6342L46.4745 21.4435C46.0766 21.4475 45.6241 21.4897 45.2312 21.4439L45.2311 18.1822L45.2311 18.1822Z" fill="#4289FD"/>
<path d="M15.1207 18.6187C15.2453 18.603 15.3797 18.4829 15.4958 18.4257C15.8357 18.2582 16.1306 18.2031 16.5057 18.1844L16.5042 19.9721C16.5039 20.2442 16.5348 20.5585 16.5023 20.8246L16.4771 21.4481L15.0913 21.4541L15.0927 19.6237C15.0938 19.295 15.0709 18.943 15.1207 18.6186L15.1207 18.6187Z" fill="#4289FD"/>
<path d="M39.679 11.4309L43.2652 14.767L39.6832 14.7561L39.679 11.4309Z" fill="#FAFBFC"/>
<path d="M15.448 36.4189C15.7871 35.9554 16.1518 35.658 16.7302 35.5513L16.7862 35.5405C17.1097 35.4833 17.4711 35.5066 17.7995 35.5052L19.5409 35.5043L25.8454 35.5042L38.3442 35.5056L42.4202 35.5044L44.5407 35.5115C44.9259 35.5304 45.3043 35.6418 45.6177 35.871C45.8189 36.0182 45.992 36.21 46.1282 36.4181L46.0212 36.4113C45.6774 36.1536 45.2708 35.9874 44.8438 35.9357C44.3934 35.8811 43.9143 35.9124 43.4598 35.9125H41.0063L32.7605 35.9128L22.0268 35.9133L18.6774 35.9098C18.0339 35.9093 17.3745 35.8806 16.7333 35.9366C16.2645 35.9775 15.9082 36.1559 15.5406 36.4425L15.448 36.419L15.448 36.4189Z" fill="#A8CAFE"/>
<path d="M14.065 42.5982L14.0626 45.255L6.81337 45.2494L5.7179 41.1029L6.13742 41.1135C6.21462 41.546 7.34708 42.4603 7.70352 42.7103C9.55681 44.0096 11.8941 43.76 14.0382 43.7553C14.0437 43.3807 14.0152 42.9673 14.065 42.5981V42.5982Z" fill="#2E5FD5"/>
<path d="M55.5129 41.1146L55.809 41.1195C55.8738 41.255 55.6974 41.7419 55.655 41.9068L54.7718 45.2373C54.5645 45.2824 54.3062 45.2531 54.0936 45.2531L52.7186 45.2527L47.5153 45.2513L47.5021 42.1822C47.5013 41.898 47.4231 41.3622 47.5507 41.1266L47.5501 43.7536L49.6892 43.7563C50.3172 43.7553 50.9494 43.7558 51.5698 43.6442C52.8512 43.4138 53.9494 42.7891 54.8671 41.8754C55.0951 41.6484 55.3352 41.3838 55.513 41.1146H55.5129Z" fill="#2E5FD5"/>
<path d="M47.5507 41.1267L55.513 41.1146C55.3352 41.3838 55.0951 41.6484 54.8671 41.8754C53.9495 42.7891 52.8511 43.4138 51.5698 43.6442C50.9494 43.7558 50.3171 43.7553 49.6892 43.7563L47.55 43.7536L47.5507 41.1266V41.1267Z" fill="#4289FD"/>
<path d="M6.13738 41.1135L14.0657 41.1172L14.0649 42.5982C14.0151 42.9674 14.0437 43.3807 14.0381 43.7553C11.8941 43.7601 9.55672 44.0097 7.70343 42.7103C7.34699 42.4604 6.21458 41.546 6.13733 41.1135L6.13738 41.1135Z" fill="#4289FD"/>
<path d="M15.4481 36.4189L15.5406 36.4425C15.9083 36.1558 16.2646 35.9775 16.7334 35.9366C17.3745 35.8806 18.0339 35.9093 18.6775 35.9098L22.0268 35.9132L32.7606 35.9127L41.0063 35.9124H43.4599C43.9143 35.9123 44.3934 35.881 44.8438 35.9356C45.2708 35.9873 45.6775 36.1536 46.0213 36.4113L46.1283 36.4181C46.2884 36.6289 46.3951 36.963 46.3932 37.2273L46.3859 41.5087L45.6477 41.505L45.5561 41.3323L45.3236 38.3621C45.2912 37.9492 45.3091 37.4432 45.199 37.0458C45.1687 36.9369 45.1063 36.8534 45.0192 36.7827C44.9342 36.7138 44.8495 36.6834 44.7408 36.6768C43.7477 36.616 42.7173 36.6733 41.7201 36.6733L35.5071 36.6729L22.3965 36.6733L18.6753 36.6727C18.1261 36.672 17.4969 36.6066 16.958 36.6833C16.7624 36.7111 16.5854 36.8137 16.4641 36.9709C16.3902 37.0665 16.3598 37.1657 16.3472 37.285C16.2812 37.9143 16.3359 38.594 16.3307 39.2291C16.3246 39.984 16.26 40.7532 16.1854 41.5043L15.1886 41.499L15.182 37.2296C15.2166 36.924 15.2778 36.6826 15.4481 36.419L15.4481 36.4189Z" fill="#4289FD"/>
<path d="M17.2896 41.5098L17.5573 37.7806L44.1974 37.7824L44.3725 40.2396C44.407 40.6789 44.4072 41.1478 44.4873 41.579C44.455 41.555 44.4285 41.5199 44.3904 41.5069C44.3327 41.4871 44.1696 41.5071 44.1034 41.5072L43.3191 41.5077L39.1437 41.5083L17.2896 41.5098H17.2896Z" fill="#AFB1D2"/>
<path d="M39.0526 15.8691L44.154 15.8642L44.1509 24.0946L17.612 24.0912L17.6094 21.3512C17.6094 20.9309 17.5659 20.4588 17.6216 20.0463L44.1174 20.0456L44.1187 17.429L40.4717 17.4244C40.0557 17.4216 39.6976 17.4493 39.3915 17.1163C39.0944 16.7932 39.1277 16.3362 39.1312 15.9291L39.0526 15.8691Z" fill="#AFB1D2"/>
<path d="M17.638 11.1041C17.7664 10.9198 17.868 10.7741 18.1034 10.741L38.5628 10.7327L38.5619 13.9372C38.5625 14.3882 38.5164 14.894 38.5711 15.3396C38.5878 15.4766 38.6289 15.6049 38.732 15.7023C38.8218 15.7871 38.9368 15.8329 39.0527 15.8691L39.1312 15.929C39.1278 16.3362 39.0944 16.7932 39.3915 17.1163C39.6976 17.4493 40.0558 17.4216 40.4718 17.4244L44.1187 17.429L44.1175 20.0456L17.6217 20.0463L17.6088 20.0259L17.6051 14.0727L17.6045 12.2834C17.6042 11.8926 17.5837 11.4919 17.638 11.1041Z" fill="#FAFBFC"/>
<path d="M17.2896 41.5098L39.1437 41.5083L43.3191 41.5077L44.1035 41.5072C44.1696 41.5071 44.3327 41.4871 44.3904 41.5069C44.4285 41.5199 44.455 41.5549 44.4873 41.579L45.1365 50.5997C45.1285 50.7449 45.0773 50.8636 44.9698 50.9614C44.8826 51.0407 44.7955 51.1208 44.674 51.1277C44.0974 51.1611 43.5102 51.139 42.9325 51.1392L39.7746 51.1397L30.1573 51.1401L21.4425 51.139L18.6669 51.1384C18.17 51.1384 17.6583 51.1633 17.1631 51.1292C16.9741 51.1161 16.8357 51.0397 16.7152 50.8926C16.6334 50.7926 16.6005 50.6791 16.6011 50.5509C16.6029 50.1045 16.6673 49.6418 16.7038 49.1962L16.8617 47.1182L17.2896 41.5098H17.2896Z" fill="#FAFBFC"/>
<path d="M20.4222 45.4312C20.7187 45.3789 21.0482 45.4073 21.3491 45.4069L23.1733 45.4064L25.1282 45.4061C25.4576 45.4068 25.8116 45.3817 26.1372 45.4148C26.247 45.4259 26.3443 45.4713 26.412 45.5609C26.4898 45.664 26.5085 45.7792 26.4814 45.9054C26.4538 46.0346 26.3604 46.0969 26.2526 46.1549C25.9474 46.2592 25.4137 46.194 25.0809 46.1942L22.3888 46.1944L21.1822 46.1934C20.97 46.1934 20.7305 46.2161 20.5226 46.1854C20.4088 46.1687 20.33 46.1368 20.2605 46.0425C20.1877 45.9441 20.1834 45.7515 20.2169 45.6373C20.2513 45.52 20.3217 45.4842 20.4222 45.4312H20.4222Z" fill="#AFB1D2"/>
<path d="M35.8116 47.9053L35.9447 47.8908C36.9838 47.8184 38.078 47.8832 39.1225 47.8828L40.6598 47.8833C40.9181 47.8836 41.1954 47.8623 41.4515 47.8913C41.5832 47.9061 41.6556 47.9221 41.7521 48.0203C41.8412 48.1108 41.8733 48.2332 41.8534 48.3588C41.8323 48.4924 41.7251 48.5701 41.6285 48.6519C40.8061 48.7492 39.8929 48.6762 39.0622 48.6762C38.0185 48.6762 36.939 48.733 35.8985 48.6719C35.7502 48.6632 35.6772 48.5862 35.5825 48.4825C35.5391 48.37 35.5159 48.2508 35.5568 48.132C35.6041 47.9953 35.6942 47.9641 35.8116 47.9053V47.9053Z" fill="#AFB1D2"/>
<path d="M20.2178 47.9052L20.3324 47.8896C20.6902 47.858 21.0731 47.8838 21.4334 47.8834L23.5416 47.8823L27.9808 47.8881C28.0969 47.8937 28.2423 47.9006 28.3283 47.9876C28.4352 48.0959 28.4788 48.2062 28.4595 48.3587C28.4421 48.4964 28.3307 48.5761 28.2243 48.6473C27.7381 48.7047 27.2285 48.6763 26.7385 48.6758L24.2728 48.6728L21.6329 48.6761C21.1945 48.6765 20.731 48.7087 20.2959 48.6699C20.1932 48.6609 20.1129 48.6103 20.0504 48.5289C19.9792 48.4361 19.9558 48.3126 19.9783 48.199C20.0096 48.042 20.0899 47.9841 20.2178 47.9052L20.2178 47.9052Z" fill="#AFB1D2"/>
<path d="M20.4226 43.2871C20.8071 43.2211 21.2418 43.2594 21.6344 43.2586L23.9587 43.2569L28.0591 43.256L30.3748 43.2701C30.5115 43.2774 30.5987 43.2998 30.7162 43.3695C30.8072 43.4963 30.8425 43.6251 30.807 43.7818C30.7743 43.925 30.6966 43.9525 30.5809 44.0144C30.1095 44.1314 29.4713 44.0516 28.9737 44.052L25.5411 44.0512L22.1918 44.0518C21.6632 44.0516 21.1109 44.0841 20.5845 44.0478C20.4432 44.0381 20.3323 44.0136 20.253 43.885C20.194 43.7893 20.1838 43.642 20.2117 43.5344C20.2488 43.3913 20.3058 43.3588 20.4225 43.2871L20.4226 43.2871Z" fill="#AFB1D2"/>
<path d="M5.54305 34.2196L5.5382 29.1582L5.53947 27.7547C5.54001 27.4276 5.52157 27.0785 5.58994 26.7569C5.67181 26.3722 5.85555 26.0344 6.13601 25.7575C6.48691 25.4112 6.93827 25.227 7.4243 25.188C8.09422 25.1342 8.79278 25.1712 9.46604 25.1712L13.2936 25.1736L25.2301 25.1889L43.9353 25.187L50.7015 25.1717L53.9041 25.1767C54.5122 25.1938 55.0785 25.3473 55.5018 25.8147C55.7462 26.0845 55.9322 26.4297 55.9948 26.7902C56.0583 27.1555 56.0354 27.5377 56.0358 27.9076L56.0364 29.672L56.0369 35.9121L56.0402 39.9989C55.1932 39.9991 47.6698 40.0561 47.542 39.9628C47.4762 39.7623 47.5207 39.4348 47.5205 39.2212C47.5189 37.9144 47.719 36.4768 46.7733 35.4222C46.1998 34.7825 45.4818 34.4431 44.6263 34.4078L42.5784 34.4028L38.6621 34.4022L26.8116 34.4027L19.9726 34.4028L17.892 34.403C17.4918 34.4035 17.0723 34.3797 16.6752 34.4287C16.0518 34.5058 15.4763 34.7683 15.0198 35.2017C14.0923 36.0825 14.0645 37.0103 14.0641 38.2079L14.0565 39.9611C14.0328 39.9768 14.0126 40.0005 13.9854 40.0082C13.8879 40.0357 13.6681 40.0047 13.5588 40.004L12.2092 40.0011L5.53815 39.9966L5.543 34.2196H5.54305Z" fill="#FAFBFC"/>
<path d="M49.0625 29.9436C49.3608 30.2296 49.5158 30.5225 49.5257 30.9394C49.5352 31.3343 49.4124 31.6956 49.131 31.9818C48.8349 32.2828 48.4644 32.4343 48.0433 32.4119C47.7799 32.3978 47.4738 32.3041 47.2346 32.1964C47.0774 32.1255 46.894 32.1617 46.7365 32.0967C47.3729 32.1282 47.9198 32.0178 48.4027 31.5775C48.908 31.1169 49.0299 30.6074 49.0625 29.9436Z" fill="#AFB1D2"/>
<path d="M54.3059 29.9421C54.57 30.1525 54.7118 30.435 54.7549 30.768C54.8038 31.1457 54.7277 31.5623 54.4897 31.8678C54.2599 32.1629 53.8903 32.3785 53.5166 32.4126C53.2074 32.441 52.7766 32.3424 52.5066 32.1949C52.3518 32.1104 52.1405 32.1636 51.9714 32.0949C52.565 32.1279 53.1128 32.052 53.5777 31.6452C54.1278 31.1637 54.2615 30.6547 54.3059 29.9421Z" fill="#AFB1D2"/>
<path d="M51.9715 32.0949C51.769 32.0293 51.579 32.0024 51.3849 31.9037C50.8896 31.6515 50.5164 31.1932 50.3611 30.6619C50.2094 30.143 50.2775 29.5856 50.5544 29.1181C50.8191 28.6714 51.2875 28.2997 51.7934 28.175C52.3169 28.0459 52.8636 28.1221 53.3233 28.4051C53.9217 28.7734 54.1527 29.2776 54.306 29.9422C54.2616 30.6547 54.1279 31.1638 53.5778 31.6453C53.113 32.052 52.5651 32.128 51.9716 32.0949L51.9715 32.0949Z" fill="#000072"/>
<path d="M51.4287 30.4071C51.4054 30.294 51.3876 30.1669 51.3963 30.0513C51.415 29.7979 51.5418 29.5727 51.7402 29.417C51.9987 29.2141 52.244 29.1968 52.5562 29.2337L52.5175 29.2739C52.4305 29.3625 52.3568 29.4347 52.2493 29.4987C51.8976 29.7074 51.6709 30.0887 51.4286 30.4071L51.4287 30.4071Z" fill="#BBDDB7"/>
<path d="M52.5561 29.2337C52.8371 29.4006 53.0941 29.5711 53.1717 29.9124C53.2227 30.137 53.1885 30.3776 53.0619 30.5709C52.9115 30.8006 52.6781 30.9605 52.4069 31.0085C52.1863 31.0476 51.9643 30.9814 51.7835 30.8534C51.6249 30.741 51.514 30.5792 51.4286 30.4071C51.6709 30.0887 51.8975 29.7074 52.2493 29.4987C52.3568 29.4348 52.4305 29.3626 52.5175 29.2739L52.5561 29.2337L52.5561 29.2337Z" fill="#8AC558"/>
<path d="M46.7364 32.0967C46.4945 32.0407 46.2616 31.9816 46.0441 31.8588C45.6059 31.6115 45.2353 31.1606 45.1059 30.6714C44.9655 30.1402 45.0307 29.5725 45.3097 29.0975C45.5683 28.6571 46.0608 28.2898 46.5571 28.1703C47.0791 28.0445 47.6365 28.1267 48.0901 28.4153C48.6821 28.792 48.916 29.2803 49.0625 29.9436C49.0298 30.6074 48.9079 31.1169 48.4027 31.5775C47.9198 32.0177 47.3728 32.1282 46.7364 32.0967Z" fill="#000072"/>
<path d="M46.2386 30.5313C46.1492 30.3198 46.1236 30.1115 46.1782 29.8864C46.2343 29.6542 46.4127 29.4532 46.6163 29.3352C46.8563 29.196 47.1206 29.1994 47.3808 29.2694C46.9192 29.5341 46.5801 29.7807 46.3561 30.2781L46.2386 30.5313Z" fill="#FB9FC6"/>
<path d="M47.3809 29.2694C47.6304 29.4148 47.8295 29.5982 47.9112 29.8864C47.9774 30.12 47.9356 30.3489 47.8139 30.5573C47.6852 30.7778 47.4626 30.9381 47.2167 31.0038C47.0013 31.0615 46.7837 31.0091 46.5964 30.8957C46.4485 30.8061 46.3443 30.6649 46.2386 30.5313L46.3561 30.2781C46.5801 29.7807 46.9192 29.5341 47.3808 29.2694H47.3809Z" fill="#F1365E"/>
<path d="M56.037 35.9121L56.0403 39.9989C55.1933 39.999 47.6698 40.056 47.542 39.9628L48.3782 39.9715C48.3768 38.631 48.5179 37.1867 48.0882 35.9045L56.0369 35.9121H56.037Z" fill="#AFB1D2"/>
<path d="M5.54311 34.2196L5.56298 35.8433L13.5936 35.8416L13.576 35.8895C13.2892 36.6831 13.2866 37.3978 13.2845 38.2284L13.2821 39.9656L14.0566 39.9611C14.0329 39.9768 14.0127 40.0005 13.9854 40.0082C13.888 40.0357 13.6681 40.0047 13.5588 40.004L12.2092 40.0011L5.53821 39.9966L5.54306 34.2196H5.54311Z" fill="#AFB1D2"/>
</g>
<defs>
<clipPath id="clip0_18_1142">
<rect width="61.1167" height="58" fill="white"/>
</clipPath>
</defs>
</svg>
