<svg width="57" height="58" viewBox="0 0 57 58" fill="none" xmlns="http://www.w3.org/2000/svg">
<g clip-path="url(#clip0_18_983)">
<path d="M56.4522 24.3017C58.8955 13.6012 52.2017 2.9462 41.5013 0.502962C30.8008 -1.94028 20.1458 4.75349 17.7026 15.4539C15.2593 26.1543 21.9531 36.8094 32.6535 39.2526C43.3539 41.6959 54.009 35.0021 56.4522 24.3017Z" fill="white"/>
<path d="M56.0135 25.9151C34.967 34.3271 27.4707 15.7059 20.4796 8.94784C18.4109 12.0836 17.2034 15.8377 17.2034 19.8756C17.2034 30.8514 26.1012 39.7494 37.0771 39.7494C45.947 39.7495 53.4569 33.9377 56.0136 25.9152L56.0135 25.9151Z" fill="#DCEAF7"/>
<path d="M17.7549 24.5219C19.6899 32.5972 26.5497 38.7563 34.9847 39.6391C39.5845 35.7747 46.0358 27.7269 46.6447 12.7174C46.6447 12.7174 25.6852 4.59779 17.7549 24.5219V24.5219Z" fill="#7AAFFC"/>
<path d="M23.889 5.01369C36.6275 0.45854 47.014 12.6772 47.014 12.6772C48.8208 9.0637 48.4716 5.66375 47.438 2.91482C44.4209 1.06798 40.8739 0.00196838 37.0771 0.00196838C32.015 0.00196838 27.398 1.89747 23.8891 5.01369H23.889Z" fill="#E51F20"/>
<path d="M56.9506 19.8755C56.9506 18.2981 56.7612 16.7658 56.4141 15.2943C51.9871 12.1086 47.092 12.99 47.092 12.99C47.092 12.99 53.7408 20.9977 54.139 30.0667C55.9231 27.0867 56.9506 23.6015 56.9506 19.8755Z" fill="#FFC154"/>
<path d="M48.6427 10.6826C49.928 12.2412 49.8654 14.4154 48.5025 15.5394C47.1398 16.663 44.9933 16.3106 43.708 14.7519C42.4227 13.1934 42.4853 11.0191 43.8482 9.8951C45.2109 8.77121 47.3574 9.12377 48.6427 10.6826Z" fill="#DCEAF7"/>
<path d="M47.9553 10.7101C48.6437 11.2514 48.9305 12.0355 48.5957 12.4612C48.2608 12.8868 47.4314 12.7931 46.7429 12.2518C46.0545 11.7105 45.7677 10.9264 46.1026 10.5007C46.4374 10.0751 47.2669 10.1688 47.9553 10.7101Z" fill="white"/>
<path d="M53.7236 26.739C53.9422 27.822 54.0891 28.9344 54.1387 30.0636C54.2502 29.8774 54.3603 29.6905 54.4656 29.5003C54.4664 29.4988 54.4671 29.4974 54.468 29.4959C54.5847 29.2854 54.6967 29.0723 54.806 28.8574C54.8362 28.7979 54.865 28.7377 54.8945 28.6781C54.974 28.5176 55.0521 28.356 55.1275 28.193C55.1584 28.1259 55.1884 28.0583 55.2188 27.9909C55.292 27.8277 55.3632 27.6632 55.4318 27.4976C55.4574 27.4364 55.4828 27.3751 55.5079 27.3134C55.584 27.1251 55.6571 26.9352 55.7277 26.7441C55.7417 26.7061 55.7565 26.6682 55.7703 26.63C55.8556 26.3936 55.9371 26.1557 56.0137 25.9154C55.2309 26.2281 54.4694 26.499 53.7236 26.739Z" fill="#F29538"/>
<path d="M25.189 14.5658C22.2776 16.618 19.6455 19.7714 17.7549 24.5218C17.8134 24.7658 17.8769 25.0082 17.9443 25.2485C17.9495 25.2668 17.9547 25.2853 17.9599 25.3035C18.2361 26.2784 18.5848 27.2227 18.9998 28.1304C19.0054 28.1425 19.0107 28.1547 19.0164 28.1668C19.1173 28.3866 19.2224 28.6038 19.3312 28.8194C19.3404 28.8376 19.3497 28.8555 19.3589 28.8736C19.8012 29.7432 20.3059 30.5752 20.8665 31.3653C20.8923 31.4015 20.9179 31.4379 20.9438 31.4741C21.0719 31.6521 21.2028 31.8282 21.3367 32.002C21.3631 32.036 21.3898 32.0694 21.4165 32.1034C21.8381 32.643 22.2873 33.1599 22.7614 33.6526C22.7968 33.6894 22.8311 33.7268 22.8667 33.7633C23.0046 33.9044 23.1453 34.0425 23.2872 34.1792C23.3471 34.237 23.4071 34.2944 23.4677 34.3514C23.6067 34.482 23.7466 34.6115 23.8892 34.7379C23.9494 34.7915 24.011 34.8436 24.072 34.8964C24.5376 35.2999 25.0222 35.6821 25.524 36.0415C25.6111 36.1038 25.698 36.1669 25.7862 36.2279C25.9243 36.3234 26.0643 36.4167 26.2048 36.5088C26.3038 36.5737 26.4039 36.6374 26.5043 36.7008C26.6429 36.7882 26.7818 36.8751 26.9226 36.9591C27.0311 37.0238 27.1415 37.0856 27.2511 37.1479C27.4816 37.2794 27.715 37.4061 27.9511 37.5287C28.0839 37.5975 28.216 37.6674 28.3505 37.7334C28.4847 37.7991 28.6209 37.861 28.7567 37.9238C28.8848 37.9829 29.0131 38.0418 29.1428 38.0984C29.2796 38.1581 29.4171 38.2158 29.5556 38.2726C29.6905 38.3278 29.8265 38.3809 29.963 38.4332C30.0979 38.4849 30.2326 38.5373 30.3689 38.5863C30.5373 38.6468 30.7079 38.7028 30.8787 38.7588C31.072 38.8222 31.2667 38.8827 31.4624 38.9402C31.6341 38.9907 31.8057 39.0412 31.9792 39.0871C32.1138 39.1227 32.2499 39.155 32.3856 39.188C32.5396 39.2252 32.6941 39.2614 32.8494 39.2949C32.988 39.3251 33.1272 39.3541 33.2672 39.3813C33.4285 39.4127 33.5909 39.4407 33.7536 39.4682C33.8867 39.4906 34.0192 39.5144 34.1531 39.5342C34.4288 39.5749 34.706 39.6108 34.9854 39.6398C37.6931 37.3651 41.0413 33.6386 43.4626 27.898C34.8711 26.7976 29.5207 20.1455 25.1891 14.5661L25.189 14.5658Z" fill="#5C9EE0"/>
<path d="M10.9256 34.1978C-0.445874 36.0531 -0.0268165 46.6464 4.16249 46.7662C8.35171 46.8861 5.95786 39.8238 12.302 36.3523L10.9257 34.1977L10.9256 34.1978Z" fill="#C1814D"/>
<path d="M12.3021 36.3522L11.5168 35.1229C9.81993 35.6976 8.4348 36.9397 7.69382 38.6863C6.34785 41.8589 5.31005 46.8442 1.76013 44.7774C2.18636 45.947 3.03853 46.7339 4.1629 46.7662C8.35182 46.8857 5.95797 39.8234 12.3021 36.3523V36.3522Z" fill="#AA6F44"/>
<path d="M0.00308071 50.1027C0.242611 46.422 3.95305 45.8683 6.16757 47.2449C6.16757 47.2449 6.4071 43.2649 9.60892 42.6065C12.8108 41.9481 20.0527 47.8432 17.0602 53.948C17.0602 53.948 9.5556 58.9517 5.15013 57.8383C-0.296066 56.4615 0.00317765 50.1027 0.00317765 50.1027H0.00308071Z" fill="#C1814D"/>
<path d="M9.60892 42.6065C9.50481 42.6279 9.40429 42.6531 9.30658 42.6813C9.29737 42.6839 9.28865 42.6871 9.27963 42.69C9.27362 42.6918 9.268 42.694 9.26218 42.6955C9.17872 42.7206 9.0969 42.7473 9.018 42.777C9.01034 42.7799 9.00317 42.7834 8.9958 42.7862C8.90991 42.8192 8.82597 42.8546 8.74541 42.8927C8.74522 42.8927 8.74464 42.8929 8.74435 42.8933C8.65778 42.9342 8.57403 42.9778 8.49299 43.0239C7.13403 47.251 9.25006 53.7154 13.6134 55.9024C15.6113 54.9137 17.0602 53.9479 17.0602 53.9479C20.0527 47.843 12.8107 41.9479 9.60892 42.6063V42.6065Z" fill="#AA6F44"/>
<path d="M7.13319 57.3162C9.07894 56.1928 9.47133 53.2298 8.00962 50.6981C6.54791 48.1664 3.78562 47.0248 1.83987 48.1482C-0.105885 49.2716 -0.498277 52.2346 0.963433 54.7663C2.42514 57.298 5.18744 58.4396 7.13319 57.3162Z" fill="#D3945B"/>
<path d="M6.39194 51.68C7.33416 53.3117 7.08174 55.2211 5.82844 55.9447C4.57515 56.6682 2.7954 55.9321 1.85317 54.3003C0.910947 52.6686 1.16337 50.7592 2.41666 50.0356C3.67015 49.3121 5.45001 50.0482 6.39194 51.68Z" fill="#E5AC73"/>
<path d="M29.7664 34.1978C41.1379 36.0531 40.7188 46.6464 36.5295 46.7662C32.34 46.8858 34.7341 39.8238 28.39 36.3523L29.7663 34.1977L29.7664 34.1978Z" fill="#C1814D"/>
<path d="M28.3899 36.3522L29.1752 35.1229C30.8721 35.6976 32.2572 36.9397 32.9982 38.6863C34.3441 41.8589 35.3819 46.8442 38.9318 44.7774C38.5056 45.947 37.6534 46.7339 36.5291 46.7662C32.3401 46.8857 34.7339 39.8234 28.3899 36.3523V36.3522Z" fill="#AA6F44"/>
<path d="M40.6889 50.1026C40.4497 46.422 36.7389 45.8682 34.5244 47.2448C34.5244 47.2448 34.2852 43.2648 31.0831 42.6064C27.8811 41.948 20.6393 47.8431 23.6317 53.948C23.6317 53.948 31.1364 58.9517 35.5419 57.8383C40.988 56.4615 40.6888 50.1026 40.6888 50.1026H40.6889Z" fill="#C1814D"/>
<path d="M31.0832 42.6065C31.1873 42.6279 31.2878 42.6531 31.3855 42.6813C31.3947 42.6839 31.4035 42.6871 31.4125 42.69C31.4185 42.6918 31.4241 42.694 31.4299 42.6955C31.5134 42.7206 31.5952 42.7473 31.6741 42.777C31.6818 42.7799 31.6889 42.7834 31.6965 42.7862C31.7824 42.8192 31.8663 42.8546 31.9469 42.8927C31.9471 42.8927 31.9475 42.8929 31.948 42.8933C32.0345 42.9342 32.1183 42.9778 32.1993 43.0239C33.5583 47.251 31.4422 53.7154 27.0789 55.9024C25.081 54.9137 23.6321 53.9479 23.6321 53.9479C20.6394 47.843 27.8813 41.9479 31.0832 42.6063V42.6065Z" fill="#AA6F44"/>
<path d="M39.7242 54.772C41.1859 52.2403 40.7935 49.2773 38.8478 48.1539C36.902 47.0305 34.1397 48.1721 32.678 50.7038C31.2163 53.2355 31.6087 56.1985 33.5545 57.3219C35.5002 58.4453 38.2625 57.3037 39.7242 54.772Z" fill="#D3945B"/>
<path d="M34.3001 51.68C33.3578 53.3117 33.6103 55.2211 34.8636 55.9447C36.1169 56.6682 37.8966 55.9321 38.8388 54.3003C39.7811 52.6686 39.5286 50.7592 38.2753 50.0356C37.0219 49.3121 35.242 50.0482 34.3001 51.68Z" fill="#E5AC73"/>
<path d="M32.3169 44.8457C32.3169 52.4892 26.9338 54.307 20.2935 54.307C13.6532 54.307 8.27002 52.4891 8.27002 44.8457C8.27002 37.2021 13.6531 31.0057 20.2935 31.0057C26.9337 31.0057 32.3169 37.2021 32.3169 44.8457Z" fill="#C1814D"/>
<path d="M20.2932 31.0057C16.0012 31.0057 12.237 33.5963 10.1096 37.4913C14.9083 37.0097 24.6213 47.1694 30.2846 37.1454C28.1266 33.4431 24.4577 31.0057 20.2933 31.0057H20.2932Z" fill="#AA6F44"/>
<path d="M27.7255 44.6082C27.7255 49.3332 24.3979 50.4568 20.2932 50.4568C16.1885 50.4568 12.8608 49.3332 12.8608 44.6082C12.8608 39.8832 16.1884 36.0531 20.2932 36.0531C24.3978 36.0531 27.7255 39.8831 27.7255 44.6082Z" fill="#E5AC73"/>
<path d="M26.9265 40.7505C25.701 37.9642 23.1918 36.0529 20.2934 36.0529C18.1377 36.0529 16.1976 37.1102 14.8401 38.7974C18.6043 40.4645 23.143 42.868 26.9266 40.7505H26.9265Z" fill="#D3945B"/>
<path d="M29.8805 34.1885C29.3468 33.2947 28.1894 33.0023 27.2955 33.5365C20.0528 37.8614 13.6211 33.7649 13.3417 33.5823C12.4764 33.0103 11.3098 33.245 10.7335 34.1094C10.1559 34.9758 10.3899 36.1462 11.2564 36.7237C11.4869 36.8773 15.1939 39.29 20.381 39.29C23.0326 39.29 26.0713 38.6591 29.2284 36.7736C30.1223 36.2402 30.414 35.0828 29.8804 34.1886L29.8805 34.1885Z" fill="#E51F20"/>
<path d="M29.5448 34.7653C26.2759 36.9598 23.1297 37.6941 20.3845 37.6941C15.0138 37.6941 11.1756 34.886 10.9372 34.7072C10.8067 34.6095 10.6918 34.4957 10.5896 34.3719C10.2099 35.1995 10.4748 36.2026 11.2565 36.7238C11.487 36.8774 15.194 39.2901 20.3811 39.2901C23.0327 39.2901 26.0714 38.6592 29.2285 36.7737C30.0627 36.2757 30.3723 35.2347 29.9761 34.3714C29.8522 34.5214 29.7088 34.6552 29.5449 34.7653H29.5448Z" fill="#A01F5D"/>
<path d="M24.7308 35.8935C28.9203 36.3123 25.6287 45.1103 25.6287 45.1103C25.6287 45.1103 30.1773 46.5466 31.7932 42.5966C31.7932 42.5966 32.3717 36.8312 27.7832 34.6766L24.7308 35.8935Z" fill="#E51F20"/>
<path d="M31.6249 27.1755C31.6249 33.4337 26.5516 36.7514 20.2933 36.7514C14.035 36.7514 8.96167 33.4337 8.96167 27.1755C8.96167 20.9172 14.0349 15.8439 20.2933 15.8439C26.5515 15.8439 31.6249 20.9172 31.6249 27.1755Z" fill="#C1814D"/>
<path d="M31.5705 28.2637C24.0527 34.4571 14.6407 24.9816 8.96761 26.9502C8.96606 27.0255 8.96179 27.0998 8.96179 27.1754C8.96179 33.4336 14.0351 36.7513 20.2934 36.7513C26.1781 36.7512 31.0138 33.8169 31.5705 28.2636V28.2637Z" fill="#AA6F44"/>
<path d="M16.7621 24.7415C16.7621 25.5677 16.0922 26.2377 15.2659 26.2377C14.4396 26.2377 13.7697 25.5677 13.7697 24.7415C13.7697 23.9152 14.4396 23.2452 15.2659 23.2452C16.0922 23.2452 16.7621 23.9152 16.7621 24.7415Z" fill="#5E4634"/>
<path d="M16.2164 24.5263C16.073 24.6866 15.7593 24.6401 15.5156 24.4222C15.2718 24.2044 15.1904 23.8977 15.3339 23.7375C15.4774 23.5772 15.7911 23.6237 16.0348 23.8416C16.2785 24.0592 16.3598 24.3657 16.2164 24.5263Z" fill="#7C5D42"/>
<path d="M26.8169 24.7415C26.8169 25.5678 26.147 26.2377 25.3207 26.2377C24.4944 26.2377 23.8245 25.5678 23.8245 24.7415C23.8245 23.9152 24.4944 23.2452 25.3207 23.2452C26.147 23.2452 26.8169 23.9152 26.8169 24.7415Z" fill="#5E4634"/>
<path d="M26.2712 24.5263C26.1278 24.6866 25.8141 24.6401 25.5704 24.4222C25.3266 24.2044 25.2452 23.8977 25.3887 23.7375C25.5322 23.5772 25.8459 23.6237 26.0896 23.8416C26.3333 24.0592 26.4143 24.3657 26.2712 24.5263Z" fill="#7C5D42"/>
<path d="M13.0202 14.7976C14.7525 16.5299 14.7525 19.3385 13.0202 21.0709C11.288 22.8031 8.47932 22.8031 6.74697 21.0709C5.01471 19.3386 5.86814 17.3834 7.6004 15.6511C9.33266 13.9189 11.2879 13.0654 13.0201 14.7977L13.0202 14.7976Z" fill="#C1814D"/>
<path d="M12.0167 16.1173C13.1075 17.2081 13.1075 18.9766 12.0167 20.0672C10.9259 21.1581 9.15736 21.1581 8.06673 20.0672C6.9759 18.9764 7.51322 17.7453 8.60405 16.6547C9.69478 15.5637 10.9259 15.0263 12.0167 16.1173Z" fill="#E5AC73"/>
<path d="M27.5663 14.7977C25.834 16.5299 25.834 19.3386 27.5663 21.0709C29.2985 22.8032 32.1072 22.8032 33.8395 21.0709C35.5718 19.3387 34.7184 17.3834 32.9861 15.6512C31.2538 13.9189 29.2986 13.0654 27.5664 14.7978L27.5663 14.7977Z" fill="#C1814D"/>
<path d="M28.5701 16.1173C27.4792 17.2081 27.4792 18.9766 28.5701 20.0673C29.6609 21.1581 31.4294 21.1581 32.52 20.0673C33.6109 18.9765 33.0736 17.7454 31.9827 16.6547C30.8918 15.5638 29.6607 15.0264 28.5701 16.1173Z" fill="#E5AC73"/>
<path d="M25.6397 29.4689C25.6397 31.8814 23.2462 33.1603 20.2935 33.1603C17.3409 33.1603 14.9474 31.8814 14.9474 29.4689C14.9474 27.0563 17.3408 25.1006 20.2935 25.1006C23.2458 25.1006 25.6397 27.0563 25.6397 29.4689Z" fill="#E5AC73"/>
<path d="M22.5589 27.2169C22.5589 27.8679 21.5446 28.2131 20.2935 28.2131C19.0423 28.2131 18.0281 27.868 18.0281 27.2169C18.0281 26.566 19.0423 26.0384 20.2935 26.0384C21.5446 26.0384 22.5589 26.566 22.5589 27.2169Z" fill="#7C5D42"/>
<path d="M22.5589 27.2169C22.5589 27.8679 21.5446 28.2131 20.2935 28.2131C19.0423 28.2131 18.0281 27.868 18.0281 27.2169C18.0281 26.566 19.0423 26.0384 20.2935 26.0384C21.5446 26.0384 22.5589 26.566 22.5589 27.2169Z" fill="#5E4634"/>
<path d="M21.9977 26.7855C21.9977 27.275 21.2348 27.5346 20.2933 27.5346C19.352 27.5346 18.589 27.275 18.589 26.7855C18.589 26.296 19.3519 25.8987 20.2933 25.8987C21.2347 25.8987 21.9977 26.2956 21.9977 26.7855Z" fill="#7C5D42"/>
<path d="M20.2935 27.794V29.8288" stroke="#5E4634" stroke-width="1.41832" stroke-miterlimit="22.9256"/>
<path d="M17.8085 29.7391C18.6762 31.3401 20.2324 30.4972 20.2923 29.749" stroke="#5E4634" stroke-width="1.41832" stroke-miterlimit="22.9256"/>
<path d="M22.7861 29.7391C21.9183 31.3401 20.3622 30.4972 20.3022 29.749" stroke="#5E4634" stroke-width="1.41832" stroke-miterlimit="22.9256"/>
</g>
<defs>
<clipPath id="clip0_18_983">
<rect width="56.9552" height="58" fill="white"/>
</clipPath>
</defs>
</svg>
